<svg xmlns="http://www.w3.org/2000/svg" viewBox="0 0 100 100">
  <title>profile_11</title>
  <g style="isolation: isolate">
    <g id="ed094c87-849e-486a-b63f-7ac114538bac" data-name="layer 1">
      <g>
        <circle cx="55.27" cy="50" r="37.61" fill="#2fb5eb"/>
        <path d="M69.1,54.17A6.6,6.6,0,0,0,67.54,54a19.3,19.3,0,0,0,.34-4.1,6.79,6.79,0,0,0-1.67-4.08,11.93,11.93,0,0,0-1.88-8.25c1.6.8,4.57,2.31,5.76,2.89,1.33.74,3.32,1.53,4.58.2,1.91-2.37,3.23-6.43.7-8.85a5.59,5.59,0,0,0-.82-.55,4.9,4.9,0,0,0,1.59-.85c1.77-1.58,1.45-4.37.93-6.44-.79-3.67-5-3-7.72-2.31a23.58,23.58,0,0,0-3.78,1.25c-1.64-5.86-5.22-4.09-9-1a21.57,21.57,0,0,0-6.76,9.54,24.79,24.79,0,0,0-13.37,6.36,15.31,15.31,0,0,0-4,2.65c-3,3.06-3.76,7.66-4,11.77-.1,2.5-.07,6.75,3.3,6.89A74.12,74.12,0,0,0,40,77.58c.1.15.21.3.3.45l.18.27c1.29,2,2.51,4.07,4.54,5.42a8.42,8.42,0,0,0,6.53.34l.32-.11a17,17,0,0,0,7.25-5.21,19.16,19.16,0,0,0,1.66-2.38c.13-.21.25-.42.36-.64a23.27,23.27,0,0,0,2-5c0-.13.07-.26.11-.38a37.89,37.89,0,0,0,1.13-6.14l.31.19A6.39,6.39,0,0,0,72,63.49C75.24,60.57,73.06,55.11,69.1,54.17Z" fill="#480973"/>
        <g>
          <path d="M78.65,19.24c1.62,1.57,2.07,6.29.27,7.83a5.2,5.2,0,0,1-1.76.92,13,13,0,0,0-5.64-.79,16.1,16.1,0,0,0-8.66,3.09,14.17,14.17,0,0,0-4.08-1.65,22.08,22.08,0,0,1,5.77-6,22.68,22.68,0,0,1,7.93-3.54C74.49,18.67,76.89,17.92,78.65,19.24Z" fill="#7229ab"/>
          <path d="M78.07,29.09c2.27,2.2,1,6-.7,8.19-1.14,1.17-2.83.38-4.07-.26S68.39,34.63,67,34h0c-.16-.22-.34-.45-.51-.66a15.33,15.33,0,0,0-3.28-2.82,16.2,16.2,0,0,1,8.37-2.84C73.74,27.61,76.29,27.66,78.07,29.09Z" fill="#7229ab"/>
          <path d="M72,51.57c3.61.86,5.61,5.89,2.68,8.57a5.88,5.88,0,0,1-9.27-1.69.15.15,0,0,0-.21-.08.17.17,0,0,0-.08.21,5.92,5.92,0,0,0,2,2.45,39,39,0,0,1-1.28,6.52c-.11.36-.23.71-.35,1.07a22.14,22.14,0,0,1-1.69,3.87,17.94,17.94,0,0,1-2,3c-3,3.7-8.79,7.2-13.52,4.85a9.92,9.92,0,0,1-2.68-2.72c-.61-.86-1.21-1.75-1.79-2.64a75.11,75.11,0,0,1-9.51-22.25v0a7.61,7.61,0,0,1,.46-4c2.82-7.21,18.35-6.43,24-3.26a16.21,16.21,0,0,1,7.4,7.15,3.88,3.88,0,0,0-.73,1.27c0,.19.25.3.31.09C66.62,51.56,69.79,51,72,51.57Zm1.53,4.65a.17.17,0,0,0,.31-.12,3.55,3.55,0,0,0-6.73.18.16.16,0,0,0,.31.1,3.25,3.25,0,0,1,3.32-2.13,1.63,1.63,0,0,1,.9,2.16,3.51,3.51,0,0,1-2.48,1.77.16.16,0,0,0,.06.32,3.5,3.5,0,0,0,2.87-1.91,1.92,1.92,0,0,0-.38-2.14A3.16,3.16,0,0,1,73.53,56.22ZM59.45,56a.17.17,0,0,0,.32-.08.9.9,0,0,0-.94-.65,1.51,1.51,0,0,0,0-.3,1.82,1.82,0,0,0-.53-1.23,1.62,1.62,0,0,0-1.78-.27c-1.33.67-.8,2.37.16,3a6.15,6.15,0,0,0-.61.76c-.13.16.11.35.24.21C56.92,56.93,58.72,55,59.45,56ZM58.07,66.75a3.89,3.89,0,0,0-.35-3.09,2.06,2.06,0,0,0-2.94-.38,25.5,25.5,0,0,0-2,2.33c-.66.68-1.76.79-2.62,1.47a1.9,1.9,0,0,0-.77,1.46c.06,1.85,2.52,2.18,3.94,1.94C55.38,70.11,57.57,68.86,58.07,66.75Zm-.73-16.64A1.17,1.17,0,0,0,58,48.89c-.45-.81-1.53-.75-2.29-1s-2.15.17-1.81,1.29C54.39,50.53,56.22,50.69,57.34,50.11ZM41.83,61.75a.17.17,0,0,0,0-.22c-.27-.17-.53-.35-.8-.5.32-.92-.11-2.55-1.31-2.67a1,1,0,0,0-1.08.87,2.06,2.06,0,0,0,.21,1.27,1.56,1.56,0,0,0,.16.28.67.67,0,0,0-.37.92.16.16,0,0,0,.31-.09c0-1.14,2.17,0,2.72.2A.18.18,0,0,0,41.83,61.75Zm-4.93-6c1,.8,2.36-.32,2.29-1.46s-1.8-2-2.21-.54C36.79,54.31,36.34,55.17,36.9,55.72Z" fill="#ec2872"/>
          <path d="M70.23,50.94a5.63,5.63,0,0,0-3.81,1.38A16.22,16.22,0,0,0,59,45c-7.19-4-26.8-4-25,7.6a.41.41,0,0,0,0,.11c0,.13.06.25.1.39s0,.13,0,.21.08.36.13.55a.08.08,0,0,0,0,0c.15.59.31,1.17.47,1.76a2.61,2.61,0,0,1-2.2-1.52h0c-.72-1.43-.65-3.55-.59-5,.23-4,1-8.5,3.88-11.46a14.37,14.37,0,0,1,3.64-2.45,21.86,21.86,0,0,1,7.68-2,24.56,24.56,0,0,1,13,2.87,30.51,30.51,0,0,1,8.9,7C70.94,45.33,70.65,48.27,70.23,50.94Z" fill="#ffc919"/>
          <path d="M69,42.41a24.05,24.05,0,0,0-2.58-2.48,30.07,30.07,0,0,0-5.81-4A24.9,24.9,0,0,0,47.11,32.8a23.45,23.45,0,0,0-6.49,1.44A27.67,27.67,0,0,1,47.94,30a18,18,0,0,1,12-.49,13.45,13.45,0,0,1,6.2,4.07A12,12,0,0,1,69,42.41Z" fill="#ffc919"/>
          <path d="M68.28,20a22.72,22.72,0,0,0-4,2.27,21.55,21.55,0,0,0-5.87,6.31,16.56,16.56,0,0,0-5.22-.25c.27-.67.56-1.33.88-2a22,22,0,0,1,5.82-7.15c3.23-2.6,6.15-4.46,7.92-.44A10.74,10.74,0,0,1,68.28,20Z" fill="#7229ab"/>
          <path d="M57.43,63.87a3.56,3.56,0,0,1,.25,2.78c-.5,1.94-2.55,3-4.39,3.35-1.18.16-3.31.07-3.42-1.46C50,66.85,52,67,53.08,65.87A27.92,27.92,0,0,1,55,63.53,1.72,1.72,0,0,1,57.43,63.87Zm-.65,2.23c.38,0,.19-.63,0-.81A1.46,1.46,0,0,0,55,65.06a.16.16,0,0,0,.08.31,5.64,5.64,0,0,1,.79,0,4.46,4.46,0,0,1-3.92,3,.16.16,0,0,0,0,.32,4.2,4.2,0,0,0,4.27-3.21.73.73,0,0,1,.41.51A.17.17,0,0,0,56.78,66.1Z" fill="#ffc919"/>
          <path d="M57.6,49c0,.71-.93.92-1.53.92s-1.53-.2-1.79-.84c-.3-.82.72-1.05,1.33-.87S57.28,48.46,57.6,49Z" fill="#7229ab"/>
          <path d="M38.46,53.56a1.2,1.2,0,0,1,0,1.47,1,1,0,0,1-1.31.38c-.4-.38,0-1.1.12-1.6A.64.64,0,0,1,38.46,53.56Z" fill="#7229ab"/>
          <path d="M67.83,18.76A9.32,9.32,0,0,1,66,20.2l-9.41,6c-1,.65-2,.67-2.52.12a22,22,0,0,1,5.82-7.15C63.14,16.6,66.06,14.74,67.83,18.76Z" fill="#b235db"/>
          <path d="M61.3,25.41c-.3.43-.46.84-.28,1.17a1.38,1.38,0,0,0,1.28.62,4.27,4.27,0,0,0,1.42-.41A30.4,30.4,0,0,1,75.5,24.66a5.79,5.79,0,0,0,2.78-.37,2.89,2.89,0,0,0,1.34-3.21A3.51,3.51,0,0,0,77,18.63c-2.21-.51-5,.36-7.1,1.1A21.78,21.78,0,0,0,65,22.23,15,15,0,0,0,61.3,25.41Z" fill="#b235db"/>
          <path d="M65.29,30.05a1.81,1.81,0,0,0,1.18.61l9.66,2.17a5.81,5.81,0,0,0,1.49.2,1.84,1.84,0,0,0,1.34-.6,2.1,2.1,0,0,0,0-2.32,5.08,5.08,0,0,0-2.8-2.24,9.78,9.78,0,0,0-3.61-.45C71.61,27.45,64.17,28.33,65.29,30.05Z" fill="#b235db"/>
          <path d="M54.41,81c5.53-2.8,8.7-9,9.47-15.14s-.47-12.36-1.7-18.44a22.13,22.13,0,0,1,4.11,5A5.33,5.33,0,0,0,65.5,56c.13,1.1.37,2.55,1.6,2.9a3.77,3.77,0,0,1,4.44-4.86,2.78,2.78,0,0,1,1.89,4.15c-.13.24-.3.53-.14.75s.45.17.68.1a4.58,4.58,0,0,0,2.37-1.73,4.52,4.52,0,0,0-.16.86,4.67,4.67,0,0,1-.38.89,6,6,0,0,1-.94,1.34A5.71,5.71,0,0,1,71.39,62a5.88,5.88,0,0,1-4.15-1.27C66.72,65,65.76,69.35,63.55,73A20.26,20.26,0,0,1,54.41,81Z" fill="#a80a64"/>
          <path d="M60.13,36.16a29.36,29.36,0,0,1-1.62,7.43c-3.9-1.17-7.95-2.36-12-2.23s-8.24,1.5-11.05,4.46a10.77,10.77,0,0,0-2.9,8.36c-.72-1.43-.65-3.55-.59-5,.23-4,1-8.5,3.88-11.46a14.37,14.37,0,0,1,3.64-2.45,21.86,21.86,0,0,1,7.68-2A24.56,24.56,0,0,1,60.13,36.16Z" fill="#fff7c7" style="mix-blend-mode: overlay"/>
          <path d="M62.86,34.09a2.41,2.41,0,0,1-2.3,1.79A24.9,24.9,0,0,0,47.11,32.8a23.45,23.45,0,0,0-6.49,1.44A27.67,27.67,0,0,1,47.94,30a18,18,0,0,1,12-.49,6.54,6.54,0,0,1,1.92,1.31A3.6,3.6,0,0,1,62.86,34.09Z" fill="#fff7c7" style="mix-blend-mode: overlay"/>
          <g>
            <path d="M80.09,20.91c.51,2.07.83,4.86-.94,6.44a5.1,5.1,0,0,1-1.59.85,3.84,3.84,0,0,0-.4-.21,5.2,5.2,0,0,0,1.76-.92c1.8-1.54,1.35-6.26-.27-7.83-1.76-1.32-4.16-.57-6.17-.17a22.68,22.68,0,0,0-7.93,3.54,22.08,22.08,0,0,0-5.77,6l-.35-.07a21.55,21.55,0,0,1,5.87-6.31,22.72,22.72,0,0,1,4-2.27l.06.19c.06.19.37.1.31-.09s-.05-.16-.07-.24a23.91,23.91,0,0,1,3.78-1.25C75.09,17.89,79.29,17.23,80.09,20.91Z" fill="#480973"/>
            <path d="M78.39,28.74c2.53,2.42,1.2,6.48-.7,8.86-1.26,1.33-3.26.54-4.58-.2-1.19-.58-4.16-2.09-5.76-2.9-.13-.18-.25-.37-.39-.55h0c1.4.67,5,2.39,6.31,3.06s2.93,1.43,4.07.26c1.7-2.17,3-6,.7-8.19-1.78-1.43-4.33-1.48-6.53-1.46a16.2,16.2,0,0,0-8.37,2.84l-.31-.18a16.1,16.1,0,0,1,8.66-3.09,13,13,0,0,1,5.64.79L77,28a.16.16,0,0,0-.11.2.16.16,0,0,0,.2.11l.44-.14A6.2,6.2,0,0,1,78.39,28.74Z" fill="#480973"/>
            <path d="M77.56,28.2l-.44.14a.16.16,0,0,1-.2-.11A.16.16,0,0,1,77,28l.13,0A3.84,3.84,0,0,1,77.56,28.2Z" fill="#480973"/>
            <path d="M72.11,51.15c4,.94,6.14,6.41,2.9,9.33a6.38,6.38,0,0,1-7.3.93,1.83,1.83,0,0,1-.3-.18c0-.08,0-.16,0-.24a.16.16,0,0,0-.14-.17.16.16,0,0,0-.18.14s0,0,0,.07a5.92,5.92,0,0,1-2-2.45.17.17,0,0,1,.08-.21.15.15,0,0,1,.21.08,5.88,5.88,0,0,0,9.27,1.69c2.93-2.68.93-7.71-2.68-8.57-2.21-.61-5.38,0-6.24,2.36-.06.21-.36.1-.31-.09a3.88,3.88,0,0,1,.73-1.27l0,.08a.16.16,0,0,0,.21.07.15.15,0,0,0,.08-.21,1.63,1.63,0,0,0-.09-.19,5.63,5.63,0,0,1,3.81-1.38s0,0,0,0a.16.16,0,1,0,.32.05s0-.06,0-.09A6.6,6.6,0,0,1,72.11,51.15Z" fill="#480973"/>
            <path d="M73.84,56.1a.17.17,0,0,1-.31.12,3.16,3.16,0,0,0-1.82-1.77,1.92,1.92,0,0,0-1.29-.63.16.16,0,0,0,0,.32,1.58,1.58,0,0,1,.37.11,3.25,3.25,0,0,0-3.32,2.13.16.16,0,0,1-.31-.1A3.55,3.55,0,0,1,73.84,56.1Z" fill="#480973"/>
            <path d="M71.71,54.45a1.92,1.92,0,0,1,.38,2.14,3.5,3.5,0,0,1-2.87,1.91.16.16,0,0,1-.06-.32,3.51,3.51,0,0,0,2.48-1.77,1.63,1.63,0,0,0-.9-2.16A3.23,3.23,0,0,1,71.71,54.45Z" fill="#480973"/>
            <path d="M70.89,46.84a18.67,18.67,0,0,1-.34,4.1h-.32c.42-2.67.71-5.61-1.2-7.79C63.63,37,55.47,32.71,47.15,33.29a21.86,21.86,0,0,0-7.68,2l0-.05,0,0c.37-.31.75-.62,1.13-.91a23.45,23.45,0,0,1,6.49-1.44c7.1-.49,14,2.5,19.26,7.13A24.05,24.05,0,0,1,69,42.41c0,.11,0,.21,0,.32a.17.17,0,0,0,.13.18.17.17,0,0,0,.19-.14h0A6.78,6.78,0,0,1,70.89,46.84Z" fill="#480973"/>
            <path d="M71.71,54.45a3.23,3.23,0,0,0-1-.2,1.58,1.58,0,0,0-.37-.11.16.16,0,0,1,0-.32A1.92,1.92,0,0,1,71.71,54.45Z" fill="#480973"/>
            <path d="M70.55,50.94s0,.06,0,.09a.16.16,0,1,1-.32-.05s0,0,0,0Z" fill="#480973"/>
            <path d="M67.35,34.5a12,12,0,0,1,1.88,8.26L69,42.41a12,12,0,0,0-2.84-8.84c-4.38-5.16-12.1-6-18.17-3.58a27.67,27.67,0,0,0-7.32,4.25c-.38.14-.76.31-1.13.48a24.79,24.79,0,0,1,13.36-6.36h0c-.08.2.23.29.3.1l.06-.15a16.56,16.56,0,0,1,5.22.25,1.57,1.57,0,0,0-.12.19c-.12.17.18.34.27.16a2.43,2.43,0,0,1,.2-.28,14.17,14.17,0,0,1,4.08,1.65l-.12.08c-.17.12,0,.38.2.26l.23-.16a15.33,15.33,0,0,1,3.28,2.82c.17.21.35.44.51.66a.15.15,0,0,0-.19.08.16.16,0,0,0,.07.22Z" fill="#480973"/>
            <path d="M69.23,42.76h0a.17.17,0,0,1-.19.14.17.17,0,0,1-.13-.18c0-.11,0-.21,0-.32Z" fill="#480973"/>
            <path d="M68.65,20.09c.06.19-.25.28-.31.09L68.28,20l.3-.14C68.6,19.93,68.63,20,68.65,20.09Z" fill="#480973"/>
            <path d="M68.58,19.85l-.3.14c-1.69-5.58-4.85-3.63-8.37-.79a22,22,0,0,0-6.7,9.12,2.2,2.2,0,0,0-.36,0,21.65,21.65,0,0,1,6.76-9.54C63.36,15.75,66.94,14,68.58,19.85Z" fill="#480973"/>
            <path d="M67.29,60.82a.16.16,0,0,1,.14.17c0,.08,0,.16,0,.24a3.28,3.28,0,0,1-.31-.2s0-.05,0-.07A.16.16,0,0,1,67.29,60.82Z" fill="#480973"/>
            <path d="M67.1,61a3.28,3.28,0,0,0,.31.2,38.91,38.91,0,0,1-1.14,6.13l-.31.12a.18.18,0,0,0-.1.09l0,0A39,39,0,0,0,67.1,61Z" fill="#480973"/>
            <path d="M67.35,34.5l-.51-.25a.16.16,0,0,1-.07-.22A.15.15,0,0,1,67,34C67.1,34.13,67.22,34.32,67.35,34.5Z" fill="#480973"/>
            <path d="M66.51,52.51a.15.15,0,0,1-.08.21.16.16,0,0,1-.21-.07l0-.08.24-.25A1.63,1.63,0,0,1,66.51,52.51Z" fill="#480973"/>
            <path d="M66,67.48l.31-.12c0,.13-.07.26-.11.39l-.09,0a.17.17,0,0,1-.21-.21A.18.18,0,0,1,66,67.48Z" fill="#480973"/>
            <path d="M66.42,52.32l-.24.25a16.21,16.21,0,0,0-7.4-7.15c-5.68-3.17-21.21-4-24,3.26a7.61,7.61,0,0,0-.46,4,.18.18,0,0,0-.2-.12.17.17,0,0,0-.11.09C32.18,41,51.79,41,59,45A16.22,16.22,0,0,1,66.42,52.32Z" fill="#480973"/>
            <path d="M66.07,67.78l.09,0a24,24,0,0,1-2,5V72.6a.17.17,0,0,0-.31-.08l-.06,0a22.14,22.14,0,0,0,1.69-3.87c.12-.36.24-.71.35-1.07l0,0A.17.17,0,0,0,66.07,67.78Z" fill="#480973"/>
            <path d="M64.15,72.6v.11c-.12.22-.23.43-.37.64,0-.26,0-.51,0-.76a.14.14,0,0,1,0-.07A.17.17,0,0,1,64.15,72.6Z" fill="#480973"/>
            <path d="M63.84,72.52a.14.14,0,0,0,0,.07c0,.25,0,.5,0,.76a18.84,18.84,0,0,1-1.66,2.38,16.83,16.83,0,0,1-7.24,5.2s0-.08,0-.13a.16.16,0,0,0-.32,0,1.48,1.48,0,0,1,0,.21A8.46,8.46,0,0,1,48,80.71c-2-1.35-3.25-3.44-4.54-5.42l.2-.11a.17.17,0,0,0,.07-.22l0,0c.58.89,1.18,1.78,1.79,2.64a9.92,9.92,0,0,0,2.68,2.72c4.73,2.35,10.49-1.15,13.52-4.85a17.94,17.94,0,0,0,2-3Z" fill="#480973"/>
            <path d="M62.86,30.29l.31.18-.23.16c-.17.12-.37-.14-.2-.26Z" fill="#480973"/>
            <path d="M59.77,56a.17.17,0,0,1-.32.08c-.73-1-2.53.89-3.12,1.45-.13.14-.37-.05-.24-.21a6.15,6.15,0,0,1,.61-.76l.18.12a4.15,4.15,0,0,1,1.49-1,1.58,1.58,0,0,1,.43-.1,1.46,1.46,0,0,0,0-.22A.9.9,0,0,1,59.77,56Z" fill="#480973"/>
            <path d="M58.85,55a1.51,1.51,0,0,1,0,.3h-.11a3.39,3.39,0,0,0-2,1.2c-1-.64-1.49-2.34-.16-3a1.62,1.62,0,0,1,1.78.27A1.82,1.82,0,0,1,58.85,55Z" fill="#480973"/>
            <path d="M58.83,55.31a1.46,1.46,0,0,1,0,.22,1.58,1.58,0,0,0-.43.1,4.15,4.15,0,0,0-1.49,1l-.18-.12a3.39,3.39,0,0,1,2-1.2Z" fill="#480973"/>
            <path d="M58.78,28.64a2.43,2.43,0,0,0-.2.28c-.09.18-.39,0-.27-.16a1.57,1.57,0,0,1,.12-.19Z" fill="#480973"/>
            <path d="M57.72,63.66a3.89,3.89,0,0,1,.35,3.09c-.5,2.11-2.69,3.36-4.7,3.73-1.42.24-3.88-.09-3.94-1.94a1.9,1.9,0,0,1,.77-1.46c.86-.68,2-.79,2.62-1.47a25.5,25.5,0,0,1,2-2.33A2.06,2.06,0,0,1,57.72,63.66Zm0,3a3.56,3.56,0,0,0-.25-2.78A1.72,1.72,0,0,0,55,63.53a27.92,27.92,0,0,0-1.91,2.34c-1,1.1-3.11,1-3.21,2.67.11,1.53,2.24,1.62,3.42,1.46C55.13,69.68,57.18,68.59,57.68,66.65Z" fill="#480973"/>
            <path d="M58,48.89a1.17,1.17,0,0,1-.64,1.22c-1.12.58-3,.42-3.46-.9-.34-1.12.94-1.57,1.81-1.29S57.53,48.08,58,48.89Zm-1.91,1c.6,0,1.51-.21,1.53-.92-.32-.56-1.36-.61-2-.79s-1.63.05-1.33.87C54.54,49.74,55.42,49.93,56.07,49.94Z" fill="#480973"/>
            <path d="M56.82,65.29c.15.18.34.82,0,.81a.17.17,0,0,1-.13-.16.73.73,0,0,0-.41-.51,1.31,1.31,0,0,0,.06-.27.16.16,0,0,0-.31-.08,1.25,1.25,0,0,1-.09.25,5.64,5.64,0,0,0-.79,0,.16.16,0,0,1-.08-.31A1.46,1.46,0,0,1,56.82,65.29Z" fill="#480973"/>
            <path d="M56,65.08a.16.16,0,0,1,.31.08,1.31,1.31,0,0,1-.06.27l-.13-.06-.21,0A1.25,1.25,0,0,0,56,65.08Z" fill="#480973"/>
            <path d="M56.11,65.37l.13.06A4.2,4.2,0,0,1,52,68.64a.16.16,0,0,1,0-.32,4.46,4.46,0,0,0,3.92-3Z" fill="#480973"/>
            <path d="M54.86,80.8s0,.09,0,.13a2.13,2.13,0,0,1-.33.11,1.48,1.48,0,0,0,0-.21A.16.16,0,0,1,54.86,80.8Z" fill="#480973"/>
            <path d="M53.21,28.32l-.06.15c-.07.19-.38.1-.3-.1h0A2.2,2.2,0,0,1,53.21,28.32Z" fill="#480973"/>
            <path d="M43.8,74.93l0,0a.18.18,0,0,0-.23-.06L43.3,75c-.09-.16-.2-.31-.3-.46A74.62,74.62,0,0,1,34.84,56h.07c.19,0,.19-.34,0-.32h-.15c-.16-.59-.32-1.17-.47-1.76.09.13.35,0,.28-.14a8.66,8.66,0,0,1-.26-1.12A75.11,75.11,0,0,0,43.8,74.93Z" fill="#480973"/>
            <path d="M43.75,75a.17.17,0,0,1-.07.22l-.2.11A1.27,1.27,0,0,0,43.3,75l.22-.12A.18.18,0,0,1,43.75,75Z" fill="#480973"/>
            <path d="M41.78,61.53a.17.17,0,0,1,0,.22.18.18,0,0,1-.21.06c-.55-.22-2.71-1.34-2.72-.2a.16.16,0,0,1-.31.09.67.67,0,0,1,.37-.92.66.66,0,0,0,.12.17,1.28,1.28,0,0,1,.34-.07,3.38,3.38,0,0,1,1.47.36A2.2,2.2,0,0,0,41,61C41.25,61.18,41.51,61.36,41.78,61.53Z" fill="#480973"/>
            <path d="M39.67,58.36c1.2.12,1.63,1.75,1.31,2.67a5.25,5.25,0,0,0-.89-.33,1.63,1.63,0,0,0-1.13.08,1.56,1.56,0,0,1-.16-.28,2.06,2.06,0,0,1-.21-1.27A1,1,0,0,1,39.67,58.36Z" fill="#480973"/>
            <path d="M41,61a2.2,2.2,0,0,1-.09.21,3.38,3.38,0,0,0-1.47-.36,1.28,1.28,0,0,0-.34.07.66.66,0,0,1-.12-.17,1.63,1.63,0,0,1,1.13-.08A5.25,5.25,0,0,1,41,61Z" fill="#480973"/>
            <path d="M40.62,34.24c-.38.29-.76.6-1.13.91l0,0a.17.17,0,0,1-.17-.29l.21-.18C39.86,34.55,40.24,34.38,40.62,34.24Z" fill="#480973"/>
            <path d="M39.49,34.72l-.21.18a.17.17,0,0,0,.17.29l0,.05a14.37,14.37,0,0,0-3.64,2.45c-2.92,3-3.65,7.45-3.88,11.46-.09,2.34-.23,6.26,2.79,6.55l.1.33c-3.37-.14-3.4-4.39-3.29-6.89.21-4.11,1-8.72,4-11.77A14.9,14.9,0,0,1,39.49,34.72Z" fill="#480973"/>
            <path d="M39.19,54.26c.07,1.14-1.27,2.26-2.29,1.46-.56-.55-.11-1.41.08-2C37.39,52.24,39.19,53,39.19,54.26Zm-.71.77a1.2,1.2,0,0,0,0-1.47.64.64,0,0,0-1.17.25c-.14.5-.52,1.22-.12,1.6A1,1,0,0,0,38.48,55Z" fill="#480973"/>
            <path d="M34.89,55.71c.21,0,.21.32,0,.32h-.07l-.1-.33Z" fill="#480973"/>
            <path d="M34.55,53.8c.07.17-.19.27-.28.14l-.15-.6c0-.08,0-.15,0-.21s-.06-.33-.09-.5a.17.17,0,0,1,.11-.09.18.18,0,0,1,.2.12v0A8.66,8.66,0,0,0,34.55,53.8Z" fill="#480973"/>
            <path d="M34.12,53.34l.15.6a.08.08,0,0,1,0,0C34.2,53.7,34.15,53.52,34.12,53.34Z" fill="#480973"/>
            <path d="M34.07,53.13c0-.14-.06-.26-.1-.39a.41.41,0,0,1,0-.11C34,52.8,34,53,34.07,53.13Z" fill="#480973"/>
          </g>
        </g>
      </g>
    </g>
  </g>
</svg>
