<svg id="f97c8624-a2de-4027-86f9-30f92e11efa9" data-name="layer 1" xmlns="http://www.w3.org/2000/svg" viewBox="0 0 100 100">
  <title>profile_5</title>
  <g>
    <circle cx="50" cy="50" r="37.61" transform="translate(-8.58 10.4) rotate(-10.94)" fill="#2fb5eb"/>
    <path d="M63.75,55.07a21.66,21.66,0,0,0-3.18-6.94c3.18.45,5.9-2.06,7.4-4.63a20.48,20.48,0,0,0,2.88-13.74c-.17-1.16-.39-2.58-1.46-3.32s-2.46-.43-3.62-.25A15.47,15.47,0,0,0,59.26,29a.19.19,0,0,0-.06.13c-.73-2.2-2-4.3-4.32-4.83-3.18-.29-6.23,1.4-8.8,3.06a39,39,0,0,0-4.77,3.9c-1.23-2.32-3.42-5.37-5.82-3.5a17.87,17.87,0,0,0-5,7.3,29.75,29.75,0,0,0-1.56,5.43,6.72,6.72,0,0,0-7.09-2.65A7,7,0,0,0,18,40.94c-1.92,2.72-2.47,6.82.19,9.26A7,7,0,0,0,23.36,52c-2.61,3-5.45,6.53-4.93,10.73a11.69,11.69,0,0,0,3.24,6.58l.28.3a25.35,25.35,0,0,0,3.39,2.93c9.44,6.7,22,10.49,33.45,8a1.94,1.94,0,0,0,.33-.07l1-.25A23.69,23.69,0,0,0,72.54,71.6c.88-1.24,1.9-2.57,2-4.17s-1-3-1.9-4.2A37.07,37.07,0,0,0,63.75,55.07Z" fill="#480973"/>
    <g>
      <path d="M19.91,44a5.34,5.34,0,0,0,1.55,2.83c2.37,2.31,6.11,2.05,9,.92a.16.16,0,0,1,.11.3c-.26.11-.52.21-.8.3a22.07,22.07,0,0,0,2.54,2.29c.42.33.85.65,1.29,1,4.24,3,9.24,4.6,14.25,5.73,6.28,1.31,13.29,2.28,19.27-.5v0A24.1,24.1,0,0,0,61.7,43.26c-.13-.17-.27-.34-.41-.5a23.06,23.06,0,0,1-4.62-.17,48.65,48.65,0,0,1-12-2.84,49.83,49.83,0,0,1-5.54-2.48,12.12,12.12,0,0,0-5,5.72l0,0a8.58,8.58,0,0,1,0,1,.17.17,0,0,1-.27.14.13.13,0,0,1-.05-.12c0-4.67-3.69-10.07-8.85-8.75-2.3.64-3.85,2.87-4.7,5A6.26,6.26,0,0,0,19.91,44ZM58,51.78a3.4,3.4,0,0,1,2.48-2.66,2.24,2.24,0,0,1,2.66,2.22.16.16,0,0,1-.32,0,1.9,1.9,0,0,0-2.25-1.74,3.27,3.27,0,0,0-2.26,2.27C58.22,52.06,57.92,52,58,51.78Zm-.86-5a2.7,2.7,0,0,1,2.56-2.26,3.13,3.13,0,0,1,3.62,3.92,4.52,4.52,0,0,0-5.55.51A3,3,0,0,1,57.12,46.77Zm-11.57.4a8.08,8.08,0,0,0-7.25-2.23,2.45,2.45,0,0,1,.59-2.18c1-1.1,3.25-1,4.67-.56s3.08,1.54,3.1,3A2.29,2.29,0,0,1,45.55,47.17Zm-7.37,1.54c-.07-1.82,2.13-2.88,3.65-2.11a4.24,4.24,0,0,1,2.3,3.95.16.16,0,0,1-.32,0,5.52,5.52,0,0,0-.63-2.1c-1-2-4.29-2.36-4.67.24A.17.17,0,0,1,38.18,48.71Zm-9.9-8.78A3.3,3.3,0,0,0,25,37.87h0l-.26,0A2.26,2.26,0,0,0,23,39.8v.31a.16.16,0,0,1-.14.17h0a.15.15,0,0,1-.16-.14,2.54,2.54,0,0,1,2-2.68c4-.72,5.73,4.72,3.9,7.62a.12.12,0,0,1-.14.08.16.16,0,0,1-.14-.23,5.63,5.63,0,0,0,.21-4.54,2.21,2.21,0,0,0-2.34,3.69c.15.14-.05.38-.2.26A2.53,2.53,0,0,1,28.28,39.93Z" fill="#ffe226"/>
      <path d="M28.62,69.2C38.28,76.05,51.37,79.81,63,76.81a22.84,22.84,0,0,0,13.74-11,3.2,3.2,0,0,0,.35-1.47h0a6.47,6.47,0,0,0-1.8-3.86,36.65,36.65,0,0,0-8.45-7.94,19.56,19.56,0,0,1,.56,4.18l.54-.27a.16.16,0,0,1,.22.06.16.16,0,0,1-.06.21C60,61.41,46,58.23,37.88,54.58A28.53,28.53,0,0,1,32.12,51a23,23,0,0,1-2.65-2.48s0,0,0,0a11.2,11.2,0,0,1-2.69.5.15.15,0,0,1,0,.11A29.09,29.09,0,0,0,23.12,54C19.63,60,23.57,65.73,28.62,69.2Zm1-8.8a4,4,0,0,1,.54-2.17,2.58,2.58,0,0,1,1.44-1.09,3.2,3.2,0,0,1,2.13-1.78c1.44-.38,2.86.47,4,1.06.82.39,1.67.74,2.51,1.06,2.5,1,5.67,1.16,7.52,3.39a3.27,3.27,0,0,1,.4,3.58,3.1,3.1,0,0,1-.88,3.46,7,7,0,0,1-1.61.94c-4.94,2.1-12.62-.57-15.08-5.1A7.54,7.54,0,0,1,29.6,60.4Z" fill="#a80a64"/>
      <path d="M31.41,57.57c-2.13,1-1.46,4.23-.41,6,2.56,4.17,8,6.08,12.75,5.41,2.11-.18,4.88-1.77,4.23-4.11a3.57,3.57,0,0,1-1.12,1.1c-2.46,1.46-5.55,1.28-8.16.38-3.4-1.23-7-3.78-7.39-7.67A2.8,2.8,0,0,1,31.41,57.57Z" fill="#ffe226"/>
      <path d="M32.23,37.83s0,0,0,0A10.52,10.52,0,0,1,34,42.39a12.21,12.21,0,0,1,5-5.55.23.23,0,0,1,.2,0,51.63,51.63,0,0,0,11.48,4.26,47,47,0,0,0,6,1.08,16.84,16.84,0,0,0,6.05,0c.2-.06.28.25.09.31a8,8,0,0,1-1.18.26,21.49,21.49,0,0,1,1.65,2,5.66,5.66,0,0,0,4.24-1c5.14-4,7.34-13.05,5.26-19.09-1.07-2.13-4.43-.92-6.22-.44a15.27,15.27,0,0,0-4.14,2.11.16.16,0,0,1-.23,0,17.09,17.09,0,0,1,.61,2.63c0,.2-.3.25-.32.05-.51-2.73-1.72-6.47-4.72-7.16-3-.21-6,1.39-8.47,3a47,47,0,0,0-4.86,3.83h0c.18.34.33.66.45.93a.16.16,0,0,1-.3.12A12.47,12.47,0,0,0,41.23,25a1.88,1.88,0,0,0-2.45.12,18.37,18.37,0,0,0-4.86,7.09A34,34,0,0,0,32.23,37.83Z" fill="#a80a64"/>
      <path d="M32.3,60.77a9.44,9.44,0,0,0,1.87,2.48A13.59,13.59,0,0,0,38.81,66c2.51.85,5.51,1,7.83-.39A3.2,3.2,0,0,0,48,63.71a22.43,22.43,0,0,1-12.89-5.12h0A5.42,5.42,0,0,0,32.3,60.77Z" fill="#ffe8ad"/>
      <path d="M35.17,55.82a6.68,6.68,0,0,0,.14,2.48A25.47,25.47,0,0,0,48.1,63.39a2.74,2.74,0,0,0-.64-2.25c-1.82-2.12-4.84-2.23-7.35-3.2C38.41,57.42,36.84,56.29,35.17,55.82Z" fill="#ffe8ad"/>
      <path d="M73.82,26.83c0,.22,0,.43,0,.64a25.07,25.07,0,0,1-1.21,8.59c-.68,2.11-1.94,5.6-4.9,4.8-1.4-.38-2.07-2-2.47-3.35A44.06,44.06,0,0,1,63.8,29.3a5.78,5.78,0,0,1,.5-3.57c1.06-1.71,4.09-2.3,6-2.38a3.38,3.38,0,0,1,2.54.82A4,4,0,0,1,73.82,26.83Z" fill="#ec2872"/>
      <path d="M62.31,33.89a5.14,5.14,0,0,1-1.48,2.72,5.36,5.36,0,0,1-4.32.75,11.63,11.63,0,0,1-4.24-1.5,7.66,7.66,0,0,1-3-3.3,7.12,7.12,0,0,1-.39-4.42A8.72,8.72,0,0,1,51,24.2a7.46,7.46,0,0,1,5.71-2.57c4.09.23,5.77,4.79,6,8.28A13,13,0,0,1,62.31,33.89Z" fill="#ec2872"/>
      <path d="M44.69,29.67a5,5,0,0,1-.36,3.59,4.13,4.13,0,0,1-3.84,2,4.85,4.85,0,0,1-3.69-2.37,5.87,5.87,0,0,1-.58-4.4,5.74,5.74,0,0,1,3-3.78,2.34,2.34,0,0,1,1.92,0c.8.43,1.4,1.42,2,2.06A6.24,6.24,0,0,1,44.69,29.67Z" fill="#ec2872"/>
      <path d="M27.86,57.4a8.1,8.1,0,0,0,1.74,3,4,4,0,0,1,.54-2.17,2.58,2.58,0,0,1,1.44-1.09,3.2,3.2,0,0,1,2.13-1.78c1.44-.38,2.86.47,4,1.06.82.39,1.67.74,2.51,1.06,2.5,1,5.67,1.16,7.52,3.39a3.27,3.27,0,0,1,.4,3.58,3.1,3.1,0,0,1-.88,3.46,7,7,0,0,1-1.61.94,47.17,47.17,0,0,0,13.12,2.41,26.56,26.56,0,0,0,15.84-4.33,7.23,7.23,0,0,0,2.47-2.6h0a6.47,6.47,0,0,0-1.8-3.86,36.65,36.65,0,0,0-8.45-7.94,19.56,19.56,0,0,1,.56,4.18l.54-.27a.16.16,0,0,1,.22.06.16.16,0,0,1-.06.21C60,61.41,46,58.23,37.88,54.58A28.53,28.53,0,0,1,32.12,51a4.55,4.55,0,0,0-2,.36C28,52.34,27.17,55.16,27.86,57.4Z" fill="#ec2872"/>
      <path d="M19.91,44a5.34,5.34,0,0,0,1.55,2.83c2.37,2.31,6.11,2.05,9,.92a.16.16,0,0,1,.11.3c-.26.11-.52.21-.8.3a22.07,22.07,0,0,0,2.54,2.29A21.45,21.45,0,0,1,38.76,40,55.29,55.29,0,0,0,61.7,43.26c-.13-.17-.27-.34-.41-.5a23.06,23.06,0,0,1-4.62-.17,48.65,48.65,0,0,1-12-2.84,49.83,49.83,0,0,1-5.54-2.48,12.12,12.12,0,0,0-5,5.72l0,0a8.58,8.58,0,0,1,0,1,.17.17,0,0,1-.27.14c-.8,2.07-3.7,3.65-5.65,2.28a.72.72,0,0,1-.35-.47c0-.31.25-.55.47-.77l.06-.06c1.31-1.38.68-4.71-.37-6.08s-3.27-2-4.54-.79a3.37,3.37,0,0,0-.91,2.37,8,8,0,0,0,.47,2.55c.2.67.83,1.69.15,2.23s-1.76.05-2.28-.28A2.82,2.82,0,0,1,19.91,44Z" fill="#eb8602"/>
      <g>
        <path d="M21.46,46.87a5.9,5.9,0,0,1-1.18-6.55c.85-2.14,2.4-4.37,4.7-5,5.16-1.32,8.86,4.08,8.85,8.75a.16.16,0,1,0,.32,0,8.58,8.58,0,0,0,0-1,.16.16,0,0,1-.28-.16c.06-.16.13-.32.2-.48a10.52,10.52,0,0,0-1.83-4.53A.17.17,0,0,1,32,38a.16.16,0,0,1-.13-.19c0-.09,0-.16,0-.25a6.72,6.72,0,0,0-7.09-2.65A6.93,6.93,0,0,0,21,37.93c-1.92,2.72-2.48,6.82.19,9.26A7,7,0,0,0,26.37,49l.11-.12a.16.16,0,0,1,.22,0,.14.14,0,0,1,.06.11,11.2,11.2,0,0,0,2.69-.5.15.15,0,0,1,0-.2.16.16,0,0,1,.22,0l.08.08c.28-.09.54-.19.8-.3a.16.16,0,0,0-.11-.3C27.57,48.92,23.83,49.18,21.46,46.87Z" fill="#480973"/>
        <path d="M26.37,49c-2.6,3-5.45,6.52-4.92,10.73a11.65,11.65,0,0,0,3.24,6.58.11.11,0,0,1,0,0,.16.16,0,0,1,.32.07l-.06.28a25.43,25.43,0,0,0,3.4,2.93c9.44,6.7,22,10.48,33.44,8l0-.07a.16.16,0,0,1,.3-.12l.06.13,1-.25a23.74,23.74,0,0,0,12.38-8.66c.88-1.24,1.9-2.58,2-4.17s-1-3-1.9-4.2a37.11,37.11,0,0,0-8.88-8.17c0,.15.08.31.11.48a36.65,36.65,0,0,1,8.45,7.94c1.23,1.49,2.41,3.41,1.45,5.33A22.84,22.84,0,0,1,63,76.81c-11.67,3-24.76-.76-34.42-7.61-5.05-3.47-9-9.21-5.5-15.23a29.09,29.09,0,0,1,3.6-4.86.15.15,0,0,0,0-.11Z" fill="#480973"/>
        <path d="M24.65,37.46a2.54,2.54,0,0,0-2,2.68.16.16,0,0,0,.18.14.16.16,0,0,0,.14-.17,2.22,2.22,0,0,1,1.77-2.21,3.3,3.3,0,0,1,3.54,2,2.4,2.4,0,0,1,.51.25c.17.1,0,.37-.16.28l-.15-.07a5.63,5.63,0,0,1-.21,4.54.16.16,0,0,0,.28.15C30.38,42.18,28.65,36.74,24.65,37.46Z" fill="#480973"/>
        <path d="M24.7,66.28a.11.11,0,0,0,0,0,3.65,3.65,0,0,0,.27.3l.06-.28A.16.16,0,0,0,24.7,66.28Z" fill="#480973"/>
        <path d="M28.28,39.93a2.53,2.53,0,0,0-2.34,4.41c.15.12.35-.12.2-.26a2.21,2.21,0,0,1,2.34-3.69A3.19,3.19,0,0,0,28.28,39.93Z" fill="#480973"/>
        <path d="M26.48,48.9l-.11.12.39,0a.14.14,0,0,0-.06-.11A.16.16,0,0,0,26.48,48.9Z" fill="#480973"/>
        <path d="M28.28,39.93a3.19,3.19,0,0,1,.2.46l.15.07c.17.09.33-.18.16-.28A2.4,2.4,0,0,0,28.28,39.93Z" fill="#480973"/>
        <path d="M29.48,48.3a.15.15,0,0,0,0,.2l.33-.11-.08-.08A.16.16,0,0,0,29.48,48.3Z" fill="#480973"/>
        <path d="M29.45,48.5s0,0,0,0a26.78,26.78,0,0,0,8.41,6C46,58.23,60,61.41,68.14,56.71a.16.16,0,0,0,.06-.21.16.16,0,0,0-.22-.06l-.54.27v.11a.16.16,0,0,1-.31,0c-6,2.78-13,1.81-19.27.5-5-1.13-10-2.75-14.25-5.73a24.16,24.16,0,0,1-3.83-3.24Z" fill="#480973"/>
        <path d="M30.14,58.23c-1,1.73-.42,3.9.48,5.52,2.75,5.07,12,7.8,16.69,4.16a3.1,3.1,0,0,0,.88-3.46l-.21.39c.65,2.34-2.12,3.93-4.23,4.11C39,69.62,33.56,67.71,31,63.54c-1.05-1.74-1.72-4.92.41-6a3.2,3.2,0,0,1,.17-.43A2.58,2.58,0,0,0,30.14,58.23Z" fill="#480973"/>
        <path d="M31.8,57.41a.16.16,0,0,0,.11-.2.16.16,0,0,0-.2-.12l-.13,0a3.2,3.2,0,0,1,2.13-1.78c1.44-.38,2.86.47,4,1.06.82.39,1.67.74,2.51,1.06,2.5,1,5.67,1.16,7.52,3.39a3.27,3.27,0,0,1,.4,3.58.52.52,0,0,0-.06-.13.16.16,0,1,0-.28.15,2.72,2.72,0,0,1,.13.37,3.57,3.57,0,0,1-1.12,1.1c-2.46,1.46-5.55,1.28-8.16.38-3.4-1.23-7-3.78-7.39-7.67a2.8,2.8,0,0,1,.1-1.08A3.52,3.52,0,0,1,31.8,57.41Zm.49,3.38v0a9.44,9.44,0,0,0,1.87,2.48A13.59,13.59,0,0,0,38.81,66c2.51.85,5.51,1,7.83-.39A3.2,3.2,0,0,0,48,63.71h.18a.16.16,0,0,0,0-.32H48.1a2.74,2.74,0,0,0-.64-2.25c-1.82-2.12-4.84-2.23-7.35-3.2-1.7-.52-3.27-1.65-4.94-2.12,0,0,0,0,0-.07a.16.16,0,0,0-.32-.06s0,0,0,.06a2.73,2.73,0,0,0-2.16.62c-1.23,1.1-1.17,2.62-.55,4a2.53,2.53,0,0,0-.13.22.15.15,0,0,0,.07.21A.17.17,0,0,0,32.29,60.79Z" fill="#480973"/>
        <path d="M31.58,57.14a3.2,3.2,0,0,0-.17.43,3.52,3.52,0,0,1,.39-.16.16.16,0,0,0,.11-.2.16.16,0,0,0-.2-.12Z" fill="#480973"/>
        <path d="M31.91,37.76A.16.16,0,0,0,32,38a.17.17,0,0,0,.17-.09c-.08-.12-.17-.24-.26-.35C31.94,37.6,31.92,37.67,31.91,37.76Z" fill="#480973"/>
        <path d="M32,60.62a.15.15,0,0,0,.07.21.17.17,0,0,0,.21,0v0a2.43,2.43,0,0,1-.16-.37A2.53,2.53,0,0,0,32,60.62Z" fill="#480973"/>
        <path d="M32,37.51c.09.11.18.23.26.35s0,0,0,0a34,34,0,0,1,1.69-5.59,18.37,18.37,0,0,1,4.86-7.09A1.88,1.88,0,0,1,41.23,25a12.47,12.47,0,0,1,3.39,4.59.16.16,0,0,0,.3-.12c-.12-.27-.27-.59-.45-.93a.15.15,0,0,1-.21,0,.17.17,0,0,1,0-.23l.06-.06C43.09,26,40.9,22.9,38.51,24.78a17.8,17.8,0,0,0-5,7.3A30.32,30.32,0,0,0,32,37.51Z" fill="#480973"/>
        <path d="M32.69,56.37c-1.23,1.1-1.17,2.62-.55,4a4.81,4.81,0,0,1,2.65-2.2,5.78,5.78,0,0,1,.06-2.45A2.73,2.73,0,0,0,32.69,56.37Z" fill="#480973"/>
        <path d="M32.14,60.4a2.43,2.43,0,0,0,.16.37,5.42,5.42,0,0,1,2.84-2.18h0L35,58.47c-.16-.13,0-.37.2-.25l.1.08a6.68,6.68,0,0,1-.14-2.48l-.08,0-.24,0a5.78,5.78,0,0,0-.06,2.45l.22-.07-.17.29c0-.07,0-.14-.05-.22A4.81,4.81,0,0,0,32.14,60.4Z" fill="#480973"/>
        <path d="M33.84,42.87a.16.16,0,0,0,.28.16c0-.21,0-.42-.08-.64C34,42.55,33.9,42.71,33.84,42.87Z" fill="#480973"/>
        <path d="M34,42.39c0,.22.06.43.08.64l0,0a12.12,12.12,0,0,1,5-5.72L39,37.22h.21l-.1.06a49.83,49.83,0,0,0,5.54,2.48,48.65,48.65,0,0,0,12,2.84,23.06,23.06,0,0,0,4.62.17l0,0a.17.17,0,0,1,.25-.22l.17.2a8,8,0,0,0,1.18-.26c.19-.06.11-.37-.09-.31a16.84,16.84,0,0,1-6.05,0,47,47,0,0,1-6-1.08,51.63,51.63,0,0,1-11.48-4.26.23.23,0,0,0-.2,0A12.21,12.21,0,0,0,34,42.39Z" fill="#480973"/>
        <path d="M34.79,58.2c0,.08,0,.15.05.22l.17-.29Z" fill="#480973"/>
        <path d="M34.86,55.69s0,0,0,.06l.24,0,.08,0s0,0,0-.07A.16.16,0,0,0,34.86,55.69Z" fill="#480973"/>
        <path d="M35.21,58.22c-.16-.12-.36.12-.2.25l.14.12a.25.25,0,0,0,.16-.28h0Z" fill="#480973"/>
        <path d="M35.31,58.31a.25.25,0,0,1-.16.28A22.43,22.43,0,0,0,48,63.71c0-.11.05-.21.06-.32A25.47,25.47,0,0,1,35.31,58.3Z" fill="#480973"/>
        <path d="M41.83,46.6c-1.52-.77-3.72.29-3.65,2.11a.17.17,0,0,0,.33,0c.38-2.6,3.64-2.28,4.67-.24a5.52,5.52,0,0,1,.63,2.1.16.16,0,0,0,.32,0A4.24,4.24,0,0,0,41.83,46.6Z" fill="#480973"/>
        <path d="M38.89,42.76a2.45,2.45,0,0,0-.59,2.18,8.08,8.08,0,0,1,7.25,2.23,2.29,2.29,0,0,0,1.11-1.94c0-1.49-1.67-2.57-3.1-3S39.9,41.66,38.89,42.76Z" fill="#480973"/>
        <path d="M39,37.22l.11.05.1-.06Z" fill="#480973"/>
        <path d="M44.26,28.33a.17.17,0,0,0,0,.23.15.15,0,0,0,.21,0,2.79,2.79,0,0,0-.15-.3Z" fill="#480973"/>
        <path d="M44.32,28.27a2.79,2.79,0,0,1,.15.3h0a47,47,0,0,1,4.86-3.83c2.5-1.58,5.46-3.18,8.47-3,3,.69,4.21,4.43,4.72,7.16,0,.2.35.15.32-.05a17.09,17.09,0,0,0-.61-2.63.19.19,0,0,1,0-.1c-.72-2.2-2-4.3-4.32-4.83-3.17-.3-6.22,1.39-8.8,3.06A39.68,39.68,0,0,0,44.32,28.27Z" fill="#480973"/>
        <path d="M48.13,64.32a.16.16,0,1,0-.28.15,2.72,2.72,0,0,1,.13.37l.21-.39A.52.52,0,0,0,48.13,64.32Z" fill="#480973"/>
        <path d="M48.1,63.39c0,.11,0,.21-.06.32h.18a.16.16,0,0,0,0-.32Z" fill="#480973"/>
        <path d="M57.12,46.77a3,3,0,0,0,.63,2.17,4.52,4.52,0,0,1,5.55-.51,3.13,3.13,0,0,0-3.62-3.92A2.7,2.7,0,0,0,57.12,46.77Z" fill="#480973"/>
        <path d="M58,51.78c-.06.2.24.28.31.1a3.27,3.27,0,0,1,2.26-2.27,1.9,1.9,0,0,1,2.25,1.74.16.16,0,0,0,.32,0,2.24,2.24,0,0,0-2.66-2.22A3.4,3.4,0,0,0,58,51.78Z" fill="#480973"/>
        <path d="M61.51,42.51a.17.17,0,0,0-.25.22l0,0,.39,0Z" fill="#480973"/>
        <path d="M61.68,42.71l-.39,0a24.17,24.17,0,0,1,5.83,14.08v0l.31-.15a19.56,19.56,0,0,0-.56-4.18l-.4-.28a.16.16,0,0,1,.18-.27l.11.07a21.73,21.73,0,0,0-3.19-6.93,3.43,3.43,0,0,1-.42-.08.16.16,0,0,1,.08-.31h.09A21.49,21.49,0,0,0,61.68,42.71Z" fill="#480973"/>
        <path d="M62.07,77.37a.16.16,0,1,0-.3.12l0,.07a1.91,1.91,0,0,0,.33-.06Z" fill="#480973"/>
        <path d="M62.21,26.15a.38.38,0,0,1,0,.1.16.16,0,0,0,.23,0,15.27,15.27,0,0,1,4.14-2.11c1.79-.48,5.15-1.69,6.22.44,2.08,6-.12,15.12-5.26,19.09a5.66,5.66,0,0,1-4.24,1,4.13,4.13,0,0,1,.25.38c3.18.45,5.9-2.07,7.4-4.64a20.41,20.41,0,0,0,2.88-13.74c-.17-1.15-.39-2.57-1.46-3.31S70,23,68.78,23.17A15.39,15.39,0,0,0,62.28,26,.15.15,0,0,0,62.21,26.15Z" fill="#480973"/>
        <path d="M62.24,26.25a.38.38,0,0,0,0-.1A.19.19,0,0,0,62.24,26.25Z" fill="#480973"/>
        <path d="M63.24,44.73a.16.16,0,0,0-.08.31,3.43,3.43,0,0,0,.42.08,4.13,4.13,0,0,0-.25-.38Z" fill="#480973"/>
        <path d="M66.66,52a.16.16,0,0,0-.18.27l.4.28c0-.17-.07-.33-.11-.48Z" fill="#480973"/>
        <path d="M67.13,56.86a.16.16,0,0,0,.31,0v-.11Z" fill="#480973"/>
        <path d="M26.7,48.85c-.26.38-.49.79-.75,1.17a4,4,0,0,0,4.11-1.21,1.06,1.06,0,0,0-.55-.51C28.6,48.44,27.61,48.71,26.7,48.85Z" fill="#480973"/>
      </g>
    </g>
  </g>
</svg>
