<svg xmlns="http://www.w3.org/2000/svg" viewBox="0 0 100 100">
  <title>profile_18</title>
  <g style="isolation: isolate">
    <g id="aa13417c-b76d-47b2-b23c-05fa06d489bb" data-name="layer 1">
      <g>
        <circle cx="50" cy="50" r="37.61" transform="translate(-18.82 66.25) rotate(-58.28)" fill="#2fb5eb"/>
        <path d="M62,24.41c-.77-1.6-2.87-1.59-4.36-1.36C46.34,24.26,32.4,33.83,24.51,41.76c-3.59,3.55-3.89,8.88-3.73,13.64a129.19,129.19,0,0,0,.85,13.18v0c0,.05,0,.1,0,.16s0,.21,0,.32h0A10.18,10.18,0,0,0,22,70.4,2.76,2.76,0,0,0,23,72a28.71,28.71,0,0,0,3.49,1.1,120.42,120.42,0,0,0,35.91,3.79c2.41-.24,5-.22,7.16-1.39,2-1.58,2.57-4.21,2.91-6.59,0,0,0,0,0,0h0q.54-3.76.93-7.53C74.13,52,75.18,42,71.94,33,70.41,28.86,67.1,23,62,24.41Z" fill="#480973"/>
        <g>
          <path d="M74.9,31.19a27.27,27.27,0,0,0-1.85-4.32c-1.45-2.84-4.51-6.1-8-5a4,4,0,0,1,.36,1.2c.4,2.87-2.57,5.63-4.76,7.55a6.64,6.64,0,0,1,3.92,1A5.58,5.58,0,0,1,66.86,34v.06c4.1,6,3.39,13.88,2.37,20.75,0,.19-.35.15-.32-.05.25-2.15.49-4.37.59-6.6a51.53,51.53,0,0,1-17.38,7.4,9.08,9.08,0,0,0-2.7.92c-2.81.63-5.65,1.11-8.48,1.46-3.33.23-7,.42-10-1.43.07.72.15,1.44.25,2.17a.18.18,0,0,1-.14.19.16.16,0,0,1-.17-.13c-.19-.89-.33-1.78-.43-2.67a56.62,56.62,0,0,1-.36-7.92,6.88,6.88,0,0,1,3.52-6.94,6.24,6.24,0,0,1,2.28-.74,6.94,6.94,0,0,1,3.89.59l.08-.05A54.29,54.29,0,0,0,54.69,34.8a7,7,0,0,1,5.41-4.13c2-2,5.39-4.78,4.89-7.78a3.74,3.74,0,0,0-.33-1.05.13.13,0,0,1,0-.06l-.06-.13s0-.1-.07-.14a.78.78,0,0,0-.1-.15A1.53,1.53,0,0,0,64,21a4.62,4.62,0,0,0-3.33-.43c-10.49,1.13-23.27,9.49-31.3,17-.54.52-1.05,1-1.54,1.5-3.55,3.49-3.8,8.67-3.67,13.36.08,2.87.16,5.73.38,8.59.11,1.45.24,2.89.41,4.34.14,1.26.06,2.35,1.11,3.26a5.85,5.85,0,0,0,2.46,1.14,14.48,14.48,0,0,0,2.78.42l.26.07a125.8,125.8,0,0,0,33.93,3.46A14.2,14.2,0,0,0,72,72.35a6.13,6.13,0,0,0,2.44-2.43A7.36,7.36,0,0,0,75,66.86c.31-2.84.87-5.67,1.08-8.52C76.68,49.55,77.73,39.73,74.9,31.19Zm-21.61-.88a5.63,5.63,0,0,1,4.05-3.14c.84-.18,3.57,0,3.42,1.22-.07.37-.56.5-.86.46a15.57,15.57,0,0,0-2.23-.1,3.56,3.56,0,0,0-2.58,1.73c-.21.33-.34.78-.7,1a.79.79,0,0,1-1.23-.5A1.19,1.19,0,0,1,53.29,30.31ZM29.41,42c-1.08-.59.38-2.92,1-3.49l.19-.17a5.61,5.61,0,0,1,4.13-1.35c.62,0,1.64.27,1.4,1.12a.76.76,0,0,1-.51.53,2.79,2.79,0,0,1-1.22,0,3.65,3.65,0,0,0-2.92,1.07,16.94,16.94,0,0,0-1.22,1.88C30.15,41.78,29.76,42.11,29.41,42Z" fill="#ffc919"/>
          <path d="M65.39,24.81a5,5,0,0,0,.88,2.11,15.06,15.06,0,0,0,2.63,2.54l3.91,3.18c.54.45,1.31.91,1.89.52s.49-1.08.38-1.67a15.38,15.38,0,0,0-4.52-8.25A6.72,6.72,0,0,0,67,21.45a2.43,2.43,0,0,0-1.46.19c-.73.39-.7,1-.51,1.73C65.21,23.89,65.29,24.36,65.39,24.81Z" fill="#fff7c7" style="mix-blend-mode: overlay"/>
          <path d="M63.93,21a2.74,2.74,0,0,1,.58,2.67A5.76,5.76,0,0,1,62.37,26C52,33.79,40.06,39.07,28.05,43.87c-.23.09-.11,3-.11,3.36q0,1.68,0,3.36Q28,54,28.32,57.3a43,43,0,0,0,.77,6.39c.17,1.1.36,2.19.57,3.28a30.83,30.83,0,0,1,.67,3.08,10.21,10.21,0,0,1-2.67-.61,5.09,5.09,0,0,1-1.53-.55,2.62,2.62,0,0,1-1-2.07c-.07-1.59-.33-3.18-.46-4.76-.28-3.23-.38-6.45-.47-9.68-.13-4.69.12-9.87,3.67-13.36.49-.49,1-1,1.54-1.49,8-7.52,20.81-15.87,31.3-17,1-.14,2.25-.39,3.07.29A1.54,1.54,0,0,1,63.93,21Z" fill="#fff7c7" style="mix-blend-mode: overlay"/>
          <path d="M66.79,34.59c2.41,4,2.9,8.6,2.73,13.21a50.37,50.37,0,0,1-10.47,5.33,72,72,0,0,1-7.93,2.47l-.19,0c-5.7,1.26-14.61,3.68-19.88.57a.17.17,0,0,0-.11,0c-.23-2.36-.35-4.72-.45-7.08a2.59,2.59,0,0,0,1.71.3,18.77,18.77,0,0,0,6.19-1.26,15.1,15.1,0,0,0,3.72-2,2.42,2.42,0,0,0,1-1.38c0-.91-.84-1.7-1.42-2.34a6.66,6.66,0,0,0-1.44-1.09,43.42,43.42,0,0,0,14.26-6,6.61,6.61,0,0,0,0,4.28c1.31,1.8,7.1-.77,8.58-1.8a19.46,19.46,0,0,0,3.33-2.63A1.88,1.88,0,0,0,66.79,34.59Zm.32,4.2c.94-.07-1.35-1.38-1.6-1.45C64.58,37.4,66.87,38.73,67.11,38.79Zm-3.23,2.29c.89.32-.67-1.84-.87-2C62.14,38.73,63.69,40.92,63.88,41.08Zm-4.1,1.7c.67.66.13-2,0-2.2C59.14,39.89,59.66,42.56,59.78,42.78Zm-3.34,3.06a2.51,2.51,0,0,0-.42-3,2.28,2.28,0,0,0-2.94,0c-.77.59-.94,1.79-2.08,1.67-1.78-.33-3.18.48-3.13,2.43s2.26,2.07,3.68,2A5.58,5.58,0,0,0,56.44,45.84ZM41.2,50.52c.91.26-.81-1.79-1-2C39.28,48.27,41,50.38,41.2,50.52ZM37,52c.72.6,0-2-.12-2.19C36.18,49.19,36.88,51.8,37,52Zm-3.92.44c.4.84.8-1.75.78-2C33.49,49.6,33.07,52.21,33.09,52.46Z" fill="#ec2872"/>
          <path d="M65.9,33.35c.47.55.75.92.16,1.5a20.06,20.06,0,0,1-2.73,2.2l-.08-.13.19-.14c1.27-1.1,1.19-3.28.69-4.91A6.3,6.3,0,0,1,65.9,33.35Z" fill="#ffefd4"/>
          <path d="M63.25,36.92l.08.13a16.17,16.17,0,0,1-6.23,2.61c-.88.1-2.2.44-2.37-.71a6.6,6.6,0,0,1,2-6.39,6.25,6.25,0,0,0,1.36,3,5,5,0,0,0,3.26,1.79A2.91,2.91,0,0,0,63.25,36.92Z" fill="#ffefd4"/>
          <path d="M60.41,28.15c.12.3-.21.4-.5.38a14,14,0,0,0-2.28-.14,4.08,4.08,0,0,0-3.18,2.36c-.14.39-.74.64-.83.17a5,5,0,0,1,3.79-3.34A3.69,3.69,0,0,1,60.41,28.15Z" fill="#ec2872"/>
          <path d="M56.3,44.34a4.06,4.06,0,0,1-2.13,3.34,5.63,5.63,0,0,1-5.34.34,1.87,1.87,0,0,1-.28-2.39c.5-.92,1.5-.9,2.43-.8a1.6,1.6,0,0,0,1.43-.61,6,6,0,0,1,.9-1.1A1.85,1.85,0,0,1,56.3,44.34ZM55.11,45c.1.13.34,0,.29-.14A1.28,1.28,0,0,0,53.71,44a.16.16,0,0,0,.08.31,1.33,1.33,0,0,1,.63.14l0,0a4.3,4.3,0,0,1-4.24,2.12c-.19,0-.25.27-.07.31a4,4,0,0,0,4.6-2.28v0A1.86,1.86,0,0,1,55.11,45Z" fill="#ffc919"/>
          <path d="M42.59,44.32c.32.56-.33,1.12-.74,1.48a14.89,14.89,0,0,1-3.58,2A18.19,18.19,0,0,1,31.19,49c-.31-.06-.54-.2-.58-.46A6.38,6.38,0,0,1,33.41,42a5,5,0,0,0,.81,3.11,4.84,4.84,0,0,0,2.9,2.06A3,3,0,0,0,39.28,47c1.54-.82,1.79-3,1.48-4.5l-.08-.34A6.46,6.46,0,0,1,42.59,44.32Z" fill="#ffefd4"/>
          <path d="M35.64,37.64c.33.35-.23.7-.62.57a4.08,4.08,0,0,0-3.77,1.2A14.61,14.61,0,0,0,30,41.35c-.15.24-.42.45-.6.17a3.71,3.71,0,0,1,1.3-2.76A5,5,0,0,1,35.64,37.64Z" fill="#ec2872"/>
          <path d="M50.42,45.06a1.34,1.34,0,0,0-1.24.16.48.48,0,0,0,.06.8.83.83,0,0,0,.44,0l.59-.07c.22,0,.47-.11.55-.32a.42.42,0,0,0-.07-.39A.71.71,0,0,0,50.42,45.06Z" fill="#ffefd4"/>
          <path d="M53.93,43.24a.45.45,0,0,0,.23.26,1.55,1.55,0,0,0,.56.19.51.51,0,0,0,.49-.14C55.76,42.84,53.79,42.6,53.93,43.24Z" fill="#ffefd4"/>
          <path d="M67.65,41.54a2.71,2.71,0,0,0-4.89-1.07,2.74,2.74,0,0,0,0,3.62,2.92,2.92,0,0,0,4-.09A2.7,2.7,0,0,0,67.65,41.54Z" fill="#f56c79"/>
          <path d="M40.82,51.82a2.71,2.71,0,0,0-4.89-1.07,2.74,2.74,0,0,0,0,3.62,2.92,2.92,0,0,0,4-.09A2.7,2.7,0,0,0,40.82,51.82Z" fill="#f56c79"/>
          <g>
            <path d="M75,29.93C73.42,25.85,70.11,20,65,21.4l.09.21-.14-.06.17.31c3.45-1.09,6.51,2.17,8,5,5.07,9.4,3.75,21.15,3,31.45q-.37,3.8-.91,7.56a1,1,0,0,1,.35,0q.52-3.75.92-7.52C77.14,48.94,78.19,39,75,29.93Z" fill="#480973"/>
            <path d="M69.63,47.73c.16-.12.36.14.18.26a3.37,3.37,0,0,1-.31.21c0-.14,0-.27,0-.4Z" fill="#480973"/>
            <path d="M69.81,48c.18-.12,0-.38-.18-.26l-.11.07c.17-4.61-.32-9.24-2.73-13.21a1,1,0,0,0,.07-.49c4.1,6,3.39,13.88,2.37,20.74,0,.2-.35.16-.32,0,.25-2.15.49-4.37.59-6.6A3.37,3.37,0,0,0,69.81,48Z" fill="#480973"/>
            <path d="M69.52,47.8c0,.13,0,.26,0,.4a51,51,0,0,1-10.22,5.35,1.41,1.41,0,0,1,0-.21.16.16,0,0,0-.15-.17h-.07l0,0A50.37,50.37,0,0,0,69.52,47.8Z" fill="#480973"/>
            <path d="M65.51,37.34c.25.07,2.54,1.38,1.6,1.45C66.87,38.73,64.58,37.4,65.51,37.34Z" fill="#480973"/>
            <path d="M66.86,34.1a1,1,0,0,1-.07.49L66.44,34c-.12-.16.15-.36.26-.18A1.67,1.67,0,0,1,66.86,34.1Z" fill="#480973"/>
            <path d="M66.86,34.1a1.67,1.67,0,0,0-.16-.24c-.11-.18-.38,0-.26.18l.35.55a1.88,1.88,0,0,1-.38.58,19.46,19.46,0,0,1-3.33,2.63c-1.48,1-7.27,3.6-8.58,1.8a6.61,6.61,0,0,1,0-4.28l.36-.23a.17.17,0,0,0-.16-.29,6.6,6.6,0,0,1,1.89-2.54.17.17,0,0,0,.13.28s0,0,0,0a6.6,6.6,0,0,0-2,6.39c.17,1.15,1.49.81,2.37.71a16.17,16.17,0,0,0,6.23-2.61,20.06,20.06,0,0,0,2.73-2.2c.59-.58.31-1-.16-1.5a6.3,6.3,0,0,0-1.77-1.48c0-.11-.07-.21-.11-.31a6.35,6.35,0,0,0-3.57-.74l.24-.21a6.64,6.64,0,0,1,3.92,1A5.58,5.58,0,0,1,66.86,34Z" fill="#480973"/>
            <path d="M65.09,21.86c1.6,3.29-1.9,6.57-4.4,8.75a5.9,5.9,0,0,0-.59.06c2.29-2.27,6.18-5.42,4.57-8.82a.23.23,0,0,0,.26.06Z" fill="#480973"/>
            <path d="M65.09,21.86l-.16.05a.23.23,0,0,1-.26-.06,0,0,0,0,0,0,0l-.1-.2a.83.83,0,0,0-.07-.13.78.78,0,0,0-.1-.15,1,1,0,0,0-.08-.14c-.13-.15.11-.36.24-.21a2.73,2.73,0,0,1,.3.42l-.11,0,.18.08Z" fill="#480973"/>
            <path d="M65,21.4l.09.21-.14-.06a.75.75,0,0,0-.07-.12Z" fill="#480973"/>
            <path d="M60.61,20c-11.26,1.21-25.2,10.77-33.09,18.71-3.59,3.54-3.89,8.88-3.73,13.63a127.73,127.73,0,0,0,.91,13.68h0A1.08,1.08,0,0,1,25,66a129.75,129.75,0,0,1-.87-13.65c-.13-4.69.12-9.87,3.67-13.36.49-.49,1-1,1.54-1.49,8-7.52,20.81-15.87,31.3-17,1.26-.18,3-.26,3.72.84a1,1,0,0,0-.08-.14c-.13-.15.11-.36.24-.21a2.73,2.73,0,0,1,.3.42l.12,0C64.21,19.8,62.1,19.81,60.61,20Z" fill="#480973"/>
            <path d="M64.85,21.43a.75.75,0,0,1,.07.12l-.18-.08Z" fill="#480973"/>
            <path d="M64.66,21.84l0-.06-.06-.14Z" fill="#480973"/>
            <path d="M64.56,21.64a.83.83,0,0,0-.07-.13A.83.83,0,0,1,64.56,21.64Z" fill="#480973"/>
            <path d="M64.49,21.51a1.3,1.3,0,0,0-.1-.15A.78.78,0,0,1,64.49,21.51Z" fill="#480973"/>
            <path d="M64.13,31.87c.5,1.63.58,3.81-.69,4.91l-.19.14a2.91,2.91,0,0,1-1.91.42,5,5,0,0,1-3.26-1.79,6.25,6.25,0,0,1-1.36-3l.06-.05h0A6.55,6.55,0,0,1,60,31.07a.14.14,0,0,0,.17,0h0c.12,0,.23,0,.35,0A6.34,6.34,0,0,1,64.13,31.87Z" fill="#480973"/>
            <path d="M64,31.56c0,.1.07.2.11.31a6.34,6.34,0,0,0-3.6-.85c-.12,0-.23,0-.35,0l.27-.23h0a6.35,6.35,0,0,1,3.57.74Z" fill="#480973"/>
            <path d="M63,39.07c.2.17,1.76,2.33.87,2C63.69,40.92,62.14,38.73,63,39.07Z" fill="#480973"/>
            <path d="M57.34,27.17c.84-.19,3.57,0,3.42,1.21-.07.38-.56.52-.86.47a15.57,15.57,0,0,0-2.23-.1,3.59,3.59,0,0,0-2.58,1.73c-.21.33-.34.78-.7,1a.79.79,0,0,1-1.23-.5,1.21,1.21,0,0,1,.13-.68A5.63,5.63,0,0,1,57.34,27.17Zm2.57,1.36c.29,0,.62-.08.5-.38a3.69,3.69,0,0,0-3-.57,5,5,0,0,0-3.79,3.34c.09.47.69.22.83-.17a4.08,4.08,0,0,1,3.18-2.36A14,14,0,0,1,59.91,28.53Z" fill="#480973"/>
            <path d="M60.69,30.61l-.24.21h0a3.21,3.21,0,0,0-.53.07.2.2,0,0,1,0-.08l.14-.14A5.9,5.9,0,0,1,60.69,30.61Z" fill="#480973"/>
            <path d="M60.45,30.82l-.27.23h0l-.17,0a.15.15,0,0,1-.09-.18A3.21,3.21,0,0,1,60.45,30.82Z" fill="#480973"/>
            <path d="M60.18,31.05a.14.14,0,0,1-.17,0Z" fill="#480973"/>
            <path d="M60.1,30.67l-.14.14a.2.2,0,0,0,0,.08,2.83,2.83,0,0,0-.4.08,6.69,6.69,0,0,0-2.71,1.3.15.15,0,0,0-.22,0A6.59,6.59,0,0,1,60.1,30.67Z" fill="#480973"/>
            <path d="M59.8,40.58c.11.23.65,2.86,0,2.2C59.66,42.56,59.14,39.89,59.8,40.58Z" fill="#480973"/>
            <path d="M59.92,30.89a.15.15,0,0,0,.09.18A6.55,6.55,0,0,0,56.8,32.5h0a.15.15,0,0,0,0-.23A6.69,6.69,0,0,1,59.52,31,2.83,2.83,0,0,1,59.92,30.89Z" fill="#480973"/>
            <path d="M59.29,53.34a1.41,1.41,0,0,0,0,.21l-.35.13c0-.12,0-.24,0-.36a.14.14,0,0,1,.1-.14h.07A.16.16,0,0,1,59.29,53.34Z" fill="#480973"/>
            <path d="M59.05,53.13l0,0a.14.14,0,0,0-.1.14c0,.12,0,.24,0,.36a64.38,64.38,0,0,1-7.6,2.38,1.36,1.36,0,0,0,0-.21.16.16,0,0,0-.21-.17l0-.08A72,72,0,0,0,59.05,53.13Z" fill="#480973"/>
            <path d="M56.81,32.27a.15.15,0,0,1,0,.23h0l-.07,0a1,1,0,0,0,0-.17Z" fill="#480973"/>
            <path d="M56.81,32.27l-.12.1a1,1,0,0,1,0,.17.17.17,0,0,1-.13-.28h0A.15.15,0,0,1,56.81,32.27Z" fill="#480973"/>
            <path d="M56.78,32.51l-.06.05s0,0,0,0Z" fill="#480973"/>
            <path d="M56,42.89a2.51,2.51,0,0,1,.42,3A5.58,5.58,0,0,1,51.55,49c-1.42,0-3.61-.21-3.68-2s1.35-2.76,3.13-2.43c1.14.12,1.31-1.08,2.08-1.67A2.28,2.28,0,0,1,56,42.89Zm-1.85,4.79a4.06,4.06,0,0,0,2.13-3.34,1.85,1.85,0,0,0-3-1.22,6,6,0,0,0-.9,1.1,1.6,1.6,0,0,1-1.43.61c-.93-.1-1.93-.12-2.43.8A1.87,1.87,0,0,0,48.83,48,5.63,5.63,0,0,0,54.17,47.68Z" fill="#480973"/>
            <path d="M55.4,44.85c.05.16-.19.27-.29.14a1.86,1.86,0,0,0-.42-.42.16.16,0,0,0-.27-.15,1.33,1.33,0,0,0-.63-.14.16.16,0,0,1-.08-.31A1.28,1.28,0,0,1,55.4,44.85Z" fill="#480973"/>
            <path d="M54.69,34.8a.17.17,0,0,1,.16.29l-.36.23C54.55,35.15,54.62,35,54.69,34.8Z" fill="#480973"/>
            <path d="M54.42,44.42a.16.16,0,0,1,.27.15A1.17,1.17,0,0,0,54.42,44.42Z" fill="#480973"/>
            <path d="M54.69,44.57v0a4,4,0,0,1-4.6,2.28c-.18,0-.12-.34.07-.31a4.3,4.3,0,0,0,4.24-2.12l0,0A1.17,1.17,0,0,1,54.69,44.57Z" fill="#480973"/>
            <path d="M54.68,34.81h0c-.07.18-.14.35-.2.52a43.42,43.42,0,0,1-14.26,6l-.41-.21a.12.12,0,0,1,.08,0A54.41,54.41,0,0,0,54.68,34.81Z" fill="#480973"/>
            <path d="M51.14,55.68a.16.16,0,0,1,.21.17,1.36,1.36,0,0,1,0,.21c-.11,0-.23.06-.34.09s0-.22,0-.34A.17.17,0,0,1,51.14,55.68Z" fill="#480973"/>
            <path d="M51.12,55.6l0,.08a.17.17,0,0,0-.1.13c0,.12,0,.23,0,.34A86.5,86.5,0,0,1,40.94,58c-3.32.23-7,.43-10-1.43,0-.12,0-.24,0-.37a.17.17,0,0,1,.11,0c5.27,3.11,14.18.69,19.88-.57Z" fill="#480973"/>
            <path d="M41.67,42.4c.58.64,1.41,1.43,1.42,2.34a2.42,2.42,0,0,1-1,1.38,15.1,15.1,0,0,1-3.72,2,.16.16,0,0,0-.12-.3,14.89,14.89,0,0,0,3.58-2c.41-.36,1.06-.92.74-1.48a6.46,6.46,0,0,0-1.91-2.18h0c0-.11,0-.21-.09-.32a5.75,5.75,0,0,0-.71-.42v0a.33.33,0,0,0,.1,0l.25-.06A6.66,6.66,0,0,1,41.67,42.4Z" fill="#480973"/>
            <path d="M40.19,48.57c.2.16,1.92,2.21,1,2C41,50.38,39.28,48.27,40.19,48.57Z" fill="#480973"/>
            <path d="M40.76,42.48c.31,1.54.06,3.68-1.48,4.5a3,3,0,0,1-2.16.17,4.84,4.84,0,0,1-2.9-2.06A5,5,0,0,1,33.41,42a6.16,6.16,0,0,1,4.38-1,6.53,6.53,0,0,1,2.89,1.17h0Z" fill="#480973"/>
            <path d="M40.59,41.81c0,.11.06.21.09.32A6.53,6.53,0,0,0,37.79,41a6.16,6.16,0,0,0-4.38,1,2,2,0,0,1,.07-.35,6.73,6.73,0,0,1,4.4-.89,6.43,6.43,0,0,1,2,.65A5.75,5.75,0,0,1,40.59,41.81Z" fill="#480973"/>
            <path d="M40.23,41.31l-.25.06a.33.33,0,0,1-.1,0,.2.2,0,0,1-.06-.27Z" fill="#480973"/>
            <path d="M39.88,41.37v0a6.43,6.43,0,0,0-2-.65,6.73,6.73,0,0,0-4.4.89,2,2,0,0,0-.07.35,6.38,6.38,0,0,0-2.8,6.51c0,.26.27.4.58.46a18.19,18.19,0,0,0,7.08-1.11.16.16,0,0,0,.12.3A18.77,18.77,0,0,1,32.2,49.4a2.59,2.59,0,0,1-1.71-.3c0-.36,0-.71,0-1.07a.16.16,0,0,0-.32,0v.17a6.89,6.89,0,0,1,3.52-7,6.45,6.45,0,0,1,2.28-.75,7,7,0,0,1,3.89.6A.2.2,0,0,0,39.88,41.37Z" fill="#480973"/>
            <path d="M38.27,47.84a.16.16,0,0,1,.12.3A.16.16,0,0,1,38.27,47.84Z" fill="#480973"/>
            <path d="M36.89,49.83c.11.23.84,2.79.12,2.19C36.88,51.8,36.18,49.19,36.89,49.83Z" fill="#480973"/>
            <path d="M34.76,36.93c.62,0,1.64.28,1.4,1.13a.76.76,0,0,1-.51.53,2.65,2.65,0,0,1-1.22,0,3.63,3.63,0,0,0-2.92,1.09,17.6,17.6,0,0,0-1.22,1.86c-.14.27-.53.6-.88.43-1.08-.59.38-2.92,1-3.48l.19-.18A5.71,5.71,0,0,1,34.76,36.93ZM35,38.21c.39.13.95-.22.62-.57a5,5,0,0,0-4.92,1.12,3.71,3.71,0,0,0-1.3,2.76c.18.28.45.07.6-.17a14.61,14.61,0,0,1,1.23-1.94A4.08,4.08,0,0,1,35,38.21Z" fill="#480973"/>
            <path d="M33.87,50.45c0,.26-.38,2.85-.78,2C33.07,52.21,33.49,49.6,33.87,50.45Z" fill="#480973"/>
            <path d="M31.23,58.72a.15.15,0,0,1-.14.18.14.14,0,0,1-.17-.12c-.19-.89-.33-1.78-.43-2.67a58.11,58.11,0,0,1-.36-7.91,2.71,2.71,0,0,0,.06.38.88.88,0,0,0,.3.52c.1,2.36.22,4.72.45,7.08a.17.17,0,0,0-.08.3l.12.07C31.05,57.27,31.13,58,31.23,58.72Z" fill="#480973"/>
            <path d="M30.94,56.18c0,.13,0,.25,0,.37l-.12-.07A.17.17,0,0,1,30.94,56.18Z" fill="#480973"/>
            <path d="M30.45,48c0,.36,0,.71,0,1.07a.88.88,0,0,1-.3-.52,2.71,2.71,0,0,1-.06-.38V48A.16.16,0,0,1,30.45,48Z" fill="#480973"/>
            <path d="M60.65,34.53c.68.64,2.22,1.12,2.77.06.36-.71.52-2.15-.17-2.71a1.84,1.84,0,0,0-.94-.33c-.81-.12-2.52-.42-2.67.66A3,3,0,0,0,60.65,34.53Z" fill="#fff"/>
            <path d="M37.06,44.35c.68.64,2.22,1.12,2.77.06.36-.71.52-2.15-.17-2.71a1.84,1.84,0,0,0-.94-.33c-.81-.12-2.51-.43-2.67.66A3,3,0,0,0,37.06,44.35Z" fill="#fff"/>
            <path d="M25,65.55c.19,1,.34,2.44,1.2,3.14a27.09,27.09,0,0,0,3.42,1,124.43,124.43,0,0,0,35.79,3.75c2.32-.21,4.85-.21,6.95-1.28,1.87-1.44,2.48-4.06,2.82-6.3a.17.17,0,0,1,.18-.15.17.17,0,0,1,.14.18c-.34,2.39-.91,5-2.91,6.6-2.18,1.17-4.75,1.15-7.16,1.39a120.13,120.13,0,0,1-35.91-3.8A27,27,0,0,1,26,69a2.73,2.73,0,0,1-1-1.63,11.17,11.17,0,0,1-.37-1.81.16.16,0,1,1,.32,0Z" fill="#480973"/>
          </g>
        </g>
      </g>
    </g>
  </g>
</svg>
