<svg id="a2c11165-8a68-4e62-b256-d6235fd11066" data-name="layer 1" xmlns="http://www.w3.org/2000/svg" viewBox="0 0 100 100">
  <title>profile_17</title>
  <g>
    <circle cx="50" cy="50" r="37.61" transform="translate(-20.71 50) rotate(-45)" fill="#ffc919"/>
    <path d="M74.42,37.19a6.71,6.71,0,0,0-7.09,2.65,31.17,31.17,0,0,0-1.56-5.43,17.9,17.9,0,0,0-5-7.3c-2.39-1.88-4.59,1.18-5.82,3.49a38.81,38.81,0,0,0-4.76-3.89c-2.58-1.67-5.63-3.36-8.8-3.06-2.3.53-3.6,2.63-4.32,4.83a.16.16,0,0,0-.07-.13,15.43,15.43,0,0,0-6.51-2.85c-1.16-.17-2.53-.44-3.61.26s-1.29,2.16-1.46,3.31A20.41,20.41,0,0,0,28.3,42.81c1.5,2.57,4.22,5.09,7.39,4.64a21.93,21.93,0,0,0-3.18,6.93,37.32,37.32,0,0,0-8.88,8.17c-.93,1.18-2,2.58-1.9,4.2s1.12,2.93,2,4.17a23.7,23.7,0,0,0,12.38,8.66l1,.25.32.07c11.5,2.47,24-1.31,33.45-8A24.74,24.74,0,0,0,74.31,69l.28-.3a11.72,11.72,0,0,0,3.24-6.58c.53-4.21-2.32-7.76-4.92-10.73a7,7,0,0,0,5.21-1.83c2.66-2.44,2.11-6.54.19-9.26A7,7,0,0,0,74.42,37.19Z" fill="#480973"/>
    <g>
      <path d="M82,39.64c-.85-2.14-2.39-4.38-4.7-5-5.16-1.33-8.86,4.08-8.84,8.75a.14.14,0,0,1-.06.12.17.17,0,0,1-.27-.14,8.82,8.82,0,0,1,0-1l0,0a12,12,0,0,0-5-5.71,52.86,52.86,0,0,1-5.54,2.48,48.65,48.65,0,0,1-12,2.84,23.05,23.05,0,0,1-4.62.16c-.14.17-.28.33-.41.5a24.15,24.15,0,0,0-5.42,13.58s0,0,0,0c6,2.79,13,1.81,19.27.5,5-1.13,10-2.74,14.25-5.72.44-.3.87-.63,1.29-1a22.07,22.07,0,0,0,2.54-2.29c-.28-.09-.54-.19-.8-.3a.16.16,0,0,1,.12-.3c2.89,1.13,6.63,1.39,9-.92a5.34,5.34,0,0,0,1.55-2.83A6.25,6.25,0,0,0,82,39.64ZM44,51.2a3.3,3.3,0,0,0-2.26-2.28,1.92,1.92,0,0,0-2.25,1.75c0,.2-.32.19-.32,0a2.25,2.25,0,0,1,2.67-2.22,3.39,3.39,0,0,1,2.47,2.66C44.37,51.3,44.07,51.38,44,51.2Zm.54-3a4.52,4.52,0,0,0-5.54-.5,3.3,3.3,0,0,1,.23-2.28,3.41,3.41,0,0,1,3.38-1.64,2.68,2.68,0,0,1,2.56,2.26A3,3,0,0,1,44.54,48.25Zm11.09-3.7c0-1.5,1.67-2.57,3.1-3s3.66-.53,4.67.57A2.44,2.44,0,0,1,64,44.26a8.1,8.1,0,0,0-7.25,2.22A2.26,2.26,0,0,1,55.63,44.55ZM63.79,48c-.39-2.6-3.65-2.28-4.68-.24a5.53,5.53,0,0,0-.63,2.09.16.16,0,0,1-.32,0,4.23,4.23,0,0,1,2.31-3.94A2.51,2.51,0,0,1,64.11,48,.16.16,0,0,1,63.79,48Zm12.56-4.37c-.15.12-.35-.13-.2-.26a2.21,2.21,0,0,0-2.34-3.69A5.63,5.63,0,0,0,74,44.25a.15.15,0,0,1-.14.22.11.11,0,0,1-.14-.07c-1.83-2.9-.1-8.34,3.9-7.62a2.53,2.53,0,0,1,2,2.68.16.16,0,0,1-.16.14h0a.16.16,0,0,1-.14-.18,1.5,1.5,0,0,0,0-.3,2.26,2.26,0,0,0-1.77-1.9l-.26,0h0A3.33,3.33,0,0,0,74,39.25,2.53,2.53,0,0,1,76.35,43.66Z" fill="#ec2872"/>
      <path d="M79.17,53.29a29.09,29.09,0,0,0-3.6-4.86.21.21,0,0,1,0-.11,11.29,11.29,0,0,1-2.69-.5l0,0a22.09,22.09,0,0,1-2.65,2.47,28.57,28.57,0,0,1-5.76,3.58C56.25,57.55,42.29,60.72,34.15,56a.17.17,0,0,1-.06-.22.17.17,0,0,1,.22-.06l.54.28a19.74,19.74,0,0,1,.56-4.19A36.86,36.86,0,0,0,27,59.78a6.5,6.5,0,0,0-1.8,3.86h0a3.13,3.13,0,0,0,.35,1.46,22.82,22.82,0,0,0,13.74,11c11.67,3,24.76-.77,34.42-7.61C78.72,65,82.67,59.3,79.17,53.29Zm-7.5,9.78c-2.46,4.53-10.14,7.2-15.08,5.1A7.38,7.38,0,0,1,55,67.23a3.1,3.1,0,0,1-.88-3.46,3.26,3.26,0,0,1,.4-3.58c1.85-2.23,5-2.41,7.52-3.4.84-.31,1.69-.66,2.51-1.06,1.19-.58,2.61-1.43,4-1a3.2,3.2,0,0,1,2.13,1.78,2.58,2.58,0,0,1,1.44,1.09,4,4,0,0,1,.54,2.17A7.54,7.54,0,0,1,71.67,63.07Z" fill="#7229ab"/>
      <path d="M70.88,56.88c2.13,1.06,1.46,4.24.41,6-2.55,4.18-8,6.08-12.75,5.42-2.11-.18-4.88-1.77-4.23-4.11a3.53,3.53,0,0,0,1.12,1.09c2.46,1.47,5.55,1.29,8.16.38C67,64.41,70.6,61.86,71,58A2.85,2.85,0,0,0,70.88,56.88Z" fill="#ec2872"/>
      <path d="M70.06,37.14a.05.05,0,0,0,0,0,10.52,10.52,0,0,0-1.83,4.53,12.2,12.2,0,0,0-5-5.55.22.22,0,0,0-.21,0A51.63,51.63,0,0,1,51.6,40.41a47.15,47.15,0,0,1-6,1.08,17.36,17.36,0,0,1-6.06,0,.16.16,0,0,0-.09.3,8.06,8.06,0,0,0,1.18.27,21.49,21.49,0,0,0-1.65,2,5.71,5.71,0,0,1-4.24-1c-5.14-4-7.34-13.06-5.26-19.1,1.07-2.12,4.43-.92,6.22-.44a15.3,15.3,0,0,1,4.14,2.12.17.17,0,0,0,.23,0,17.09,17.09,0,0,0-.61,2.63c0,.2.3.25.32,0,.51-2.72,1.72-6.47,4.72-7.15,3-.22,6,1.39,8.47,3a47,47,0,0,1,4.86,3.83h0c-.17.34-.33.65-.45.92a.16.16,0,0,0,.3.13,12.39,12.39,0,0,1,3.39-4.59,1.89,1.89,0,0,1,2.45.11,18.48,18.48,0,0,1,4.86,7.1A33.86,33.86,0,0,1,70.06,37.14Z" fill="#7229ab"/>
      <path d="M70,60.09a9.39,9.39,0,0,1-1.87,2.47,13.52,13.52,0,0,1-4.64,2.77c-2.51.85-5.51,1-7.83-.39A3.22,3.22,0,0,1,54.25,63,22.3,22.3,0,0,0,67.14,57.9h0A5.42,5.42,0,0,1,70,60.09Z" fill="#ffe8ad"/>
      <path d="M67.12,55.14A6.61,6.61,0,0,1,67,57.61,25.25,25.25,0,0,1,54.19,62.7a2.73,2.73,0,0,1,.64-2.24c1.82-2.12,4.84-2.23,7.35-3.21C63.88,56.74,65.45,55.61,67.12,55.14Z" fill="#ffe8ad"/>
      <path d="M28.47,26.15c0,.21,0,.43,0,.64a25,25,0,0,0,1.21,8.58c.68,2.12,1.94,5.61,4.9,4.81,1.4-.38,2.07-2,2.47-3.36a43.81,43.81,0,0,0,1.48-8.2,5.71,5.71,0,0,0-.5-3.57c-1.06-1.71-4.09-2.3-6-2.39a3.46,3.46,0,0,0-2.54.82A4.08,4.08,0,0,0,28.47,26.15Z" fill="#b235db"/>
      <path d="M40,33.2a5.17,5.17,0,0,0,1.48,2.73,5.36,5.36,0,0,0,4.32.75A11.75,11.75,0,0,0,50,35.18a7.66,7.66,0,0,0,3-3.3,7.12,7.12,0,0,0,.39-4.42,8.72,8.72,0,0,0-2.12-3.94A7.42,7.42,0,0,0,45.58,21c-4.09.23-5.77,4.79-6,8.28A12.94,12.94,0,0,0,40,33.2Z" fill="#b235db"/>
      <path d="M57.6,29A5,5,0,0,0,58,32.58a4.1,4.1,0,0,0,3.84,2,4.84,4.84,0,0,0,3.69-2.36,5.89,5.89,0,0,0,.58-4.41,5.73,5.73,0,0,0-3-3.77,2.28,2.28,0,0,0-1.91,0c-.81.43-1.41,1.42-2,2.06A6.24,6.24,0,0,0,57.6,29Z" fill="#b235db"/>
      <path d="M74.43,56.71a8.06,8.06,0,0,1-1.74,3,4,4,0,0,0-.54-2.17,2.58,2.58,0,0,0-1.44-1.09,3.2,3.2,0,0,0-2.13-1.78c-1.44-.38-2.86.47-4,1-.82.4-1.67.75-2.51,1.06-2.49,1-5.67,1.17-7.52,3.4a3.26,3.26,0,0,0-.4,3.58A3.1,3.1,0,0,0,55,67.23a7.38,7.38,0,0,0,1.61.94,47.91,47.91,0,0,1-13.12,2.41,26.63,26.63,0,0,1-15.84-4.33,7.23,7.23,0,0,1-2.47-2.6h0A6.5,6.5,0,0,1,27,59.78a36.86,36.86,0,0,1,8.45-7.94A19.74,19.74,0,0,0,34.85,56l-.54-.28a.17.17,0,0,0-.22.06.17.17,0,0,0,.06.22c8.14,4.69,22.1,1.52,30.26-2.13a28.57,28.57,0,0,0,5.76-3.58,4.56,4.56,0,0,1,2,.37C74.32,51.66,75.12,54.48,74.43,56.71Z" fill="#b235db"/>
      <path d="M82.38,43.36a5.34,5.34,0,0,1-1.55,2.83c-2.37,2.31-6.11,2.05-9,.92a.16.16,0,0,0-.12.3c.26.11.52.21.8.3A22.07,22.07,0,0,1,70,50a21.54,21.54,0,0,0-6.43-10.67,55,55,0,0,1-22.95,3.24c.13-.17.27-.33.41-.5a23.05,23.05,0,0,0,4.62-.16,48.65,48.65,0,0,0,12-2.84,52.86,52.86,0,0,0,5.54-2.48,12,12,0,0,1,5,5.71l0,0a8.82,8.82,0,0,0,0,1,.17.17,0,0,0,.27.14c.8,2.07,3.7,3.65,5.65,2.28a.8.8,0,0,0,.36-.47c0-.32-.25-.55-.48-.77l-.06-.07c-1.31-1.38-.68-4.7.37-6.08s3.27-2,4.54-.78A3.35,3.35,0,0,1,79.7,40a8,8,0,0,1-.46,2.55c-.21.67-.84,1.69-.16,2.23s1.76.05,2.28-.28A2.89,2.89,0,0,0,82.38,43.36Z" fill="#a80a64"/>
      <g>
        <path d="M80.83,46.19A5.9,5.9,0,0,0,82,39.64c-.85-2.14-2.4-4.38-4.7-5-5.16-1.33-8.86,4.08-8.84,8.75a.17.17,0,0,1-.33,0,8.82,8.82,0,0,1,0-1,.16.16,0,0,0,.28-.15c-.06-.16-.13-.32-.2-.48a10.52,10.52,0,0,1,1.83-4.53.17.17,0,0,0,.17.09.18.18,0,0,0,.14-.19c0-.09,0-.17,0-.25a6.71,6.71,0,0,1,7.09-2.65,6.89,6.89,0,0,1,3.89,3.07c1.92,2.71,2.48,6.82-.19,9.25a7,7,0,0,1-5.21,1.84l-.1-.12a.16.16,0,0,0-.23,0,.11.11,0,0,0-.06.11,11.29,11.29,0,0,1-2.69-.5.15.15,0,0,0,0-.2.15.15,0,0,0-.22,0l-.08.08c-.28-.09-.54-.19-.8-.3a.16.16,0,0,1,.12-.3C74.72,48.24,78.46,48.5,80.83,46.19Z" fill="#480973"/>
        <path d="M75.92,48.34c2.6,3,5.45,6.52,4.92,10.73a11.68,11.68,0,0,1-3.24,6.58.07.07,0,0,0,0-.05.16.16,0,0,0-.32.07l.06.27a25.43,25.43,0,0,1-3.39,2.94c-9.44,6.69-21.95,10.48-33.45,8l0-.08a.16.16,0,0,0-.3-.12.59.59,0,0,1-.06.14l-1-.25a23.74,23.74,0,0,1-12.38-8.66c-.88-1.24-1.9-2.58-2-4.18s1-3,1.9-4.2a37.26,37.26,0,0,1,8.88-8.16c0,.15-.08.31-.11.47A36.86,36.86,0,0,0,27,59.78c-1.23,1.5-2.41,3.42-1.45,5.33a22.82,22.82,0,0,0,13.74,11c11.67,3,24.76-.77,34.42-7.61,5-3.48,9-9.22,5.5-15.23a29.09,29.09,0,0,0-3.6-4.86.21.21,0,0,1,0-.11Z" fill="#480973"/>
        <path d="M77.64,36.78a2.53,2.53,0,0,1,2,2.68.16.16,0,0,1-.32,0,2.22,2.22,0,0,0-1.77-2.2,3.29,3.29,0,0,0-3.54,2,2.4,2.4,0,0,0-.51.25.16.16,0,0,0,.16.27l.15-.06A5.63,5.63,0,0,0,74,44.25a.16.16,0,0,1-.28.15C71.91,41.5,73.64,36.06,77.64,36.78Z" fill="#480973"/>
        <path d="M77.59,65.6a.07.07,0,0,1,0,.05,3.58,3.58,0,0,1-.27.29l-.06-.27A.16.16,0,0,1,77.59,65.6Z" fill="#480973"/>
        <path d="M74,39.25a2.53,2.53,0,0,1,2.34,4.41c-.15.12-.35-.13-.2-.26a2.21,2.21,0,0,0-2.34-3.69A4.89,4.89,0,0,1,74,39.25Z" fill="#480973"/>
        <path d="M75.82,48.22l.1.12-.39,0a.11.11,0,0,1,.06-.11A.16.16,0,0,1,75.82,48.22Z" fill="#480973"/>
        <path d="M74,39.25a4.89,4.89,0,0,0-.2.46l-.15.06a.16.16,0,0,1-.16-.27A2.4,2.4,0,0,1,74,39.25Z" fill="#480973"/>
        <path d="M72.81,47.62a.15.15,0,0,1,0,.2l-.33-.11.08-.08A.15.15,0,0,1,72.81,47.62Z" fill="#480973"/>
        <path d="M72.84,47.82l0,0a26.83,26.83,0,0,1-8.41,6C56.25,57.55,42.29,60.72,34.15,56a.17.17,0,0,1-.06-.22.17.17,0,0,1,.22-.06l.54.28v.11a.16.16,0,0,0,.31,0c6,2.79,13,1.81,19.27.5,5-1.13,10-2.74,14.25-5.72a24.16,24.16,0,0,0,3.83-3.24Z" fill="#480973"/>
        <path d="M72.15,57.55c1,1.73.42,3.9-.48,5.52-2.75,5.06-12,7.8-16.69,4.16a3.1,3.1,0,0,1-.88-3.46l.21.39c-.65,2.34,2.12,3.93,4.23,4.11,4.73.66,10.2-1.24,12.75-5.42,1-1.73,1.72-4.91-.41-6a3.69,3.69,0,0,0-.17-.42A2.58,2.58,0,0,1,72.15,57.55Z" fill="#480973"/>
        <path d="M70.88,56.88A2.85,2.85,0,0,1,71,58c-.38,3.89-4,6.44-7.39,7.66-2.61.91-5.7,1.09-8.16-.38a3.53,3.53,0,0,1-1.12-1.09c0-.12.08-.25.13-.37a.16.16,0,1,0-.28-.15l-.06.13a3.26,3.26,0,0,1,.4-3.58c1.85-2.23,5-2.41,7.52-3.4.84-.31,1.69-.66,2.51-1.06,1.19-.58,2.61-1.43,4-1a3.2,3.2,0,0,1,2.13,1.78l-.13-.05a.17.17,0,0,0-.2.11.17.17,0,0,0,.11.21A3.53,3.53,0,0,1,70.88,56.88Zm-.67,3.27a.16.16,0,0,0,.07-.22l-.12-.21c.61-1.42.67-2.93-.56-4a2.73,2.73,0,0,0-2.16-.62s0,0,0-.06a.16.16,0,0,0-.32.06s0,0,0,.07c-1.67.47-3.24,1.6-4.94,2.11-2.51,1-5.53,1.09-7.35,3.21a2.73,2.73,0,0,0-.64,2.24l-.14,0a.16.16,0,0,0,0,.32l.17,0a3.22,3.22,0,0,0,1.4,1.92c2.32,1.4,5.32,1.24,7.83.39a13.52,13.52,0,0,0,4.64-2.77A9.39,9.39,0,0,0,70,60.09s0,0,0,0A.17.17,0,0,0,70.21,60.15Z" fill="#480973"/>
        <path d="M70.71,56.46a3.69,3.69,0,0,1,.17.42,3.53,3.53,0,0,0-.39-.15.17.17,0,0,1-.11-.21.17.17,0,0,1,.2-.11Z" fill="#480973"/>
        <path d="M70.39,37.08a.18.18,0,0,1-.14.19.17.17,0,0,1-.17-.09c.08-.12.17-.24.26-.35C70.35,36.91,70.37,37,70.39,37.08Z" fill="#480973"/>
        <path d="M70.28,59.93a.16.16,0,0,1-.07.22.17.17,0,0,1-.21,0s0,0,0,0,.12-.25.17-.37Z" fill="#480973"/>
        <path d="M70.34,36.83c-.09.11-.18.23-.26.35a.05.05,0,0,1,0,0,33.86,33.86,0,0,0-1.69-5.58,18.48,18.48,0,0,0-4.86-7.1,1.89,1.89,0,0,0-2.45-.11,12.39,12.39,0,0,0-3.39,4.59.16.16,0,0,1-.3-.13c.12-.27.28-.58.45-.92a.15.15,0,0,0,.21,0,.17.17,0,0,0,0-.23L58,27.59c1.23-2.31,3.42-5.37,5.82-3.5a17.91,17.91,0,0,1,5,7.31A30.09,30.09,0,0,1,70.34,36.83Z" fill="#480973"/>
        <path d="M69.6,55.69c1.23,1.1,1.17,2.61.56,4a4.82,4.82,0,0,0-2.66-2.2,5.78,5.78,0,0,0-.06-2.45A2.73,2.73,0,0,1,69.6,55.69Z" fill="#480973"/>
        <path d="M70.16,59.72c0,.12-.11.25-.17.37a5.42,5.42,0,0,0-2.84-2.18h0l.14-.11c.16-.13,0-.37-.2-.25l-.1.07a6.61,6.61,0,0,0,.14-2.47s.06,0,.08,0l.24,0a5.78,5.78,0,0,1,.06,2.45l-.22-.07.17.29c0-.07,0-.15,0-.22A4.82,4.82,0,0,1,70.16,59.72Z" fill="#480973"/>
        <path d="M68.45,42.19a.16.16,0,0,1-.28.15c0-.21,0-.42.08-.63C68.32,41.87,68.39,42,68.45,42.19Z" fill="#480973"/>
        <path d="M68.25,41.71c0,.21-.06.42-.08.63l0,0a12,12,0,0,0-5-5.71l.11-.05h-.21l.1.06a52.86,52.86,0,0,1-5.54,2.48,48.65,48.65,0,0,1-12,2.84,23.05,23.05,0,0,1-4.62.16l0,0a.17.17,0,0,0-.25-.22l-.17.2a8.06,8.06,0,0,1-1.18-.27.16.16,0,0,1,.09-.3,17.36,17.36,0,0,0,6.06,0,47.15,47.15,0,0,0,6-1.08,51.63,51.63,0,0,0,11.48-4.26.22.22,0,0,1,.21,0A12.2,12.2,0,0,1,68.25,41.71Z" fill="#480973"/>
        <path d="M67.5,57.52c0,.07,0,.15,0,.22l-.17-.29Z" fill="#480973"/>
        <path d="M67.43,55s0,0,0,.06l-.24,0s-.06,0-.08,0,0,0,0-.07A.16.16,0,0,1,67.43,55Z" fill="#480973"/>
        <path d="M67.08,57.54c.16-.12.36.12.2.25l-.14.11a.23.23,0,0,1-.16-.27v0Z" fill="#480973"/>
        <path d="M67,57.63a.23.23,0,0,0,.16.27A22.3,22.3,0,0,1,54.25,63a3,3,0,0,1-.06-.32A25.25,25.25,0,0,0,67,57.61Z" fill="#480973"/>
        <path d="M60.47,45.92A2.51,2.51,0,0,1,64.11,48a.16.16,0,0,1-.32,0c-.39-2.6-3.65-2.28-4.68-.24a5.53,5.53,0,0,0-.63,2.09.16.16,0,0,1-.32,0A4.23,4.23,0,0,1,60.47,45.92Z" fill="#480973"/>
        <path d="M63.4,42.08A2.44,2.44,0,0,1,64,44.26a8.1,8.1,0,0,0-7.25,2.22,2.26,2.26,0,0,1-1.11-1.93c0-1.5,1.67-2.57,3.1-3S62.39,41,63.4,42.08Z" fill="#480973"/>
        <path d="M63.28,36.54l-.11.05-.1-.06Z" fill="#480973"/>
        <path d="M58,27.64a.17.17,0,0,1,0,.23.15.15,0,0,1-.21,0,2.79,2.79,0,0,1,.15-.3Z" fill="#480973"/>
        <path d="M58,27.59a2.79,2.79,0,0,0-.15.3h0A47,47,0,0,0,53,24.06c-2.5-1.58-5.46-3.19-8.47-3-3,.68-4.21,4.43-4.72,7.15,0,.21-.35.16-.32,0a17.09,17.09,0,0,1,.61-2.63.19.19,0,0,0,0-.1c.72-2.2,2-4.3,4.32-4.83,3.17-.3,6.22,1.39,8.8,3.05A39.94,39.94,0,0,1,58,27.59Z" fill="#480973"/>
        <path d="M54.16,63.64a.16.16,0,1,1,.28.15c0,.12-.09.25-.13.37l-.21-.39Z" fill="#480973"/>
        <path d="M54.19,62.7a3,3,0,0,0,.06.32l-.17,0a.16.16,0,0,1,0-.32Z" fill="#480973"/>
        <path d="M45.17,46.09a3,3,0,0,1-.63,2.16,4.52,4.52,0,0,0-5.54-.5,3.3,3.3,0,0,1,.23-2.28,3.41,3.41,0,0,1,3.38-1.64A2.68,2.68,0,0,1,45.17,46.09Z" fill="#480973"/>
        <path d="M44.31,51.1c.06.2-.24.28-.31.1a3.3,3.3,0,0,0-2.26-2.28,1.92,1.92,0,0,0-2.25,1.75c0,.2-.32.19-.32,0a2.25,2.25,0,0,1,2.67-2.22A3.39,3.39,0,0,1,44.31,51.1Z" fill="#480973"/>
        <path d="M40.78,41.83a.17.17,0,0,1,.25.22l0,0-.39,0Z" fill="#480973"/>
        <path d="M40.61,42l.39,0a24.17,24.17,0,0,0-5.83,14.08s0,0,0,0L34.85,56a19.74,19.74,0,0,1,.56-4.19c.13-.1.26-.18.4-.27a.16.16,0,0,0-.18-.27l-.11.07a21.89,21.89,0,0,1,3.19-6.94l.42-.07a.16.16,0,0,0-.08-.31H39A21.49,21.49,0,0,1,40.61,42Z" fill="#480973"/>
        <path d="M40.22,76.68a.16.16,0,0,1,.3.12l0,.08c-.11,0-.22,0-.33-.06A.59.59,0,0,0,40.22,76.68Z" fill="#480973"/>
        <path d="M40.08,25.47a.29.29,0,0,0,0,.1.17.17,0,0,1-.23,0,15.3,15.3,0,0,0-4.14-2.12c-1.79-.48-5.15-1.68-6.22.44C27.38,30,29.58,39,34.72,43a5.71,5.71,0,0,0,4.24,1,4,4,0,0,0-.25.37c-3.18.46-5.9-2.06-7.4-4.63a20.41,20.41,0,0,1-2.88-13.74c.17-1.16.39-2.58,1.46-3.31s2.45-.44,3.62-.26A15.27,15.27,0,0,1,40,25.34.15.15,0,0,1,40.08,25.47Z" fill="#480973"/>
        <path d="M40.05,25.57a.29.29,0,0,1,0-.1A.19.19,0,0,1,40.05,25.57Z" fill="#480973"/>
        <path d="M39.05,44.05a.16.16,0,0,1,.08.31l-.42.07a4,4,0,0,1,.25-.37Z" fill="#480973"/>
        <path d="M35.63,51.3a.16.16,0,0,1,.18.27c-.14.09-.27.17-.4.27,0-.16.07-.32.11-.47Z" fill="#480973"/>
        <path d="M35.16,56.17a.16.16,0,0,1-.31,0V56Z" fill="#480973"/>
        <path d="M75.59,48.17c.26.37.49.79.75,1.17a4,4,0,0,1-4.11-1.21,1,1,0,0,1,.55-.51C73.69,47.76,74.68,48,75.59,48.17Z" fill="#480973"/>
      </g>
    </g>
  </g>
</svg>
