<svg id="bca32a56-b3d1-4fcf-b97b-414947c0c4fc" data-name="layer 1" xmlns="http://www.w3.org/2000/svg" viewBox="0 0 100 100">
  <title>profile_7</title>
  <g>
    <circle cx="50" cy="50" r="37.61" transform="translate(-20.71 50) rotate(-45)" fill="#ffc919"/>
    <path d="M69.42,49.75l-.28.3a27.86,27.86,0,0,0-1-3.16c1.19-1.6,2.44-3.5,2.26-5.61s-2.24-3.77-4.29-4a10.1,10.1,0,0,0-4,.29A16.76,16.76,0,0,0,60.58,32,17.28,17.28,0,0,0,54,24.49C50.27,22,47.18,23.74,47.77,28a18.05,18.05,0,0,0-12-6.23c-1.91,0-4.3-.42-5.82,1-2,2.56-.39,6.84,1.93,8.77a20.8,20.8,0,0,0-3.77,1.32c-3.8,1.83-7.6,4.62-9.11,8.71a6.53,6.53,0,0,0,6.5,8.68,18.45,18.45,0,0,0-1.83,9.53C23.85,62.5,25,65,28.17,64.62a14.7,14.7,0,0,0,9.34-5,16.27,16.27,0,0,0,2.7,5.47,7,7,0,0,1,1.33,4.2,35.22,35.22,0,0,0,.75,4.54,15.15,15.15,0,0,0,6.4,9.35c5,3.1,10.44-3.07,13.52-6.49.66-.8,1.29-1.62,1.88-2.47l.18-.26a35.7,35.7,0,0,0,2-3.18l.12-.23A35.88,35.88,0,0,0,70,60.42a5.94,5.94,0,0,0,2.06-.06l.31-.06a6.31,6.31,0,0,0,2.66-1.42c2.63-2.43,3.51-7.17,1-10C74.15,47,71,48,69.42,49.75Z" fill="#480973"/>
    <g>
      <path d="M80.1,49.28c-.19-2.33-1.93-4.54-4.46-4-2.37.44-3.86,2.56-5.13,4.46a.14.14,0,0,1-.23-.15,24.72,24.72,0,0,1,1.66-2.33A29.65,29.65,0,0,0,70.79,44c-.87-.39-1.75-.76-2.65-1.06-.38-.13-.77-.25-1.15-.36-.55-.17-1.11-.3-1.66-.43a.16.16,0,0,1-.14-.14,7.61,7.61,0,0,0-1.91-3.7c-2.69-2.5-9-1.79-12.16-.41A6.18,6.18,0,0,1,52.88,42c.12,2.49-1.74,3.32-3.87,3.55a14,14,0,0,1-6.89-.78h-.06v0a11,11,0,0,0-.68,1.38l-.08.18a16.17,16.17,0,0,0,2.22,15.54,7.46,7.46,0,0,1,1.42,4.37c.42,4.49,1.64,9.18,5.23,12.18a6.79,6.79,0,0,0,3.05,2,4.43,4.43,0,0,0,1.29.19c2.55.06,5-1.77,7.3-3.85.26-.24.53-.49.78-.74a37,37,0,0,0,10.2-18.68,5,5,0,0,1-1.52-.55.14.14,0,0,1,.13-.24,5.78,5.78,0,0,0,6.45-1A7.69,7.69,0,0,0,80.1,49.28ZM57.58,45.86a9.78,9.78,0,0,1,2.56-1c1.74-.41,3.77-.69,5.42.19a1.27,1.27,0,0,1,.4.37,1.37,1.37,0,0,1,.29,1,.94.94,0,0,1-.4.68,1.76,1.76,0,0,1-.7.26l-2.64.51-2.64.51c-.89.12-1.89.56-2.72,0A1.54,1.54,0,0,1,57.58,45.86Zm4.49,8c-.1.13-.31,0-.22-.15a2.58,2.58,0,0,1,1.24-1,7.1,7.1,0,0,1-.2-2.13.92.92,0,0,1,.36-.82.63.63,0,0,1,.66.08,1.47,1.47,0,0,1,.42.54,4.11,4.11,0,0,1,.44,2.15s0,0,0,.08a2,2,0,0,1,.56.3.13.13,0,0,1-.13.23A2.65,2.65,0,0,0,62.07,53.89ZM65,56.53c-.21,0-.38-.18-.54-.26s-.26-.2-.39-.32a.14.14,0,0,1,.12-.24,1.36,1.36,0,0,1,.88.63A.15.15,0,0,1,65,56.53Zm-2.31.93a.14.14,0,0,1-.23.14,2.35,2.35,0,0,1-.59-1,.14.14,0,0,1,.22-.14A2.33,2.33,0,0,1,62.68,57.46Zm-2.44,1a.14.14,0,0,1-.12.15c-.35.07-.79-2-.23-1.46A7.22,7.22,0,0,1,60.24,58.42Zm-2.47.79a.14.14,0,0,1-.13.15.16.16,0,0,1-.14-.08,2.6,2.6,0,0,1-.11-1.76.13.13,0,0,1,.26,0C57.67,58.12,57.72,58.65,57.77,59.21Zm-2.65-1.46a.13.13,0,0,1,.25.07,11.42,11.42,0,0,0-.12,2,.13.13,0,0,1-.13.13.14.14,0,0,1-.13-.09A3,3,0,0,1,55.12,57.75Zm-1.86.32a.14.14,0,0,1,.25.12A8.35,8.35,0,0,0,53.17,60a.13.13,0,0,1-.14.13.14.14,0,0,1-.12-.11A2.56,2.56,0,0,1,53.26,58.07Zm-1.84.22c.11-.1.29,0,.22.16A6.18,6.18,0,0,0,51.11,60a.13.13,0,0,1-.16.1.14.14,0,0,1-.1-.11A2.06,2.06,0,0,1,51.42,58.29ZM42.2,51.64c-.88-.19-1-1.38-.52-2,1.17-1.46,3.16-2,4.92-2.29a9.5,9.5,0,0,1,2.72-.12,1.53,1.53,0,0,1,1.37,2.11c-.52.88-1.62.87-2.49,1.11L45.57,51A19.59,19.59,0,0,1,42.2,51.64Zm7.57,7a4.29,4.29,0,0,0-.72,1.31.14.14,0,0,1-.27,0,1.75,1.75,0,0,1,.81-1.47A.14.14,0,0,1,49.77,58.62Zm-4.93-1.35c-.09.13-.3,0-.21-.16a2.71,2.71,0,0,1,1.24-1,7.12,7.12,0,0,1-.2-2.13.92.92,0,0,1,.36-.82.63.63,0,0,1,.66.08,1.39,1.39,0,0,1,.42.54,4.11,4.11,0,0,1,.44,2.15s0,.06,0,.08a2,2,0,0,1,.56.3.13.13,0,0,1-.13.23A2.67,2.67,0,0,0,44.84,57.27Zm3.06,1.4A3.31,3.31,0,0,0,47,59.75a.14.14,0,0,1-.25-.08,1.48,1.48,0,0,1,1.05-1.24A.14.14,0,0,1,47.9,58.67Zm3.67,7c-1.45-.11-3.61.06-4.65-1.09a2.26,2.26,0,0,1-.5-1,1.59,1.59,0,0,1,.1-1,1.89,1.89,0,0,1,1.67-1.15c1-.12,2,.13,2.92,0s1.94-.12,2.9-.21a34,34,0,0,0,8.45-1.93,7.2,7.2,0,0,1,2.9-.7A2.1,2.1,0,0,1,67,62.05c-.92,1.25-2.53,1.61-3.9,2.08A35.58,35.58,0,0,1,51.57,65.62ZM77.5,49.22a.13.13,0,0,1-.18,0c-1-.92-2.48-.18-3.41.91A2.09,2.09,0,0,1,75.85,53c-.07.15-.29,0-.25-.1a1.92,1.92,0,0,0-1.95-2.5A3,3,0,0,0,73,52a2.24,2.24,0,0,0,.78,1.76c.15.11,0,.34-.17.21a2.62,2.62,0,0,1-.35-3.71,3.73,3.73,0,0,1,3.22-1.77,1.5,1.5,0,0,1,1,.58A.14.14,0,0,1,77.5,49.22Z" fill="#48a2e8"/>
      <path d="M77.86,55.63a7.16,7.16,0,0,1-1.36.88,5.62,5.62,0,0,1-5.11.05.14.14,0,0,0-.13.24,5,5,0,0,0,1.52.55A37,37,0,0,1,62.58,76,44,44,0,0,0,66,71.81a25.91,25.91,0,0,0,4.13-15.08,37.75,37.75,0,0,0-1.08-8c-.46-2-1.57-4.14-2.05-6.16.38.11.77.23,1.15.36.9.3,1.78.67,2.65,1.06a29.65,29.65,0,0,1,1.15,3.28,5.05,5.05,0,0,0-1.58,3.18,5.66,5.66,0,0,0,1.07,3.44,1.84,1.84,0,0,0,.7.63.82.82,0,0,0,.89-.1,1,1,0,0,0,.18-.89c-.07-.31-.23-.59-.32-.89a2.68,2.68,0,0,1,.49-2.25A4.75,4.75,0,0,1,75.26,49a2.14,2.14,0,0,1,2-.11,1.91,1.91,0,0,1,.65,1.91c-.1.7-.39,1.37-.42,2.08a1.15,1.15,0,0,0,.36,1,1,1,0,0,0,1.13-.12,2.84,2.84,0,0,0,.69-1A7.7,7.7,0,0,1,78.56,55,5.44,5.44,0,0,1,77.86,55.63Z" fill="#227fc7"/>
      <path d="M72.93,39.62a3.54,3.54,0,0,1-.16.62,13.14,13.14,0,0,1-1.89,3.46,23.65,23.65,0,0,0-5.35-1.9,7.7,7.7,0,0,0-2-3.78c-2.83-2.62-9.35-1.87-12.61-.34h0a9.37,9.37,0,0,0-3.2-2.07c-.16-.07-.26.19-.1.25a8.56,8.56,0,0,1,4.15,3.52c.81,1.45,1.2,3.81-.25,4.94-3,1.66-7.7,1.05-10.71-.47a.14.14,0,0,0-.13.24,11.87,11.87,0,0,0,1.14.54v0a15.54,15.54,0,0,0-1.38,11.67,15.78,15.78,0,0,1-5.81,4.05,15.1,15.1,0,0,1-2.52.73c-2.81.54-4.73-.35-5-4.41a18.52,18.52,0,0,1,1.8-9.55.11.11,0,0,0,0-.07c.14-.29.28-.57.44-.84a.14.14,0,0,0-.05-.18l0,0a.14.14,0,0,0-.15.06l-.11.19c-.12.21-.23.42-.34.63a6.19,6.19,0,0,1-6.32-4.22c-1.76-5.6,4.48-10.42,8.93-12.55a22,22,0,0,1,8.15-2,.12.12,0,0,0,.12-.13v0a.14.14,0,0,0-.13-.09,20.37,20.37,0,0,0-2.72.25c-.5.08-1,.18-1.47.29-2.22-1.78-3.86-6-2-8.43,1.4-1.29,3.73-.93,5.51-.87a17.85,17.85,0,0,1,12.13,6.43.13.13,0,0,0,.09.11c.29.36.57.73.83,1.11a.12.12,0,0,0,.18,0,.13.13,0,0,0,0-.18c-.28-.43-.58-.85-.9-1.25-.75-4.23,2.09-6,5.68-3.57a17.65,17.65,0,0,1,6.47,7.38,17.94,17.94,0,0,1,1.67,6.39.13.13,0,0,0,.14.13.13.13,0,0,0,.12-.14c0-.25,0-.5,0-.75A10.75,10.75,0,0,1,69,34.6,4.29,4.29,0,0,1,72.93,39.62Z" fill="#7229ab"/>
      <path d="M65.32,59c2.18.2,2.21,2.32.83,3.43l-.53-.59a.16.16,0,0,0,.1-.05A1.13,1.13,0,0,0,65.21,60c-.13,0-.24.16-.11.24a1.13,1.13,0,0,1,.33.36,40,40,0,0,1-17.58,2.68c-.09,0-.13.06-.13.13l-1,0c-.14-2.47,2.86-1.55,4.44-1.7,1-.06,2-.1,2.92-.19a34,34,0,0,0,8.56-1.9A6.77,6.77,0,0,1,65.32,59Z" fill="#ec2872"/>
      <path d="M65.62,61.84l.53.59a3,3,0,0,1-.46.3,32.41,32.41,0,0,1-14.11,2.59c-1.66-.15-4.35.22-4.9-1.82v-.06l1,0a.13.13,0,0,0,.11.14,35.86,35.86,0,0,0,17.72-2.71,0,0,0,0,0,0,0,1.28,1.28,0,0,1-.06.77.15.15,0,0,0,0,.16A.18.18,0,0,0,65.62,61.84Z" fill="#ec2872"/>
      <path d="M57.31,48.13c-2.54-2.84,8.69-4.61,8.56-1.76,0,.37-.36.56-.79.64l-2.64.54-2.63.54C59,48.21,58,48.64,57.31,48.13Z" fill="#7229ab"/>
      <path d="M41.89,51c-1.23-2.58,9.8-5.32,8.56-1.71-.45.74-1.52.73-2.31.93l-2.64.53-2.63.53C42.44,51.34,42.05,51.3,41.89,51Z" fill="#7229ab"/>
      <path d="M32,43.28c1.24-1,2.61-1.42,3.75.08a5.12,5.12,0,0,1,.84,2,18.26,18.26,0,0,1-1.67,12.16,8.35,8.35,0,0,1-1.94,2.77,3.57,3.57,0,0,1-3.17.84c-1.49-.43-2.32-2-2.62-3.56a15.35,15.35,0,0,1,1.54-9.84A15.62,15.62,0,0,1,32,43.28Z" fill="#b235db"/>
      <path d="M22,42.46a4.3,4.3,0,0,0,.2.57,4,4,0,0,0,1.89,2.08c1.74.79,3.62-.36,5-1.25A38.24,38.24,0,0,0,35,39.58,17.21,17.21,0,0,0,40.21,31,2.63,2.63,0,0,0,40,28.82c-.57-.8-1.75-.79-2.73-.64a23.37,23.37,0,0,0-10.49,4.4C24.08,34.68,20.93,38.79,22,42.46Z" fill="#b235db"/>
      <path d="M36,25.82a30.18,30.18,0,0,0,7.33.87c1.92-.08,4,.17,5.85-.33.53-.14,1.12-.41,1.23-.93a1.54,1.54,0,0,0-.56-1.25,17.43,17.43,0,0,0-8.9-4.93c-2.69-.57-8.17-1.09-8.72,2.71C31.86,24.15,34.07,25.43,36,25.82Z" fill="#b235db"/>
      <path d="M51.26,38.54l.08.1a4.23,4.23,0,0,1,.94,3c-.14,1.21-1.15,1.69-2.25,2a10.67,10.67,0,0,1-7.31-.73A4,4,0,0,1,40.23,40a3.58,3.58,0,0,1,1.46-3,6.78,6.78,0,0,1,5.06-1.55C48.3,35.75,50.26,37.31,51.26,38.54Z" fill="#b235db"/>
      <path d="M51.62,22.65c-.31,4.42,5.37,7.4,9.24,7,3-.28,1-3.36,0-4.69-1.43-1.81-5.34-5.16-7.92-4.46a1.91,1.91,0,0,0-1.25,1.54A5.54,5.54,0,0,0,51.62,22.65Z" fill="#b235db"/>
      <path d="M67.62,38.32a5,5,0,0,0,3.49-.06c.6-.22,1.23-.61,1.33-1.23.19-1.08-1.31-2.09-2.2-2.39a7.83,7.83,0,0,0-4.21-.2,1.2,1.2,0,0,0-.71.37.84.84,0,0,0-.07.74A4.41,4.41,0,0,0,67.62,38.32Z" fill="#b235db"/>
      <g>
        <path d="M77.84,55.6a7.69,7.69,0,0,0,2.26-6.32c-.19-2.33-1.93-4.54-4.46-4-2.37.44-3.86,2.56-5.13,4.46a.14.14,0,0,1-.23-.15,24.72,24.72,0,0,1,1.66-2.33l0,.09a.11.11,0,0,0,.15.09.12.12,0,0,0,.1-.15,2.68,2.68,0,0,0-.07-.27l.28-.31C74,45,77.17,44,79,45.92c2.55,2.77,1.67,7.52-1,9.94a6.29,6.29,0,0,1-2.67,1.42l-.17-.18a.14.14,0,0,0-.2,0,.14.14,0,0,0,0,.19l.06.07a5.88,5.88,0,0,1-2,0,.7.7,0,0,1,0-.14.13.13,0,0,0-.11-.15.13.13,0,0,0-.16.1l0,.14a5,5,0,0,1-1.52-.55.14.14,0,0,1,.13-.24A5.78,5.78,0,0,0,77.84,55.6Z" fill="#480973"/>
        <path d="M77.53,49a.14.14,0,0,1,0,.19.13.13,0,0,1-.18,0c-1-.92-2.48-.18-3.41.91a2.28,2.28,0,0,0-.51.09.18.18,0,0,0-.07.05l0,0a3.73,3.73,0,0,1,3.22-1.77A1.5,1.5,0,0,1,77.53,49Z" fill="#480973"/>
        <path d="M73.91,50.1A2.09,2.09,0,0,1,75.85,53c-.07.15-.29,0-.25-.1a1.92,1.92,0,0,0-1.95-2.5A4.19,4.19,0,0,1,73.91,50.1Z" fill="#480973"/>
        <path d="M75.24,57.1l.17.18-.31.07L75,57.28a.14.14,0,0,1,0-.19A.14.14,0,0,1,75.24,57.1Z" fill="#480973"/>
        <path d="M73.82,53.72c.15.11,0,.34-.17.21a2.62,2.62,0,0,1-.35-3.71l0,0a.15.15,0,0,0,.14.22,1.13,1.13,0,0,1,.18,0A3,3,0,0,0,73,52,2.24,2.24,0,0,0,73.82,53.72Z" fill="#480973"/>
        <path d="M73.91,50.1a4.19,4.19,0,0,0-.26.33,1.13,1.13,0,0,0-.18,0,.15.15,0,0,1-.14-.22.18.18,0,0,1,.07-.05A2.28,2.28,0,0,1,73.91,50.1Z" fill="#480973"/>
        <path d="M73.36,38.27c.18,2.11-1.06,4-2.26,5.6,0,0,0,0,0-.06l-.2-.11a13.14,13.14,0,0,0,1.89-3.46c1-2.78-1-5.25-3.75-5.64a10.75,10.75,0,0,0-3.87.2,1.24,1.24,0,0,0,0-.27,10.1,10.1,0,0,1,3.95-.29C71.13,34.49,73.24,36.05,73.36,38.27Z" fill="#480973"/>
        <path d="M73,57.11a.13.13,0,0,1,.11.15.7.7,0,0,0,0,.14,1.28,1.28,0,0,1-.27,0l0-.14A.13.13,0,0,1,73,57.11Z" fill="#480973"/>
        <path d="M72.78,57.35a1.28,1.28,0,0,0,.27,0,36.27,36.27,0,0,1-3.69,10.17.13.13,0,0,0-.15.19l0,0q-.9,1.64-1.95,3.18a.43.43,0,0,0,0-.07.12.12,0,0,0-.18-.06A.14.14,0,0,0,67,71a1.86,1.86,0,0,0,.1.2c-.6.86-1.23,1.68-1.89,2.48-3.08,3.42-8.5,9.58-13.51,6.48a15.1,15.1,0,0,1-6.4-9.34,32,32,0,0,1-.75-4.55,6.94,6.94,0,0,0-1.34-4.19,16.06,16.06,0,0,1-2.69-5.47c.06-.06.11-.13.17-.2s-.09-.31-.2-.18l-.06.07a15.54,15.54,0,0,1,1.38-11.67v0l.06,0a.45.45,0,0,0,.17.08v0c-3,5.28-2.18,12.33,1.46,17.1a7.46,7.46,0,0,1,1.42,4.37c.42,4.49,1.64,9.18,5.23,12.18,4,4.22,8.1,1.59,11.64-1.67A36.93,36.93,0,0,0,72.78,57.35Z" fill="#480973"/>
        <path d="M72.22,47.31a.12.12,0,0,1-.1.15.11.11,0,0,1-.15-.09l0-.09a2.25,2.25,0,0,1,.21-.24A2.68,2.68,0,0,1,72.22,47.31Z" fill="#480973"/>
        <path d="M70.77,44a.11.11,0,0,0,0,0c-.87-.39-1.75-.76-2.65-1.06a27.23,27.23,0,0,0-2.81-.79.16.16,0,0,1-.14-.14,7.61,7.61,0,0,0-1.91-3.7c-2.69-2.5-9-1.79-12.16-.41l-.19-.21h0c3.26-1.53,9.78-2.28,12.61.34a7.7,7.7,0,0,1,2,3.78l-.11,0,.14.14,0-.12a23.65,23.65,0,0,1,5.35,1.9s0,0,0,.06.12.29.22.16l0-.05A26.74,26.74,0,0,1,72.15,47a2.25,2.25,0,0,0-.21.24A29.65,29.65,0,0,0,70.79,44l.06,0Z" fill="#480973"/>
        <path d="M71.08,43.81s0,0,0,.06l0,.05c-.1.13-.32,0-.22-.16s0,0,0-.06Z" fill="#480973"/>
        <path d="M70.77,44l.08.08-.06,0A.11.11,0,0,1,70.77,44Z" fill="#480973"/>
        <path d="M69.36,67.57c0,.07-.08.15-.12.23l0,0A.13.13,0,0,1,69.36,67.57Z" fill="#480973"/>
        <path d="M67.25,70.91a.43.43,0,0,1,0,.07l-.18.25A1.86,1.86,0,0,1,67,71a.14.14,0,0,1,.06-.18A.12.12,0,0,1,67.25,70.91Z" fill="#480973"/>
        <path d="M65.36,58.6A2.1,2.1,0,0,1,67,62.05c-.92,1.25-2.53,1.61-3.9,2.08a35.58,35.58,0,0,1-11.56,1.49c-1.78-.14-4.61.14-5.15-2.08a1.84,1.84,0,0,1,1.77-2.12c1-.12,2,.13,2.92,0s1.94-.11,2.9-.21a34,34,0,0,0,8.45-1.93A7.2,7.2,0,0,1,65.36,58.6Zm.79,3.83c1.38-1.11,1.35-3.23-.83-3.43a6.77,6.77,0,0,0-2.72.65A34,34,0,0,1,54,61.55c-1,.09-1.94.13-2.92.19-1.58.15-4.58-.77-4.44,1.7v.06c.55,2,3.24,1.67,4.9,1.82a32.41,32.41,0,0,0,14.11-2.59A3,3,0,0,0,66.15,62.43Z" fill="#480973"/>
        <path d="M65.56,45.1c.65.36,1,1.49.29,2a1.76,1.76,0,0,1-.7.26l-2.64.51-2.64.51c-.89.12-1.89.56-2.72,0a1.54,1.54,0,0,1,.43-2.48,9.78,9.78,0,0,1,2.56-1C61.88,44.5,63.91,44.22,65.56,45.1Zm.31,1.27c.13-2.85-11.1-1.08-8.56,1.76.72.51,1.7.08,2.5,0l2.63-.54L65.08,47C65.51,46.93,65.85,46.74,65.87,46.37Z" fill="#480973"/>
        <path d="M65.21,60a1.13,1.13,0,0,1,.51,1.79.16.16,0,0,1-.1.05.18.18,0,0,1-.1,0,.15.15,0,0,1,0-.16,1.28,1.28,0,0,0,.06-.77,0,0,0,0,1,0,0l.08,0c.16-.07.05-.31-.11-.25l-.09,0a1.13,1.13,0,0,0-.33-.36C65,60.16,65.08,60,65.21,60Z" fill="#480973"/>
        <path d="M65.52,60.56c.16-.06.27.18.11.25l-.08,0a.9.9,0,0,0-.12-.24Z" fill="#480973"/>
        <path d="M65.53,41.8l0,.12-.14-.14Z" fill="#480973"/>
        <path d="M65.43,60.6a.9.9,0,0,1,.12.24,35.86,35.86,0,0,1-17.72,2.71.13.13,0,0,1-.11-.14c0-.07,0-.14.13-.13A40,40,0,0,0,65.43,60.6Z" fill="#480973"/>
        <path d="M65.32,52.9a.13.13,0,0,1-.13.23,2.65,2.65,0,0,0-3.12.76c-.1.13-.31,0-.22-.15a2.58,2.58,0,0,1,1.24-1l.06.19a2.28,2.28,0,0,1,1.58-.11.57.57,0,0,0,0-.18A2,2,0,0,1,65.32,52.9Z" fill="#480973"/>
        <path d="M65.2,35.55a.13.13,0,0,1-.12.14.13.13,0,0,1-.14-.13,17.94,17.94,0,0,0-1.67-6.39,17.65,17.65,0,0,0-6.47-7.38c-3.59-2.46-6.43-.66-5.68,3.57l-.34-.42c-.59-4.21,2.5-6,6.22-3.47A17.42,17.42,0,0,1,63.6,29a17.12,17.12,0,0,1,1.52,5.52l-.15,0a.13.13,0,0,0-.09.16.12.12,0,0,0,.15.1l.12,0C65.18,35.05,65.19,35.3,65.2,35.55Z" fill="#480973"/>
        <path d="M65.15,34.8l-.12,0a.12.12,0,0,1-.15-.1.13.13,0,0,1,.09-.16l.15,0A1.24,1.24,0,0,1,65.15,34.8Z" fill="#480973"/>
        <path d="M65.06,56.34a.15.15,0,0,1-.07.19c-.21,0-.38-.18-.54-.26s-.26-.2-.39-.32a.14.14,0,0,1,.12-.24A1.36,1.36,0,0,1,65.06,56.34Z" fill="#480973"/>
        <path d="M64.33,50.37a4.11,4.11,0,0,1,.44,2.15s0,0,0,.08a2.47,2.47,0,0,0-1.67.1,7.1,7.1,0,0,1-.2-2.13.92.92,0,0,1,.36-.82.63.63,0,0,1,.66.08A1.47,1.47,0,0,1,64.33,50.37Z" fill="#480973"/>
        <path d="M64.76,52.6a.57.57,0,0,1,0,.18,2.28,2.28,0,0,0-1.58.11l-.06-.19A2.47,2.47,0,0,1,64.76,52.6Z" fill="#480973"/>
        <path d="M62.68,57.46a.14.14,0,0,1-.23.14,2.35,2.35,0,0,1-.59-1,.14.14,0,0,1,.22-.14A2.33,2.33,0,0,1,62.68,57.46Z" fill="#480973"/>
        <path d="M60.24,58.42a.14.14,0,0,1-.12.15c-.35.07-.79-2-.23-1.46A7.22,7.22,0,0,1,60.24,58.42Z" fill="#480973"/>
        <path d="M57.77,59.21a.14.14,0,0,1-.13.15.16.16,0,0,1-.14-.08,2.6,2.6,0,0,1-.11-1.76.13.13,0,0,1,.26,0C57.67,58.12,57.72,58.65,57.77,59.21Z" fill="#480973"/>
        <path d="M55.12,57.75a.13.13,0,0,1,.25.07,11.42,11.42,0,0,0-.12,2,.13.13,0,0,1-.13.13.14.14,0,0,1-.13-.09A3,3,0,0,1,55.12,57.75Z" fill="#480973"/>
        <path d="M53.26,58.07a.14.14,0,0,1,.25.12A8.35,8.35,0,0,0,53.17,60a.13.13,0,0,1-.14.13.14.14,0,0,1-.12-.11A2.56,2.56,0,0,1,53.26,58.07Z" fill="#480973"/>
        <path d="M52.88,42c.12,2.49-1.74,3.32-3.87,3.55a14,14,0,0,1-6.89-.78c.05,0,.07,0,0-.12s-.43-.24-.3,0a0,0,0,0,1,0,0h0a11.87,11.87,0,0,1-1.14-.54.14.14,0,0,1,.13-.24c3,1.52,7.68,2.13,10.71.47,1.45-1.13,1.06-3.49.25-4.94a8.56,8.56,0,0,0-4.15-3.52c-.16-.06-.06-.32.1-.25a9.37,9.37,0,0,1,3.2,2.07c-.14.08,0,.3.12.24s.05,0,.07,0A6.18,6.18,0,0,1,52.88,42Z" fill="#480973"/>
        <path d="M52,26.61a.13.13,0,0,1,0,.18.12.12,0,0,1-.18,0c-.26-.38-.54-.75-.83-1.11.09,0,.2,0,.18-.14l0-.15C51.44,25.76,51.74,26.18,52,26.61Z" fill="#480973"/>
        <path d="M51.42,58.29c.11-.1.29,0,.22.16A6.18,6.18,0,0,0,51.11,60a.13.13,0,0,1-.16.1.14.14,0,0,1-.1-.11A2.06,2.06,0,0,1,51.42,58.29Z" fill="#480973"/>
        <path d="M51.15,25.51c0,.11-.09.16-.18.14l-.09-.11c0-.2-.07-.4-.1-.6l.34.42Z" fill="#480973"/>
        <path d="M50.93,37.69l.19.21s0,0-.07,0S50.79,37.77,50.93,37.69Z" fill="#480973"/>
        <path d="M50.88,25.54l.09.11A.13.13,0,0,1,50.88,25.54Z" fill="#480973"/>
        <path d="M50.78,24.94c0,.2.06.4.1.6a17.85,17.85,0,0,0-12.13-6.43c-1.78-.06-4.11-.42-5.51.87-1.87,2.42-.23,6.65,2,8.43l-.33.08C32.59,26.57,31,22.29,33,19.72c1.52-1.43,3.92-1.06,5.82-1A18,18,0,0,1,50.78,24.94Z" fill="#480973"/>
        <path d="M49.32,47.26a1.53,1.53,0,0,1,1.37,2.11c-.52.88-1.62.87-2.49,1.11L45.57,51a19.59,19.59,0,0,1-3.37.6c-.88-.19-1-1.38-.52-2,1.17-1.46,3.16-2,4.92-2.29A9.5,9.5,0,0,1,49.32,47.26Zm1.13,2c1.24-3.61-9.79-.87-8.56,1.71.16.34.55.38,1,.28l2.63-.53,2.64-.53C48.93,50,50,50,50.45,49.25Z" fill="#480973"/>
        <path d="M49.59,58.41a.14.14,0,0,1,.18.21,4.29,4.29,0,0,0-.72,1.31.14.14,0,0,1-.27,0A1.75,1.75,0,0,1,49.59,58.41Z" fill="#480973"/>
        <path d="M48.1,56.28a.13.13,0,0,1-.13.23,2.67,2.67,0,0,0-3.13.76c-.09.13-.3,0-.21-.16a2.71,2.71,0,0,1,1.24-1l.06.19.41-.15a2.31,2.31,0,0,1,1.17,0,1.13,1.13,0,0,0,0-.18A2,2,0,0,1,48.1,56.28Z" fill="#480973"/>
        <path d="M47.78,58.43a.14.14,0,0,1,.12.24A3.31,3.31,0,0,0,47,59.75a.14.14,0,0,1-.25-.08A1.48,1.48,0,0,1,47.78,58.43Z" fill="#480973"/>
        <path d="M47.11,53.75a4.11,4.11,0,0,1,.44,2.15s0,.06,0,.08a2.47,2.47,0,0,0-1.67.1,7.12,7.12,0,0,1-.2-2.13.92.92,0,0,1,.36-.82.63.63,0,0,1,.66.08A1.39,1.39,0,0,1,47.11,53.75Z" fill="#480973"/>
        <path d="M47.54,56a1.13,1.13,0,0,1,0,.18,2.31,2.31,0,0,0-1.17,0l-.41.15-.06-.19A2.47,2.47,0,0,1,47.54,56Z" fill="#480973"/>
        <path d="M42.14,44.64c0,.09,0,.11,0,.12l-.06,0a.12.12,0,0,0-.05-.13.11.11,0,0,0-.16,0,0,0,0,0,0,0,0C41.71,44.4,42.1,44.54,42.14,44.64Z" fill="#480973"/>
        <path d="M42.06,44.74l.06,0h-.06Z" fill="#480973"/>
        <path d="M42,44.61a.12.12,0,0,1,.05.13l-.17-.07,0,0A.11.11,0,0,1,42,44.61Z" fill="#480973"/>
        <path d="M41.89,44.67l.17.07h0A.45.45,0,0,1,41.89,44.67Z" fill="#480973"/>
        <path d="M41.89,44.67l-.06,0h0Z" fill="#480973"/>
        <path d="M40.5,56.26c.11-.13.32.05.2.18s-.11.14-.17.2c0-.1-.06-.21-.09-.31Z" fill="#480973"/>
        <path d="M40.44,56.33c0,.1.05.21.09.31a14.8,14.8,0,0,1-9.35,5C28,62,26.86,59.49,26.7,56.73a18.44,18.44,0,0,1,1.82-9.53l.28,0a.19.19,0,0,0,.08,0,18.52,18.52,0,0,0-1.8,9.55c.38,5.19,3.41,5.2,7.55,3.68A15.78,15.78,0,0,0,40.44,56.33Z" fill="#480973"/>
        <path d="M39.55,28a.12.12,0,0,1-.12.13,21.86,21.86,0,0,0-4.18.62v0a.14.14,0,0,0,.08-.24l-.1-.08a20.38,20.38,0,0,1,4.19-.54A.13.13,0,0,1,39.55,28Z" fill="#480973"/>
        <path d="M35.33,28.49a.14.14,0,0,1-.08.24.07.07,0,0,1-.08,0,1.78,1.78,0,0,1-.27-.21l.33-.08Z" fill="#480973"/>
        <path d="M35.25,28.73v0a21.78,21.78,0,0,0-4,1.4c-4.45,2.13-10.69,7-8.93,12.55a6.19,6.19,0,0,0,6.32,4.22l-.15.28A6.53,6.53,0,0,1,22,38.52c1.51-4.09,5.32-6.88,9.11-8.7a21.11,21.11,0,0,1,3.77-1.33,1.78,1.78,0,0,0,.27.21A.07.07,0,0,0,35.25,28.73Z" fill="#480973"/>
        <path d="M29.3,46.06a.14.14,0,0,1,.05.18c-.16.27-.3.55-.44.84a.13.13,0,0,0-.14-.17h-.1c.14-.28.29-.55.45-.82A.13.13,0,0,1,29.3,46.06Z" fill="#480973"/>
        <path d="M28.77,46.91a.13.13,0,0,1,.14.17l0,.07a.19.19,0,0,1-.08,0l-.28,0,.15-.28Z" fill="#480973"/>
        <path d="M28.88,47.15l0-.07A.11.11,0,0,1,28.88,47.15Z" fill="#480973"/>
      </g>
    </g>
  </g>
</svg>
