<svg xmlns="http://www.w3.org/2000/svg" viewBox="0 0 100 100">
  <title>profile_1</title>
  <g style="isolation: isolate">
    <g id="a7f75eac-1d41-4cfa-9d8f-6dfdfab3755e" data-name="layer 1">
      <g>
        <circle cx="52.52" cy="50" r="37.61" fill="#ec2872"/>
        <path d="M79.76,34.78a33.72,33.72,0,0,0-11.93-6.25h0a24.16,24.16,0,0,0-16.24-8.07,14.29,14.29,0,0,0-12.87,5.06,10.54,10.54,0,0,0-2,4.26c-8.31-2.64-18.78-2.76-25,4.1C7.71,38.24,6.35,44.43,7,50.18c.25,2.27,1.18,4.87,3.5,5.74a3.89,3.89,0,0,0,2.54.15,7.78,7.78,0,0,0-.19,3.65,21.36,21.36,0,0,0,3.78,9.46l.14.18c.18.26.36.51.55.75l.23.3a.09.09,0,0,0,.07,0,17.49,17.49,0,0,0,7.85,4.87c9.14,2.68,18.77.37,27.58-2.74l.48-.17,2.13-.78a24.81,24.81,0,0,0,4.14-2.11A6.32,6.32,0,0,0,61,68.62a10,10,0,0,0,1.48.44l.28.06.53.1a16.71,16.71,0,0,0,14-4A16,16,0,0,0,79.2,63.1a3.32,3.32,0,0,0,2.59,1.7c2.41.23,4.35-1.6,5.68-3.38a14.55,14.55,0,0,0,2.6-9.68C89.51,44.85,84.92,39,79.76,34.78Z" fill="#480973"/>
        <g>
          <path d="M13.66,52.64a3.49,3.49,0,0,0,2.58.09l.05,0a2.5,2.5,0,0,0,.55-.31.12.12,0,0,1,.17,0,.14.14,0,0,1,0,.18,2.68,2.68,0,0,1-.57.32,7.71,7.71,0,0,0-.18,3.73,22.1,22.1,0,0,0,2.63,7.6,25.07,25.07,0,0,0,2.05,3.22,10.11,10.11,0,0,0,2.95,2.37,26.31,26.31,0,0,0,15.4,3.37,25.7,25.7,0,0,0,3.89-.66,13.87,13.87,0,0,0,1.66-.41c.71-.27,1.43-.52,2.15-.77,2.84-1,5.75-1.78,8.67-2.48.79-1.3,1.52-2.63,2.23-4-8.08,3.14-18.43,1.94-23.55-5.48a12.45,12.45,0,0,1-1.48-10l-.2,0a.86.86,0,0,1-.67-.6c-.12-.65.84-1.46,1.52-2l.36-.25a13.17,13.17,0,0,1,1-1.84c-1,.14-.91-1.17-.68-1.82a2.62,2.62,0,0,1,2.12-1.86,2.13,2.13,0,0,1,1.47.07,19.75,19.75,0,0,1,9-5,1.86,1.86,0,0,1,.7-1.46c2.2-2,7.43-1.93,9.28.6a29.9,29.9,0,0,1,6.24,1c.67.18,1.33.38,2,.61a6.08,6.08,0,0,1,1-.52A5.53,5.53,0,0,1,68.39,36a.12.12,0,0,1,.12.13.13.13,0,0,1-.13.12A5.52,5.52,0,0,0,64.21,38c-3.34,3.63-1.51,9.75,2.45,12.16a3.53,3.53,0,0,1,.63-.13c.16,0,.18.26,0,.26-2.79.38-4,4.53-4.85,6.83a15.37,15.37,0,0,0-.71,5.7.06.06,0,0,1,0,.06s0,0,0,0c.44,2,2.8,2.57,4.57,2.89A16.48,16.48,0,0,0,80,61.93a15.9,15.9,0,0,0,2-2.22,16.76,16.76,0,0,0,3.31-8,.25.25,0,0,1,0-.08.12.12,0,0,1,.14-.1.11.11,0,0,1,.11.13,16.58,16.58,0,0,1-3.27,8.18,3,3,0,0,0,2.46,1.64c2.26.19,4.12-1.59,5.38-3.29a9.82,9.82,0,0,0,.71-1.1,14.41,14.41,0,0,0,1.79-8.36C92.13,42,87.62,36.24,82.55,32a34.15,34.15,0,0,0-11.46-6.17l.07.09a.12.12,0,0,1,0,.17.12.12,0,0,1-.17,0,25.41,25.41,0,0,0-7.4-5.8c-6.77-3.37-16.5-4.18-21.63,2.39a10.08,10.08,0,0,0-2,4.14l.81.27a.14.14,0,0,1,.08.16.13.13,0,0,1-.17.08,34,34,0,0,0-13.56-1.82C17,26.26,10.48,33.68,10.24,43.69,10.23,46.85,10.3,51.18,13.66,52.64Z" fill="#ffe226"/>
          <path d="M33.69,50.79a2.72,2.72,0,0,0,1.76-.28A6.17,6.17,0,0,0,37.55,49,2.78,2.78,0,0,0,38,46.42a.89.89,0,0,0-.14-.24.62.62,0,0,0-.13-.46.85.85,0,0,0-.71-.25,5.2,5.2,0,0,0-2.67.82,14.91,14.91,0,0,1,.92-1.66c.56-.33.74-1.12,1.21-1.49s.78-.34,1.23-.56A.84.84,0,0,0,38,41.32a23.56,23.56,0,0,1,8.86-4.91c.15.67.82,1.09,1.84.58l.69-.27a7.76,7.76,0,0,1,5.67.1,2.19,2.19,0,0,0,1.52.29A1,1,0,0,0,57,35.7L57,35.57a54.37,54.37,0,0,1,7.76,1.55c-2.94,2.14-3.33,6.73-1.51,9.82a9.13,9.13,0,0,0,3.16,3.37c-3.3,1.51-5.39,9.48-5,12.57-6.4,3.81-14.9,4.62-21.55,1A13,13,0,0,1,33,55.36a12.74,12.74,0,0,1,0-5.11A1.2,1.2,0,0,0,33.69,50.79Zm4.47,6.4a2.49,2.49,0,0,0,2.67.72A5.43,5.43,0,0,0,44.56,54c-.68-2.63-3.84-4.78-6.49-3.65a2.42,2.42,0,0,0-.13,4.18A2.83,2.83,0,0,0,38.16,57.19Zm9-14.46v.1c.17,1.32,1.84,1.47,2.87,1.7a10.85,10.85,0,0,0,6.72-1.11c1.43-.73,2.24-1.59,2.33-2.35.72-.26,1.55-.67,1.28-1.42a1.14,1.14,0,0,0-.81-.63L59,38.89a14.57,14.57,0,0,0-9.9,1c-.75.4-2.92,1.63-2.12,2.74A.62.62,0,0,0,47.16,42.73Z" fill="#a80a64"/>
          <path d="M33.12,49.61a.92.92,0,0,0,.64.94h.09a1.51,1.51,0,0,1,0-.3,5.05,5.05,0,0,1,.86-3A5.41,5.41,0,0,0,33.28,49a0,0,0,0,0,0,0Q33.18,49.33,33.12,49.61Z" fill="#ffefd4"/>
          <path d="M34.48,43a2,2,0,0,0,0,1.25c.08.12.22.16.43.1.61-.25.74-1.08,1.3-1.51.34-.36.93-.4,1.34-.57a.55.55,0,0,0,.18-.84l0,0s0,0,0,0a1.85,1.85,0,0,0-1.28-.06A2.28,2.28,0,0,0,34.48,43Z" fill="#ffe226"/>
          <path d="M35.15,46.85a1.08,1.08,0,0,1,1.12,0,1.4,1.4,0,0,1,.41.52,2.78,2.78,0,0,1,.12.38,4.12,4.12,0,0,1,.13,1.42,2.52,2.52,0,0,0,.67-2.74l0,.09c-.25-.55-1-.35-1.6-.14A3.05,3.05,0,0,0,35.15,46.85Z" fill="#ffefd4"/>
          <path d="M44.3,54A6.11,6.11,0,0,1,43,56.26c-1,1.17-3.36,2.14-4.51.72a2.48,2.48,0,0,1-.11-2.42.19.19,0,0,0-.07-.24,2.06,2.06,0,0,1-.05-3.62C40.67,49.66,43.56,51.65,44.3,54Zm-4-.56a2.2,2.2,0,0,0-.63,1.93.12.12,0,0,0,.15.1.13.13,0,0,0,.1-.11,3.36,3.36,0,0,1,.67-1.8,6.42,6.42,0,0,1,1.38.87.12.12,0,0,0,.17-.18,4.39,4.39,0,0,0-3.19-1.46.13.13,0,0,0,0,.25A7.18,7.18,0,0,1,40.27,53.47Z" fill="#2fb5eb"/>
          <path d="M47.76,35c-.65.52-1,1.84.13,1.89a9.88,9.88,0,0,0,1.35-.47,8.12,8.12,0,0,1,5.9.17,2,2,0,0,0,1.32.29.71.71,0,0,0,.35-1C55.31,33.09,49.9,33,47.76,35Z" fill="#ffe226"/>
          <path d="M49.85,40.45a4.76,4.76,0,0,1,2.54.5,3,3,0,0,1,1.66,1.95,1.72,1.72,0,0,1-.21,1.22,10.32,10.32,0,0,0,2.75-1c2.81-1.5,3-3.18-.5-3.53A11.7,11.7,0,0,0,49.85,40.45Z" fill="#ffefd4"/>
          <path d="M85.19,54.12a16.7,16.7,0,0,1-2.81,5.74,3,3,0,0,0,2.46,1.64c2.26.19,4.12-1.59,5.38-3.29a9.82,9.82,0,0,0,.71-1.1,3.45,3.45,0,0,1-4,.81C85.71,57.28,85.23,55.68,85.19,54.12Z" fill="#eb8602"/>
          <path d="M11.77,48.48a8.19,8.19,0,0,0,.88,2.62,3.46,3.46,0,0,0,2.09,1.72,2.26,2.26,0,0,0,2.45-.88,20.53,20.53,0,0,0,1.55,9.36A18.94,18.94,0,0,0,35.47,73,45.13,45.13,0,0,0,48.29,71.7c5.32-1.16,11.28-2.82,15.56-6.19a5.72,5.72,0,0,1-2.33-2.42c-2,.83-3.73,1.85-5.79,2.55a19.57,19.57,0,0,1-4.74.84c-6.3.48-13-1.67-16.67-7a12.45,12.45,0,0,1-1.48-10l-.2,0a.86.86,0,0,1-.67-.6c-.12-.65.84-1.46,1.52-2l.36-.25a13.17,13.17,0,0,1,1-1.84c-1,.14-.91-1.17-.68-1.82a2.62,2.62,0,0,1,2.12-1.86,2.13,2.13,0,0,1,1.47.07,19.75,19.75,0,0,1,9-5,1.86,1.86,0,0,1,.7-1.46c2.2-2,7.43-1.93,9.28.6a29.9,29.9,0,0,1,6.24,1c.67.18,1.33.38,2,.61a6.08,6.08,0,0,1,1-.52A5.53,5.53,0,0,1,68.39,36a.12.12,0,0,1,.12.13.13.13,0,0,1-.13.12A5.52,5.52,0,0,0,64.21,38c-3.34,3.63-1.51,9.75,2.45,12.16a3.53,3.53,0,0,1,.63-.13c.16,0,.18.26,0,.26-2.79.38-4,4.53-4.85,6.83a15.37,15.37,0,0,0-.71,5.7.06.06,0,0,1,0,.06s0,0,0,0c.44,2,2.8,2.57,4.57,2.89A16.48,16.48,0,0,0,80,61.93a15.9,15.9,0,0,0,2-2.22,16.76,16.76,0,0,0,3.31-8,15.73,15.73,0,0,1-2.58,2.7,5.52,5.52,0,0,1-3.63,1.24A5.44,5.44,0,0,1,74.82,52a13.82,13.82,0,0,1-.54-5.94c-1.66.77-3.39.11-4.94-.86A5.51,5.51,0,0,1,69.19,36c-.48.32-2.7-.39-3.27-.51a29,29,0,0,1-3.31-.94,30.26,30.26,0,0,1-6.32-3.07,31.83,31.83,0,0,1-5.36-4.34c-1.51-1.53-3.54-3.48-4.13-5.6-.1-.39-.34-.82-.74-.87a1.11,1.11,0,0,0-.7.21,8.75,8.75,0,0,0-4.23,6.51,24.85,24.85,0,0,1,7,3.77c-1.11,2.32-3.35,3.9-5.62,5.12a29,29,0,0,1-7.28,2.47,45,45,0,0,1-11.77,1.38,22.33,22.33,0,0,1-11.27-3.28C10.8,40.39,11,44.69,11.77,48.48Z" fill="#eb8602"/>
          <g>
            <path d="M14.68,30.86c-4,4.37-5.31,10.56-4.63,16.3.25,2.27,1.18,4.88,3.5,5.75a3.92,3.92,0,0,0,2.55.15,2.31,2.31,0,0,1,.1-.28.07.07,0,0,1,0-.05,3.49,3.49,0,0,1-2.58-.09c-3.36-1.46-3.43-5.79-3.42-9,.24-10,6.76-17.43,16.87-18.16a34,34,0,0,1,13.56,1.82.13.13,0,0,0,.17-.08.14.14,0,0,0-.08-.16L40,26.84s0,0,0,.06a.12.12,0,0,1-.15.09.11.11,0,0,1-.09-.14.29.29,0,0,1,0-.09C31.39,24.13,20.93,24,14.68,30.86Z" fill="#480973"/>
            <path d="M16.1,53.06a7.65,7.65,0,0,0-.19,3.65A21.37,21.37,0,0,0,20.37,67.1l.43.13a23.4,23.4,0,0,1-4.56-10.57,7.71,7.71,0,0,1,.18-3.73Z" fill="#480973"/>
            <path d="M16.2,52.78a2.31,2.31,0,0,0-.1.28l.32-.13a.14.14,0,0,1,0-.06.12.12,0,0,0-.15-.16h0l0,0A.07.07,0,0,0,16.2,52.78Z" fill="#480973"/>
            <path d="M16.24,52.73l0,0Z" fill="#480973"/>
            <path d="M16.29,52.71a.12.12,0,0,1,.15.16.14.14,0,0,0,0,.06,2.68,2.68,0,0,0,.57-.32.14.14,0,0,0,0-.18.12.12,0,0,0-.17,0A2.5,2.5,0,0,1,16.29,52.71Z" fill="#480973"/>
            <path d="M20.37,67.1l.23.29a.13.13,0,0,0,.2-.15h0Z" fill="#480973"/>
            <path d="M33.49,46.85c-.68.5-1.64,1.31-1.52,2a.86.86,0,0,0,.67.6l.2,0a17.38,17.38,0,0,1,1-2.84Z" fill="#480973"/>
            <path d="M32.84,49.44a12.45,12.45,0,0,0,1.48,10c5.12,7.42,15.47,8.62,23.55,5.48.06-.1.11-.21.16-.31s.24,0,.18.18a22.19,22.19,0,0,0,3.23-1.63l0-.13c0-.05,0-.1,0-.15-6.4,3.81-14.9,4.62-21.55,1A13,13,0,0,1,33,55.36a12.74,12.74,0,0,1,0-5.11,1.11,1.11,0,0,1-.11-.81Z" fill="#480973"/>
            <path d="M32.84,49.44h0a4,4,0,0,1,.79-1.61,14,14,0,0,1,.66-1.54l-.39.25-.08.06h0A17.38,17.38,0,0,0,32.84,49.44Z" fill="#480973"/>
            <path d="M32.87,49.44a1.11,1.11,0,0,0,.11.81c0-.21.09-.43.14-.64a1.61,1.61,0,0,1,.15-.57,0,0,0,0,1,0,0c.06-.22.12-.43.19-.64-.07.11-.14.22-.2.33a1.88,1.88,0,0,0-.27.75Z" fill="#480973"/>
            <path d="M32.87,49.44H33a1.88,1.88,0,0,1,.27-.75c.06-.11.13-.22.2-.33l.19-.54A4,4,0,0,0,32.87,49.44Z" fill="#480973"/>
            <path d="M33.12,49.61c0,.21-.1.43-.14.64a1.2,1.2,0,0,0,.71.54,2.72,2.72,0,0,0,1.76-.28A6.17,6.17,0,0,0,37.55,49,2.78,2.78,0,0,0,38,46.42a.89.89,0,0,0-.14-.24.64.64,0,0,1,0,.23.85.85,0,0,0-.92-.45,5.07,5.07,0,0,0-3.39,2.41c-.07.21-.13.42-.19.64a5.41,5.41,0,0,1,1.42-1.8h0a.1.1,0,0,1,0-.05,1.27,1.27,0,0,1,.39-.3,3.05,3.05,0,0,1,.87-.49c.59-.21,1.35-.41,1.6.14l0-.09a2.52,2.52,0,0,1-.67,2.74,1,1,0,0,1,0,.24,7,7,0,0,1-1.35.92,2.94,2.94,0,0,1-1.66.39.57.57,0,0,1,0-.14h-.09A.92.92,0,0,1,33.12,49.61Z" fill="#480973"/>
            <path d="M33.27,49a1.61,1.61,0,0,0-.15.57Q33.18,49.33,33.27,49Z" fill="#480973"/>
            <path d="M33.66,47.83l-.19.54A5.07,5.07,0,0,1,36.86,46a.85.85,0,0,1,.92.45.64.64,0,0,0,0-.23c-.8-1.14-3,.28-3.65,1.06A5.42,5.42,0,0,0,33.66,47.83Z" fill="#480973"/>
            <path d="M33.84,50.26a1.51,1.51,0,0,0,0,.3,4.15,4.15,0,0,0,2.87-1.22,1.9,1.9,0,0,0,.21-.19,4.12,4.12,0,0,0-.13-1.42,2.78,2.78,0,0,0-.12-.38,1.4,1.4,0,0,0-.41-.52,1.08,1.08,0,0,0-1.12,0,3.47,3.47,0,0,0-.43.35h0A5.05,5.05,0,0,0,33.84,50.26Z" fill="#480973"/>
            <path d="M33.85,46.6l.08-.06.39-.25a14.91,14.91,0,0,1,.92-1.66l-.25.1-.13,0A13.17,13.17,0,0,0,33.85,46.6Z" fill="#480973"/>
            <path d="M33.85,50.56a.57.57,0,0,0,0,.14,2.94,2.94,0,0,0,1.66-.39,7,7,0,0,0,1.35-.92,1,1,0,0,0,0-.24,1.9,1.9,0,0,1-.21.19A4.15,4.15,0,0,1,33.85,50.56Z" fill="#480973"/>
            <path d="M33.66,47.83a5.42,5.42,0,0,1,.52-.59c.69-.78,2.85-2.2,3.65-1.06a.62.62,0,0,0-.13-.46.85.85,0,0,0-.71-.25,5.2,5.2,0,0,0-2.67.82A14,14,0,0,0,33.66,47.83Z" fill="#480973"/>
            <path d="M34.18,42.94c-.23.65-.3,2,.68,1.82a2.56,2.56,0,0,1,.22-.35c.08-.14.3,0,.21.14l0,.08c.56-.33.74-1.12,1.21-1.49s.78-.34,1.23-.56A.84.84,0,0,0,38,41.32l-.12.11a.11.11,0,0,1-.13,0,.55.55,0,0,1-.18.84c-.41.17-1,.21-1.34.57-.56.43-.69,1.26-1.3,1.51-.21.06-.35,0-.43-.1a2,2,0,0,1,0-1.25,2.28,2.28,0,0,1,1.87-1.69,1.85,1.85,0,0,1,1.28.06s0,0,0,0a.13.13,0,0,1,0-.18l.1-.09a2.13,2.13,0,0,0-1.47-.07A2.62,2.62,0,0,0,34.18,42.94Z" fill="#480973"/>
            <path d="M34.76,47.15a.1.1,0,0,0,0,.05,3.47,3.47,0,0,1,.43-.35A1.27,1.27,0,0,0,34.76,47.15Z" fill="#480973"/>
            <path d="M35.08,44.41a2.56,2.56,0,0,0-.22.35l.13,0,.25-.1,0-.08C35.38,44.42,35.16,44.27,35.08,44.41Z" fill="#480973"/>
            <path d="M37.67,41.24a.13.13,0,0,0,0,.18l0,0a.11.11,0,0,0,.13,0l.12-.11a.74.74,0,0,0-.19-.16h0Z" fill="#480973"/>
            <path d="M37.77,41.15h0a.74.74,0,0,1,.19.16,23.56,23.56,0,0,1,8.86-4.91.75.75,0,0,1,0-.26A19.75,19.75,0,0,0,37.77,41.15Z" fill="#480973"/>
            <path d="M44.56,54a5.43,5.43,0,0,1-3.73,3.88,2.49,2.49,0,0,1-2.67-.72,2.83,2.83,0,0,1-.22-2.63.46.46,0,0,0,.15.09L38,54.41l-.06.15a2.42,2.42,0,0,1,.13-4.18C40.72,49.25,43.88,51.4,44.56,54Zm-6.21.53A2.48,2.48,0,0,0,38.46,57c1.15,1.42,3.47.45,4.51-.72A6.11,6.11,0,0,0,44.3,54c-.74-2.38-3.63-4.37-6.07-3.33a2.06,2.06,0,0,0,.05,3.62A.19.19,0,0,1,38.35,54.56Z" fill="#480973"/>
            <path d="M38,54.41l-.06.15a.46.46,0,0,0,.15.09Z" fill="#480973"/>
            <path d="M38.92,52.82a.13.13,0,0,0,0,.25,7.18,7.18,0,0,1,1.37.4,1.29,1.29,0,0,1,.21-.19c.11-.08.27.08.17.19l-.09.12a6.42,6.42,0,0,1,1.38.87.12.12,0,0,0,.17-.18A4.39,4.39,0,0,0,38.92,52.82Z" fill="#480973"/>
            <path d="M40.27,53.47a2.2,2.2,0,0,0-.63,1.93.12.12,0,0,0,.15.1.13.13,0,0,0,.1-.11,3.36,3.36,0,0,1,.67-1.8Z" fill="#480973"/>
            <path d="M39.69,26.85a.11.11,0,0,0,.09.14.12.12,0,0,0,.15-.09s0,0,0-.06l-.24-.08A.29.29,0,0,0,39.69,26.85Z" fill="#480973"/>
            <path d="M39.71,26.76l.24.08a10.08,10.08,0,0,1,2-4.14c5.13-6.57,14.86-5.76,21.63-2.39a25.41,25.41,0,0,1,7.4,5.8.12.12,0,0,0,.17,0,.12.12,0,0,0,0-.17l-.07-.09-.32-.1a.12.12,0,0,1-.08-.15.12.12,0,0,1,.1-.1,24.24,24.24,0,0,0-16.23-8.07A14.33,14.33,0,0,0,41.68,22.5,10.51,10.51,0,0,0,39.71,26.76Z" fill="#480973"/>
            <path d="M40.48,53.28a1.29,1.29,0,0,0-.21.19l.29.12.09-.12C40.75,53.36,40.59,53.2,40.48,53.28Z" fill="#480973"/>
            <path d="M56.77,35.29h0a.13.13,0,0,0,0,.25l.23,0,.08.13a1,1,0,0,1-.49,1.41A2.19,2.19,0,0,1,55,36.82a7.76,7.76,0,0,0-5.67-.1l-.69.27c-1,.51-1.69.09-1.84-.58l.18,0a.13.13,0,0,0-.07-.25l-.15,0a1.86,1.86,0,0,1,.7-1.46C49.69,32.72,54.92,32.76,56.77,35.29Zm-7.53,1.1a8.12,8.12,0,0,1,5.9.17,2,2,0,0,0,1.32.29.71.71,0,0,0,.35-1C55.31,33.09,49.9,33,47.76,35c-.65.52-1,1.84.13,1.89A9.88,9.88,0,0,0,49.24,36.39Z" fill="#480973"/>
            <path d="M46.94,36.11l-.15,0a.75.75,0,0,0,0,.26l.18,0A.13.13,0,0,0,46.94,36.11Z" fill="#480973"/>
            <path d="M49.14,39.85c-.75.4-2.92,1.63-2.12,2.74a.62.62,0,0,0,.14.14c0-1.26,1.29-1.9,2.24-2.39a12,12,0,0,1,6.74-1.11c2.13.17,3.06.93,2.94,1.84.72-.26,1.55-.67,1.28-1.42a1.14,1.14,0,0,0-.81-.63L59,38.89A14.57,14.57,0,0,0,49.14,39.85Z" fill="#480973"/>
            <path d="M49.4,40.34c-.95.49-2.27,1.13-2.24,2.39a.51.51,0,0,0,.13.09,1.5,1.5,0,0,1,.12-.72,3,3,0,0,1,1.28-1.22l.39-.21c.1-.05.19-.11.29-.15h0a11.56,11.56,0,0,1,3.89-1.15c1-.12,6.07-.19,5.63,1.77l.19-.07c.12-.91-.81-1.67-2.94-1.84A12,12,0,0,0,49.4,40.34Z" fill="#480973"/>
            <path d="M47.16,42.73v.1c.17,1.32,1.84,1.47,2.87,1.7a10.85,10.85,0,0,0,6.72-1.11c1.43-.73,2.24-1.59,2.33-2.35l-.19.07c.44-2-4.63-1.89-5.63-1.77a11.56,11.56,0,0,0-3.89,1.15l.48-.07a11.7,11.7,0,0,1,6.24-.87c3.51.35,3.31,2,.5,3.53a10.32,10.32,0,0,1-2.75,1l-.12.19a10.49,10.49,0,0,1-5-.22,2.12,2.12,0,0,1-1.26-.78,1.05,1.05,0,0,1-.16-.49A.51.51,0,0,1,47.16,42.73Z" fill="#480973"/>
            <path d="M47.41,42.1a1.5,1.5,0,0,0-.12.72,1.05,1.05,0,0,0,.16.49,2.12,2.12,0,0,0,1.26.78,10.49,10.49,0,0,0,5,.22l.12-.19a10.33,10.33,0,0,1-3.76.13c-.93-.21-2.49-.3-2.66-1.44s1.21-1.75,2.11-2.21l.32-.15-.48.07h0l-.29.15-.39.21A3,3,0,0,0,47.41,42.1Z" fill="#480973"/>
            <path d="M49.53,40.6c-.9.46-2.19,1-2.11,2.21s1.73,1.23,2.66,1.44a10.33,10.33,0,0,0,3.76-.13,1.72,1.72,0,0,0,.21-1.22A3,3,0,0,0,52.39,41a4.76,4.76,0,0,0-2.54-.5Z" fill="#480973"/>
            <path d="M49.08,40.67l.29-.15C49.27,40.56,49.18,40.62,49.08,40.67Z" fill="#480973"/>
            <path d="M56.75,35.29a.13.13,0,0,0,0,.25l.23,0a2,2,0,0,0-.19-.28Z" fill="#480973"/>
            <path d="M56.77,35.29a2,2,0,0,1,.19.28,54.37,54.37,0,0,1,7.76,1.55,1.73,1.73,0,0,1,.28-.19c-.66-.23-1.32-.43-2-.61A29.9,29.9,0,0,0,56.77,35.29Z" fill="#480973"/>
            <path d="M58,64.61c-.05.1-.1.21-.16.31l.34-.13C58.27,64.56,58.22,64.48,58,64.61Z" fill="#480973"/>
            <path d="M66.37,50.31c-3.3,1.51-5.39,9.48-5,12.57l.17-.09a.13.13,0,0,1,.18,0,0,0,0,0,0,0,0,15.37,15.37,0,0,1,.71-5.7c.85-2.3,2.06-6.45,4.85-6.83.16,0,.14-.27,0-.26a3.53,3.53,0,0,0-.63.13,0,0,0,0,0,0,0,.13.13,0,0,1-.13.22Z" fill="#480973"/>
            <path d="M61.39,62.88s0,.1,0,.15l0,.13h0L61.7,63a.11.11,0,0,0,0-.09v-.06a0,0,0,0,1,0,0,.13.13,0,0,0-.18,0Z" fill="#480973"/>
            <path d="M61.7,63l-.25.16c.45,1.8,2.31,2.51,4,2.89l.09-.16a.13.13,0,0,1,.22.12l0,.1.53.1a16.73,16.73,0,0,0,14-4,16,16,0,0,0,1.93-2.1,2,2,0,0,1-.11-.26.12.12,0,0,1,0-.1h0a15.9,15.9,0,0,1-2,2.22,16.48,16.48,0,0,1-13.71,3.91C64.56,65.52,62.2,65,61.76,63c0,0,0,0,0,0A.11.11,0,0,1,61.7,63Z" fill="#480973"/>
            <path d="M61.75,62.85v.06A.06.06,0,0,0,61.75,62.85Z" fill="#480973"/>
            <path d="M64.72,37.12c-2.94,2.14-3.33,6.73-1.51,9.82a9.13,9.13,0,0,0,3.16,3.37c.1,0,.19-.09.29-.12-4-2.41-5.79-8.53-2.45-12.16a5.52,5.52,0,0,1,4.17-1.75.13.13,0,0,0,.13-.12.12.12,0,0,0-.12-.13,5.53,5.53,0,0,0-2.41.38,6.08,6.08,0,0,0-1,.52h0a.13.13,0,0,1,.09.15.13.13,0,0,1-.16.09Z" fill="#480973"/>
            <path d="M65,36.93a1.73,1.73,0,0,0-.28.19l.24.06a.13.13,0,0,0,.16-.09.13.13,0,0,0-.09-.15Z" fill="#480973"/>
            <path d="M65.56,65.89l-.09.16.27.06,0-.1A.13.13,0,0,0,65.56,65.89Z" fill="#480973"/>
            <path d="M66.37,50.31l.17.11a.13.13,0,0,0,.13-.22,0,0,0,0,1,0,0C66.56,50.22,66.47,50.27,66.37,50.31Z" fill="#480973"/>
            <path d="M70.69,25.61a.12.12,0,0,0,.08.15l.32.1-.3-.35A.12.12,0,0,0,70.69,25.61Z" fill="#480973"/>
            <path d="M70.79,25.51l.3.35A34.15,34.15,0,0,1,82.55,32c5.07,4.21,9.58,9.95,10.17,16.72a14.13,14.13,0,0,1-2.5,9.46c-1.26,1.7-3.12,3.48-5.38,3.29a3,3,0,0,1-2.46-1.64,1.18,1.18,0,0,1-.17.22,3.29,3.29,0,0,0,2.6,1.7c2.4.23,4.34-1.59,5.67-3.37a14.5,14.5,0,0,0,2.6-9.69c-.56-6.89-5.15-12.7-10.31-17a33.61,33.61,0,0,0-11.93-6.24Z" fill="#480973"/>
            <path d="M82.08,59.71h0a.13.13,0,0,1,.23,0,1.12,1.12,0,0,1,0,.13,16.72,16.72,0,0,0,3.27-8.18.11.11,0,0,0-.11-.13.12.12,0,0,0-.14.1A16.72,16.72,0,0,1,82.08,59.71Z" fill="#480973"/>
            <path d="M82.1,59.72a.12.12,0,0,0,0,.1,2,2,0,0,0,.11.26,1.18,1.18,0,0,0,.17-.22,1.12,1.12,0,0,0,0-.13A.13.13,0,0,0,82.1,59.72Z" fill="#480973"/>
            <path d="M51.53,41.94a1,1,0,0,0-.49-.46,2.54,2.54,0,0,0-1.68-.12,2,2,0,0,0-1.12.53c-.74.78.15,1.56,1,1.39C49.94,43.16,52,42.83,51.53,41.94Z" fill="#ffefd4"/>
            <path d="M35.86,48.21a.81.81,0,0,0-.21-.39.59.59,0,0,0-.69-.09.81.81,0,0,0-.47.43c-.31.65.06,1.29.43,1.16S36,48.94,35.86,48.21Z" fill="#ffefd4"/>
            <path d="M18.91,64.88c1.93,3.74,5.69,6.17,9.61,7.42,10.06,2.94,20.7-.14,30.19-3.69a24.81,24.81,0,0,0,4.14-2.11,6.07,6.07,0,0,0,1.23-1,.12.12,0,0,0,0-.18.13.13,0,0,0-.19,0,17.86,17.86,0,0,1-5.29,3c-9.23,3.44-20.24,6.53-30,3.67-3.83-1.21-7.56-3.59-9.48-7.21a.13.13,0,0,0-.18-.06.13.13,0,0,0-.05.17Z" fill="#480973"/>
          </g>
          <path d="M41.1,52.81a4.24,4.24,0,0,1-1-.8.8.8,0,0,1-.25-.49c0-1.15,2.12-.4,2.54,0C43.76,52.77,42.41,53.59,41.1,52.81Z" fill="#fff7c7" style="mix-blend-mode: overlay"/>
          <path d="M54.93,45.89a3.16,3.16,0,0,0-1.79.75,2.29,2.29,0,0,0-.45,2.54,2.71,2.71,0,0,0,2.17,1.5,3.26,3.26,0,0,0,2.51-.93C59.35,47.82,57.16,45.56,54.93,45.89Z" fill="#227fc7"/>
        </g>
      </g>
    </g>
  </g>
</svg>
