<svg id="a388a8d4-0e6b-4167-8efa-74b8d922773b" data-name="layer 1" xmlns="http://www.w3.org/2000/svg" viewBox="0 0 100 100">
  <title>profile_6</title>
  <g>
    <circle cx="56.15" cy="50" r="37.61" fill="#ec2872"/>
    <path d="M77.53,18.14a12.48,12.48,0,0,0-11.61,7.65,10.83,10.83,0,0,0-.67,6.89,33.91,33.91,0,0,0-10.69.84,8.48,8.48,0,0,0,.69-2.21c.11-1.18.32-2.6-.57-3.57-1.79-1.18-4.28.64-5.28,2.1a5.75,5.75,0,0,0-1,3.92A7.14,7.14,0,0,0,42,31.12c-1.61.13-2.84,1-2,2.73a6.15,6.15,0,0,0,3.7,2.62,18.43,18.43,0,0,0-7.21,3.33A18.11,18.11,0,0,0,32,44.66a8.67,8.67,0,0,0-3.32-5.15C23.33,35.33,14.79,36.05,10.09,41c-6.65,7-4.57,18.91,4.28,22.91,5.1,2.26,12.87,2.57,16.11-2.74a21.89,21.89,0,0,0,.94,2.23,3,3,0,0,0,.16.31,3.59,3.59,0,0,0,.17.34.19.19,0,0,0,.23.09c.1,0,.19-.06.29-.09a.14.14,0,0,0,0,.09,22.3,22.3,0,0,0,11.63,12,31.37,31.37,0,0,0,12.52,2.33c8.54.13,17.24-3,23.14-9.26,2.92-3,5-7.59,3.28-11.72A11,11,0,0,0,84,55.86a9.92,9.92,0,0,0,1.36-5.14v-.27a10.22,10.22,0,0,0-2.13-6,8.79,8.79,0,0,0-.68-.79,9.7,9.7,0,0,0,5.6-4.11A13.42,13.42,0,0,0,77.53,18.14Z" fill="#480973"/>
    <g>
      <g>
        <path d="M85.61,54.7a9.07,9.07,0,0,1-1.25,1.15,10,10,0,0,1-4.83,2.08l0,0a9.94,9.94,0,0,1-8.06-1.43,10.07,10.07,0,0,1-4.22-5.64c-2.81-3.68-8-2.06-8.88,2.42,0,.12,0,.25,0,.37a9.85,9.85,0,0,1-2.06,6.12,10.31,10.31,0,0,1-7,4.06h0a10.35,10.35,0,0,1-11.13-4.57,7,7,0,0,1-2.58,1.63.1.1,0,0,1,0,0c4,9.75,13.71,14.21,23.84,14,8.41.1,17-2.88,22.84-9.07C85.06,63,87.15,58.69,85.61,54.7ZM71.87,59.52a5.82,5.82,0,0,1-2.56,4.16,10.08,10.08,0,0,1-9.38,1.42c-1.54-.57-3.06-1.89-3-3.66a2.56,2.56,0,0,1,.36-1.39,2.84,2.84,0,0,1,3.16-1.34,22.09,22.09,0,0,0,2.28.73,4.21,4.21,0,0,0,4.05-1.69,3.18,3.18,0,0,1,2-1.57,2.34,2.34,0,0,1,1.75.38A3.33,3.33,0,0,1,71.87,59.52Z" fill="#ffc919"/>
        <path d="M58.23,52.24c1.27-3.91,6-5.25,8.78-2.16a9.58,9.58,0,0,1,0-4.23,22.78,22.78,0,0,1-16.82-6.44,9.62,9.62,0,0,1-1.26,4A10.32,10.32,0,0,1,58.23,52.24Z" fill="#ffc919"/>
      </g>
      <path d="M53.13,63.9a3.65,3.65,0,0,1-.69,4.39,4.3,4.3,0,0,1-4.55,1c-3.5-1.32-3.11-5.15-.15-6.9A3.82,3.82,0,0,1,53.13,63.9Z" fill="#ec2872"/>
      <path d="M83.9,55.51a3.65,3.65,0,0,1-.69,4.39A4.32,4.32,0,0,1,78.66,61c-3.5-1.32-3.11-5.15-.15-6.9A3.82,3.82,0,0,1,83.9,55.51Z" fill="#ec2872"/>
      <g>
        <path d="M80.53,15.6c7.28.12,13.66,6.77,12.82,14.13-.58,4.49-3.39,9.55-8.07,10.66a9.92,9.92,0,0,0-3.34-2.21,8.49,8.49,0,0,0-.8-1.63c1.93-1.56-.94-3.82-2.22-4.76s-4.23-2.87-5.32-.94a21.13,21.13,0,0,0-5-1.15C66.91,22.68,73.35,15.21,80.53,15.6Z" fill="#7229ab"/>
        <path d="M81.5,38a10.52,10.52,0,0,0-6.63,0h0a10.29,10.29,0,0,0-7.72,7.51,23.88,23.88,0,0,1-18-7.75c-.14-.16-.37.06-.24.21.33.4.69.78,1.06,1.15a.08.08,0,0,1,0,.05,24,24,0,0,1-1.34,4.21,9.77,9.77,0,0,0-4,.54,10.31,10.31,0,0,0-7.7,12.31A9.24,9.24,0,0,0,38,59,6.61,6.61,0,0,1,35,60.68a2.93,2.93,0,0,1-.19-.4,21.71,21.71,0,0,1-2.11-7.86c-.69-8.88,6.12-17.28,14.83-18.8a7.71,7.71,0,0,0,1,0,.16.16,0,0,0,0-.32,6.47,6.47,0,0,1-.76-.05h0a.08.08,0,0,0-.07,0h0a6.32,6.32,0,0,1-3.52-1.73c-1.45-1.39-1.35-2.79.89-2.95a6.84,6.84,0,0,1,7.41,4.93.15.15,0,0,0,.19.11.15.15,0,0,0,.12-.19,6,6,0,0,0-.88-2.08h0a5.64,5.64,0,0,1,.9-4.28c.92-1.3,3.07-2.85,4.61-2,.69.79.54,2.14.45,3.14A9.1,9.1,0,0,1,56,32.35a.16.16,0,0,0,.25.21,9,9,0,0,0,1.14-1.68A39.8,39.8,0,0,1,64.16,30a27.58,27.58,0,0,1,4.33.16C73.81,30.8,79.15,33.09,81.5,38Z" fill="#7229ab"/>
        <path d="M34.88,41.92a19.64,19.64,0,0,0-1.59,3.3,2.78,2.78,0,0,0-3.72.62,6.76,6.76,0,0,0-.44,7.76,2.87,2.87,0,0,0,3.47,1.19,21.18,21.18,0,0,0,.77,2.94C32,60.36,29,61.65,26.14,61.91c-5.81.6-12.09-2-14.84-7.35a14.25,14.25,0,0,1,2.13-16.28C19.34,31.89,32.46,33,34.88,41.92Z" fill="#7229ab"/>
        <path d="M15.62,36.29C10,39.85,7.84,48.14,12.42,53.48c2.48,2.89,6.87,3.65,10.48,2.42a16,16,0,0,0,8.35-7.41,13.75,13.75,0,0,0,1.88-5,7.65,7.65,0,0,0-1-5.2c-1.34-2.08-3.8-3.18-6.23-3.65A14.3,14.3,0,0,0,15.62,36.29Z" fill="#b235db"/>
        <path d="M49.72,32.49a1.57,1.57,0,0,0,1.11-.17,1.1,1.1,0,0,0,.34-1.19,2.51,2.51,0,0,0-.76-1.07,6.4,6.4,0,0,0-5.36-1.48c-.65.12-2,.32-1.63,1.25s1.88,1.37,2.63,1.7A12.67,12.67,0,0,0,49.72,32.49Z" fill="#b235db"/>
        <path d="M52.36,31a1.85,1.85,0,0,0,1.69.3,3.77,3.77,0,0,0,1.52-.94,8.15,8.15,0,0,0,2.06-3.1,2.16,2.16,0,0,0-.08-2.08,2,2,0,0,0-2-.43A5.21,5.21,0,0,0,52.3,27.4C51.75,28.39,51.37,30.11,52.36,31Z" fill="#b235db"/>
        <path d="M69.64,21.91a3.84,3.84,0,0,0,.09,3,5.28,5.28,0,0,0,1.92,1.92c2.51,1.65,5.42,2.58,8,4.06,2,1.12,3.89,2.6,6.15,2.84A6.86,6.86,0,0,0,92.42,30c1.68-3.31.13-7.49-2.13-10.13a13.11,13.11,0,0,0-6.43-3.94,9.12,9.12,0,0,0-4.58-.25C75.56,16.3,71.06,18,69.64,21.91Z" fill="#b235db"/>
        <path d="M54.43,34.57A15.29,15.29,0,0,1,50.69,36c1.45,2.65,4.24,2.92,6.93,3.2a41.63,41.63,0,0,0,5.24.1A47.34,47.34,0,0,0,75.2,37.81a3.56,3.56,0,0,0,2.39-1.62A2.44,2.44,0,0,0,77.31,34a5.41,5.41,0,0,0-1.74-1.55,18,18,0,0,0-9-2.43,22.6,22.6,0,0,0-4.11.18c-1,.15-2,.14-3,.22a2.3,2.3,0,0,0-1.72.77c-.47.65-.45,1.5-1.08,2A14.71,14.71,0,0,1,54.43,34.57Z" fill="#b235db"/>
        <path d="M33.14,49.34a1.84,1.84,0,0,0,.72,1.57,1.88,1.88,0,0,0,1.38,0A19.72,19.72,0,0,0,47,42.82,8.19,8.19,0,0,0,48.3,39.7a4.07,4.07,0,0,0-.78-3.21A4.12,4.12,0,0,0,44,35.21a8.3,8.3,0,0,0-3.59,1.36C36.06,39.29,32.77,44,33.14,49.34Z" fill="#b235db"/>
      </g>
      <path d="M74.83,30.46c1.6-.2,8.26,4.07,6.14,5.82a12.9,12.9,0,0,0-3.41-3.38A17.11,17.11,0,0,0,73.9,31,1,1,0,0,1,74.83,30.46Z" fill="#48a2e8"/>
      <path d="M70.74,57.41c1.56,2,.09,4.61-1.7,5.9a9.66,9.66,0,0,1-9,1.44c-1.42-.51-2.84-1.68-2.8-3.3a2.48,2.48,0,0,1,3.1-2.39c1.46.58,3.21,1.21,4.79.47,1.22-.4,1.93-1.54,2.72-2.43A1.93,1.93,0,0,1,70.74,57.41Zm-1,2.79a.18.18,0,0,0,.17-.17,1.21,1.21,0,0,0-1.35-1.14.17.17,0,0,0,0,.32,1.54,1.54,0,0,1,.45.21l0,0a7,7,0,0,1-8.53,2.48,2.89,2.89,0,0,1,.42-.44c.14-.1,0-.33-.15-.28a1.64,1.64,0,0,0-1.1,1.65.16.16,0,0,0,.31,0,2.74,2.74,0,0,1,.33-.69,6.86,6.86,0,0,0,9-2.58,1.88,1.88,0,0,1,.34.48A.18.18,0,0,0,69.75,60.2Z" fill="#ec2872"/>
      <path d="M32.29,52.45c.05.68.14,1.34.25,2a2.51,2.51,0,0,1-3.06-1.1,6.57,6.57,0,0,1,.42-7.22,2.43,2.43,0,0,1,3.28-.58A16.88,16.88,0,0,0,32.29,52.45Z" fill="#48a2e8"/>
      <path d="M79.33,38a9.85,9.85,0,1,1-11,8.52A9.92,9.92,0,0,1,79.33,38Zm1.8,12c4.25-7-3-11.3-3-11.3-6.41-.47-11.14,7.1-8.08,13.1C70.05,51.78,77.32,56.27,81.13,50Z" fill="#fff799"/>
      <path d="M55,46.7a9.92,9.92,0,0,1-7,16.89h0A9.88,9.88,0,1,1,55,46.7ZM51.06,56c4.25-7-3-11.31-3-11.31-6.4-.46-11.13,7.1-8.08,13.11C40,57.8,47.25,62.3,51.06,56Z" fill="#fff799"/>
      <g>
        <path d="M93.35,29.73c.84-7.36-5.54-14-12.82-14.13-7.18-.39-13.62,7.08-11.93,14.1l-.34,0a10.89,10.89,0,0,1,.67-6.89,12.47,12.47,0,0,1,11.61-7.65,13.42,13.42,0,0,1,10.6,21.43,9.75,9.75,0,0,1-5.6,4.11,3.45,3.45,0,0,0-.26-.28C90,39.28,92.77,34.22,93.35,29.73Z" fill="#480973"/>
        <path d="M88.36,47.71A10,10,0,0,1,87,52.84a9.46,9.46,0,0,1-1.15,1.59.08.08,0,0,0,0,0,.15.15,0,0,0-.21-.09.17.17,0,0,0-.09.21l.08.19a9.07,9.07,0,0,1-1.25,1.15c.16-.13,0-.39-.2-.25a9.9,9.9,0,1,0-7.31,1.94,9.92,9.92,0,0,0,7.31-1.94.16.16,0,0,0,.2.25,10,10,0,0,1-4.83,2.08.17.17,0,0,0-.12-.3,9.7,9.7,0,0,1-3.48.15,10.26,10.26,0,0,1-8.06-11.33,10,10,0,0,1,3.49-6.52,10.09,10.09,0,0,1,3.54-1.62.16.16,0,0,0,0-.32,10.52,10.52,0,0,1,6.63,0c.07.12.12.25.18.38a.16.16,0,0,0,.3-.11s0-.07,0-.11a9.92,9.92,0,0,1,3.34,2.21l-.08,0a.16.16,0,0,0,.06.32l.28-.06a8.79,8.79,0,0,1,.68.79,10.15,10.15,0,0,1,2.13,6,.15.15,0,0,0-.08.11A.17.17,0,0,0,88.36,47.71Z" fill="#480973"/>
        <path d="M88.35,47.43a2.62,2.62,0,0,1,0,.28.17.17,0,0,1-.09-.17A.15.15,0,0,1,88.35,47.43Z" fill="#480973"/>
        <path d="M85.85,54.43c1.75,4.14-.35,8.7-3.27,11.73C76.67,72.45,68,75.55,59.43,75.42a31.38,31.38,0,0,1-12.52-2.34,22.21,22.21,0,0,1-11.62-12,.08.08,0,0,1,0-.08l.27-.09a.1.1,0,0,1,0,0c4,9.75,13.71,14.21,23.84,14,8.41.1,17-2.88,22.84-9.07,2.79-2.9,4.88-7.18,3.34-11.17Z" fill="#480973"/>
        <path d="M85.83,54.39a.08.08,0,0,1,0,0l-.24.27-.08-.19a.17.17,0,0,1,.09-.21A.15.15,0,0,1,85.83,54.39Z" fill="#480973"/>
        <path d="M85.54,40.67l-.28.06a.16.16,0,0,1-.06-.32l.08,0A3.45,3.45,0,0,1,85.54,40.67Z" fill="#480973"/>
        <path d="M84.16,55.6c.16-.14.36.12.2.25A.16.16,0,0,1,84.16,55.6Z" fill="#480973"/>
        <path d="M82,38.29a.16.16,0,0,1-.3.11c-.06-.13-.11-.26-.18-.38l.44.16S82,38.26,82,38.29Z" fill="#480973"/>
        <path d="M81.94,38.18,81.5,38c-2.35-4.93-7.69-7.22-13-7.84v-.06h0a.18.18,0,0,0,.11-.2c0-.07,0-.14-.05-.21a21.13,21.13,0,0,1,5,1.15l-.07.13a.16.16,0,0,0,.3.12L73.9,31a17.11,17.11,0,0,1,3.66,1.93A12.9,12.9,0,0,1,81,36.28l-.06.06a.16.16,0,0,0,.14.29.36.36,0,0,0,.09-.08A8.49,8.49,0,0,1,81.94,38.18Z" fill="#480973"/>
        <path d="M78.13,38.68s7.25,4.29,3,11.3c-3.81,6.29-11.08,1.8-11.08,1.8C67,45.78,71.72,38.21,78.13,38.68Zm.21,8.77a4.43,4.43,0,0,0,1-5.4,4.68,4.68,0,0,0-5.75-1.55,4.14,4.14,0,0,0,1.33,8A4.58,4.58,0,0,0,78.34,47.45Z" fill="#480973"/>
        <path d="M78.92,31.79c1.28.94,4.15,3.2,2.22,4.76a2.92,2.92,0,0,0-.17-.27c2.12-1.75-4.54-6-6.14-5.82a1,1,0,0,0-.93.51l-.3-.12C74.69,28.92,77.63,31,78.92,31.79Z" fill="#480973"/>
        <path d="M81.14,36.55a.36.36,0,0,1-.09.08.16.16,0,0,1-.14-.29l.06-.06A2.92,2.92,0,0,1,81.14,36.55Z" fill="#480973"/>
        <path d="M79.41,57.63a.17.17,0,0,1,.12.3,9.67,9.67,0,0,1-3.6-.15A9.7,9.7,0,0,0,79.41,57.63Z" fill="#480973"/>
        <path d="M79.53,57.93l0,0a9.94,9.94,0,0,1-8.06-1.43,10.07,10.07,0,0,1-4.22-5.64c.11.14.21.29.31.44a.16.16,0,0,0,.28-.17h0a9.6,9.6,0,0,0,4.12,5.21,9.85,9.85,0,0,0,4,1.42A9.67,9.67,0,0,0,79.53,57.93Z" fill="#480973"/>
        <path d="M79.33,42.05a4.43,4.43,0,0,1-1,5.4,4.58,4.58,0,0,1-3.43,1.08,4.14,4.14,0,0,1-1.33-8A4.68,4.68,0,0,1,79.33,42.05Z" fill="#fff"/>
        <path d="M74.87,38a.16.16,0,0,1,0,.32,10.09,10.09,0,0,0-3.54,1.62A10.71,10.71,0,0,1,74.87,38Z" fill="#480973"/>
        <path d="M74.83,38h0a10.71,10.71,0,0,0-3.51,1.94,10.05,10.05,0,0,0-3.55,11.22h0A5.77,5.77,0,0,0,67,50.08a9.58,9.58,0,0,1,0-4.23h.26c.21,0,.18-.34,0-.33h-.16A10.29,10.29,0,0,1,74.83,38Z" fill="#480973"/>
        <path d="M73.9,31l-.07.13a.16.16,0,0,1-.3-.12l.07-.13Z" fill="#480973"/>
        <path d="M75.93,57.78a9.85,9.85,0,0,1-4-1.42,9.6,9.6,0,0,1-4.12-5.21,10.05,10.05,0,0,1,3.55-11.22,10,10,0,0,0-3.49,6.52A10.26,10.26,0,0,0,75.93,57.78Z" fill="#480973"/>
        <path d="M70.48,56.56a3.33,3.33,0,0,1,1.39,3,5.82,5.82,0,0,1-2.56,4.16,10.08,10.08,0,0,1-9.38,1.42c-1.54-.57-3.06-1.89-3-3.66a2.56,2.56,0,0,1,.36-1.39,2.84,2.84,0,0,1,3.16-1.34,22.09,22.09,0,0,0,2.28.73,4.21,4.21,0,0,0,4.05-1.69,3.18,3.18,0,0,1,2-1.57A2.34,2.34,0,0,1,70.48,56.56ZM69,63.31c1.79-1.29,3.26-4,1.7-5.9a1.93,1.93,0,0,0-2.87-.31c-.79.89-1.5,2-2.72,2.43-1.58.74-3.33.11-4.79-.47a2.48,2.48,0,0,0-3.1,2.39c0,1.62,1.38,2.79,2.8,3.3A9.66,9.66,0,0,0,69,63.31Z" fill="#480973"/>
        <path d="M69.92,60a.18.18,0,0,1-.17.17.18.18,0,0,1-.16-.1,1.88,1.88,0,0,0-.34-.48h0c.09-.15-.13-.31-.25-.19a1.54,1.54,0,0,0-.45-.21.17.17,0,0,1,0-.32A1.21,1.21,0,0,1,69.92,60Z" fill="#480973"/>
        <path d="M69,59.42c.12-.12.34,0,.25.19Z" fill="#480973"/>
        <path d="M69.25,59.61h0a6.86,6.86,0,0,1-9,2.58,1.26,1.26,0,0,1,.19-.28A7,7,0,0,0,69,59.44l0,0Z" fill="#480973"/>
        <path d="M68.65,29.91a.18.18,0,0,1-.11.2h0a.17.17,0,0,1-.16-.13,3,3,0,0,1-.08-.32l.34,0C68.62,29.77,68.63,29.84,68.65,29.91Z" fill="#480973"/>
        <path d="M68.5,30.12v.06A27.58,27.58,0,0,0,64.16,30a39.8,39.8,0,0,0-6.78.86c.07-.13.13-.25.19-.38a34.22,34.22,0,0,1,10.69-.83,3,3,0,0,0,.08.32A.17.17,0,0,0,68.5,30.12Z" fill="#480973"/>
        <path d="M67.79,51.15a.16.16,0,0,1-.28.17c-.1-.15-.2-.3-.31-.44s-.1-.36-.14-.56a2,2,0,0,1,0-.24A5.77,5.77,0,0,1,67.79,51.15Z" fill="#480973"/>
        <path d="M67.27,45.51c.2,0,.23.32,0,.33H67l.08-.34Z" fill="#480973"/>
        <path d="M67.06,50.32c0,.2.09.38.14.56-2.81-3.68-8-2.06-8.88,2.42a8.9,8.9,0,0,0-.09-1.06c1.27-3.91,6-5.25,8.78-2.16A2,2,0,0,0,67.06,50.32Z" fill="#480973"/>
        <path d="M67.11,45.51l-.08.34a22.78,22.78,0,0,1-16.82-6.44c0-.07,0-.13,0-.19a.17.17,0,0,0-.13-.17.16.16,0,0,0-.17.07c-.37-.37-.73-.75-1.06-1.15-.13-.15.1-.37.24-.21A23.88,23.88,0,0,0,67.11,45.51Z" fill="#480973"/>
        <path d="M60.71,61.2c.16-.05.29.18.15.28a2.89,2.89,0,0,0-.42.44l-.18-.08a.16.16,0,0,0-.14.28.57.57,0,0,0,.13.08,2.74,2.74,0,0,0-.33.69.16.16,0,0,1-.31,0A1.64,1.64,0,0,1,60.71,61.2Z" fill="#480973"/>
        <path d="M60.26,61.84l.18.08a1.26,1.26,0,0,0-.19.28.57.57,0,0,1-.13-.08A.16.16,0,0,1,60.26,61.84Z" fill="#480973"/>
        <path d="M58.33,53.67a9.85,9.85,0,0,1-2.06,6.12,10.31,10.31,0,0,1-7,4.06c.21,0,.13-.36-.08-.31a9,9,0,0,1-1,.17.13.13,0,0,0-.13-.12,9.9,9.9,0,1,0-7-2.94,9.92,9.92,0,0,0,7,2.94.15.15,0,0,0-.16.15,9.45,9.45,0,0,1-2.06-.05,10.32,10.32,0,0,1-5.07-17.32,11.93,11.93,0,0,1,1.15-1,10.06,10.06,0,0,1,2.83-1.15.16.16,0,0,0-.07-.32l-.07,0a9.77,9.77,0,0,1,4-.54l0,.12a.16.16,0,0,0,.29.15A2,2,0,0,0,49,43.4a10.32,10.32,0,0,1,9.28,8.84A6,6,0,0,0,58,53.47a.16.16,0,0,0,.31,0c0-.08,0-.15,0-.21C58.33,53.42,58.33,53.55,58.33,53.67Z" fill="#480973"/>
        <path d="M58.32,53.3c0,.06,0,.13,0,.21a.16.16,0,0,1-.31,0,6,6,0,0,1,.27-1.23A8.9,8.9,0,0,1,58.32,53.3Z" fill="#480973"/>
        <path d="M57.69,24.73c.89,1,.68,2.38.57,3.57a7.94,7.94,0,0,1-.69,2.2l-.35.08a.17.17,0,0,0,.08.32l.08,0a9,9,0,0,1-1.14,1.68.16.16,0,0,1-.25-.21,9.1,9.1,0,0,0,1.84-4.12c.09-1,.24-2.35-.45-3.14-1.54-.87-3.69.68-4.61,2a5.64,5.64,0,0,0-.9,4.28,5,5,0,0,0-.43-.6,5.73,5.73,0,0,1,1-3.93C53.41,25.37,55.9,23.55,57.69,24.73Z" fill="#480973"/>
        <path d="M57.22,30.58l.35-.08c-.06.13-.12.25-.19.38l-.08,0A.17.17,0,0,1,57.22,30.58Z" fill="#480973"/>
        <path d="M52.75,33.44a.15.15,0,0,1-.12.19.15.15,0,0,1-.19-.11A6.84,6.84,0,0,0,45,28.59c-2.24.16-2.34,1.56-.89,2.95a6.32,6.32,0,0,0,3.52,1.73c-.32.06-.63.11-.95.19A6.13,6.13,0,0,1,43,30.84c-.89-1.7.34-2.6,1.95-2.73a7.16,7.16,0,0,1,6.47,2.64,3.87,3.87,0,0,0,.12.68.16.16,0,0,0,.31-.07A6,6,0,0,1,52.75,33.44Z" fill="#480973"/>
        <path d="M51.87,31.36a.16.16,0,0,1-.31.07,3.87,3.87,0,0,1-.12-.68,5,5,0,0,1,.43.6Z" fill="#480973"/>
        <path d="M48.05,44.69s7.26,4.3,3,11.31C47.25,62.3,40,57.8,40,57.8,36.92,51.79,41.65,44.23,48.05,44.69Zm.34,8.69a4.4,4.4,0,0,0,1-5.4,4.66,4.66,0,0,0-5.75-1.55,4.14,4.14,0,0,0,1.33,8A4.62,4.62,0,0,0,48.39,53.38Z" fill="#480973"/>
        <path d="M50.1,39.05a.17.17,0,0,1,.13.17c0,.06,0,.12,0,.19l-.28-.29A.16.16,0,0,1,50.1,39.05Z" fill="#480973"/>
        <path d="M49.93,39.12l.28.29a9.62,9.62,0,0,1-1.26,4l-.38,0a24,24,0,0,0,1.34-4.21A.08.08,0,0,0,49.93,39.12Z" fill="#480973"/>
        <path d="M49.38,48a4.4,4.4,0,0,1-1,5.4A4.62,4.62,0,0,1,45,54.46a4.14,4.14,0,0,1-1.33-8A4.66,4.66,0,0,1,49.38,48Z" fill="#fff"/>
        <path d="M49.22,63.54c.21,0,.29.27.08.31h0a7.15,7.15,0,0,1-1.23,0,.15.15,0,0,0,.15-.2A9,9,0,0,0,49.22,63.54Z" fill="#480973"/>
        <path d="M49,43.4a2,2,0,0,1-.14.25.16.16,0,0,1-.29-.15l0-.12Z" fill="#480973"/>
        <path d="M48,63.91a7.15,7.15,0,0,0,1.23,0,10.35,10.35,0,0,1-11.13-4.57l.11-.1A.16.16,0,0,0,38,59l0,0a9.24,9.24,0,0,1-1.08-2.77,10.31,10.31,0,0,1,7.7-12.31,9.78,9.78,0,0,0-2.69,1.45,9.9,9.9,0,0,0,3.92,18.32A10.07,10.07,0,0,0,48,63.91Z" fill="#480973"/>
        <path d="M48.52,33.34a.16.16,0,0,1,0,.32,7.71,7.71,0,0,1-1,0l.15,0a.16.16,0,0,0,0-.3A6.47,6.47,0,0,0,48.52,33.34Z" fill="#480973"/>
        <path d="M48.18,63.71a.15.15,0,0,1-.15.2.16.16,0,0,1-.16-.17A3,3,0,0,0,48.18,63.71Z" fill="#480973"/>
        <path d="M48.18,63.71a3,3,0,0,1-.31,0,.15.15,0,0,1,.16-.15h0A.13.13,0,0,1,48.18,63.71Z" fill="#480973"/>
        <path d="M48,63.91a10.07,10.07,0,0,1-2.22-.22,9.45,9.45,0,0,0,2.06.05A.16.16,0,0,0,48,63.91Z" fill="#480973"/>
        <path d="M47.76,33.29a.16.16,0,0,1,0,.3l-.15,0a5,5,0,0,1-.86-.16c.32-.08.63-.13.95-.19h0l.07,0Z" fill="#480973"/>
        <path d="M47.74,33.29l-.07,0A.08.08,0,0,1,47.74,33.29Z" fill="#480973"/>
        <path d="M46.71,33.46a5,5,0,0,0,.86.16c-8.71,1.52-15.52,9.92-14.83,18.8a21.71,21.71,0,0,0,2.11,7.86l0,0a.16.16,0,0,0-.26-.06l-.12.12a20.66,20.66,0,0,1-.94-2.23c.06-.09.11-.18.16-.27s-.2-.34-.28-.15c0,0,0,0,0,0a21.18,21.18,0,0,1-.77-2.94,1.42,1.42,0,0,0,.25-.12c.18-.09,0-.39-.15-.29l-.16.07c-.11-.66-.2-1.32-.25-2a16.88,16.88,0,0,1,.89-6.9.17.17,0,0,0,.22,0,.16.16,0,0,0,0-.23l-.1-.09a19.64,19.64,0,0,1,1.59-3.3c0,.15.08.31.11.46a.16.16,0,0,0,.14-.18,4.85,4.85,0,0,0-.08-.55,18,18,0,0,1,4.46-4.87A18.43,18.43,0,0,1,46.71,33.46Z" fill="#480973"/>
        <path d="M44.65,43.9a.16.16,0,0,1,.07.32,10.06,10.06,0,0,0-2.83,1.15,9.78,9.78,0,0,1,2.69-1.45Z" fill="#480973"/>
        <path d="M45.81,63.69a9.9,9.9,0,0,1-3.92-18.32,11.93,11.93,0,0,0-1.15,1A10.32,10.32,0,0,0,45.81,63.69Z" fill="#480973"/>
        <path d="M38.24,59a.17.17,0,0,1,0,.23l-.11.1A2.75,2.75,0,0,1,38,59l0,0A.17.17,0,0,1,38.24,59Z" fill="#480973"/>
        <path d="M38,59a2.75,2.75,0,0,0,.17.29,7,7,0,0,1-2.58,1.63.14.14,0,0,0-.17,0,.15.15,0,0,0-.1.13L35,61.1a.18.18,0,0,1-.22-.09c-.06-.11-.12-.23-.17-.34a1.12,1.12,0,0,1,.18-.2.14.14,0,0,0,0-.17l0,0a2.93,2.93,0,0,0,.19.4l-.16,0,.23.1a.91.91,0,0,1-.07-.14A6.61,6.61,0,0,0,38,59Z" fill="#480973"/>
        <path d="M35.38,60.88a.14.14,0,0,1,.17,0l-.27.09A.15.15,0,0,1,35.38,60.88Z" fill="#480973"/>
        <path d="M35.13,42.2a.16.16,0,0,1-.14.18c0-.15-.07-.31-.11-.46l.17-.27A4.85,4.85,0,0,1,35.13,42.2Z" fill="#480973"/>
        <path d="M35,60.68a.91.91,0,0,0,.07.14l-.23-.1Z" fill="#480973"/>
        <path d="M35.05,41.65l-.17.27c-2.42-8.94-15.54-10-21.45-3.64A14.25,14.25,0,0,0,11.3,54.56c2.75,5.32,9,7.95,14.84,7.35,2.85-.26,5.83-1.55,7.23-4.18,0,.14.08.27.13.4-3.24,5.3-11,5-16.12,2.74C8.53,56.87,6.45,44.93,13.1,38A14.48,14.48,0,0,1,31.74,36.5,8.65,8.65,0,0,1,35.05,41.65Z" fill="#480973"/>
        <path d="M34.82,60.3a.14.14,0,0,1,0,.17,1.12,1.12,0,0,0-.18.2,2.29,2.29,0,0,1-.16-.31l.12-.12A.16.16,0,0,1,34.82,60.3Z" fill="#480973"/>
        <path d="M33.38,57.71c.08-.19.39,0,.28.15s-.1.18-.16.27c0-.13-.09-.26-.13-.4S33.37,57.71,33.38,57.71Z" fill="#480973"/>
        <path d="M33.39,45.31a.16.16,0,0,1,0,.23.17.17,0,0,1-.22,0l.11-.33Z" fill="#480973"/>
        <path d="M33.29,45.22l-.11.33a2.43,2.43,0,0,0-3.28.58,6.57,6.57,0,0,0-.42,7.22,2.51,2.51,0,0,0,3.06,1.1l.06.34a2.87,2.87,0,0,1-3.47-1.19,6.76,6.76,0,0,1,.44-7.76A2.78,2.78,0,0,1,33.29,45.22Z" fill="#480973"/>
        <path d="M32.7,54.38c.19-.1.33.2.15.29a1.42,1.42,0,0,1-.25.12l-.06-.34Z" fill="#480973"/>
      </g>
    </g>
  </g>
</svg>
