<svg xmlns="http://www.w3.org/2000/svg" viewBox="0 0 100 100">
  <title>profile_10</title>
  <g style="isolation: isolate">
    <g id="a22458cb-3fb0-402a-bc25-ea7355b27f93" data-name="layer 1">
      <g>
        <circle cx="51.02" cy="50" r="37.61" fill="#2fb5eb"/>
        <path d="M63.27,31a10.78,10.78,0,0,0-2-4.26c-3-3.87-8.12-5.6-12.88-5.06a24.18,24.18,0,0,0-16.23,8.07h0A33.53,33.53,0,0,0,20.21,36C15.05,40.29,10.46,46.1,9.89,53a14.58,14.58,0,0,0,2.61,9.69c1.32,1.78,3.27,3.6,5.67,3.37a3.26,3.26,0,0,0,2.59-1.7,16,16,0,0,0,1.94,2.1,16.69,16.69,0,0,0,14,4l.53-.09.27-.06A10.93,10.93,0,0,0,39,69.88a8,8,0,0,0,1.14.89,25.6,25.6,0,0,0,4.14,2.11l2.12.78.49.17c8.81,3.11,18.43,5.41,27.58,2.74a17.69,17.69,0,0,0,7.85-4.87s0,0,.07,0l.23-.29c.19-.24.37-.5.55-.75,0-.06.09-.12.13-.19A21.2,21.2,0,0,0,87.07,61a7.74,7.74,0,0,0-.19-3.64,3.89,3.89,0,0,0,2.54-.15c2.32-.87,3.26-3.48,3.51-5.75.68-5.74-.67-11.93-4.63-16.3C82.05,28.27,71.58,28.4,63.27,31Z" fill="#480973"/>
        <g>
          <path d="M92.33,53.9a3.54,3.54,0,0,1-2.58.08l0,0a2.94,2.94,0,0,1-.55-.3.11.11,0,0,0-.17,0,.12.12,0,0,0,0,.17,3.16,3.16,0,0,0,.56.33,7.67,7.67,0,0,1,.18,3.72,22.16,22.16,0,0,1-2.63,7.61,23,23,0,0,1-2.05,3.21,9.86,9.86,0,0,1-2.95,2.38,26.21,26.21,0,0,1-15.4,3.36,25.34,25.34,0,0,1-3.88-.65,13.56,13.56,0,0,1-1.67-.41c-.71-.27-1.43-.52-2.14-.77-2.85-1-5.75-1.78-8.68-2.48-.79-1.3-1.52-2.63-2.23-4,8.08,3.14,18.43,1.93,23.56-5.49a12.44,12.44,0,0,0,1.47-10l.2,0a.89.89,0,0,0,.67-.61c.12-.65-.84-1.45-1.52-2l-.36-.25a14.34,14.34,0,0,0-1-1.85c1,.15.9-1.16.67-1.81a2.61,2.61,0,0,0-2.11-1.86,2.1,2.1,0,0,0-1.48.07,19.66,19.66,0,0,0-9-5A1.84,1.84,0,0,0,58.5,36c-2.2-2-7.43-1.94-9.28.59a30.7,30.7,0,0,0-6.24,1c-.67.17-1.33.38-2,.6a5,5,0,0,0-1-.51,5.37,5.37,0,0,0-2.41-.39.14.14,0,0,0-.12.14.12.12,0,0,0,.13.11,5.58,5.58,0,0,1,4.18,1.75c3.33,3.64,1.5,9.75-2.46,12.17a2.61,2.61,0,0,0-.63-.13c-.16,0-.18.25,0,.25,2.79.39,4,4.54,4.85,6.84a15.32,15.32,0,0,1,.71,5.7,0,0,0,0,0,0,0s0,0,0,0c-.44,2-2.8,2.56-4.57,2.89A16.53,16.53,0,0,1,26,63.18a15.82,15.82,0,0,1-2-2.21,16.8,16.8,0,0,1-3.31-8,.22.22,0,0,0,0-.08.12.12,0,0,0-.14-.11.13.13,0,0,0-.11.14,16.53,16.53,0,0,0,.46,2.43,16.93,16.93,0,0,0,2.81,5.75,3,3,0,0,1-2.46,1.63c-2.25.2-4.12-1.58-5.38-3.28a11,11,0,0,1-.71-1.11A14.38,14.38,0,0,1,13.27,50c.59-6.77,5.11-12.51,10.17-16.72A34.17,34.17,0,0,1,34.9,27.11l-.07.09a.13.13,0,0,0,0,.18.12.12,0,0,0,.17,0,25.24,25.24,0,0,1,7.4-5.8c6.77-3.38,16.5-4.19,21.63,2.38a10.12,10.12,0,0,1,2,4.15c-.27.08-.54.18-.81.27a.14.14,0,0,0-.08.16.13.13,0,0,0,.17.07,34,34,0,0,1,13.56-1.82C89,27.52,95.51,34.94,95.75,45,95.76,48.11,95.69,52.44,92.33,53.9Z" fill="#ec2872"/>
          <path d="M73,51.51a12.69,12.69,0,0,1,0,5.1,13.08,13.08,0,0,1-6.85,8.54c-6.65,3.61-15.15,2.79-21.55-1,.41-3.09-1.68-11.07-5-12.57a9.29,9.29,0,0,0,3.16-3.37c1.82-3.09,1.43-7.69-1.51-9.83A54.37,54.37,0,0,1,49,36.82L49,37a1,1,0,0,0,.48,1.41A2.14,2.14,0,0,0,51,38.07a7.84,7.84,0,0,1,5.68-.1l.68.27c1,.51,1.69.1,1.84-.57A23.29,23.29,0,0,1,68,42.58a.85.85,0,0,0,.29,1.26c.45.22.88.2,1.23.55s.65,1.17,1.21,1.49a15.86,15.86,0,0,1,.92,1.66A5.19,5.19,0,0,0,69,46.73a.82.82,0,0,0-.71.25.6.6,0,0,0-.13.45,2.55,2.55,0,0,0-.14.24,2.75,2.75,0,0,0,.43,2.53,6.07,6.07,0,0,0,2.09,1.57,2.73,2.73,0,0,0,1.76.28A1.24,1.24,0,0,0,73,51.51Zm-5,4.31a2.42,2.42,0,0,0-.13-4.18c-2.65-1.13-5.81,1-6.49,3.64a5.43,5.43,0,0,0,3.73,3.89,2.49,2.49,0,0,0,2.67-.72A2.83,2.83,0,0,0,68.05,55.82ZM59,43.85c.8-1.11-1.37-2.34-2.12-2.74a14.45,14.45,0,0,0-9.9-1,4.26,4.26,0,0,0-.51.13,1.1,1.1,0,0,0-.81.63c-.26.74.56,1.16,1.28,1.42.09.75.9,1.61,2.33,2.34A10.86,10.86,0,0,0,56,45.79c1-.24,2.7-.39,2.87-1.7V44A.93.93,0,0,0,59,43.85Z" fill="#ffc919"/>
          <path d="M72.87,50.87a.89.89,0,0,1-.64.93h-.09a1.41,1.41,0,0,0,0-.29,5,5,0,0,0-.86-3.05,5.58,5.58,0,0,1,1.43,1.8v0C72.78,50.48,72.83,50.68,72.87,50.87Z" fill="#ffefd4"/>
          <path d="M71.51,44.28a2,2,0,0,1,0,1.25c-.08.12-.22.15-.43.1-.61-.25-.74-1.08-1.3-1.52-.34-.35-.93-.4-1.33-.56a.54.54,0,0,1-.18-.84l0,0,0,0a1.92,1.92,0,0,1,1.28,0A2.28,2.28,0,0,1,71.51,44.28Z" fill="#ec2872"/>
          <path d="M70.84,48.11a1.08,1.08,0,0,0-1.12,0,1.25,1.25,0,0,0-.41.52,2.65,2.65,0,0,0-.12.37,4.14,4.14,0,0,0-.13,1.42,2.51,2.51,0,0,1-.67-2.73l0,.09c.26-.56,1-.35,1.6-.14A2.82,2.82,0,0,1,70.84,48.11Z" fill="#ffefd4"/>
          <path d="M67.76,52a2.07,2.07,0,0,1,0,3.63.18.18,0,0,0-.08.24,2.48,2.48,0,0,1-.11,2.42c-1.15,1.41-3.47.44-4.51-.73a6,6,0,0,1-1.33-2.23C62.43,52.91,65.32,50.92,67.76,52Zm-.67,2.38a.13.13,0,0,0,0-.25,4.35,4.35,0,0,0-3.19,1.46.12.12,0,0,0,.17.18,6.42,6.42,0,0,1,1.38-.87,3.33,3.33,0,0,1,.67,1.79.14.14,0,0,0,.1.12.13.13,0,0,0,.15-.11,2.16,2.16,0,0,0-.63-1.92A6.52,6.52,0,0,1,67.09,54.33Z" fill="#ec2872"/>
          <path d="M58.24,36.22c.64.53,1,1.85-.14,1.89a8.62,8.62,0,0,1-1.35-.46,8.07,8.07,0,0,0-5.9.16,2,2,0,0,1-1.32.3.71.71,0,0,1-.35-1C50.68,34.35,56.1,34.26,58.24,36.22Z" fill="#ec2872"/>
          <path d="M56.14,41.71a4.58,4.58,0,0,0-2.54.5,3,3,0,0,0-1.66,1.94,1.7,1.7,0,0,0,.21,1.22,10.3,10.3,0,0,1-2.75-1c-2.81-1.51-3-3.18.5-3.53A11.6,11.6,0,0,1,56.14,41.71Z" fill="#ffefd4"/>
          <path d="M20.8,55.37a16.93,16.93,0,0,0,2.81,5.75,3,3,0,0,1-2.46,1.63c-2.25.2-4.12-1.58-5.38-3.28a11,11,0,0,1-.71-1.11,3.45,3.45,0,0,0,4,.82C20.28,58.54,20.76,56.94,20.8,55.37Z" fill="#a80a64"/>
          <path d="M94.22,49.74a8.27,8.27,0,0,1-.88,2.62,3.53,3.53,0,0,1-2.09,1.72,2.28,2.28,0,0,1-2.45-.88,20.58,20.58,0,0,1-1.55,9.36A19,19,0,0,1,70.53,74.22,45.53,45.53,0,0,1,57.7,73c-5.32-1.16-11.28-2.83-15.56-6.19a5.8,5.8,0,0,0,2.33-2.43c2,.84,3.73,1.86,5.8,2.56a19.39,19.39,0,0,0,4.73.83c6.31.48,13-1.67,16.68-7a12.44,12.44,0,0,0,1.47-10l.2,0a.89.89,0,0,0,.67-.61c.12-.65-.84-1.45-1.52-2l-.36-.25a14.34,14.34,0,0,0-1-1.85c1,.15.9-1.16.67-1.81a2.61,2.61,0,0,0-2.11-1.86,2.1,2.1,0,0,0-1.48.07,19.66,19.66,0,0,0-9-5A1.84,1.84,0,0,0,58.5,36c-2.2-2-7.43-1.94-9.28.59a30.7,30.7,0,0,0-6.24,1c-.67.17-1.33.38-2,.6a5,5,0,0,0-1-.51,5.37,5.37,0,0,0-2.41-.39.14.14,0,0,0-.12.14.12.12,0,0,0,.13.11,5.58,5.58,0,0,1,4.18,1.75c3.33,3.64,1.5,9.75-2.46,12.17a2.61,2.61,0,0,0-.63-.13c-.16,0-.18.25,0,.25,2.79.39,4,4.54,4.85,6.84a15.32,15.32,0,0,1,.71,5.7,0,0,0,0,0,0,0s0,0,0,0c-.44,2-2.8,2.56-4.57,2.89A16.53,16.53,0,0,1,26,63.18a15.82,15.82,0,0,1-2-2.21,16.8,16.8,0,0,1-3.31-8,16.14,16.14,0,0,0,2.59,2.7,5.53,5.53,0,0,0,3.62,1.24,5.46,5.46,0,0,0,4.36-3.67,13.82,13.82,0,0,0,.54-5.94c1.66.76,3.39.11,4.94-.87a5.51,5.51,0,0,0,.15-9.24c.48.33,2.7-.38,3.27-.5a29,29,0,0,0,3.31-.94,29.81,29.81,0,0,0,6.32-3.08,31.47,31.47,0,0,0,5.36-4.33c1.51-1.53,3.55-3.49,4.13-5.6.1-.39.34-.82.74-.87a1.05,1.05,0,0,1,.7.21,8.79,8.79,0,0,1,4.24,6.5,25.05,25.05,0,0,0-7.06,3.78c1.11,2.32,3.35,3.9,5.62,5.11A29.39,29.39,0,0,0,70.71,40a45.44,45.44,0,0,0,11.77,1.38,22.3,22.3,0,0,0,11.27-3.28C95.19,41.65,95,46,94.22,49.74Z" fill="#a80a64"/>
          <g>
            <path d="M91.32,32.12c4,4.37,5.3,10.55,4.62,16.3-.25,2.27-1.18,4.88-3.5,5.74a3.83,3.83,0,0,1-2.54.15c0-.09-.07-.19-.11-.28a.1.1,0,0,0,0-.05,3.54,3.54,0,0,0,2.58-.08c3.36-1.46,3.43-5.79,3.42-8.95-.24-10-6.75-17.43-16.87-18.17A34,34,0,0,0,65.32,28.6a.13.13,0,0,1-.17-.07.14.14,0,0,1,.08-.16c.27-.09.54-.19.81-.27l0,0a.12.12,0,0,0,.15.1.14.14,0,0,0,.1-.15s0-.06,0-.08C74.6,25.38,85.07,25.26,91.32,32.12Z" fill="#480973"/>
            <path d="M89.9,54.31A7.79,7.79,0,0,1,90.09,58a21.52,21.52,0,0,1-4.47,10.4l-.43.13a23.38,23.38,0,0,0,4.56-10.58,7.67,7.67,0,0,0-.18-3.72Z" fill="#480973"/>
            <path d="M89.79,54c0,.09.07.19.11.28l-.33-.12a.19.19,0,0,0,0-.07A.12.12,0,0,1,89.7,54h0l0,0A.1.1,0,0,1,89.79,54Z" fill="#480973"/>
            <path d="M89.75,54l0,0Z" fill="#480973"/>
            <path d="M89.7,54a.12.12,0,0,0-.15.16.19.19,0,0,1,0,.07,3.16,3.16,0,0,1-.56-.33.12.12,0,0,1,0-.17.11.11,0,0,1,.17,0A2.94,2.94,0,0,0,89.7,54Z" fill="#480973"/>
            <path d="M85.62,68.36l-.23.29c-.1.12-.3,0-.2-.15h0Z" fill="#480973"/>
            <path d="M72.5,48.11c.68.5,1.64,1.3,1.52,2a.89.89,0,0,1-.67.61l-.2,0a15.87,15.87,0,0,0-1-2.83Z" fill="#480973"/>
            <path d="M73.15,50.69a12.44,12.44,0,0,1-1.47,10c-5.13,7.42-15.48,8.63-23.56,5.49L48,65.87c-.19-.14-.24-.05-.18.18a21.76,21.76,0,0,1-3.23-1.64l0-.13s0-.09,0-.14c6.4,3.8,14.9,4.62,21.55,1A13.08,13.08,0,0,0,73,56.61a12.69,12.69,0,0,0,0-5.1,1.12,1.12,0,0,0,.11-.81Z" fill="#480973"/>
            <path d="M73.15,50.69h0a4,4,0,0,0-.79-1.62,14.86,14.86,0,0,0-.66-1.54l.39.25.08.07h0A15.87,15.87,0,0,1,73.15,50.69Z" fill="#480973"/>
            <path d="M73.12,50.7a1.12,1.12,0,0,1-.11.81c0-.22-.09-.43-.14-.64a1.88,1.88,0,0,0-.14-.58v0c-.07-.22-.13-.43-.2-.64l.21.32a2.1,2.1,0,0,1,.26.75Z" fill="#480973"/>
            <path d="M73.12,50.7H73a2.1,2.1,0,0,0-.26-.75l-.21-.32c-.06-.19-.12-.37-.19-.55A4,4,0,0,1,73.12,50.7Z" fill="#480973"/>
            <path d="M72.87,50.87c0,.21.1.42.14.64a1.24,1.24,0,0,1-.71.54,2.73,2.73,0,0,1-1.76-.28,6.07,6.07,0,0,1-2.09-1.57A2.75,2.75,0,0,1,68,47.67a2.55,2.55,0,0,1,.14-.24.69.69,0,0,0,0,.24.84.84,0,0,1,.92-.45,5.07,5.07,0,0,1,3.39,2.41c.07.21.13.42.2.64a5.58,5.58,0,0,0-1.43-1.8l0,0,0-.05a1.28,1.28,0,0,0-.39-.29,2.82,2.82,0,0,0-.87-.49c-.59-.21-1.34-.42-1.6.14l0-.09a2.51,2.51,0,0,0,.67,2.73.93.93,0,0,0,0,.24,6.21,6.21,0,0,0,1.35.92,3,3,0,0,0,1.66.4.66.66,0,0,0,0-.15h.09A.89.89,0,0,0,72.87,50.87Z" fill="#480973"/>
            <path d="M72.73,50.29a1.88,1.88,0,0,1,.14.58C72.83,50.68,72.78,50.48,72.73,50.29Z" fill="#480973"/>
            <path d="M72.33,49.08c.07.18.13.36.19.55a5.07,5.07,0,0,0-3.39-2.41.84.84,0,0,0-.92.45.69.69,0,0,1,0-.24c.81-1.14,3,.29,3.65,1.06A6.57,6.57,0,0,1,72.33,49.08Z" fill="#480973"/>
            <path d="M72.15,51.52a1.41,1.41,0,0,1,0,.29,4.08,4.08,0,0,1-2.87-1.22.93.93,0,0,1-.21-.19A4.14,4.14,0,0,1,69.19,49a2.65,2.65,0,0,1,.12-.37,1.25,1.25,0,0,1,.41-.52,1.08,1.08,0,0,1,1.12,0,4.58,4.58,0,0,1,.43.34l0,0A5,5,0,0,1,72.15,51.52Z" fill="#480973"/>
            <path d="M72.14,47.86l-.08-.07-.39-.25a15.86,15.86,0,0,0-.92-1.66L71,46l.14,0A14.34,14.34,0,0,1,72.14,47.86Z" fill="#480973"/>
            <path d="M72.14,51.81a.66.66,0,0,1,0,.15,3,3,0,0,1-1.66-.4,6.21,6.21,0,0,1-1.35-.92.93.93,0,0,1,0-.24.93.93,0,0,0,.21.19A4.08,4.08,0,0,0,72.14,51.81Z" fill="#480973"/>
            <path d="M72.33,49.08a6.57,6.57,0,0,0-.52-.59c-.68-.77-2.84-2.2-3.65-1.06a.6.6,0,0,1,.13-.45.82.82,0,0,1,.71-.25,5.19,5.19,0,0,1,2.67.81A14.86,14.86,0,0,1,72.33,49.08Z" fill="#480973"/>
            <path d="M71.81,44.2c.23.65.3,2-.67,1.81a4,4,0,0,0-.23-.34c-.08-.15-.3,0-.21.14l0,.07c-.56-.32-.74-1.11-1.21-1.49s-.78-.33-1.23-.55A.85.85,0,0,1,68,42.58a1.27,1.27,0,0,1,.12.1.12.12,0,0,0,.14,0,.54.54,0,0,0,.18.84c.4.16,1,.21,1.33.56.56.44.69,1.27,1.3,1.52.21,0,.35,0,.43-.1a2,2,0,0,0,0-1.25,2.28,2.28,0,0,0-1.87-1.69,1.92,1.92,0,0,0-1.28,0l0,0a.11.11,0,0,0,0-.17l-.1-.09a2.1,2.1,0,0,1,1.48-.07A2.61,2.61,0,0,1,71.81,44.2Z" fill="#480973"/>
            <path d="M71.23,48.4l0,.05a4.58,4.58,0,0,0-.43-.34A1.28,1.28,0,0,1,71.23,48.4Z" fill="#480973"/>
            <path d="M70.91,45.67a4,4,0,0,1,.23.34L71,46l-.25-.11,0-.07C70.61,45.68,70.83,45.52,70.91,45.67Z" fill="#480973"/>
            <path d="M68.32,42.5a.11.11,0,0,1,0,.17l0,0a.12.12,0,0,1-.14,0,1.27,1.27,0,0,0-.12-.1,1,1,0,0,1,.19-.17h0Z" fill="#480973"/>
            <path d="M68.22,42.41h0a1,1,0,0,0-.19.17,23.29,23.29,0,0,0-8.86-4.91.75.75,0,0,0,0-.26A19.66,19.66,0,0,1,68.22,42.41Z" fill="#480973"/>
            <path d="M67.92,51.64a2.42,2.42,0,0,1,.13,4.18,1.16,1.16,0,0,0-.06-.15l-.08.24.14-.09a2.83,2.83,0,0,1-.22,2.63,2.49,2.49,0,0,1-2.67.72,5.43,5.43,0,0,1-3.73-3.89C62.11,52.65,65.27,50.51,67.92,51.64Zm-.2,3.94a2.07,2.07,0,0,0,0-3.63c-2.44-1-5.33,1-6.07,3.33A6,6,0,0,0,63,57.51c1,1.17,3.36,2.14,4.51.73a2.48,2.48,0,0,0,.11-2.42A.18.18,0,0,1,67.72,55.58Z" fill="#480973"/>
            <path d="M68,55.67a1.16,1.16,0,0,1,.06.15l-.14.09Z" fill="#480973"/>
            <path d="M67.07,54.08a.13.13,0,0,1,0,.25,6.52,6.52,0,0,0-1.37.4,1.29,1.29,0,0,0-.21-.19c-.11-.09-.27.07-.17.19a.94.94,0,0,1,.09.12,6.42,6.42,0,0,0-1.38.87.12.12,0,0,1-.17-.18A4.35,4.35,0,0,1,67.07,54.08Z" fill="#480973"/>
            <path d="M65.72,54.73a2.16,2.16,0,0,1,.63,1.92.13.13,0,0,1-.15.11.14.14,0,0,1-.1-.12,3.33,3.33,0,0,0-.67-1.79Z" fill="#480973"/>
            <path d="M66.31,28.1a.14.14,0,0,1-.1.15.12.12,0,0,1-.15-.1l0,0,.25-.08S66.3,28.08,66.31,28.1Z" fill="#480973"/>
            <path d="M66.29,28,66,28.1a10.12,10.12,0,0,0-2-4.15c-5.13-6.57-14.86-5.76-21.63-2.38a25.24,25.24,0,0,0-7.4,5.8.12.12,0,0,1-.17,0,.13.13,0,0,1,0-.18l.07-.09.32-.09a.14.14,0,0,0,.08-.16.11.11,0,0,0-.1-.09A24.16,24.16,0,0,1,51.44,18.7a14.3,14.3,0,0,1,12.87,5.06A10.6,10.6,0,0,1,66.29,28Z" fill="#480973"/>
            <path d="M65.51,54.54a1.29,1.29,0,0,1,.21.19l-.29.12a.94.94,0,0,0-.09-.12C65.24,54.61,65.4,54.45,65.51,54.54Z" fill="#480973"/>
            <path d="M58.5,36a1.84,1.84,0,0,1,.7,1.46l-.15,0a.13.13,0,0,0-.07.25l.18.06c-.15.67-.82,1.08-1.84.57L56.64,38a7.84,7.84,0,0,0-5.68.1,2.14,2.14,0,0,1-1.52.29A1,1,0,0,1,49,37l.07-.13.23,0c.16,0,.14-.25,0-.25h0C51.07,34,56.3,34,58.5,36Zm-.4,2.16c1.11,0,.78-1.36.14-1.89-2.14-2-7.56-1.87-9.06.85a.71.71,0,0,0,.35,1,2,2,0,0,0,1.32-.3,8.07,8.07,0,0,1,5.9-.16A8.62,8.62,0,0,0,58.1,38.11Z" fill="#480973"/>
            <path d="M59.05,37.36l.15,0a.75.75,0,0,1,0,.26L59,37.61A.13.13,0,0,1,59.05,37.36Z" fill="#480973"/>
            <path d="M56.85,41.11c.75.4,2.92,1.63,2.12,2.74a.93.93,0,0,1-.14.14c0-1.26-1.29-1.9-2.24-2.4a12,12,0,0,0-6.73-1.11c-2.14.18-3.07.93-3,1.85-.72-.26-1.54-.68-1.28-1.42a1.1,1.1,0,0,1,.81-.63,4.26,4.26,0,0,1,.51-.13A14.45,14.45,0,0,1,56.85,41.11Z" fill="#480973"/>
            <path d="M56.59,41.59c.95.5,2.27,1.14,2.24,2.4a1,1,0,0,1-.13.09,1.48,1.48,0,0,0-.12-.72,2.9,2.9,0,0,0-1.28-1.22l-.39-.22-.28-.15h0a11.78,11.78,0,0,0-3.89-1.14c-1-.12-6.07-.2-5.63,1.77l-.19-.07c-.12-.92.81-1.67,3-1.85A12,12,0,0,1,56.59,41.59Z" fill="#480973"/>
            <path d="M58.83,44v.1C58.66,45.4,57,45.55,56,45.79a10.86,10.86,0,0,1-6.72-1.12c-1.43-.73-2.24-1.59-2.33-2.34l.19.07c-.44-2,4.63-1.89,5.63-1.77a11.78,11.78,0,0,1,3.89,1.14,3.93,3.93,0,0,0-.48-.06,11.6,11.6,0,0,0-6.24-.87c-3.51.35-3.31,2-.5,3.53a10.3,10.3,0,0,0,2.75,1l.12.2a10.49,10.49,0,0,0,5-.23,2.15,2.15,0,0,0,1.26-.77,1.09,1.09,0,0,0,.16-.49A1,1,0,0,0,58.83,44Z" fill="#480973"/>
            <path d="M58.58,43.36a1.48,1.48,0,0,1,.12.72,1.09,1.09,0,0,1-.16.49,2.15,2.15,0,0,1-1.26.77,10.49,10.49,0,0,1-5,.23l-.12-.2a10.13,10.13,0,0,0,3.76.13c.93-.2,2.49-.3,2.66-1.44s-1.21-1.74-2.11-2.2l-.32-.15a3.93,3.93,0,0,1,.48.06h0l.28.15.39.22A2.9,2.9,0,0,1,58.58,43.36Z" fill="#480973"/>
            <path d="M56.46,41.86c.9.46,2.19,1,2.11,2.2s-1.73,1.24-2.66,1.44a10.13,10.13,0,0,1-3.76-.13,1.7,1.7,0,0,1-.21-1.22,3,3,0,0,1,1.66-1.94,4.58,4.58,0,0,1,2.54-.5Z" fill="#480973"/>
            <path d="M56.91,41.92l-.28-.15Z" fill="#480973"/>
            <path d="M49.24,36.54c.16,0,.18.24,0,.25l-.23,0c.06-.09.12-.19.19-.28Z" fill="#480973"/>
            <path d="M49.22,36.54c-.07.09-.13.19-.19.28a54.37,54.37,0,0,0-7.76,1.55,1.73,1.73,0,0,0-.28-.19c.66-.22,1.32-.43,2-.6A30.7,30.7,0,0,1,49.22,36.54Z" fill="#480973"/>
            <path d="M48,65.87l.16.31-.34-.13C47.72,65.82,47.77,65.73,48,65.87Z" fill="#480973"/>
            <path d="M39.62,51.57c3.3,1.5,5.39,9.48,5,12.57l-.17-.1a.14.14,0,0,0-.18,0,0,0,0,0,1,0,0,15.32,15.32,0,0,0-.71-5.7c-.84-2.3-2.06-6.45-4.85-6.84-.16,0-.14-.27,0-.25a2.61,2.61,0,0,1,.63.13h0a.12.12,0,1,0,.13.21Z" fill="#480973"/>
            <path d="M44.6,64.14s0,.1,0,.14l0,.13h0l-.24-.15a.1.1,0,0,1-.06-.1v0a0,0,0,0,0,0,0,.14.14,0,0,1,.18,0Z" fill="#480973"/>
            <path d="M44.3,64.26l.24.15c-.45,1.8-2.31,2.52-4,2.89l-.1-.15c-.07-.13-.29,0-.22.12l0,.09-.53.1a16.67,16.67,0,0,1-14-4,15.35,15.35,0,0,1-1.94-2.09l.12-.27a.14.14,0,0,0,0-.09h0a15.82,15.82,0,0,0,2,2.21A16.53,16.53,0,0,0,39.66,67.1c1.77-.33,4.13-.86,4.57-2.89a.43.43,0,0,0,0,0A.1.1,0,0,0,44.3,64.26Z" fill="#480973"/>
            <path d="M44.24,64.11v0A0,0,0,0,1,44.24,64.11Z" fill="#480973"/>
            <path d="M41.27,38.37c2.94,2.14,3.33,6.74,1.51,9.83a9.29,9.29,0,0,1-3.16,3.37,1.78,1.78,0,0,0-.29-.12c4-2.42,5.79-8.53,2.46-12.17a5.58,5.58,0,0,0-4.18-1.75.12.12,0,0,1-.13-.11.14.14,0,0,1,.12-.14,5.37,5.37,0,0,1,2.41.39,5,5,0,0,1,1,.51h0a.16.16,0,0,0-.09.16.13.13,0,0,0,.16.08Z" fill="#480973"/>
            <path d="M41,38.18a1.73,1.73,0,0,1,.28.19l-.24.06a.13.13,0,0,1-.16-.08.16.16,0,0,1,.09-.16Z" fill="#480973"/>
            <path d="M40.43,67.15l.1.15-.28.06,0-.09C40.14,67.13,40.36,67,40.43,67.15Z" fill="#480973"/>
            <path d="M39.62,51.57l-.17.1a.12.12,0,1,1-.13-.21h0A1.78,1.78,0,0,1,39.62,51.57Z" fill="#480973"/>
            <path d="M35.3,26.86a.14.14,0,0,1-.08.16l-.32.09.3-.34A.11.11,0,0,1,35.3,26.86Z" fill="#480973"/>
            <path d="M35.2,26.77l-.3.34a34.17,34.17,0,0,0-11.46,6.18c-5.06,4.21-9.58,10-10.17,16.72a14.18,14.18,0,0,0,2.5,9.46C17,61.17,18.9,63,21.15,62.75a3,3,0,0,0,2.46-1.63l.17.22a3.34,3.34,0,0,1-2.6,1.7c-2.4.23-4.34-1.6-5.67-3.38A14.49,14.49,0,0,1,12.91,50c.56-6.89,5.15-12.7,10.31-17a33.64,33.64,0,0,1,11.93-6.25Z" fill="#480973"/>
            <path d="M23.91,61h0a.13.13,0,0,0-.24,0,1.12,1.12,0,0,0-.05.13,16.8,16.8,0,0,1-3.27-8.18.13.13,0,0,1,.11-.14.12.12,0,0,1,.14.11A16.9,16.9,0,0,0,23.91,61Z" fill="#480973"/>
            <path d="M23.9,61a.14.14,0,0,1,0,.09l-.12.27-.17-.22a1.12,1.12,0,0,1,.05-.13A.13.13,0,0,1,23.9,61Z" fill="#480973"/>
            <path d="M54.46,43.2a1,1,0,0,1,.5-.47,2.64,2.64,0,0,1,1.67-.12,2.17,2.17,0,0,1,1.12.53c.74.78-.15,1.57-1,1.4C56.05,44.42,54,44.09,54.46,43.2Z" fill="#ffefd4"/>
            <path d="M70.13,49.46a.82.82,0,0,1,.21-.38A.61.61,0,0,1,71,49a.81.81,0,0,1,.46.44c.31.64-.06,1.29-.43,1.15S70,50.2,70.13,49.46Z" fill="#ffefd4"/>
            <path d="M87.08,66.13c-1.93,3.74-5.69,6.17-9.61,7.42-10.06,3-20.7-.13-30.19-3.68a26.43,26.43,0,0,1-4.14-2.11,6.68,6.68,0,0,1-1.23-1,.13.13,0,0,1,0-.18.13.13,0,0,1,.19,0,18.09,18.09,0,0,0,5.29,3c9.23,3.44,20.24,6.53,30,3.66C81.2,72,84.93,69.64,86.85,66A.14.14,0,0,1,87,66a.12.12,0,0,1,0,.17Z" fill="#480973"/>
          </g>
          <path d="M64.89,54.07a4.28,4.28,0,0,0,1-.81.73.73,0,0,0,.25-.49c0-1.15-2.12-.4-2.53,0C62.23,54,63.58,54.84,64.89,54.07Z" fill="#fff7c7" style="mix-blend-mode: overlay"/>
          <path d="M51.06,47.14a3.3,3.3,0,0,1,1.79.75,2.31,2.31,0,0,1,.45,2.55,2.67,2.67,0,0,1-2.17,1.49A3.23,3.23,0,0,1,48.62,51C46.64,49.08,48.84,46.82,51.06,47.14Z" fill="#ec2872"/>
        </g>
      </g>
    </g>
  </g>
</svg>
