<svg id="b9a04e5b-cf08-4de9-8a44-96ea0204a1ac" data-name="layer 1" xmlns="http://www.w3.org/2000/svg" viewBox="0 0 100 100">
  <title>profile_3</title>
  <g>
    <circle cx="47.88" cy="50" r="37.61" fill="#ec2872"/>
    <path d="M15,53.62h0a2.4,2.4,0,0,0,.24.22,5.14,5.14,0,0,0,5.65,1c-.25,13.37,2.79,20.83,15.39,24.11l.4.1c.72.18,1.48.34,2.27.5a64.16,64.16,0,0,0,11.4,1.34c3.83,0,7.71.17,11.45-.85A10,10,0,0,0,66.67,77c3.13-3.78,3.88-9,3.5-13.7a11.27,11.27,0,0,0-8.39-10.07,7.72,7.72,0,0,0,2.32-1.67c2.32,4.11,7.37,6,11.92,6,7.59-.27,11.92-9.1,10.39-15.91a13.48,13.48,0,0,0-9.16-10.07c-2-.57-4.52-1-6.43.16.67-2.12.14-4.69-.54-6.71-2-5.93-8.79-10.68-15.1-8.57a7.78,7.78,0,0,0-4.84,5,9.31,9.31,0,0,0-3.66-1.59c-2.82-.61-6.35.89-6.91,3.95a4.61,4.61,0,0,0,.1,2.09c-4.51-1-9.45-1.38-13.73.71a10.12,10.12,0,0,0-5.93,8.46,7.56,7.56,0,0,0,.66,3.48,39.76,39.76,0,0,0-.11,4.88l0,0-1.45.7,0,0A3.9,3.9,0,0,0,17.83,44c-3.8.46-5.51,5.59-3.55,8.62A4.23,4.23,0,0,0,15,53.62Z" fill="#480973"/>
    <g>
      <path d="M25.43,45.18v.06a15.09,15.09,0,0,1-.22,4.4c-1.11,3.3-6,2.62-7.51-.24-1.75-2.74-.25-7.49,3.18-7.94A4.54,4.54,0,0,1,25.43,45.18Zm-6.12,1.58a2,2,0,0,1,1.61-2.71,1.94,1.94,0,0,1,.92.14,1.72,1.72,0,0,0-1.45,1.57A2.2,2.2,0,0,0,22,48a.16.16,0,0,0,.12-.3,2,2,0,0,1-1.21-1.92,1.31,1.31,0,0,1,1.62-1.19h.05a2,2,0,0,1,.7,1.71c0,.19.28.24.32,0a2.49,2.49,0,0,0-2.69-2.8A2.33,2.33,0,0,0,19,46.89.16.16,0,0,0,19.31,46.76Z" fill="#eb8602"/>
      <path d="M24.24,38c0,.75,0,1.52-.1,2.28q1.37-.66,2.76-1.26c.24-.11.47-.22.71-.31-.11-2-.21-4.29.87-6A28.9,28.9,0,0,1,45.06,32a8,8,0,0,1-1.26-3.42.16.16,0,0,1,.32-.06,7.39,7.39,0,0,0,.5,1.66,2.26,2.26,0,0,0,.13.33,8.44,8.44,0,0,0,1.38,2.11,8.71,8.71,0,0,0,4.78,2.83,139.18,139.18,0,0,1,19.21,2.34.14.14,0,0,1,.11.09s0,0,0,.05v0A7.76,7.76,0,0,1,70,41.93l0,0a.16.16,0,0,1-.17.11L69.13,42a9.84,9.84,0,0,1-.22,3.33,6.76,6.76,0,0,1-1.56,3c2.23,4,7.27,5.89,11.67,5.87a10.06,10.06,0,0,0,8.24-5.33,14.45,14.45,0,0,0,1.71-10,13.09,13.09,0,0,0-11.1-10.29,10.54,10.54,0,0,0-1.12-.08h-.1a5.5,5.5,0,0,0-2.1.36,2.93,2.93,0,0,0-.9.5A4.88,4.88,0,0,1,72.36,31l0,0h0a.16.16,0,0,1-.16-.28,4.55,4.55,0,0,0,1.14-1.64s0,0,0,0c.85-2.12.29-4.85-.43-6.93-2-5.69-8.48-10.27-14.54-8.31a7.48,7.48,0,0,0-2.69,1.64,7.14,7.14,0,0,0-2,3.2.15.15,0,0,1,0,.13,5.71,5.71,0,0,0-.18,2,.17.17,0,0,1-.14.18.16.16,0,0,1-.18-.15,6,6,0,0,1,0-1.53,5.12,5.12,0,0,1,.1-.54,10.1,10.1,0,0,0-3.65-1.49,6.17,6.17,0,0,0-3.73.46,4.5,4.5,0,0,0-2.67,3.14,3.87,3.87,0,0,0,1.13,3.68.17.17,0,0,1,0,.22.17.17,0,0,1-.23,0A3.58,3.58,0,0,1,43,23.26c-.79-.16-1.58-.3-2.37-.41a26.38,26.38,0,0,0-4.52-.33c-4.55,0-9.58,1.95-11.63,6.24-.06.13-.11.25-.16.38a8.07,8.07,0,0,0-.13,6.32.35.35,0,0,1,0,.06C24.26,36.35,24.25,37.18,24.24,38Z" fill="#b235db"/>
      <path d="M24.22,51.61c0,.21,0,.4,0,.6C24.16,62.41,26,69,32.82,72.92a26.66,26.66,0,0,0,6.62,2.56h0c.81.21,1.67.4,2.57.57a69.37,69.37,0,0,0,17,1.27c2.8-.13,5.73-.4,8.16-1.88a6.61,6.61,0,0,0,.55-.37c3.66-2.66,4.91-7.6,5.07-11.95.46-5.91-2.53-11.36-8.54-12.72a7.73,7.73,0,0,1-3.72.5c-.28,0-.55-.08-.82-.13a8.14,8.14,0,0,1-4.63-1.71c-1-.06-2-.16-3-.24s-2-.16-2.93-.23a7.89,7.89,0,0,1-5.32,1.71c-.11,0-.23,0-.33,0a7.65,7.65,0,0,1-2-.1,10.22,10.22,0,0,0-5.26,8,.08.08,0,0,1,0,0,.1.1,0,0,1,0,.07s0,0-.06,0A6.39,6.39,0,0,1,29,55.21c-1.22-2.54-1.13-5.44-1.42-8.17-.12-1.74-.16-3.5-.12-5.24l-.55.19c-.73.25-1.47.51-2.2.78a4.49,4.49,0,0,1,1.09,2.6s0,0,0,0A8.24,8.24,0,0,1,25.48,50a.18.18,0,0,1-.05.07,3.24,3.24,0,0,1-1.22,1.57Zm25.54,7.1a2.63,2.63,0,0,1-1.73.77c-1.8.29-6.09-.64-6.19-2.87.07-.89.94-1.8,1.84-1.35a14.59,14.59,0,0,0,2.14,1c1.14.44,2.37.15,3.51.64A1.24,1.24,0,0,1,49.76,58.71Z" fill="#b235db"/>
      <path d="M27.77,41.69c0,1.77.1,3.55.22,5.32.3,2.67.28,5.52,1.41,8A6.09,6.09,0,0,0,36,58a9.47,9.47,0,0,1,5.08-8,9.07,9.07,0,0,1-.89-.26c-4.6-1.53-5.93-5.56-5.9-10C32.11,40.33,29.92,41,27.77,41.69Z" fill="#ffe226"/>
      <path d="M28.73,33.06a11.88,11.88,0,0,0-.8,5.52c2.4-1,4.83-2,7.3-2.86h0a118.93,118.93,0,0,1,14-.31,8.59,8.59,0,0,1-3.92-3,40.72,40.72,0,0,0-4.08-.65A28.89,28.89,0,0,0,28.73,33.06Z" fill="#ffe226"/>
      <path d="M35.54,39.14c2.82,0,5.65.06,8.48.14,2,.07,3.93.15,5.89.26l2.53.16c.92,0,1.85.13,2.78.2q3.66.29,7.3.73,3.2.39,6.37.94h0a.17.17,0,0,1,.17,0h0l.6.11a22.86,22.86,0,0,0,.26-3.6q-2.59-.45-5.22-.83c-2.66-.38-5.34-.69-8-.92-.77-.07-1.56-.14-2.34-.19L51.89,36a128,128,0,0,0-16.39.13A15.83,15.83,0,0,1,35.54,39.14Z" fill="#ec2872"/>
      <path d="M36.05,39.58a16.28,16.28,0,0,0,.12,2.09,11.78,11.78,0,0,0,.44,2.14,8.77,8.77,0,0,0,1.23,2.56A7.89,7.89,0,0,0,49,48.22,7.39,7.39,0,0,0,50.29,47a8.18,8.18,0,0,0,1.38-2.71,11.64,11.64,0,0,0,.39-2,12.77,12.77,0,0,0,0-2.14c-2.7-.17-5.4-.29-8.1-.38S38.53,39.62,36.05,39.58Z" fill="#ec2872"/>
      <path d="M42.2,56.62c0,.73.75,1.23,1.34,1.55A6.77,6.77,0,0,0,49,58.7a.79.79,0,0,0,.11-1.46,2.9,2.9,0,0,0-1-.26,9.39,9.39,0,0,1-4.51-1.42C42.85,55.21,42.26,56,42.2,56.62Z" fill="#ffe226"/>
      <path d="M49.66,48.23a28.49,28.49,0,0,1,5,.41A7.87,7.87,0,0,1,52.1,44.3,7.94,7.94,0,0,1,49.66,48.23Z" fill="#ffe226"/>
      <path d="M53.52,42.25a11.34,11.34,0,0,0,.37,2.26,7.81,7.81,0,0,0,6.75,5.91,7.24,7.24,0,0,0,7.38-4,8.23,8.23,0,0,0,.82-3.1,8.82,8.82,0,0,0,0-1.45c-5.07-.8-10.2-1.32-15.32-1.67A17,17,0,0,0,53.52,42.25Z" fill="#ec2872"/>
      <path d="M44.12,29.48l.63,1.06c.44.71.9,1.42,1.38,2.11a8.71,8.71,0,0,0,4.78,2.83,139.18,139.18,0,0,1,19.21,2.34.14.14,0,0,1,.11.09s0,0,0,.05v0A7.76,7.76,0,0,1,70,41.93l0,0a.16.16,0,0,1-.17.11L69.13,42a9.84,9.84,0,0,1-.22,3.33,6.76,6.76,0,0,1-1.56,3c2.23,4,7.27,5.89,11.67,5.87a10.06,10.06,0,0,0,8.24-5.33,11.81,11.81,0,0,1-7.86,2.3A10,10,0,0,1,72,46.81a11.25,11.25,0,0,1-.75-10.26,19,19,0,0,1,6.64-8.09.2.2,0,0,1,.07-.06,9.13,9.13,0,0,0-1.27,0h0a13.19,13.19,0,0,0-2.1.36l-.75.15a11,11,0,0,1-1.48,2.18A12.78,12.78,0,0,1,68.67,34a6.35,6.35,0,0,1-7.07-.27,14.43,14.43,0,0,1-6.1-8.11c-.84-3.35-1.27-6.88.15-10.12.09-.19.17-.37.27-.57a7.13,7.13,0,0,0-2.52,3.58,7.32,7.32,0,0,0-.23.8A15.09,15.09,0,0,0,53,26.87c.53,1.92.78,3.79-.86,5.33-2.7,2.55-5.8.46-7.56-2C44.44,30,44.28,29.73,44.12,29.48Z" fill="#7229ab"/>
      <path d="M40.64,22.85a4.6,4.6,0,0,0,2.23,2,12.48,12.48,0,0,0,3.73.84,8.62,8.62,0,0,1-1.73-5.83,3.85,3.85,0,0,1,.35-1.38,3.35,3.35,0,0,1,.67-.69,4.5,4.5,0,0,0-2.67,3.14,3.87,3.87,0,0,0,1.13,3.68.17.17,0,0,1,0,.22.17.17,0,0,1-.23,0A3.58,3.58,0,0,1,43,23.26C42.22,23.1,41.43,23,40.64,22.85Z" fill="#7229ab"/>
      <path d="M24.22,51.61c0,.21,0,.4,0,.6C24.16,62.41,26,69,32.82,72.92a26.66,26.66,0,0,0,6.62,2.56h0c.81.21,1.67.4,2.57.57a69.37,69.37,0,0,0,17,1.27c2.8-.13,5.73-.4,8.16-1.88a6.61,6.61,0,0,0,.55-.37A68,68,0,0,1,48,74.76c-5.12-.84-10.29-2.33-14.39-5.52a16.28,16.28,0,0,1-6.44-12c-.16-2.33-.33-4.58-.33-7,0-.79-.37-8.21,0-8.34-.73.25-1.47.51-2.2.78a4.49,4.49,0,0,1,1.09,2.6s0,0,0,0A8.24,8.24,0,0,1,25.48,50a.18.18,0,0,1-.05.07,3.24,3.24,0,0,1-1.22,1.57Z" fill="#7229ab"/>
      <path d="M24.24,38c0,.75,0,1.52-.1,2.28q1.37-.66,2.76-1.26,0-3,0-6.09c0-.08-1.8-1.61-2-2a4.77,4.77,0,0,1-.58-1.84,8.07,8.07,0,0,0-.13,6.32.35.35,0,0,1,0,.06C24.26,36.35,24.25,37.18,24.24,38Z" fill="#7229ab"/>
      <path d="M47.71,60.81a4.68,4.68,0,0,1-2.44.26,4.76,4.76,0,0,1-2.84-1.14A2.29,2.29,0,0,1,42,57.09c-.25.34,2.93,1.73,3.23,1.81A9.49,9.49,0,0,0,49,59C49.19,59.76,48.36,60.52,47.71,60.81Z" fill="#7229ab"/>
      <path d="M53.52,42.25a11.34,11.34,0,0,0,.37,2.26,3.17,3.17,0,0,1,3.29.39c1.12.75,2.09,1.82,3.41,2.05a5.78,5.78,0,0,0,2.88-.48A5.67,5.67,0,0,1,67,46a5.69,5.69,0,0,1,1,.5,8.23,8.23,0,0,0,.82-3.1A2.21,2.21,0,0,0,68,43a5.89,5.89,0,0,0-3,.54,23.64,23.64,0,0,1-2.83,1.15,4,4,0,0,1-3-.19c-1.36-.77-2-2.63-3.52-3A2.13,2.13,0,0,0,53.52,42.25Z" fill="#ffe8ad"/>
      <path d="M36.17,41.67a11.78,11.78,0,0,0,.44,2.14,3.07,3.07,0,0,1,1.56.3,6,6,0,0,0,2,.69c1.6.06,2.88-1.62,4.49-1.56s2.59,1.66,4.09,2a2.81,2.81,0,0,0,2.89-1,11.64,11.64,0,0,0,.39-2,.54.54,0,0,0-.53-.11c-.28.1-.43.39-.62.61a1.9,1.9,0,0,1-2.19.18,10.51,10.51,0,0,1-1.83-1.45,2.84,2.84,0,0,0-2.12-.81c-1.15.17-1.86,1.42-3,1.76a3.3,3.3,0,0,1-2.07-.22,13.69,13.69,0,0,0-2-.73A2.57,2.57,0,0,0,36.17,41.67Z" fill="#ffe8ad"/>
      <path d="M55.22,39.9q3.66.29,7.3.73h0l.12-.18a12.9,12.9,0,0,0,2.07-3.16c-2.66-.38-5.34-.69-8-.92-.18.56-.39,1.12-.6,1.68S55.48,39.27,55.22,39.9Z" fill="#ffe8ad"/>
      <path d="M49.91,39.54l2.53.16.13-.23c.56-1.08,1.26-2.17,1.78-3.3L51.89,36Z" fill="#ffe8ad"/>
      <path d="M20.63,41.36a4.72,4.72,0,0,0-2.79,1.8,5.86,5.86,0,0,0-1.09,4.24,1,1,0,0,0,.75.79c.55.09,1-.41,1.21-.94s.15-1.11.32-1.63a2.35,2.35,0,1,1,4.44,1.54,10.52,10.52,0,0,1-1.07,1.7,1.79,1.79,0,0,0-.17,1.89,1.45,1.45,0,0,0,1.82.35,2.94,2.94,0,0,0,1.26-1.53A7.44,7.44,0,0,0,24.6,43,3.72,3.72,0,0,0,20.63,41.36Z" fill="#ffe226"/>
      <g>
        <path d="M20.84,41c-3.8.47-5.51,5.6-3.55,8.63a4.19,4.19,0,0,0,.71,1s0,0,0,0,.39.05.25.21l0,.05a5.19,5.19,0,0,0,5.66,1v-.19a.17.17,0,0,1,.16-.16.16.16,0,0,1,.16.14A3.24,3.24,0,0,0,25.43,50a.18.18,0,0,1-.13,0,.17.17,0,0,1-.13-.2c0-.07,0-.15,0-.22-1.11,3.3-6,2.62-7.51-.24-1.75-2.74-.25-7.49,3.18-7.94a4.54,4.54,0,0,1,4.55,3.72.17.17,0,0,1,.32,0l0,.18a4.49,4.49,0,0,0-1.09-2.6l-.13,0a.16.16,0,0,1-.12-.3,0,0,0,0,0,0,0,4.84,4.84,0,0,0-1.74-1.18l-.26.13a.16.16,0,0,1-.17-.27A4.07,4.07,0,0,0,20.84,41Z" fill="#480973"/>
        <path d="M18,50.61h0l.23.23,0-.05c.14-.16-.11-.37-.25-.21S18,50.6,18,50.61Z" fill="#480973"/>
        <path d="M20.88,43.56A2.33,2.33,0,0,0,19,46.89a.16.16,0,0,0,.3-.13,2,2,0,0,1,1.61-2.71,1.94,1.94,0,0,1,.92.14,1.52,1.52,0,0,1,.78.11.16.16,0,0,1-.07.31,2,2,0,0,1,.7,1.71c0,.19.28.24.32,0A2.49,2.49,0,0,0,20.88,43.56Z" fill="#480973"/>
        <path d="M20.39,45.76A2.2,2.2,0,0,0,22,48a.16.16,0,0,0,.12-.3,2,2,0,0,1-1.21-1.92,1.31,1.31,0,0,1,1.62-1.19h.05a2.22,2.22,0,0,0-.71-.42A1.72,1.72,0,0,0,20.39,45.76Z" fill="#480973"/>
        <path d="M22.62,44.3a1.52,1.52,0,0,0-.78-.11,2.22,2.22,0,0,1,.71.42h0A.16.16,0,0,0,22.62,44.3Z" fill="#480973"/>
        <path d="M22.28,41.19a.16.16,0,0,0,.17.27l.26-.13A3.09,3.09,0,0,0,22.28,41.19Z" fill="#480973"/>
        <path d="M22.3,41.17l0,0a3.09,3.09,0,0,1,.43.14l1.09-.5a.17.17,0,0,1-.12-.11.13.13,0,0,1,0-.14s0-.07,0-.11Z" fill="#480973"/>
        <path d="M23.8,40.83l-1.09.5a4.84,4.84,0,0,1,1.74,1.18q1.53-.6,3.09-1.14a66,66,0,0,1,7.65-2.19,16.25,16.25,0,0,1,0-3c-2.34.83-4.8,1.78-7.23,2.8a.17.17,0,0,1-.14.06c-1.27.53-2.54,1.09-3.78,1.66h0A.15.15,0,0,1,23.8,40.83Z" fill="#480973"/>
        <path d="M23.22,32.06a7.74,7.74,0,0,0,.67,3.49v0c0-.19.31-.18.32,0a.35.35,0,0,0,0-.06,8.2,8.2,0,0,1,.29-6.7c2.05-4.29,7.08-6.2,11.63-6.24a32.8,32.8,0,0,1,6.89.74,2.29,2.29,0,0,1-.12-.37h0c-4.51-1-9.45-1.38-13.73.72A10.09,10.09,0,0,0,23.22,32.06Z" fill="#480973"/>
        <path d="M23.71,40.58a.13.13,0,0,0,0,.14.17.17,0,0,0,.12.11,1.63,1.63,0,0,1,.19-.09l.06-.1,0-.06a.17.17,0,0,1-.3,0l0,0Z" fill="#480973"/>
        <path d="M23.71,40.58l0,0,0,0h.09l.25,0a1.37,1.37,0,0,0,0-.19l-.09,0a.14.14,0,0,1,.07.08l-.35.05h0S23.72,40.54,23.71,40.58Z" fill="#480973"/>
        <path d="M23.74,40.55l0,0Z" fill="#480973"/>
        <path d="M23.89,35.55a37.87,37.87,0,0,0-.12,4.88.08.08,0,0,1,0,0,.18.18,0,0,1,.26-.05l.09,0c.07-.76.09-1.53.1-2.28s0-1.66,0-2.49a.16.16,0,0,1-.09.15.17.17,0,0,1-.22-.08A.08.08,0,0,1,23.89,35.55Z" fill="#480973"/>
        <path d="M23.75,40.47h0v0Z" fill="#480973"/>
        <path d="M23.77,40.43v0l.28-.13a.18.18,0,0,0-.26.05A.08.08,0,0,0,23.77,40.43Z" fill="#480973"/>
        <path d="M23.77,40.46l.35-.05a.14.14,0,0,0-.07-.08Z" fill="#480973"/>
        <path d="M23.78,40.53h0Z" fill="#480973"/>
        <path d="M23.91,40.54h0s0,0,0,0Zm-.13,0h.09l.25,0a1.37,1.37,0,0,0,0-.19c1.15-.55,2.31-1.07,3.47-1.57a1.48,1.48,0,0,1,0,.21.17.17,0,0,0,.15.15c-1.27.53-2.54,1.09-3.78,1.66l.06-.1,0-.06A.17.17,0,0,1,23.78,40.53Z" fill="#480973"/>
        <path d="M23.78,40.53h0Z" fill="#480973"/>
        <path d="M23.8,40.83a.15.15,0,0,0,.18-.08h0A1.63,1.63,0,0,0,23.8,40.83Z" fill="#480973"/>
        <path d="M23.89,51.8c-.26,13.37,2.79,20.82,15.39,24.1l0-.25a.15.15,0,0,1,.2-.17C26.9,72.26,24.06,64.93,24.22,51.61v0A2.92,2.92,0,0,1,23.89,51.8Z" fill="#480973"/>
        <path d="M23.87,40.52l0,0S23.89,40.52,23.87,40.52Z" fill="#480973"/>
        <path d="M23.89,51.61v.19a2.92,2.92,0,0,0,.32-.21.16.16,0,0,0-.16-.14A.17.17,0,0,0,23.89,51.61Z" fill="#480973"/>
        <path d="M23.89,35.51v0a.08.08,0,0,0,0,0,.17.17,0,0,0,.22.08.16.16,0,0,0,.09-.15C24.2,35.33,23.9,35.32,23.89,35.51Z" fill="#480973"/>
        <path d="M23.91,40.54h0Z" fill="#480973"/>
        <path d="M24.44,42.52a.16.16,0,0,0,.12.3l.13,0a2,2,0,0,0-.24-.26A0,0,0,0,1,24.44,42.52Z" fill="#480973"/>
        <path d="M24.45,42.51a2,2,0,0,1,.24.26c.91-.34,1.83-.66,2.75-1v-.27a.15.15,0,0,1,.1-.15h0Q26,41.91,24.45,42.51Z" fill="#480973"/>
        <path d="M25.17,49.86a.17.17,0,0,0,.13.2.18.18,0,0,0,.13,0,4.73,4.73,0,0,0,.25-.9c0-.2-.3-.23-.33,0a4,4,0,0,1-.14.55C25.2,49.71,25.18,49.79,25.17,49.86Z" fill="#480973"/>
        <path d="M25.21,49.64a4,4,0,0,0,.14-.55c0-.2.35-.17.33,0a4.73,4.73,0,0,1-.25.9.18.18,0,0,0,.05-.07,8.24,8.24,0,0,0,.31-4.56.16.16,0,1,1-.32,0,2.23,2.23,0,0,0,0-.23v.06A15.09,15.09,0,0,1,25.21,49.64Z" fill="#480973"/>
        <path d="M25.43,45.18a2.23,2.23,0,0,1,0,.23.16.16,0,1,0,.32,0s0,0,0,0l0-.18A.17.17,0,0,0,25.43,45.18Z" fill="#480973"/>
        <path d="M27.44,41.8c0,1.74,0,3.5.12,5.24.29,2.73.2,5.63,1.42,8.17a6.39,6.39,0,0,0,7.27,3.11s0,0,.06,0a.17.17,0,0,1-.27-.13V58a6.09,6.09,0,0,1-6.64-3c-1.13-2.46-1.11-5.31-1.41-8-.12-1.77-.2-3.55-.22-5.32Z" fill="#480973"/>
        <path d="M27.44,41.53v.27l.33-.11v-.16a.17.17,0,0,0-.23-.15A.15.15,0,0,0,27.44,41.53Z" fill="#480973"/>
        <path d="M27.54,41.37h0a.17.17,0,0,1,.23.15v.16c2.15-.72,4.34-1.36,6.56-1.87v-.23c0-.2.31-.22.32,0a.86.86,0,0,1,0,.16l.76-.17h.3c0-.06,0-.12,0-.18a.16.16,0,0,1,.16-.16.16.16,0,0,1,.16.17v.17c2.48,0,5.38.08,8,.19s5.4.21,8.1.38c0,0,0-.06,0-.09a.16.16,0,0,1,.32,0,.66.66,0,0,1,0,.14l.73,0a.16.16,0,0,1,.17-.14.16.16,0,0,1,.16.16c5.12.35,10.25.87,15.32,1.67,0-.06,0-.11,0-.17a.15.15,0,0,1,.1-.16A183.5,183.5,0,0,0,44,39.28c-2.83-.08-5.66-.14-8.48-.14a1.41,1.41,0,0,1,0,.21.17.17,0,0,1-.14.15.16.16,0,0,1-.18-.14,1.1,1.1,0,0,1,0-.18A66,66,0,0,0,27.54,41.37Z" fill="#480973"/>
        <path d="M28.48,32.67c-1.08,1.76-1,4-.87,6l.32-.14a11.88,11.88,0,0,1,.8-5.52l-.08,0,.12-.11a.36.36,0,0,0,0,.09,28.89,28.89,0,0,1,12.53-1.29,40.72,40.72,0,0,1,4.08.65c-.1-.13-.19-.25-.28-.39A28.9,28.9,0,0,0,28.48,32.67Z" fill="#480973"/>
        <path d="M27.61,38.72a1.48,1.48,0,0,1,0,.21.17.17,0,0,0,.15.15l.14-.06a.12.12,0,0,0,0-.1c0-.11,0-.23,0-.34Z" fill="#480973"/>
        <path d="M27.77,39.08a.17.17,0,0,0,.14-.06Z" fill="#480973"/>
        <path d="M27.94,38.92a.12.12,0,0,1,0,.1c2.43-1,4.89-2,7.23-2.8,0-.09,0-.19,0-.29a.15.15,0,0,1,.1-.13l0-.08c-2.47.87-4.9,1.83-7.3,2.86C27.94,38.69,27.94,38.81,27.94,38.92Z" fill="#480973"/>
        <path d="M28.65,33.08l.08,0a.36.36,0,0,1,0-.09Z" fill="#480973"/>
        <path d="M34.33,39.82c0,4.43,1.3,8.46,5.9,10a9.07,9.07,0,0,0,.89.26,3.17,3.17,0,0,1,.41-.21.16.16,0,0,1,.15.28l-.06,0a7.65,7.65,0,0,0,2,.1,7.68,7.68,0,0,1-2.37-.62A8.53,8.53,0,0,1,37,47.21c-1.91-2-2.16-4.83-2.35-7.47Z" fill="#480973"/>
        <path d="M34.33,39.59v.23l.33-.08a.86.86,0,0,0,0-.16C34.64,39.37,34.31,39.39,34.33,39.59Z" fill="#480973"/>
        <path d="M35.42,39.57l-.76.17c.19,2.64.44,5.48,2.35,7.47a8.53,8.53,0,0,0,4.21,2.44A9,9,0,0,1,36,43.15a15.33,15.33,0,0,1-.29-3.57Z" fill="#480973"/>
        <path d="M35.14,36.22a16.25,16.25,0,0,0,0,3l.14,0h.21a15.83,15.83,0,0,0,0-3h-.17Z" fill="#480973"/>
        <path d="M35.16,35.93c0,.1,0,.2,0,.29l.19-.07h.17a1.49,1.49,0,0,1,0-.21.17.17,0,0,0-.22-.13A.15.15,0,0,0,35.16,35.93Z" fill="#480973"/>
        <path d="M35.19,39.18a1.1,1.1,0,0,0,0,.18.16.16,0,0,0,.18.14.17.17,0,0,0,.14-.15,1.41,1.41,0,0,0,0-.21h-.21Z" fill="#480973"/>
        <path d="M35.23,35.72l0,.08a.17.17,0,0,1,.22.13,1.49,1.49,0,0,0,0,.21,140,140,0,0,1,34.43,2V38a.16.16,0,0,1,.3-.08.14.14,0,0,0-.11-.09,139.18,139.18,0,0,0-19.21-2.34l.39.07a.17.17,0,0,1,0,.33,8.2,8.2,0,0,1-2-.47,118.93,118.93,0,0,0-14,.31Z" fill="#480973"/>
        <path d="M35.72,39.58A15.33,15.33,0,0,0,36,43.15a9,9,0,0,0,5.21,6.5,8.43,8.43,0,0,0,3.16.22.16.16,0,0,1,0,.32,7.53,7.53,0,0,1-.83.08c.1,0,.22,0,.33,0a7.89,7.89,0,0,0,5.32-1.71h-.11a.16.16,0,0,1-.15-.15.15.15,0,0,1,.09-.16l0-.05a7.89,7.89,0,0,1-11.2-1.85,11.61,11.61,0,0,1-1.79-6.79Z" fill="#480973"/>
        <path d="M35.73,39.4c0,.06,0,.12,0,.18h.33v-.17a.16.16,0,0,0-.16-.17A.16.16,0,0,0,35.73,39.4Z" fill="#480973"/>
        <path d="M36,58.15a.17.17,0,0,0,.27.13.1.1,0,0,0,0-.07.17.17,0,0,0-.2-.21A.35.35,0,0,1,36,58Z" fill="#480973"/>
        <path d="M36,58a.35.35,0,0,0,.11,0,.17.17,0,0,1,.2.21l0,0a10.21,10.21,0,0,1,5.25-8l-.5-.1A9.47,9.47,0,0,0,36,58Z" fill="#480973"/>
        <path d="M39.44,75.48a.15.15,0,0,0-.2.17l0,.25.39.1-.12-.41a.15.15,0,0,0-.08-.11Z" fill="#480973"/>
        <path d="M39.47,75.48a.15.15,0,0,1,.08.11l.12.41c.72.19,1.48.35,2.27.51a65.2,65.2,0,0,0,11.4,1.33c3.83,0,7.72.18,11.45-.84a10,10,0,0,0,4.9-3.06c3.12-3.77,3.88-9,3.49-13.69A11.25,11.25,0,0,0,64.8,50.18l-.5.22c6,1.36,9,6.81,8.54,12.72-.17,4.56-1.54,9.77-5.62,12.32-2.43,1.48-5.36,1.75-8.16,1.88a69.37,69.37,0,0,1-17-1.27C41.14,75.88,40.28,75.69,39.47,75.48Z" fill="#480973"/>
        <path d="M41.53,49.86a3.17,3.17,0,0,0-.41.21l.5.1.06,0A.16.16,0,0,0,41.53,49.86Z" fill="#480973"/>
        <path d="M42.79,20.81a4.57,4.57,0,0,0,.09,2.08h0l.27.06c.2.05.12.37-.07.32H43a3.58,3.58,0,0,0,1.13,1.56.17.17,0,0,0,.23,0,.17.17,0,0,0,0-.22,3.87,3.87,0,0,1-1.13-3.68c.57-2.76,3.8-4.12,6.4-3.6a10.1,10.1,0,0,1,3.65,1.49c0-.11.06-.23.09-.34a9.51,9.51,0,0,0-3.66-1.58C46.88,16.25,43.35,17.75,42.79,20.81Z" fill="#480973"/>
        <path d="M43.16,23l-.27-.06a2.29,2.29,0,0,0,.12.37h.08C43.28,23.32,43.36,23,43.16,23Z" fill="#480973"/>
        <path d="M44.38,49.87a8.43,8.43,0,0,1-3.16-.22,7.68,7.68,0,0,0,2.37.62,7.53,7.53,0,0,0,.83-.08A.16.16,0,0,0,44.38,49.87Z" fill="#480973"/>
        <path d="M45.82,56.22c1.14.44,2.37.15,3.51.64a1.24,1.24,0,0,1,.43,1.85,2.63,2.63,0,0,1-1.73.77c-1.8.29-6.09-.64-6.19-2.87.07-.89.94-1.79,1.84-1.35A14.59,14.59,0,0,0,45.82,56.22ZM49,58.7a.79.79,0,0,0,.11-1.46,2.9,2.9,0,0,0-1-.26,9.39,9.39,0,0,1-4.51-1.42c-.71-.35-1.3.44-1.36,1.06s.75,1.23,1.34,1.55A6.77,6.77,0,0,0,49,58.7Z" fill="#480973"/>
        <path d="M44.12,28.55a.16.16,0,0,0-.32.06A8,8,0,0,0,45.06,32l.49.11a.16.16,0,0,1-.08.31l-.13,0a8.59,8.59,0,0,0,3.92,3l1.65.07A8.82,8.82,0,0,1,44.12,28.55Z" fill="#480973"/>
        <path d="M45.55,32.14,45.06,32c.09.14.18.26.28.39l.13,0A.16.16,0,0,0,45.55,32.14Z" fill="#480973"/>
        <path d="M49.07,48.27a.15.15,0,0,0-.09.16.16.16,0,0,0,.15.15h.11a4.71,4.71,0,0,0,.42-.36l-.53,0Z" fill="#480973"/>
        <path d="M49,48.22l0,.05.06,0,.53,0A7.94,7.94,0,0,0,52.1,44.3a6.07,6.07,0,0,1-.12-.84.16.16,0,0,1,.31-.08,11.91,11.91,0,0,0,.13-3.21l-.32,0A10,10,0,0,1,50.29,47,7.39,7.39,0,0,1,49,48.22Z" fill="#480973"/>
        <path d="M49.66,48.23a4.71,4.71,0,0,1-.42.36c1,.07,1.95.14,2.93.23s2,.18,3,.24c-.17-.13-.33-.27-.5-.42A28.49,28.49,0,0,0,49.66,48.23Z" fill="#480973"/>
        <path d="M50.91,35.48l-1.65-.07a8.2,8.2,0,0,0,2,.47.17.17,0,0,0,0-.33Z" fill="#480973"/>
        <path d="M52.29,43.38a.16.16,0,0,0-.31.08,6.07,6.07,0,0,0,.12.84c0-.17.08-.34.11-.51S52.27,43.51,52.29,43.38Z" fill="#480973"/>
        <path d="M52.41,40a.16.16,0,0,0-.32,0s0,.06,0,.09l.32,0A.66.66,0,0,0,52.41,40Z" fill="#480973"/>
        <path d="M52.21,43.79c0,.17-.07.34-.11.51a7.87,7.87,0,0,0,2.53,4.34l.63.11a.16.16,0,0,1,0,.31h-.09a8.14,8.14,0,0,0,4.63,1.71,8,8,0,0,1-2.34-.92h0a8.32,8.32,0,0,1-5.1-6.42s0,0,0,0S52.23,43.65,52.21,43.79Z" fill="#480973"/>
        <path d="M52.29,43.38s0,0,0,0a8.32,8.32,0,0,0,5.1,6.42,8.45,8.45,0,0,1-4.09-6,16,16,0,0,1-.16-3.58h0l-.73,0A11.91,11.91,0,0,1,52.29,43.38Z" fill="#480973"/>
        <path d="M53.27,18.78a6.24,6.24,0,0,0-.14,2.07.16.16,0,0,0,.18.15.17.17,0,0,0,.14-.18,5.71,5.71,0,0,1,.18-2,.14.14,0,0,1-.21,0A.78.78,0,0,1,53.27,18.78Z" fill="#480973"/>
        <path d="M53.15,40.22a16,16,0,0,0,.16,3.58,8.45,8.45,0,0,0,4.09,6h0a8,8,0,0,0,2.78.6.16.16,0,0,1,0,.32h-.44c.27,0,.54.1.82.13a7.73,7.73,0,0,0,3.72-.5l-.11,0a.16.16,0,1,1,.06-.31,4.88,4.88,0,0,1,.55.12,8,8,0,0,0,2.32-1.67L67,48.25c-.11-.18.2-.33.29-.14a.64.64,0,0,0,.08.14,6.76,6.76,0,0,0,1.56-3A9.84,9.84,0,0,0,69.13,42l-.33-.05c.54,4.91-3.15,9.05-8.16,8.52a8.11,8.11,0,0,1-5.7-3.49,11.44,11.44,0,0,1-1.46-6.7l-.33,0Z" fill="#480973"/>
        <path d="M53.15,40.21l.33,0a.16.16,0,0,0-.16-.16A.16.16,0,0,0,53.15,40.21Z" fill="#480973"/>
        <path d="M53.27,18.78a.78.78,0,0,0,.15.1.14.14,0,0,0,.21,0,.61.61,0,0,1,0-.13.12.12,0,0,0-.06-.1l-.24-.17C53.33,18.55,53.29,18.67,53.27,18.78Z" fill="#480973"/>
        <path d="M53.36,18.44l.24.17a.12.12,0,0,1,.06.1,7.45,7.45,0,0,1,4.68-4.84c6.06-2,12.53,2.62,14.54,8.31.72,2.08,1.28,4.81.43,6.93,0,0,0,0,0,0a3,3,0,0,1,.49-.33c.66-2.12.13-4.7-.55-6.72-2.05-5.92-8.78-10.68-15.09-8.56A7.74,7.74,0,0,0,53.36,18.44Z" fill="#480973"/>
        <path d="M53.66,18.71a.61.61,0,0,0,0,.13A.15.15,0,0,0,53.66,18.71Z" fill="#480973"/>
        <path d="M55.26,48.75l-.63-.11c.17.15.33.29.5.42h.09A.16.16,0,0,0,55.26,48.75Z" fill="#480973"/>
        <path d="M57.42,49.85a8,8,0,0,0,2.34.92h.44a.16.16,0,0,0,0-.32A8,8,0,0,1,57.42,49.85Z" fill="#480973"/>
        <path d="M64.25,50.06a.16.16,0,1,0-.06.31l.11,0,.5-.22A4.88,4.88,0,0,0,64.25,50.06Z" fill="#480973"/>
        <path d="M67.27,48.11c-.09-.19-.4,0-.29.14l.14.26a2.85,2.85,0,0,0,.23-.26A.64.64,0,0,1,67.27,48.11Z" fill="#480973"/>
        <path d="M67.35,48.25a2.85,2.85,0,0,1-.23.26c2.31,4.1,7.36,6,11.91,6.05,7.59-.27,11.92-9.1,10.39-15.91a13.45,13.45,0,0,0-9.16-10.08c-2.05-.56-4.52-1-6.42.17-.06.17-.12.34-.19.5a4.88,4.88,0,0,1,3.1-.86A13.06,13.06,0,0,1,89,38.75c1.42,6.53-2.64,15.08-10,15.37C74.62,54.14,69.58,52.24,67.35,48.25Z" fill="#480973"/>
        <path d="M68.89,41.57a.15.15,0,0,0-.1.16c0,.06,0,.11,0,.17l.33.05a2.11,2.11,0,0,0,0-.25.18.18,0,0,0,0-.1h0l-.17,0Z" fill="#480973"/>
        <path d="M68.89,41.57l.17,0A.17.17,0,0,0,68.89,41.57Z" fill="#480973"/>
        <path d="M69.67,41.71l-.6-.11a.18.18,0,0,1,0,.1,2.11,2.11,0,0,1,0,.25l.64.11a.16.16,0,0,0,.17-.11.14.14,0,0,1-.15.09.17.17,0,0,1-.15-.18Z" fill="#480973"/>
        <path d="M69.64,41.86a.17.17,0,0,0,.15.18.14.14,0,0,0,.15-.09l0,0h0a.16.16,0,0,0-.13-.19l-.16,0Z" fill="#480973"/>
        <path d="M69.67,41.71l.16,0a.16.16,0,0,1,.13.19h0A7.76,7.76,0,0,0,70.25,38h0a.16.16,0,0,1-.19.13l-.13,0A22.86,22.86,0,0,1,69.67,41.71Z" fill="#480973"/>
        <path d="M69.93,38v.12l.13,0a.16.16,0,0,0,.19-.13h0v0a.08.08,0,0,0,0-.05A.16.16,0,0,0,69.93,38Z" fill="#480973"/>
        <path d="M70.23,37.91a.08.08,0,0,1,0,.05S70.25,37.92,70.23,37.91Z" fill="#480973"/>
        <path d="M72.16,30.79c-.17.13,0,.39.2.25a4.88,4.88,0,0,0,1.29-1.8.31.31,0,0,0-.09.07.16.16,0,0,1-.23,0,.14.14,0,0,1,0-.14A4.55,4.55,0,0,1,72.16,30.79Z" fill="#480973"/>
        <path d="M73.3,29.15a.14.14,0,0,0,0,.14.16.16,0,0,0,.23,0,.31.31,0,0,1,.09-.07c.07-.16.13-.33.19-.5a3,3,0,0,0-.49.33s0,0,0,0S73.3,29.14,73.3,29.15Z" fill="#480973"/>
      </g>
    </g>
  </g>
</svg>
