<svg id="aae67c4b-76ce-460e-a326-ab510ccf03ea" data-name="layer 1" xmlns="http://www.w3.org/2000/svg" viewBox="0 0 100 100">
  <title>profile_4</title>
  <g>
    <circle cx="43.54" cy="50" r="37.61" fill="#ffc919"/>
    <path d="M14.71,43.82c-.24.25-.46.51-.68.79a10.15,10.15,0,0,0-2.13,6,2.44,2.44,0,0,0,0,.27A10,10,0,0,0,13.25,56a10.35,10.35,0,0,0,1.15,1.59c-1.75,4.13.35,8.69,3.27,11.73,5.91,6.29,14.61,9.38,23.15,9.25a31.29,31.29,0,0,0,12.51-2.33A22.23,22.23,0,0,0,65,64.25a.1.1,0,0,0,0-.09,2.46,2.46,0,0,0,.29.09.18.18,0,0,0,.22-.09,3.59,3.59,0,0,0,.17-.34,1.82,1.82,0,0,0,.16-.31,19.84,19.84,0,0,0,.94-2.23c3.24,5.31,11,5,16.12,2.74,8.85-4,10.93-15.94,4.28-22.91a14.48,14.48,0,0,0-18.64-1.46A8.65,8.65,0,0,0,65.2,44.8a18,18,0,0,0-4.46-4.86,18.45,18.45,0,0,0-7.2-3.33A6.09,6.09,0,0,0,57.23,34c.89-1.69-.34-2.6-1.95-2.73a7.18,7.18,0,0,0-6.47,2.64,5.69,5.69,0,0,0-1-3.92c-1-1.46-3.49-3.28-5.28-2.1-.89,1-.68,2.39-.57,3.57a8.11,8.11,0,0,0,.69,2.21A34.23,34.23,0,0,0,32,32.82a11,11,0,0,0-.67-6.89,12.48,12.48,0,0,0-11.61-7.65A13.42,13.42,0,0,0,9.11,39.71,9.7,9.7,0,0,0,14.71,43.82Z" fill="#480973"/>
    <g>
      <g>
        <path d="M21,66c5.85,6.2,14.43,9.17,22.84,9.07,10.13.24,19.83-4.22,23.84-14a.1.1,0,0,1,0,0,7,7,0,0,1-2.58-1.63A10.35,10.35,0,0,1,54,64h0a10.31,10.31,0,0,1-7-4.06,9.78,9.78,0,0,1-2.05-6.12v-.37C44,49,38.87,47.34,36.06,51a10.35,10.35,0,0,1-12.28,7.07l-.05,0A10.1,10.1,0,0,1,18.9,56a10.39,10.39,0,0,1-1.25-1.15C16.12,58.83,18.2,63.11,21,66ZM32.78,56.7a2.34,2.34,0,0,1,1.75-.38,3.15,3.15,0,0,1,1.95,1.57,4.22,4.22,0,0,0,4.05,1.69,19.29,19.29,0,0,0,2.28-.73A2.84,2.84,0,0,1,46,60.19a2.48,2.48,0,0,1,.37,1.39c0,1.77-1.47,3.09-3,3.66A10.08,10.08,0,0,1,34,63.82a5.85,5.85,0,0,1-2.56-4.16A3.36,3.36,0,0,1,32.78,56.7Z" fill="#ec2872"/>
        <path d="M45,52.38c-1.26-3.91-6-5.25-8.78-2.16a9.44,9.44,0,0,0,0-4.23,22.74,22.74,0,0,0,16.82-6.44,9.62,9.62,0,0,0,1.26,4A10.32,10.32,0,0,0,45,52.38Z" fill="#ec2872"/>
      </g>
      <path d="M50.13,64a3.67,3.67,0,0,0,.7,4.39,4.29,4.29,0,0,0,4.54,1c3.5-1.32,3.12-5.15.16-6.9A3.83,3.83,0,0,0,50.13,64Z" fill="#ffe226"/>
      <path d="M19.36,55.65a3.65,3.65,0,0,0,.7,4.39,4.31,4.31,0,0,0,4.54,1.05c3.5-1.32,3.12-5.15.16-6.9A3.83,3.83,0,0,0,19.36,55.65Z" fill="#ffe226"/>
      <g>
        <path d="M22.74,15.74c-7.29.12-13.67,6.77-12.83,14.13.59,4.49,3.39,9.55,8.07,10.66a9.92,9.92,0,0,1,3.34-2.21,9.12,9.12,0,0,1,.8-1.63c-1.93-1.55.94-3.82,2.23-4.76s4.22-2.87,5.31-.94a21.25,21.25,0,0,1,5-1.15C36.35,22.82,29.91,15.35,22.74,15.74Z" fill="#227fc7"/>
        <path d="M21.76,38.16a10.52,10.52,0,0,1,6.63,0h.05a10.29,10.29,0,0,1,7.71,7.51,23.88,23.88,0,0,0,18-7.75c.14-.15.38.06.25.21a14.56,14.56,0,0,1-1.07,1.15s0,0,0,.05a24,24,0,0,0,1.34,4.21,9.92,9.92,0,0,1,4,.54,10.31,10.31,0,0,1,7.7,12.32,9.18,9.18,0,0,1-1.08,2.76,6.65,6.65,0,0,0,2.93,1.68c.06-.13.13-.26.19-.4a21.69,21.69,0,0,0,2.1-7.86c.69-8.88-6.11-17.28-14.82-18.8a7.79,7.79,0,0,1-1,0c-.21,0-.21-.33,0-.32a6.47,6.47,0,0,0,.76,0h0a.1.1,0,0,1,.07,0h0a6.29,6.29,0,0,0,3.52-1.73c1.45-1.39,1.35-2.79-.89-2.95a6.82,6.82,0,0,0-7.4,4.93.17.17,0,0,1-.2.11.15.15,0,0,1-.12-.19,6.19,6.19,0,0,1,.88-2.08h0a5.6,5.6,0,0,0-.9-4.28c-.91-1.3-3.07-2.85-4.61-2-.69.78-.54,2.13-.44,3.13a9,9,0,0,0,1.83,4.12.16.16,0,0,1-.25.21A9,9,0,0,1,45.88,31a38.68,38.68,0,0,0-6.78-.85,26.39,26.39,0,0,0-4.33.15C29.45,30.94,24.11,33.24,21.76,38.16Z" fill="#227fc7"/>
        <path d="M68.38,42.06A18.9,18.9,0,0,1,70,45.36a2.78,2.78,0,0,1,3.72.62,6.78,6.78,0,0,1,.45,7.76,2.88,2.88,0,0,1-3.47,1.19,21.18,21.18,0,0,1-.77,2.94c1.39,2.63,4.37,3.92,7.23,4.18,5.8.6,12.09-2,14.84-7.35a14.27,14.27,0,0,0-2.14-16.28C83.92,32,70.8,33.12,68.38,42.06Z" fill="#227fc7"/>
        <path d="M87.65,36.44c5.61,3.55,7.78,11.84,3.19,17.18C88.36,56.51,84,57.27,80.36,56A16.06,16.06,0,0,1,72,48.63a13.93,13.93,0,0,1-1.88-5,7.71,7.71,0,0,1,1-5.2c1.34-2.08,3.8-3.18,6.23-3.65A14.28,14.28,0,0,1,87.65,36.44Z" fill="#2fb5eb"/>
        <path d="M53.54,32.63a1.57,1.57,0,0,1-1.11-.17,1.1,1.1,0,0,1-.34-1.19,2.42,2.42,0,0,1,.76-1.06,6.42,6.42,0,0,1,5.36-1.49c.66.12,2,.32,1.64,1.25s-1.88,1.37-2.64,1.7A12.59,12.59,0,0,1,53.54,32.63Z" fill="#2fb5eb"/>
        <path d="M50.91,31.1a1.87,1.87,0,0,1-1.7.3,3.76,3.76,0,0,1-1.51-.93,8,8,0,0,1-2.06-3.11,2.16,2.16,0,0,1,.07-2.08,2,2,0,0,1,2-.43A5.19,5.19,0,0,1,51,27.55C51.51,28.54,51.89,30.25,50.91,31.1Z" fill="#2fb5eb"/>
        <path d="M33.62,22.06a3.77,3.77,0,0,1-.09,3A5.2,5.2,0,0,1,31.61,27c-2.51,1.65-5.41,2.58-8,4.06-2,1.12-3.88,2.6-6.15,2.85a6.89,6.89,0,0,1-6.6-3.8C9.16,26.78,10.72,22.6,13,20A13,13,0,0,1,19.4,16,9.13,9.13,0,0,1,24,15.77C27.71,16.44,32.2,18.18,33.62,22.06Z" fill="#2fb5eb"/>
        <path d="M48.84,34.71a15.06,15.06,0,0,0,3.73,1.43c-1.45,2.65-4.23,2.92-6.93,3.2a39.83,39.83,0,0,1-5.24.1A47.39,47.39,0,0,1,28.06,38a3.51,3.51,0,0,1-2.38-1.62A2.38,2.38,0,0,1,26,34.1a5.38,5.38,0,0,1,1.73-1.55,18,18,0,0,1,9-2.43,22.67,22.67,0,0,1,4.12.18c1,.15,2,.14,3,.22a2.29,2.29,0,0,1,1.71.77c.47.65.45,1.5,1.08,2A14.33,14.33,0,0,0,48.84,34.71Z" fill="#2fb5eb"/>
        <path d="M70.12,49.48a1.85,1.85,0,0,1-.71,1.58,2,2,0,0,1-1.39,0A19.78,19.78,0,0,1,56.25,43,8.05,8.05,0,0,1,55,39.84a3.74,3.74,0,0,1,4.28-4.49,8.25,8.25,0,0,1,3.59,1.36C67.2,39.43,70.49,44.18,70.12,49.48Z" fill="#2fb5eb"/>
      </g>
      <path d="M28.44,30.6c-1.61-.2-8.27,4.07-6.15,5.82a12.86,12.86,0,0,1,3.41-3.37,16.94,16.94,0,0,1,3.66-1.94A1,1,0,0,0,28.44,30.6Z" fill="#ffe226"/>
      <path d="M35.4,57.24c.79.89,1.49,2,2.71,2.44,1.58.73,3.34.1,4.79-.48A2.5,2.5,0,0,1,46,61.59c0,1.62-1.38,2.79-2.8,3.3a9.65,9.65,0,0,1-9-1.43c-1.8-1.3-3.26-4-1.71-5.91A2,2,0,0,1,35.4,57.24Zm-1.73,3a1.7,1.7,0,0,1,.35-.48,6.86,6.86,0,0,0,9,2.58,3.11,3.11,0,0,1,.32.69.16.16,0,0,0,.31,0,1.61,1.61,0,0,0-1.09-1.64.16.16,0,0,0-.15.27,3.48,3.48,0,0,1,.42.44,7,7,0,0,1-8.54-2.48l0,0a1.85,1.85,0,0,1,.45-.21.16.16,0,0,0,0-.32,1.2,1.2,0,0,0-1.34,1.15.17.17,0,0,0,.17.16A.18.18,0,0,0,33.67,60.24Z" fill="#ffe226"/>
      <path d="M71,52.6c0,.67-.13,1.33-.24,2a2.5,2.5,0,0,0,3-1.1,6.57,6.57,0,0,0-.42-7.22,2.42,2.42,0,0,0-3.27-.58A17.07,17.07,0,0,1,71,52.6Z" fill="#ffe226"/>
      <path d="M34.93,46.65a9.87,9.87,0,1,1-11-8.52A9.91,9.91,0,0,1,34.93,46.65Zm-1.72,5.27c3.06-6-1.67-13.57-8.07-13.1,0,0-7.26,4.29-3,11.3C25.94,56.41,33.21,51.92,33.21,51.92Z" fill="#fff799"/>
      <path d="M62.19,46.85a9.9,9.9,0,0,1-7,16.88h0a9.88,9.88,0,1,1,7-16.88Zm1.1,11.09c3.06-6-1.68-13.57-8.08-13.11,0,0-7.26,4.3-3,11.32C56,62.44,63.29,57.94,63.29,57.94Z" fill="#fff799"/>
      <g>
        <path d="M9.91,29.87c-.84-7.36,5.54-14,12.83-14.13,7.17-.39,13.61,7.08,11.92,14.1l.34,0a10.82,10.82,0,0,0-.67-6.89,12.47,12.47,0,0,0-11.61-7.65A13.42,13.42,0,0,0,12.12,36.7a9.75,9.75,0,0,0,5.6,4.11,3.45,3.45,0,0,1,.26-.28C13.3,39.42,10.5,34.36,9.91,29.87Z" fill="#480973"/>
        <path d="M14.91,47.85A9.86,9.86,0,0,0,16.27,53a10,10,0,0,0,1.14,1.59s0,0,0,0a.15.15,0,0,1,.21-.09.15.15,0,0,1,.09.21l-.08.19A10.39,10.39,0,0,0,18.9,56c-.16-.13,0-.39.2-.25a9.9,9.9,0,1,1,7.32,1.94,9.92,9.92,0,0,1-7.32-1.94c.17.12,0,.38-.2.25a10.1,10.1,0,0,0,4.83,2.08c-.13-.08-.05-.34.12-.29a9.93,9.93,0,0,0,3.48.14A10.27,10.27,0,0,0,35.4,46.59a10,10,0,0,0-3.5-6.52,9.9,9.9,0,0,0-3.54-1.61.17.17,0,0,1,0-.33,10.52,10.52,0,0,0-6.63,0c-.06.12-.12.25-.17.38a.16.16,0,0,1-.31-.1.56.56,0,0,0,0-.12A9.92,9.92,0,0,0,18,40.53l.08,0a.16.16,0,0,1-.06.32l-.28-.06a8.79,8.79,0,0,0-.68.79,10.22,10.22,0,0,0-2.13,6,.13.13,0,0,1,.08.11A.15.15,0,0,1,14.91,47.85Z" fill="#480973"/>
        <path d="M14.91,47.57v.28a.15.15,0,0,0,.08-.17A.13.13,0,0,0,14.91,47.57Z" fill="#480973"/>
        <path d="M17.41,54.57c-1.75,4.14.36,8.7,3.28,11.73,5.9,6.29,14.6,9.39,23.14,9.26a31.38,31.38,0,0,0,12.52-2.34A22.27,22.27,0,0,0,68,61.23a.11.11,0,0,0,0-.08l-.27-.09a.1.1,0,0,0,0,0c-4,9.75-13.71,14.21-23.84,14-8.41.1-17-2.87-22.84-9.07-2.79-2.9-4.87-7.18-3.34-11.17A3.27,3.27,0,0,1,17.41,54.57Z" fill="#480973"/>
        <path d="M17.43,54.53s0,0,0,0a3.27,3.27,0,0,0,.24.27l.08-.19a.15.15,0,0,0-.09-.21A.15.15,0,0,0,17.43,54.53Z" fill="#480973"/>
        <path d="M17.72,40.81l.28.06a.16.16,0,0,0,.06-.32l-.08,0A3.45,3.45,0,0,0,17.72,40.81Z" fill="#480973"/>
        <path d="M19.1,55.74c-.16-.14-.36.12-.2.25S19.27,55.86,19.1,55.74Z" fill="#480973"/>
        <path d="M21.28,38.44a.16.16,0,0,0,.31.1c.05-.13.11-.26.17-.38l-.44.16A.56.56,0,0,1,21.28,38.44Z" fill="#480973"/>
        <path d="M21.32,38.32l.44-.16c2.35-4.92,7.69-7.22,13-7.84v-.06h0a.16.16,0,0,1-.11-.2c0-.07,0-.14,0-.21a21.25,21.25,0,0,0-5,1.15s.05.09.07.14a.16.16,0,0,1-.3.11l-.07-.13a16.94,16.94,0,0,0-3.66,1.94,12.86,12.86,0,0,0-3.41,3.37l.06.06a.16.16,0,0,1-.14.29.73.73,0,0,1-.09-.08A9.12,9.12,0,0,0,21.32,38.32Z" fill="#480973"/>
        <path d="M33.21,51.92s-7.27,4.49-11.08-1.8c-4.25-7,3-11.3,3-11.3C31.54,38.35,36.27,45.92,33.21,51.92Zm-4.85-3.25a4.14,4.14,0,0,0,1.32-8,4.68,4.68,0,0,0-5.75,1.55,4.42,4.42,0,0,0,1,5.4A4.55,4.55,0,0,0,28.36,48.67Z" fill="#480973"/>
        <path d="M24.35,31.93c-1.29.94-4.16,3.21-2.23,4.76a2.92,2.92,0,0,1,.17-.27c-2.12-1.75,4.54-6,6.15-5.82a1,1,0,0,1,.92.51l.3-.12C28.57,29.06,25.63,31.1,24.35,31.93Z" fill="#480973"/>
        <path d="M22.12,36.69a.73.73,0,0,0,.09.08.16.16,0,0,0,.14-.29l-.06-.06A2.92,2.92,0,0,0,22.12,36.69Z" fill="#480973"/>
        <path d="M23.85,57.78c-.17-.05-.25.21-.12.29a9.67,9.67,0,0,0,3.6-.15A9.93,9.93,0,0,1,23.85,57.78Z" fill="#480973"/>
        <path d="M23.73,58.07l.05,0A10.35,10.35,0,0,0,36.06,51l-.31.44a.16.16,0,0,1-.28-.17h0a9.63,9.63,0,0,1-4.13,5.21,9.8,9.8,0,0,1-4,1.42A9.67,9.67,0,0,1,23.73,58.07Z" fill="#480973"/>
        <path d="M23.93,42.19a4.42,4.42,0,0,0,1,5.4,4.55,4.55,0,0,0,3.43,1.08,4.14,4.14,0,0,0,1.32-8A4.68,4.68,0,0,0,23.93,42.19Z" fill="#fff"/>
        <path d="M28.39,38.13a.17.17,0,0,0,0,.33,9.9,9.9,0,0,1,3.54,1.61A10.71,10.71,0,0,0,28.39,38.13Z" fill="#480973"/>
        <path d="M28.44,38.14h-.05a10.71,10.71,0,0,1,3.51,1.94,10.07,10.07,0,0,1,3.56,11.22h0a6.27,6.27,0,0,1,.78-1.07,9.44,9.44,0,0,0,0-4.23H36a.17.17,0,0,1,0-.33h.16A10.29,10.29,0,0,0,28.44,38.14Z" fill="#480973"/>
        <path d="M29.36,31.11l.07.13a.16.16,0,0,0,.3-.11c0-.05-.05-.1-.07-.14Z" fill="#480973"/>
        <path d="M27.33,57.92a9.8,9.8,0,0,0,4-1.42,9.63,9.63,0,0,0,4.13-5.21A10.07,10.07,0,0,0,31.9,40.07a10,10,0,0,1,3.5,6.52A10.27,10.27,0,0,1,27.33,57.92Z" fill="#480973"/>
        <path d="M34.53,56.32a3.15,3.15,0,0,1,1.95,1.57,4.22,4.22,0,0,0,4.05,1.69,19.29,19.29,0,0,0,2.28-.73A2.84,2.84,0,0,1,46,60.19a2.48,2.48,0,0,1,.37,1.39c0,1.77-1.47,3.09-3,3.66A10.08,10.08,0,0,1,34,63.82a5.85,5.85,0,0,1-2.56-4.16,3.36,3.36,0,0,1,1.39-3A2.34,2.34,0,0,1,34.53,56.32Zm8.68,8.57c1.42-.51,2.83-1.68,2.8-3.3A2.5,2.5,0,0,0,42.9,59.2c-1.45.58-3.21,1.21-4.79.48-1.22-.41-1.92-1.55-2.71-2.44a2,2,0,0,0-2.88.31c-1.55,2-.09,4.61,1.71,5.91A9.65,9.65,0,0,0,43.21,64.89Z" fill="#480973"/>
        <path d="M33.35,60.18a.17.17,0,0,0,.17.16.18.18,0,0,0,.15-.1,1.7,1.7,0,0,1,.35-.48h0c-.1-.15.12-.3.24-.19a1.85,1.85,0,0,1,.45-.21.16.16,0,0,0,0-.32A1.2,1.2,0,0,0,33.35,60.18Z" fill="#480973"/>
        <path d="M34.26,59.56c-.12-.11-.34,0-.24.19A1.55,1.55,0,0,1,34.26,59.56Z" fill="#480973"/>
        <path d="M34,59.75h0a6.86,6.86,0,0,0,9,2.58,2.75,2.75,0,0,0-.19-.28,7,7,0,0,1-8.54-2.48l0,0A1.55,1.55,0,0,0,34,59.75Z" fill="#480973"/>
        <path d="M34.62,30.05a.16.16,0,0,0,.11.2h0a.16.16,0,0,0,.15-.13,1.67,1.67,0,0,0,.08-.32l-.34,0C34.65,29.91,34.63,30,34.62,30.05Z" fill="#480973"/>
        <path d="M34.77,30.26v.06a26.39,26.39,0,0,1,4.33-.15,38.68,38.68,0,0,1,6.78.85c-.07-.12-.13-.25-.19-.37A33.91,33.91,0,0,0,35,29.81a1.67,1.67,0,0,1-.08.32A.16.16,0,0,1,34.77,30.26Z" fill="#480973"/>
        <path d="M35.47,51.29a.16.16,0,0,0,.28.17l.31-.44c0-.18.1-.36.14-.55s0-.17,0-.25A6.27,6.27,0,0,0,35.47,51.29Z" fill="#480973"/>
        <path d="M36,45.65A.17.17,0,0,0,36,46h.25l-.08-.34Z" fill="#480973"/>
        <path d="M36.2,50.47c0,.19-.09.37-.14.55,2.81-3.68,8-2.06,8.88,2.42,0-.36,0-.72.09-1.06-1.26-3.91-6-5.25-8.78-2.16C36.24,50.3,36.22,50.38,36.2,50.47Z" fill="#480973"/>
        <path d="M36.15,45.65l.08.34a22.74,22.74,0,0,0,16.82-6.44c0-.07,0-.13,0-.19a.17.17,0,0,1,.13-.17.16.16,0,0,1,.17.07,14.56,14.56,0,0,0,1.07-1.15c.13-.15-.11-.36-.25-.21A23.88,23.88,0,0,1,36.15,45.65Z" fill="#480973"/>
        <path d="M42.56,61.35a.16.16,0,0,0-.15.27,3.48,3.48,0,0,1,.42.44L43,62a.16.16,0,0,1,.15.29l-.13.07a3.11,3.11,0,0,1,.32.69.16.16,0,0,0,.31,0A1.61,1.61,0,0,0,42.56,61.35Z" fill="#480973"/>
        <path d="M43,62l-.17.08a2.75,2.75,0,0,1,.19.28l.13-.07A.16.16,0,0,0,43,62Z" fill="#480973"/>
        <path d="M44.94,53.81A9.78,9.78,0,0,0,47,59.93,10.31,10.31,0,0,0,54,64c-.2,0-.12-.36.08-.31a9,9,0,0,0,1,.17.13.13,0,0,1,.14-.12,9.9,9.9,0,1,1,7-2.94,9.92,9.92,0,0,1-7,2.94.14.14,0,0,1,.16.15,9.45,9.45,0,0,0,2.06-.05,10.32,10.32,0,0,0,5.07-17.32,11.53,11.53,0,0,0-1.14-1,9.85,9.85,0,0,0-2.84-1.16.17.17,0,0,1,.08-.32l.06,0a9.92,9.92,0,0,0-4-.54l.05.12a.16.16,0,0,1-.29.15l-.14-.25A10.32,10.32,0,0,0,45,52.38a6,6,0,0,1,.27,1.23.16.16,0,0,1-.31,0,1.29,1.29,0,0,0-.05-.21Z" fill="#480973"/>
        <path d="M44.94,53.44a1.29,1.29,0,0,1,.05.21.16.16,0,0,0,.31,0A6,6,0,0,0,45,52.38C45,52.72,45,53.08,44.94,53.44Z" fill="#480973"/>
        <path d="M45.57,24.87c-.89,1-.68,2.38-.57,3.57a8.48,8.48,0,0,0,.69,2.21l.35.07c.2.06.12.37-.07.32l-.09,0A9,9,0,0,0,47,32.7a.16.16,0,0,0,.25-.21,9,9,0,0,1-1.83-4.12c-.1-1-.25-2.35.44-3.13,1.54-.88,3.7.67,4.61,2a5.6,5.6,0,0,1,.9,4.28,5.13,5.13,0,0,1,.44-.6,5.79,5.79,0,0,0-1-3.93C49.85,25.51,47.36,23.69,45.57,24.87Z" fill="#480973"/>
        <path d="M46,30.72l-.35-.07c.06.12.12.25.19.37L46,31C46.16,31.09,46.24,30.78,46,30.72Z" fill="#480973"/>
        <path d="M50.51,33.58a.15.15,0,0,0,.12.19.17.17,0,0,0,.2-.11,6.82,6.82,0,0,1,7.4-4.93c2.24.16,2.34,1.56.89,2.95a6.29,6.29,0,0,1-3.52,1.73c.32.06.64.11.95.19A6.15,6.15,0,0,0,60.25,31c.88-1.7-.35-2.6-2-2.73a7.14,7.14,0,0,0-6.46,2.64,5.09,5.09,0,0,1-.12.68c0,.21-.36.13-.32-.07A6.19,6.19,0,0,0,50.51,33.58Z" fill="#480973"/>
        <path d="M51.39,31.5c0,.2.28.28.32.07a5.09,5.09,0,0,0,.12-.68,5.13,5.13,0,0,0-.44.6Z" fill="#480973"/>
        <path d="M63.29,57.94S56,62.44,52.21,56.15c-4.26-7,3-11.32,3-11.32C61.61,44.37,66.35,51.93,63.29,57.94Zm-5-3.34a4.14,4.14,0,0,0,1.33-8,4.68,4.68,0,0,0-5.76,1.55,4.42,4.42,0,0,0,1,5.4A4.59,4.59,0,0,0,58.31,54.6Z" fill="#480973"/>
        <path d="M53.16,39.19a.17.17,0,0,0-.13.17c0,.06,0,.12,0,.19a3.76,3.76,0,0,0,.28-.29A.16.16,0,0,0,53.16,39.19Z" fill="#480973"/>
        <path d="M53.33,39.26a3.76,3.76,0,0,1-.28.29,9.62,9.62,0,0,0,1.26,4l.38,0a24,24,0,0,1-1.34-4.21S53.34,39.28,53.33,39.26Z" fill="#480973"/>
        <path d="M53.88,48.12a4.42,4.42,0,0,0,1,5.4,4.59,4.59,0,0,0,3.43,1.08,4.14,4.14,0,0,0,1.33-8A4.68,4.68,0,0,0,53.88,48.12Z" fill="#fff"/>
        <path d="M54,63.68c-.2,0-.28.27-.08.31h0a7.19,7.19,0,0,0,1.23,0,.16.16,0,0,1-.15-.2A9,9,0,0,1,54,63.68Z" fill="#480973"/>
        <path d="M54.31,43.54l.14.25a.16.16,0,0,0,.29-.15l-.05-.12Z" fill="#480973"/>
        <path d="M55.23,64.05A7.19,7.19,0,0,1,54,64a10.35,10.35,0,0,0,11.13-4.57l-.1-.1a.16.16,0,0,1,.23-.23s0,0,0,0a9.18,9.18,0,0,0,1.08-2.76,10.31,10.31,0,0,0-7.7-12.32,9.74,9.74,0,0,1,2.7,1.46,9.89,9.89,0,0,1-3.93,18.31A10,10,0,0,1,55.23,64.05Z" fill="#480973"/>
        <path d="M54.74,33.48c-.21,0-.21.32,0,.32a7.79,7.79,0,0,0,1,0l-.16,0a.16.16,0,0,1,0-.31A6.47,6.47,0,0,1,54.74,33.48Z" fill="#480973"/>
        <path d="M55.08,63.85a.16.16,0,0,0,.15.2.15.15,0,0,0,.16-.17A3,3,0,0,1,55.08,63.85Z" fill="#480973"/>
        <path d="M55.08,63.85a3,3,0,0,0,.31,0,.14.14,0,0,0-.16-.15h0A.13.13,0,0,0,55.08,63.85Z" fill="#480973"/>
        <path d="M55.23,64.05a10,10,0,0,0,2.22-.22,9.45,9.45,0,0,1-2.06.05A.15.15,0,0,1,55.23,64.05Z" fill="#480973"/>
        <path d="M55.5,33.43a.16.16,0,0,0,0,.31l.16,0a4.9,4.9,0,0,0,.85-.16c-.31-.08-.63-.13-.95-.19h0l-.07,0Z" fill="#480973"/>
        <path d="M55.52,33.43l.07,0A.1.1,0,0,0,55.52,33.43Z" fill="#480973"/>
        <path d="M56.55,33.6a4.9,4.9,0,0,1-.85.16c8.71,1.52,15.51,9.92,14.82,18.8a21.69,21.69,0,0,1-2.1,7.86l0,0a.17.17,0,0,1,.27-.06,1.36,1.36,0,0,1,.12.12,22.88,22.88,0,0,0,.94-2.23c-.06-.09-.12-.18-.17-.27s.2-.34.28-.15l0,0a21.18,21.18,0,0,0,.77-2.94,1,1,0,0,1-.25-.12c-.19-.09,0-.39.14-.29l.17.07c.11-.66.19-1.32.24-2a17.07,17.07,0,0,0-.88-6.91.16.16,0,1,1-.22-.24l.1-.09a18.9,18.9,0,0,0-1.59-3.3c0,.16-.07.31-.11.46a.17.17,0,0,1-.14-.18,5.21,5.21,0,0,1,.08-.55,18.15,18.15,0,0,0-4.45-4.87A18.41,18.41,0,0,0,56.55,33.6Z" fill="#480973"/>
        <path d="M58.62,44a.17.17,0,0,0-.08.32,9.85,9.85,0,0,1,2.84,1.16,9.74,9.74,0,0,0-2.7-1.46Z" fill="#480973"/>
        <path d="M57.45,63.83a9.89,9.89,0,0,0,3.93-18.31,11.53,11.53,0,0,1,1.14,1A10.32,10.32,0,0,1,57.45,63.83Z" fill="#480973"/>
        <path d="M65,59.1a.17.17,0,0,0,0,.23l.1.1a2.75,2.75,0,0,0,.17-.29s0,0,0,0A.17.17,0,0,0,65,59.1Z" fill="#480973"/>
        <path d="M65.3,59.14a2.75,2.75,0,0,1-.17.29,7,7,0,0,0,2.58,1.63.16.16,0,0,1,.18,0,.15.15,0,0,1,.09.13l.29.09a.19.19,0,0,0,.23-.09c.06-.11.11-.23.17-.34a1.14,1.14,0,0,0-.19-.19.16.16,0,0,1,0-.18l0,0c-.06.14-.13.27-.19.4l.15,0-.23.09s0-.09.08-.14A6.65,6.65,0,0,1,65.3,59.14Z" fill="#480973"/>
        <path d="M67.89,61a.16.16,0,0,0-.18,0l.27.09A.15.15,0,0,0,67.89,61Z" fill="#480973"/>
        <path d="M68.13,42.34a.17.17,0,0,0,.14.18c0-.15.08-.3.11-.46s-.11-.18-.17-.27A5.21,5.21,0,0,0,68.13,42.34Z" fill="#480973"/>
        <path d="M68.23,60.82s0,.1-.08.14l.23-.09Z" fill="#480973"/>
        <path d="M68.21,41.79c.06.09.12.18.17.27,2.42-8.94,15.54-10,21.45-3.64A14.27,14.27,0,0,1,92,54.7c-2.75,5.32-9,7.95-14.84,7.35-2.86-.26-5.84-1.55-7.23-4.18,0,.14-.09.27-.13.4,3.24,5.3,11,5,16.11,2.74,8.85-4,10.93-15.94,4.28-22.91-4.7-4.92-13.24-5.64-18.63-1.46A8.67,8.67,0,0,0,68.21,41.79Z" fill="#480973"/>
        <path d="M68.44,60.44a.16.16,0,0,0,0,.18,1.14,1.14,0,0,1,.19.19c.06-.1.11-.21.16-.31a1.36,1.36,0,0,0-.12-.12A.17.17,0,0,0,68.44,60.44Z" fill="#480973"/>
        <path d="M69.88,57.85c-.08-.19-.38,0-.28.15s.11.18.17.27c0-.13.09-.26.13-.4Z" fill="#480973"/>
        <path d="M69.87,45.45a.16.16,0,1,0,.22.24L70,45.36Z" fill="#480973"/>
        <path d="M70,45.36l.12.33a2.42,2.42,0,0,1,3.27.58,6.57,6.57,0,0,1,.42,7.22,2.5,2.5,0,0,1-3,1.1l-.06.34a2.88,2.88,0,0,0,3.47-1.19A6.78,6.78,0,0,0,73.69,46,2.78,2.78,0,0,0,70,45.36Z" fill="#480973"/>
        <path d="M70.56,54.52c-.18-.1-.33.2-.14.29a1,1,0,0,0,.25.12l.06-.34Z" fill="#480973"/>
      </g>
    </g>
  </g>
</svg>
