<svg id="ac7613a9-33be-49c4-99be-ecd170eb5c68" data-name="layer 1" xmlns="http://www.w3.org/2000/svg" viewBox="0 0 100 100">
  <title>profile_9</title>
  <g>
    <circle cx="50" cy="50" r="37.61" transform="translate(-20.71 50) rotate(-45)" fill="#2fb5eb"/>
    <path d="M64.18,38.29c-.25-.68-.51-1.44-.83-2.16a4.49,4.49,0,0,0-.68-1.21,3.4,3.4,0,0,0-1.8-1.35,2.21,2.21,0,0,0-1.9.37,18.23,18.23,0,0,0-1.09-4.08c-2.21-4.87-5.83-6.49-10.34-3.09a13.09,13.09,0,0,0-1.73,1.51c-2.33-1.86-4.7,2-6.12,3.54a55,55,0,0,0-6,10.56c-3.45-3.44-8.43,1.5-5.79,5.44a4.27,4.27,0,0,0,3.06,2c-.75,2.48-1.38,5-1.89,7.54-.1.49-.19,1-.28,1.45-.35,1.89-.64,3.8-.87,5.69-.65,4.74,3.11,6.94,7.05,8.25,2.45.86,4.91,1.73,7.42,2.38s5.07,1.15,7.61,1.69,5.5.9,7.67-.81a4.46,4.46,0,0,0,.57-.58,1.57,1.57,0,0,0,.21-.24,7.86,7.86,0,0,0,.91-1.48l.14-.29h0c.63-1.43,1-3,1.48-4.46.75-2.48,1.41-5,2-7.53.17-.73.32-1.47.47-2.2a4.38,4.38,0,0,0,5.21-1.35c2.24-2.95-.19-7.44-3.88-6.32A35.11,35.11,0,0,0,65.36,46,26.17,26.17,0,0,0,64.18,38.29Z" fill="#480973"/>
    <g>
      <path d="M33.44,50.06a10.38,10.38,0,0,0,1.87,5.26,1.55,1.55,0,0,0,1.24.57c1.19,0,2.4-1.53,3.21-2.36,1.9-2,4-5.12,7.18-4.82a23.74,23.74,0,0,1,5.66,1.66A6.65,6.65,0,0,1,55.11,52a5.33,5.33,0,0,1,1,2.82A12.78,12.78,0,0,0,57,57.58c1.79,4.2,4,7.3,7.94,2.82a.16.16,0,0,1,.11,0c.17-.69.33-1.38.49-2.07.57-2.52,1.06-5.07,1.45-7.62.19-1.31.44-2.6.65-3.9a.16.16,0,0,1-.07-.07,10.52,10.52,0,0,0-4-4.22.21.21,0,0,1-.1-.21,17.66,17.66,0,0,0,.16-4.59,34.83,34.83,0,0,0-8.63-4,36.35,36.35,0,0,0-9.38-1.59,11.28,11.28,0,0,0-2.53,4.73.2.2,0,0,1-.18.16h-.07a10.2,10.2,0,0,0-4.53-.27h0c-.51,1-1,2-1.43,3.09A72.45,72.45,0,0,0,33.44,50.06Zm25.91-4.55a2.2,2.2,0,0,1-.89-1.37c0-1.45,1.77-1.41,2.6-.69s2.37,1.81,1.94,3.24c-.16.36-.63.37-.93.27A8.39,8.39,0,0,1,59.35,45.51ZM58.26,47.8a1.14,1.14,0,0,1,1.18-1.24c1,0,.8,1.13.46,1.73C59.37,49.2,58.32,48.66,58.26,47.8ZM42.15,43.89c.14-.67.73-1.59,1.48-1a1.14,1.14,0,0,1,.07,1.71C43.08,45.22,41.94,44.92,42.15,43.89Zm-.78-2.44c-.28-.14-.6-.45-.48-.81a1.78,1.78,0,0,1,1.11-1,6.19,6.19,0,0,1,2.49-.15c1.09,0,2.46,1.17,1.48,2.24a2.07,2.07,0,0,1-1.57.43,8.49,8.49,0,0,1-3-.71Z" fill="#eb8602"/>
      <path d="M36.55,55.89c1.19,0,2.4-1.53,3.21-2.36,1.9-2,4-5.12,7.18-4.82a23.74,23.74,0,0,1,5.66,1.66A6.65,6.65,0,0,1,55.11,52a5.33,5.33,0,0,1,1,2.82A12.78,12.78,0,0,0,57,57.58c1.79,4.2,4,7.3,7.94,2.82a.16.16,0,0,1,.11,0c.17-.69.33-1.38.49-2.07.57-2.52,1.06-5.07,1.45-7.62.19-1.31.44-2.6.65-3.9a.16.16,0,0,1-.07-.07,10.52,10.52,0,0,0-4-4.22.21.21,0,0,1-.1-.21,17.66,17.66,0,0,0,.16-4.59,34.83,34.83,0,0,0-8.63-4,36.35,36.35,0,0,0-9.38-1.59,11.28,11.28,0,0,0-2.53,4.73.2.2,0,0,1-.18.16c-.31.9-.63,1.8-.94,2.71l-.63,1.8c0,.07,0,.13-.07.21q-1.92,5.55-3.85,11.09A21.25,21.25,0,0,0,36.55,55.89Z" fill="#ffe226"/>
      <path d="M36.51,39.7C33.32,36.57,29,41,31.24,44.57A4,4,0,0,0,34,46.44c.42-1.32.86-2.62,1.35-3.92a1.73,1.73,0,0,0-.9-1.16,2,2,0,0,0-1,2,.19.19,0,0,1-.1.18c-.34.08-.34-.62-.34-.84A1.89,1.89,0,0,1,34,41.2a1.73,1.73,0,0,0-1.42.34c-.14.13-.35-.08-.22-.23a2,2,0,0,1,3.26.62C35.88,41.18,36.19,40.43,36.51,39.7Z" fill="#eb8602"/>
      <path d="M31.89,65.15a7.57,7.57,0,0,0,2.25,2.29c2.22,1.5,5.16,2.12,7.63,3.06a101.61,101.61,0,0,0,11.28,2.82c2.42.46,5.22.9,7.31-.71,1.93-1.67,2.35-4.49,3.18-6.84.49-1.59.93-3.21,1.34-4.83-1.23,1.35-3.12,2.72-5,1.69a6.3,6.3,0,0,1-2-2.25,17.14,17.14,0,0,1-2.23-5.46,4.89,4.89,0,0,0-.94-2.6c-2-2-5.19-2.56-7.89-3.14-2.91-.27-5,2.72-6.79,4.64-.94,1-2.55,2.78-4,2.46A2.05,2.05,0,0,1,35,55.59,10.16,10.16,0,0,1,33.22,51c-.55,2.21-1,4.44-1.38,6.67C31.54,60.1,30.73,62.84,31.89,65.15Zm12.2-10.91c1.18-.43,2.31.25,3.31.72a15.46,15.46,0,0,0,4.66,1.38c1.17.1,2.57.76,2.19,2.18-.33,1.25-1.8,1.52-2.9,1.45-2.73-.24-5.76-.59-7.8-2.62A1.88,1.88,0,0,1,44.09,54.24Z" fill="#a80a64"/>
      <path d="M34.14,67.44c2.22,1.5,5.16,2.12,7.63,3.06a101.61,101.61,0,0,0,11.28,2.82c2.42.46,5.22.9,7.31-.71,1.93-1.67,2.35-4.49,3.18-6.84.49-1.59.93-3.21,1.34-4.83-1.23,1.35-3.12,2.72-5,1.69a6.3,6.3,0,0,1-2-2.25,17.14,17.14,0,0,1-2.23-5.46,4.89,4.89,0,0,0-.94-2.6c-2-2-5.19-2.56-7.89-3.14-2.91-.27-5,2.72-6.79,4.64-.94,1-2.55,2.78-4,2.46-.61,2.47-1,5-1.58,7.47A9.31,9.31,0,0,0,34.14,67.44Zm8.67-12.22a2.46,2.46,0,0,1,1.82-.61,7.65,7.65,0,0,1,1.92.45,22.2,22.2,0,0,1,2.78.95,8.59,8.59,0,0,0,2.84,1,3.24,3.24,0,0,1,1.61.41,1.62,1.62,0,0,1,.47,1.75c-.39,1.27-1.5,1.56-2.67,1.81a10,10,0,0,1-7.18-1.26,4.56,4.56,0,0,1-1.91-1.93A2.32,2.32,0,0,1,42.81,55.22Z" fill="#ec2872"/>
      <path d="M38.51,36.3a10.25,10.25,0,0,1,4.27.2,11.68,11.68,0,0,1,2.6-4.82.27.27,0,0,1,.17-.08A35.06,35.06,0,0,1,64,37.36a.19.19,0,0,1,.1.16,18.25,18.25,0,0,1-.16,4.67,10.71,10.71,0,0,1,3.77,4.08A22.75,22.75,0,0,0,68,43a26.11,26.11,0,0,0-1.14-7.6c-.62-2-2.13-5.87-4.75-4.16a.11.11,0,0,1-.09,0c.1.59.17,1.18.25,1.76a.16.16,0,0,1-.32,0A26.21,26.21,0,0,0,60.5,27c-1.11-2.66-3.86-5.57-7-4.34a13.62,13.62,0,0,0-6.84,6,.17.17,0,0,1-.22.06.17.17,0,0,1-.06-.22,15.42,15.42,0,0,1,2.19-3C46.55,23.88,44.23,27.69,43,29A50.2,50.2,0,0,0,38.51,36.3Z" fill="#a80a64"/>
      <path d="M41.32,40.74c0,.06,0,.08,0,.14a4.83,4.83,0,0,0,1.62.59c.83.18,2,.5,2.7,0,.73-.79-.37-1.6-1.24-1.63a6.48,6.48,0,0,0-1.46,0C42.35,39.9,41.56,40.14,41.32,40.74Z" fill="#a80a64"/>
      <path d="M48.76,56A15.13,15.13,0,0,0,52,56.7c1,.08,2.23.56,1.93,1.74-.75,2-4.18.91-5.8.7A8.47,8.47,0,0,1,43.9,57a1.41,1.41,0,0,1,.37-2.35C45.82,54.21,47.28,55.61,48.76,56Zm-4.13.84a.18.18,0,0,0,.1-.15,1.54,1.54,0,0,1,.19-.57,9.46,9.46,0,0,0,7.75,2.26c.19,0,.16-.35,0-.33a11,11,0,0,1-7.52-2.2,1.25,1.25,0,0,1,.27-.23.17.17,0,0,0-.12-.3,1.09,1.09,0,0,0-.84,1.43A.17.17,0,0,0,44.63,56.81Z" fill="#ffe226"/>
      <path d="M60.88,43.71c-1.48-1.11-3,.22-1.25,1.44a10.16,10.16,0,0,0,2.56,1.36c.16,0,.33.1.42,0A2,2,0,0,0,62,44.69,6.76,6.76,0,0,0,60.88,43.71Z" fill="#a80a64"/>
      <path d="M66.46,55.84a4,4,0,0,0,2.63.13,3.85,3.85,0,0,0,.76-.29c3.73-1.9,2.22-7.89-2.06-6.85l-.13,0c0,.1,0,.18,0,.27-.1.53-.18,1.07-.25,1.59,0,.22-.07.44-.11.66A2,2,0,0,1,69,50.83a2,2,0,0,1,1.57,1.51.16.16,0,0,1-.31.1,1.78,1.78,0,0,0-1-1,2,2,0,0,1,.25,1,1.8,1.8,0,0,1-.23.81,1.5,1.5,0,0,1-.45.52.16.16,0,0,1-.22-.23,2,2,0,0,0,.14-2.23,1.68,1.68,0,0,0-1.43.6.15.15,0,0,1-.07.05C67,53.25,66.72,54.55,66.46,55.84Z" fill="#eb8602"/>
      <path d="M67.13,38.38a1.28,1.28,0,0,1-.88-.22,7.49,7.49,0,0,1-3-3.25c-.37-.76-.94-3.16-.28-3.85a1.33,1.33,0,0,1,1.39-.12c2.32.91,2.22,3.41,3,5.39C67.58,36.91,68.15,38.13,67.13,38.38Z" fill="#ec2872"/>
      <path d="M59,31.81a11.91,11.91,0,0,1-5.5-3.36,5.8,5.8,0,0,1-1.67-3.12C51.35,21.83,56,21.59,58,23.1a10.5,10.5,0,0,1,3.2,5.15c.26.86.71,2,.2,2.85A2.14,2.14,0,0,1,59,31.81Z" fill="#ec2872"/>
      <path d="M48.57,25.48a.76.76,0,0,1-.26.4l-.36.35c-.45.44-1.08.8-1.59.21s-.2-.89.27-1.16S48.72,24.54,48.57,25.48Z" fill="#ec2872"/>
      <g>
        <path d="M36.65,39.37c-3.45-3.44-8.42,1.5-5.78,5.43a4.22,4.22,0,0,0,3.05,2c0-.11.07-.22.1-.33a4,4,0,0,1-2.78-1.87c-2.28-3.55,2.08-8,5.27-4.87C36.56,39.58,36.61,39.48,36.65,39.37Z" fill="#480973"/>
        <path d="M30.88,61.45c-.65,4.73,3.12,6.94,7.05,8.25,2.45.86,4.91,1.72,7.43,2.37s5.07,1.16,7.6,1.7,5.5.9,7.67-.81a4.54,4.54,0,0,0,.58-.58s-.05-.06-.08-.08a.16.16,0,0,1,.25-.21s0,0,0,0a8,8,0,0,0,.9-1.48l-.16-.09a.16.16,0,1,1,.15-.28l.15.08c.63-1.43,1-3,1.48-4.46.76-2.49,1.41-5,2-7.53.16-.73.32-1.47.46-2.21l-.19-.09a.16.16,0,0,1-.07-.22.16.16,0,0,1,.21-.07l.12.06c.26-1.29.5-2.59.71-3.88a.16.16,0,0,1-.19-.24,1.6,1.6,0,0,1,.28-.35c0-.22.07-.44.11-.66.08-.61.19-1.24.29-1.86l-.06,0a.16.16,0,0,1-.13-.3l.25-.08A34.83,34.83,0,0,0,68.37,43a26.17,26.17,0,0,0-1.18-7.71c-.66-1.75-1.28-4.11-3.31-4.71a2.14,2.14,0,0,0-1.9.37c0,.11,0,.22.05.33a.11.11,0,0,0,.09,0c2.62-1.71,4.13,2.18,4.75,4.16A26.11,26.11,0,0,1,68,43a22.75,22.75,0,0,1-.31,3.29,1.51,1.51,0,0,1,.15.28c.08.15-.1.27-.22.21-.21,1.3-.46,2.59-.65,3.9-.39,2.55-.88,5.1-1.45,7.62-.16.69-.32,1.38-.49,2.07a.17.17,0,0,1,.12.28,3.92,3.92,0,0,1-.28.31c-.41,1.62-.85,3.24-1.34,4.83-.83,2.35-1.25,5.17-3.18,6.84-2.09,1.61-4.89,1.17-7.31.71A101.61,101.61,0,0,1,41.77,70.5c-3.45-1.31-7.81-2-9.88-5.35-1.16-2.31-.35-5.05-.05-7.5.38-2.23.83-4.46,1.38-6.67,0-.32-.08-.65-.11-1s.32-.23.32,0c0,0,0,.06,0,.08a72.45,72.45,0,0,1,3.46-10.3.17.17,0,0,1-.28,0,.35.35,0,0,0-.11-.1c-.32.73-.63,1.48-.92,2.23a1.69,1.69,0,0,1,.12.64c0,.19-.29.22-.32,0l0-.08c-.49,1.3-.93,2.6-1.35,3.92l.17,0a.17.17,0,0,1,.16.17.16.16,0,0,1-.17.15h-.26c-.75,2.48-1.38,5-1.89,7.54a1.34,1.34,0,0,1,.06-.12c.09-.19.38,0,.3.13l-.63,1.44C31.4,57.65,31.12,59.56,30.88,61.45Z" fill="#480973"/>
        <path d="M31.76,55.76l.63-1.44c.08-.17-.21-.32-.3-.13a1.34,1.34,0,0,0-.06.12C31.93,54.8,31.84,55.28,31.76,55.76Z" fill="#480973"/>
        <path d="M32.33,41.31c-.13.15.08.36.22.23A1.73,1.73,0,0,1,34,41.2a1.3,1.3,0,0,1,.44-.17.16.16,0,0,1,.1.3l0,0a1.73,1.73,0,0,1,.9,1.16c.07-.19.15-.39.22-.59A2,2,0,0,0,32.33,41.31Z" fill="#480973"/>
        <path d="M33,42.69c0,.22,0,.92.34.84a.19.19,0,0,0,.1-.18,2,2,0,0,1,1-2,1.54,1.54,0,0,0-.5-.16A1.89,1.89,0,0,0,33,42.69Z" fill="#480973"/>
        <path d="M33.43,50c0-.21-.34-.19-.32,0s.06.66.11,1c.07-.31.15-.61.22-.92C33.44,50,33.43,50,33.43,50Z" fill="#480973"/>
        <path d="M33.44,50.06c-.07.31-.15.61-.22.92A10.16,10.16,0,0,0,35,55.59c1.68,1.94,3.91-.46,5.08-1.77,1.83-1.92,3.88-4.91,6.79-4.64,2.7.58,5.84,1.19,7.89,3.14a4.89,4.89,0,0,1,.94,2.6,17.14,17.14,0,0,0,2.23,5.46,6.3,6.3,0,0,0,2,2.25c1.84,1,3.73-.34,5-1.69.06-.19.11-.39.16-.59a.16.16,0,0,0-.11,0c-4,4.48-6.15,1.38-7.94-2.82a12.78,12.78,0,0,1-.85-2.74,5.33,5.33,0,0,0-1-2.82,6.65,6.65,0,0,0-2.51-1.65,23.74,23.74,0,0,0-5.66-1.66c-3.18-.3-5.28,2.81-7.18,4.82-1.1,1.12-2.92,3.46-4.45,1.79A10.38,10.38,0,0,1,33.44,50.06Z" fill="#480973"/>
        <path d="M33.92,46.77h.26a.16.16,0,0,0,.17-.15.17.17,0,0,0-.16-.17l-.17,0C34,46.55,34,46.66,33.92,46.77Z" fill="#480973"/>
        <path d="M34.41,41a1.3,1.3,0,0,0-.44.17,1.54,1.54,0,0,1,.5.16l0,0A.16.16,0,0,0,34.41,41Z" fill="#480973"/>
        <path d="M35.37,42.52l0,.08c0,.19.34.16.32,0a1.69,1.69,0,0,0-.12-.64C35.52,42.13,35.44,42.33,35.37,42.52Z" fill="#480973"/>
        <path d="M36.65,39.37c0,.11-.09.21-.14.33a.35.35,0,0,1,.11.1.17.17,0,0,0,.28,0,.16.16,0,0,0,0-.16Z" fill="#480973"/>
        <path d="M36.65,39.37l.23.23a.16.16,0,0,1,0,.16c.45-1,.92-2.08,1.43-3.09h-.07a.16.16,0,0,1-.19-.13.18.18,0,0,1,.13-.19l.31-.05A50.2,50.2,0,0,1,43,29c1.25-1.33,3.57-5.14,5.62-3.52l.22-.23c-2.33-1.86-4.7,2-6.11,3.53A55.42,55.42,0,0,0,36.65,39.37Z" fill="#480973"/>
        <path d="M38.2,36.35a.18.18,0,0,0-.13.19.16.16,0,0,0,.19.13h.08c0-.12.11-.24.17-.36Z" fill="#480973"/>
        <path d="M38.51,36.3c-.06.12-.12.24-.17.36a10.2,10.2,0,0,1,4.53.27.19.19,0,0,0,.25-.15,11.28,11.28,0,0,1,2.53-4.73h-.11l.17-.07-.06.08A36.35,36.35,0,0,1,55,33.64a34.83,34.83,0,0,1,8.63,4v-.1l.1.15a.47.47,0,0,0-.1,0,17.66,17.66,0,0,1-.16,4.59.21.21,0,0,0,.1.21,10.52,10.52,0,0,1,4,4.22.16.16,0,0,0,.07.07c0-.16.05-.33.07-.49a10.71,10.71,0,0,0-3.77-4.08.68.68,0,0,0,0,.14l-.1-.21.12.07a18.25,18.25,0,0,0,.16-4.67.19.19,0,0,0-.1-.16A35.06,35.06,0,0,0,45.55,31.6a.27.27,0,0,0-.17.08,11.68,11.68,0,0,0-2.6,4.82l.2,0-.25.15a1.33,1.33,0,0,1,.05-.19A10.25,10.25,0,0,0,38.51,36.3Z" fill="#480973"/>
        <path d="M44.49,39.5c1.09,0,2.46,1.17,1.48,2.24a2.07,2.07,0,0,1-1.57.43,8.49,8.49,0,0,1-3-.71c-.29-.13-.63-.45-.51-.82C41.51,39.28,43.25,39.41,44.49,39.5Zm-1.5,2c.83.18,2,.5,2.7,0,.73-.79-.37-1.6-1.24-1.63a6.48,6.48,0,0,0-1.46,0c-.64.08-1.43.32-1.67.92,0,.06,0,.08,0,.14A4.83,4.83,0,0,0,43,41.47Z" fill="#480973"/>
        <path d="M42.15,43.89c-.21,1,.93,1.33,1.55.72a1.14,1.14,0,0,0-.07-1.71C42.88,42.3,42.29,43.22,42.15,43.89Z" fill="#480973"/>
        <path d="M42.78,36.5a1.33,1.33,0,0,0-.05.19l.25-.15Z" fill="#480973"/>
        <path d="M47.4,55a15.46,15.46,0,0,0,4.66,1.38c1.17.1,2.57.76,2.19,2.18-.33,1.25-1.8,1.52-2.9,1.45-2.73-.24-5.76-.59-7.8-2.62a1.88,1.88,0,0,1,.54-3.11C45.27,53.81,46.4,54.49,47.4,55Zm.74,4.18c1.62.21,5,1.32,5.8-.7.3-1.18-.94-1.66-1.93-1.74A15.13,15.13,0,0,1,48.76,56c-1.48-.36-2.94-1.76-4.49-1.28A1.41,1.41,0,0,0,43.9,57,8.47,8.47,0,0,0,48.14,59.14Z" fill="#480973"/>
        <path d="M45.26,55.29a1.09,1.09,0,0,0-.84,1.43.17.17,0,0,0,.21.09.18.18,0,0,0,.1-.15,1.54,1.54,0,0,1,.19-.57L44.85,56c-.15-.14,0-.37.2-.25l.06,0a1.25,1.25,0,0,1,.27-.23A.17.17,0,0,0,45.26,55.29Z" fill="#480973"/>
        <path d="M45.05,55.78c-.15-.12-.35.11-.2.25l.07.06a1.2,1.2,0,0,1,.19-.27Z" fill="#480973"/>
        <path d="M45.11,55.82a1.2,1.2,0,0,0-.19.27,9.46,9.46,0,0,0,7.75,2.26c.19,0,.16-.35,0-.33A11,11,0,0,1,45.11,55.82Z" fill="#480973"/>
        <path d="M45.54,32h.11l.06-.08Z" fill="#480973"/>
        <path d="M46.41,28.54a.17.17,0,0,0,.06.22.17.17,0,0,0,.22-.06,13.62,13.62,0,0,1,6.84-6c3.11-1.23,5.86,1.68,7,4.34A26.21,26.21,0,0,1,62,33.07a.16.16,0,0,0,.32,0c-.08-.58-.15-1.17-.25-1.76A.16.16,0,0,1,61.9,31l.08-.06a17.71,17.71,0,0,0-1.09-4.08c-2.2-4.88-5.82-6.49-10.33-3.09a11.93,11.93,0,0,0-1.74,1.51l.15.12c.14.14-.1.4-.24.23l-.13-.12A15.42,15.42,0,0,0,46.41,28.54Z" fill="#480973"/>
        <path d="M48.6,25.5l.13.12c.14.17.38-.09.24-.23l-.15-.12Z" fill="#480973"/>
        <path d="M59.44,46.56a1.14,1.14,0,0,0-1.18,1.24c.06.86,1.11,1.4,1.64.49C60.24,47.69,60.41,46.61,59.44,46.56Z" fill="#480973"/>
        <path d="M63,46.69c-.16.36-.63.37-.93.27a8.39,8.39,0,0,1-2.72-1.45,2.2,2.2,0,0,1-.89-1.37c0-1.45,1.77-1.41,2.6-.69S63.43,45.26,63,46.69Zm-.81-.18c.16,0,.33.1.42,0A2,2,0,0,0,62,44.69a6.76,6.76,0,0,0-1.09-1c-1.48-1.11-3,.22-1.25,1.44A10.16,10.16,0,0,0,62.19,46.51Z" fill="#480973"/>
        <path d="M61.38,72.09a.16.16,0,0,0-.25.21s0,.06.08.08l.21-.25S61.39,72.1,61.38,72.09Z" fill="#480973"/>
        <path d="M61.9,31a.16.16,0,0,0,.13.27c0-.11,0-.22-.05-.33Z" fill="#480973"/>
        <path d="M62.31,70.28a.16.16,0,1,0-.15.28l.16.09c0-.1.1-.19.14-.29h0Z" fill="#480973"/>
        <path d="M63.66,37.57v.1a.47.47,0,0,1,.1,0Z" fill="#480973"/>
        <path d="M63.81,42.12l.1.21a.68.68,0,0,1,0-.14Z" fill="#480973"/>
        <path d="M65,60.35c-.05.2-.1.4-.16.59a3.92,3.92,0,0,0,.28-.31A.17.17,0,0,0,65,60.35Z" fill="#480973"/>
        <path d="M66.13,55.85a.16.16,0,0,0,.07.22l.19.09c0-.11,0-.22.07-.32l-.12-.06A.16.16,0,0,0,66.13,55.85Z" fill="#480973"/>
        <path d="M66.46,55.84c0,.1,0,.21-.07.32a4.36,4.36,0,0,0,5.21-1.34c2.24-3-.18-7.45-3.88-6.33,0,.12,0,.25-.06.36,4.38-1.18,6,4.91,2.19,6.83A4.1,4.1,0,0,1,66.46,55.84Z" fill="#480973"/>
        <path d="M67,51.72a.16.16,0,0,0,.19.24l.09-.59A1.6,1.6,0,0,0,67,51.72Z" fill="#480973"/>
        <path d="M67.26,51.37l-.09.59a.15.15,0,0,0,.07-.05,1.68,1.68,0,0,1,1.43-.6l0-.05c-.1-.14.11-.34.24-.21a1.48,1.48,0,0,1,.3.36,1.78,1.78,0,0,1,1,1,.16.16,0,0,0,.31-.1A2,2,0,0,0,69,50.83,2,2,0,0,0,67.26,51.37Z" fill="#480973"/>
        <path d="M67.47,48.57a.16.16,0,0,0,.13.3l.06,0c0-.11,0-.24.06-.36Z" fill="#480973"/>
        <path d="M67.63,46.76c.12.06.3-.06.22-.21a1.51,1.51,0,0,0-.15-.28C67.68,46.43,67.66,46.6,67.63,46.76Z" fill="#480973"/>
        <path d="M68.53,53.54a.16.16,0,0,0,.22.23,1.76,1.76,0,0,0,.68-1.33,2,2,0,0,0-.25-1,1.49,1.49,0,0,0-.51-.1A2,2,0,0,1,68.53,53.54Z" fill="#480973"/>
        <path d="M68.88,51.05c-.13-.13-.34.07-.24.21l0,.05a1.49,1.49,0,0,1,.51.1A1.48,1.48,0,0,0,68.88,51.05Z" fill="#480973"/>
      </g>
      <path d="M67.22,51.62a1,1,0,0,1,1.47-.33,1.75,1.75,0,0,1,.56,1.6,2.23,2.23,0,0,1,0,.36c-.09.46-.24.91-.32,1.37A1.73,1.73,0,0,0,69.09,56a3.85,3.85,0,0,0,.76-.29c3.73-1.9,2.22-7.89-2.06-6.85a1.69,1.69,0,0,0-.17.29A4.47,4.47,0,0,0,67.22,51.62Z" fill="#ffe226"/>
    </g>
  </g>
</svg>
