<svg id="a7d02fdd-ce58-498e-b408-fe9201c61d44" data-name="layer 1" xmlns="http://www.w3.org/2000/svg" viewBox="0 0 100 100">
  <title>profile_8</title>
  <g>
    <circle cx="50.03" cy="50.47" r="37.61" transform="translate(-17.49 72.65) rotate(-63.44)" fill="#2fb5eb"/>
    <path d="M36.26,23.75C23,25.85,9.49,35.6,10.8,50.32c.57,6.75,4.32,12.84,9.17,17.4,0,.17,0,.34,0,.51.25,1.66.2,4,1.95,4.8a1.68,1.68,0,0,0,1.73-.14,19,19,0,0,0,.62,6c.47,2.4,2.68,4.74,5.14,3a12.4,12.4,0,0,0,3.39-4.49,6,6,0,0,0,.14,1c1,3.45,3.81,1.94,6-.25a23.46,23.46,0,0,0,2.28.64c.72.15,1.42.29,2.15.38a48.22,48.22,0,0,0,5.83.75v0c1.73.1,3.48.13,5.24.08l0,0A53.9,53.9,0,0,0,64,78.56l.42-.12a32.6,32.6,0,0,0,16.73-10c7-8.17,6.58-19.65.34-28.14C71.37,26.58,52.67,21,36.26,23.75Z" fill="#480973"/>
    <g>
      <g>
        <path d="M21.2,62.51c.56.62,1.15,1.22,1.76,1.79A24.55,24.55,0,0,1,29.7,46a2.08,2.08,0,0,1-1.18-2.5c1-3.29,6.75-4.76,9.75-5.61a29.87,29.87,0,0,1,4.51-.74l-.31,0c-.63-.12-1.66-.19-1.86-1s.66-1.48,1.35-1.61a22.67,22.67,0,0,1,12.19.67,25.18,25.18,0,0,1,2.52,1,31.66,31.66,0,0,1,4.08.92,29.9,29.9,0,0,1,13.88,9.16c1.76,2.18,3.54,4.52,4,7.35A6.33,6.33,0,0,1,78,57.82a.1.1,0,0,1,0,0c1.23,2.85,1.83,6.19.73,9.17a4.81,4.81,0,0,1-3.47,3.27c-1.52.29-2.69-1-3.07-2.36a11.81,11.81,0,0,1-1.54,4.4,4.43,4.43,0,0,1-2.45,2.24c-1.22.34-2.47-.31-3.29-2.22a15.71,15.71,0,0,1-1.45-7.59,19.74,19.74,0,0,1-1.91,2,22.93,22.93,0,0,1-1.75,6.6A28.1,28.1,0,0,1,67,75.26l1.24-.34a32,32,0,0,0,15.67-9.7,20.56,20.56,0,0,0,3.68-6.15,22.72,22.72,0,0,0-3.4-21.56C74.14,24,55.59,18.43,39.33,21.11c-9.7,1.65-19.7,7-23.69,16.4C11.91,46.21,15.11,55.78,21.2,62.51Z" fill="#ffe226"/>
        <path d="M42.25,74.84c.71.14,1.42.31,2.13.47l2.43.56,0,0c2-1,4-2,6.08-2.92.13-.58.26-1.17.37-1.76a19.2,19.2,0,0,1-8.64.39A15,15,0,0,1,42.25,74.84Z" fill="#ffe226"/>
      </g>
      <path d="M20.72,56.5A25.8,25.8,0,0,1,32.39,36.42c8.47-5.63,19.7-5.94,29.59-3.22,6.47,1.78,12.76,4.66,17.57,9.16A24.22,24.22,0,0,1,84,47.93a28,28,0,0,1,3.59,11.14,20.56,20.56,0,0,1-3.68,6.15,32,32,0,0,1-15.67,9.7L67,75.26h0a43.56,43.56,0,0,1-11.8,1.42c-.84,0-1.69-.05-2.53-.09-1.34-.07-2.69-.16-4-.32-.71-.08-1.43-.29-2.12-.35,0,0,0-.08,0-.12l-2.13-.49c-.71-.16-1.42-.33-2.13-.47a15,15,0,0,0,2.41-3.24,20.74,20.74,0,0,0,2.82.29,11.65,11.65,0,0,1,1.28-2.69,12,12,0,0,1,4.91-4,31.41,31.41,0,0,1,6.09-2,6,6,0,0,1,3.87-.06,5.37,5.37,0,0,1,2.49,3.24,20.16,20.16,0,0,1,1.12,4.72,19.68,19.68,0,0,1,.13,2.43,6.89,6.89,0,0,1,0,1.11,2.26,2.26,0,0,0,.77-.07,4.43,4.43,0,0,0,2.45-2.24,11.81,11.81,0,0,0,1.54-4.4c.38,1.37,1.55,2.65,3.07,2.36A4.81,4.81,0,0,0,78.64,67c1.1-3,.5-6.32-.73-9.17a.1.1,0,0,0,0,0,6.33,6.33,0,0,0,.68-4.16c-.47-2.83-2.25-5.17-4-7.35a29.9,29.9,0,0,0-13.88-9.16,31.66,31.66,0,0,0-4.08-.92,25.18,25.18,0,0,0-2.52-1A22.67,22.67,0,0,0,42,34.52c-.69.13-1.53.76-1.35,1.61s1.23.89,1.86,1l.31,0a29.87,29.87,0,0,0-4.51.74c-3,.85-8.73,2.32-9.75,5.61A2.08,2.08,0,0,0,29.7,46,24.55,24.55,0,0,0,23,64.3c-.61-.57-1.2-1.17-1.76-1.79A24.33,24.33,0,0,1,20.72,56.5Z" fill="#eb8602"/>
      <path d="M23.8,58.27a27.46,27.46,0,0,0-.46,6.43c.12,2.35.59,4.52,1.76,5a1.38,1.38,0,0,0,1.49-.13.16.16,0,0,1,.13,0,18.64,18.64,0,0,1,.69-3.91c.05-.17.33-.1.27.08a19.77,19.77,0,0,0-.57,6.68c.3,2.08.49,4.69,2.2,6.09a2.39,2.39,0,0,0,2.92,0,13.58,13.58,0,0,0,4.58-8.69.14.14,0,0,1,.15-.12.14.14,0,0,1,.13.15,14.53,14.53,0,0,1-1,3.89c.31,7,6.45.93,8.25-2.15-5.11-1-9.86-3.88-12.39-8.32a1.62,1.62,0,0,1-.91.67.16.16,0,0,1-.15-.06.15.15,0,0,1,0-.2,2.68,2.68,0,0,0,.78-.83,13,13,0,0,1-.55-1.2,1.6,1.6,0,0,1-1.49.68.15.15,0,0,1-.12-.11.14.14,0,0,1,.11-.17A2.63,2.63,0,0,0,31,61.26,12.59,12.59,0,0,1,30.61,60a13.55,13.55,0,0,1-.49-2.89h0a1.12,1.12,0,0,1,0-.85q0-.91.09-1.83l-.3,0c-2.31.1-2.67-2.57-1.83-4.2a15.16,15.16,0,0,1,2.79-4,2.64,2.64,0,0,1-.83-.09,24.65,24.65,0,0,0-6.2,12.13Z" fill="#a80a64"/>
      <path d="M28.36,50.39c-.72,1.4-.49,3.78,1.49,3.68,1.45-.11,3.39-1.37,4.73-1.94A82.16,82.16,0,0,0,55.87,37.34h0a.17.17,0,0,1,.15,0l.38-.88a23.6,23.6,0,0,0-13-1.78c-.77.17-1.86.14-2.3.87a.64.64,0,0,0,.21.94,4.4,4.4,0,0,0,1.24.34l2.67.54c.18,0,.13.3-.05.27L44,37.4a32.71,32.71,0,0,0-11,2.77c-1.63.73-3.55,1.67-4.11,3.47a1.69,1.69,0,0,0,1,2.11,4.28,4.28,0,0,0,2.7-.17.14.14,0,0,1,.08.27,8.53,8.53,0,0,1-1.45.35A15.38,15.38,0,0,0,28.36,50.39Z" fill="#a80a64"/>
      <path d="M30.83,57.52a1.61,1.61,0,0,1-.37-.12,14.55,14.55,0,0,0,.62,2.93c.32-2,4-2.36,5.63-1.91,2.15.5,2.26,2.7.46,3.62a9.11,9.11,0,0,1-1.56.54,2.19,2.19,0,0,1,.11.61c0,.23,0,.7-.29.78a.15.15,0,0,1-.15-.14c0-.41,0-.77,0-1.18a6.69,6.69,0,0,1-1.25.16,1.91,1.91,0,0,1-.46,1.52.15.15,0,0,1-.15,0,.15.15,0,0,1-.09-.18,7.24,7.24,0,0,0,.38-1.36,3.67,3.67,0,0,1-1.47-.3,2,2,0,0,1-.08.33,13.92,13.92,0,0,0,1.36,2c.09.1.18.21.28.31a18.74,18.74,0,0,0,10.81,6,19.89,19.89,0,0,0,18.76-6.87c.05-2.2.25-4.42.18-6.56A35.5,35.5,0,0,0,56,37.65a75.51,75.51,0,0,1-7.81,6.71,77.13,77.13,0,0,1-13.39,8.13,26.05,26.05,0,0,1-4.3,1.86c-.05.42-.07.84-.08,1.26.62-1,1.88-1.83,2.58-1.09s-.19,1.61-.75,2c-.33.25-.33.63-.74.85A1.41,1.41,0,0,1,30.83,57.52ZM54.26,45.33a3.38,3.38,0,0,0-.62,0c-.63.1-1.49.44-2-.21a1.22,1.22,0,0,1-.06-1.39,2.48,2.48,0,0,1,4.15.4C56.05,45,55,45.46,54.26,45.33Zm2.36,2a2.72,2.72,0,0,1,2.05.55,3.06,3.06,0,0,0,1.6-.68.14.14,0,0,1,.2.19,1.86,1.86,0,0,1-1.49.81,1.78,1.78,0,0,1,.3.54,2.23,2.23,0,0,1,.07,1,3.39,3.39,0,0,0,1.27.11.14.14,0,0,1,.09.26,1.48,1.48,0,0,1-1.44,0,4.68,4.68,0,0,1-1,1.72,3.88,3.88,0,0,1,1.25.59.16.16,0,0,1,.06.14.15.15,0,0,1-.17.12A3.88,3.88,0,0,1,58.06,52c-.22.25-.45.49-.67.71a9.75,9.75,0,0,1-.93.75c.27.16.66.94.52,1.08a.15.15,0,0,1-.21,0,2,2,0,0,1-.52-1c-1.79,1.22-4.37,2.13-5.36-.21C50.12,50.74,54.19,47.51,56.62,47.29ZM43.18,59.74a1.94,1.94,0,0,1,1.09-.88,3,3,0,0,0,2.11-1c1.51-2.77,4.8-1,3.72,1.8a6,6,0,0,1-3.9,3.26C44.31,63.45,42.13,61.7,43.18,59.74Z" fill="#2fb5eb"/>
      <path d="M32.75,54.71c-1.07-1.07-3.65,2.9-1.47,2.32.25-.15.42-.61.7-.77C32.51,55.9,33.17,55.34,32.75,54.71Z" fill="#a80a64"/>
      <path d="M33.14,58.87c-1.17.34-2,1.06-1.76,2.21.37,1.55,2.29,1.51,3.56,1.27s2.8-.58,3.06-1.93a2.74,2.74,0,0,1-2.12.95,2.8,2.8,0,0,1-2.69-2A1.77,1.77,0,0,1,33.14,58.87Z" fill="#ffefd4"/>
      <path d="M45,59.11A2.72,2.72,0,0,0,46.68,58c1.28-2.47,4.07-1,3.17,1.48-.85,1.94-4,4.17-5.94,2.53A1.69,1.69,0,0,1,43.55,60,1.75,1.75,0,0,1,45,59.11Zm1.4,1.42a3.47,3.47,0,0,0,2.26-2.14.14.14,0,0,0-.25-.11,5.34,5.34,0,0,1-2.12,2,.14.14,0,0,0,.11.26Z" fill="#ffe226"/>
      <path d="M51.92,50.71a2.93,2.93,0,0,0-.77,2.6c1.16,2.66,4.56.48,6-.85.9-.92,2.14-2.23,1.75-3.62a1.54,1.54,0,0,0-.36-.55,2.79,2.79,0,0,1-.24,2.28,3.8,3.8,0,0,1-3.2,1.74,3.14,3.14,0,0,1-3-1.85Z" fill="#ffefd4"/>
      <path d="M52.84,43.21c-.75.14-1.47,1-.94,1.7s1.48-.13,2.38.06a1.14,1.14,0,0,0,1-.33c.21-.24.05-.61-.22-.88A2.51,2.51,0,0,0,52.84,43.21Z" fill="#a80a64"/>
      <path d="M56.41,36.43l-.38.88,0,0A35.33,35.33,0,0,1,64,57.74c.2,4.85-1.08,9.93,1.22,14.44,1.3,3.06,3.57,2.54,5.06,0,2.6-4.29,1.64-9.56.66-14.22,0-.18.24-.23.28-.06a39.94,39.94,0,0,1,1.09,7.31c0,.62,0,1.25-.06,1.88a.12.12,0,0,1,0,.08,3.39,3.39,0,0,0,1.45,2.55c2,1.06,4-1,4.56-2.79,1.77-5.19-1-10.5-4.22-14.51-.11-.14.11-.3.22-.17a28.51,28.51,0,0,1,3.52,5.34,6.16,6.16,0,0,0,.52-3.83c-.48-2.74-2.26-5-4-7.14A30.08,30.08,0,0,0,56.64,36.5h0l0,0Z" fill="#a80a64"/>
      <path d="M41.6,39.53a2.83,2.83,0,0,1-.67,1.25,10.94,10.94,0,0,1-4.32,2.86A35.07,35.07,0,0,1,32.4,45.3c-1.28.35-4.26.52-3.77-1.65a3.22,3.22,0,0,1,.92-1.47c2.5-2.56,6.67-4,10.2-4.09a1.94,1.94,0,0,1,1.71.58A1.13,1.13,0,0,1,41.6,39.53Z" fill="#ec2872"/>
      <path d="M41.84,35.07a.71.71,0,0,0-.46.36.52.52,0,0,0,.15.51,1.18,1.18,0,0,0,.48.26,3.94,3.94,0,0,0,2.18.08c.26-.07.56-.24.54-.5,0-.44-.94-.76-1.3-.84A3,3,0,0,0,41.84,35.07Z" fill="#ec2872"/>
      <path d="M28.19,50.65a1.66,1.66,0,0,0,0,1.55c.91,1.2,3.14.32,4.23-.11a20.13,20.13,0,0,0,5.4-2.86,12.57,12.57,0,0,0,1.93-1.86c.4-.47,1-1.41.78-2s-1-.71-1.69-.67a21.46,21.46,0,0,0-4.06.64,13,13,0,0,0-3.7,1.38A8.26,8.26,0,0,0,28.19,50.65Z" fill="#ec2872"/>
      <path d="M25.44,67.67c-.05.55-.24,1.24-.78,1.31s-.95-.68-1.06-1.29a24.22,24.22,0,0,1-.2-7c.11-.95.8-6.36,1.88-6.39A30.38,30.38,0,0,1,25.71,61C25.73,63.19,25.64,65.44,25.44,67.67Z" fill="#ec2872"/>
      <path d="M27.22,75.36a4.92,4.92,0,0,0,1.6,2.78,1.5,1.5,0,0,0,1.32.32c.75-.24,1-1.18,1-2a14.32,14.32,0,0,0-.71-5.43,15.11,15.11,0,0,0-1.06-2.45c-.31-.56-.84-1.85-1.4-2.19-.74-.45-.68.52-.83,1.24a20.06,20.06,0,0,0,0,7.7Z" fill="#ec2872"/>
      <path d="M69.24,65.73a10.6,10.6,0,0,1-1,6.11,1.73,1.73,0,0,1-2.46.84c-1-.52-1.28-1.5-1.59-2.56a25,25,0,0,1-.66-7.94c.07-1.69.17-3.38.15-5.08A49.06,49.06,0,0,0,63.06,52c-.4-3.28-2-6.55-3.26-9.59a11.86,11.86,0,0,0,1.51,1.93,40.9,40.9,0,0,1,4.58,7.33,37.06,37.06,0,0,1,2.55,8A45.69,45.69,0,0,1,69.24,65.73Z" fill="#ec2872"/>
      <path d="M77.37,67.32c0,1.5-.52,2.46-2.1,2.69a2.58,2.58,0,0,1-2-.55,3.05,3.05,0,0,1-.93-1.83,12,12,0,0,1-.08-2.08,21.75,21.75,0,0,0-.85-6c-.1-.39-.19-.89.15-1.11s.66,0,1,.17A10.6,10.6,0,0,1,77.37,67.32Z" fill="#ec2872"/>
      <path d="M57.54,53.9a2.92,2.92,0,0,0-.23.29c-.48.66-1.42,3.14-.24,3.61a1.34,1.34,0,0,0,.69,0,4.61,4.61,0,0,0,3.62-3.37A1.55,1.55,0,0,0,61,52.73a1.49,1.49,0,0,0-1-.14A4,4,0,0,0,57.54,53.9Z" fill="#ffe226"/>
      <path d="M33.8,65.2a19,19,0,0,0,3,2.67,4.56,4.56,0,0,0,1.82-.64c.53-.35,1-.93.87-1.55a1.44,1.44,0,0,0-.62-.78,4,4,0,0,0-2.66-.73l-.35,0A5.46,5.46,0,0,0,33.8,65.2Z" fill="#ffe226"/>
      <g>
        <path d="M39.27,20.73C26,22.84,12.51,32.59,13.82,47.31c.56,6.75,4.31,12.83,9.17,17.39a2.6,2.6,0,0,1,0-.4c-7.2-6.75-11.4-17.29-7.32-26.79s14-14.75,23.69-16.4C55.59,18.43,74.15,24,84.16,37.51c6.17,8.35,6.66,19.65-.27,27.71a32.07,32.07,0,0,1-15.68,9.7L67,75.26l.43.17a32.58,32.58,0,0,0,16.73-10c7.05-8.16,6.58-19.64.34-28.13C74.38,23.57,55.68,18,39.27,20.73Z" fill="#480973"/>
        <path d="M29.7,46.05A24.53,24.53,0,0,0,23,64.3l.32.3a.13.13,0,0,1,0,.1h0a27.46,27.46,0,0,1,.46-6.43A24.65,24.65,0,0,1,30,46.14a1.66,1.66,0,0,1-.21-.06Z" fill="#480973"/>
        <path d="M23.28,64.6,23,64.3a2.6,2.6,0,0,0,0,.4l.1.1a.14.14,0,0,0,.23-.1A.13.13,0,0,0,23.28,64.6Z" fill="#480973"/>
        <path d="M23,64.7c0,.18,0,.35,0,.52.25,1.66.19,3.94,1.94,4.8a1.71,1.71,0,0,0,1.73-.14c0-.11,0-.21,0-.31a.16.16,0,0,0-.13,0,1.38,1.38,0,0,1-1.49.13c-1.17-.51-1.64-2.68-1.76-5h0a.14.14,0,0,1-.23.1Z" fill="#480973"/>
        <path d="M26.7,69.88a19.34,19.34,0,0,0,.63,6c.46,2.4,2.67,4.74,5.13,3a12.26,12.26,0,0,0,3.4-4.49c0-.23,0-.46,0-.7a.15.15,0,0,1,.13-.14.15.15,0,0,1,.15.14v.09a14.53,14.53,0,0,0,1-3.89.14.14,0,0,0-.13-.15.14.14,0,0,0-.15.12,13.58,13.58,0,0,1-4.58,8.69,2.39,2.39,0,0,1-2.92,0c-1.71-1.4-1.9-4-2.2-6.09a19.77,19.77,0,0,1,.57-6.68c.06-.18-.22-.25-.27-.08a18.64,18.64,0,0,0-.69,3.91l.07,0a.14.14,0,0,1,0,.2A.27.27,0,0,1,26.7,69.88Z" fill="#480973"/>
        <path d="M26.72,69.57c0,.1,0,.2,0,.31a.27.27,0,0,0,.08-.07.14.14,0,0,0,0-.2Z" fill="#480973"/>
        <path d="M28,50.25c-.84,1.63-.48,4.3,1.83,4.2l.3,0s0-.11,0-.16a.14.14,0,0,1,.16-.12.13.13,0,0,1,.12.15.19.19,0,0,0,0,.08,27,27,0,0,0,4.3-1.87,77,77,0,0,0,13.4-8.13,76.54,76.54,0,0,0,7.8-6.7,1.13,1.13,0,0,0-.1-.13.17.17,0,0,1,0-.19A82.16,82.16,0,0,1,34.58,52.13c-1.34.57-3.28,1.83-4.73,1.94-2,.1-2.21-2.28-1.49-3.68a15.38,15.38,0,0,1,2.89-4.19l-.42,0h0A15.16,15.16,0,0,0,28,50.25Z" fill="#480973"/>
        <path d="M28.52,43.54a2.1,2.1,0,0,0,1.18,2.51l.16-.17c.13-.13.32.08.2.2l-.06.06a2.64,2.64,0,0,0,.83.09h0l.25-.26c.12-.13.33.06.2.19l0,0a8.53,8.53,0,0,0,1.45-.35.14.14,0,0,0-.08-.27,4.28,4.28,0,0,1-2.7.17,1.69,1.69,0,0,1-1-2.11c.56-1.8,2.48-2.74,4.11-3.47A32.71,32.71,0,0,1,44,37.4l-1.18-.21a32.62,32.62,0,0,0-4.51.74C35.27,38.78,29.54,40.25,28.52,43.54Z" fill="#480973"/>
        <path d="M29.68,62a.14.14,0,0,0-.11.17.15.15,0,0,0,.12.11,1.6,1.6,0,0,0,1.49-.68,2.17,2.17,0,0,1-.15-.35A2.63,2.63,0,0,1,29.68,62Z" fill="#480973"/>
        <path d="M29.7,46.05l.09,0a1.66,1.66,0,0,0,.21.06l.06-.06c.12-.12-.07-.33-.2-.2Z" fill="#480973"/>
        <path d="M30.08,56.24a1.12,1.12,0,0,0,0,.85C30.1,56.8,30.09,56.52,30.08,56.24Z" fill="#480973"/>
        <path d="M30.17,54.41q-.09.92-.09,1.83a2.79,2.79,0,0,1,.3-.63c0-.42,0-.84.08-1.25Z" fill="#480973"/>
        <path d="M30.08,56.24c0,.28,0,.56,0,.85h0a.84.84,0,0,0,.34.3,15.32,15.32,0,0,1-.08-1.79A2.79,2.79,0,0,0,30.08,56.24Z" fill="#480973"/>
        <path d="M30.19,54.25s0,.11,0,.16l.29,0a.19.19,0,0,1,0-.08.13.13,0,0,0-.12-.15A.14.14,0,0,0,30.19,54.25Z" fill="#480973"/>
        <path d="M33,54.53c.6.75-.18,1.6-.75,2-.33.25-.33.63-.74.85a1.39,1.39,0,0,1-.64.13,1.79,1.79,0,0,1-.37-.12,15.32,15.32,0,0,1-.08-1.79C31,54.62,32.26,53.79,33,54.53Zm-1,1.73c.53-.36,1.19-.92.77-1.55-1.07-1.07-3.65,2.9-1.47,2.32C31.53,56.88,31.7,56.42,32,56.26Z" fill="#480973"/>
        <path d="M30.46,57.4a.84.84,0,0,1-.34-.3A13.55,13.55,0,0,0,30.61,60,12.59,12.59,0,0,0,31,61.26l.07-.07,0,0s0,0,0,0a2.19,2.19,0,0,1,0-.8A15.54,15.54,0,0,1,30.46,57.4Z" fill="#480973"/>
        <path d="M31.08,46l-.25.26.42,0,0,0C31.41,46,31.2,45.84,31.08,46Z" fill="#480973"/>
        <path d="M31,63.64a.15.15,0,0,0,0,.2.16.16,0,0,0,.15.06,1.62,1.62,0,0,0,.91-.67l-.24-.42A2.68,2.68,0,0,1,31,63.64Z" fill="#480973"/>
        <path d="M31.1,61.19l-.07.07a2.17,2.17,0,0,0,.15.35.47.47,0,0,0,.06-.09,2.86,2.86,0,0,1-.12-.35Z" fill="#480973"/>
        <path d="M31.08,60.34a2.19,2.19,0,0,0,0,.8s0,0,0,0,.28,0,.22.17a1.62,1.62,0,0,1-.1.18,2,2,0,0,0,.63.78A15.74,15.74,0,0,1,31.08,60.34Z" fill="#480973"/>
        <path d="M31.34,61.34c.06-.13-.12-.25-.22-.17a2.86,2.86,0,0,0,.12.35A1.62,1.62,0,0,0,31.34,61.34Z" fill="#480973"/>
        <path d="M31.24,61.52a.47.47,0,0,1-.06.09,13,13,0,0,0,.55,1.2,1.79,1.79,0,0,0,.2-.39l-.06-.12A2,2,0,0,1,31.24,61.52Z" fill="#480973"/>
        <path d="M36.71,58.42c2.15.5,2.26,2.7.46,3.62a9.11,9.11,0,0,1-1.56.54c0-.13-.13-.2-.25-.16a.13.13,0,0,0-.08.13.33.33,0,0,1,0,.1,6.58,6.58,0,0,1-1.25.16s0-.06,0-.09a.14.14,0,0,0-.28,0s0,.06,0,.09a3.69,3.69,0,0,1-1.48-.3.86.86,0,0,0,0-.16.14.14,0,0,0-.28,0v0l-.09-.05a15.74,15.74,0,0,1-.79-2C31.4,58.3,35,58,36.71,58.42Zm-1.77,3.93c1.18-.24,2.8-.58,3.06-1.93a3.15,3.15,0,0,0,.22-.29c-.06-1.32-1.89-1.74-3.15-1.71a7.78,7.78,0,0,0-1.92.29.86.86,0,0,0,0,.16c-1.17.34-2,1.06-1.76,2.21C31.75,62.63,33.67,62.59,34.94,62.35Z" fill="#480973"/>
        <path d="M31.73,62.81l.24.42a1.93,1.93,0,0,0,.19-.38l-.23-.43A1.79,1.79,0,0,1,31.73,62.81Z" fill="#480973"/>
        <path d="M32,62.35l0,.07.23.43a1.77,1.77,0,0,0,.08-.33A1.61,1.61,0,0,1,32,62.35Z" fill="#480973"/>
        <path d="M32,62.31v0a1.61,1.61,0,0,0,.28.17.86.86,0,0,0,0-.16A.14.14,0,0,0,32,62.31Z" fill="#480973"/>
        <path d="M32.16,62.85a1.93,1.93,0,0,1-.19.38c2.53,4.44,7.28,7.34,12.39,8.32l.13-.23a.13.13,0,0,1,.11-.07v-.06a18.87,18.87,0,0,1-11.09-6.3A13.92,13.92,0,0,1,32.16,62.85Z" fill="#480973"/>
        <path d="M33.14,58.87a1.77,1.77,0,0,0,0,.51,2.8,2.8,0,0,0,2.69,2A2.74,2.74,0,0,0,38,60.42a.06.06,0,0,0,0,0,1.2,1.2,0,0,0-.44-1.09C36.75,58.59,34.67,58.41,33.14,58.87Z" fill="#480973"/>
        <path d="M33.15,58.71a.86.86,0,0,0,0,.16c1.53-.46,3.61-.28,4.43.42A1.2,1.2,0,0,1,38,60.38a.06.06,0,0,1,0,0,3.15,3.15,0,0,0,.22-.29c-.06-1.32-1.89-1.74-3.15-1.71A7.78,7.78,0,0,0,33.15,58.71Z" fill="#480973"/>
        <path d="M33.33,64.19a.15.15,0,0,0,.24.14A1.91,1.91,0,0,0,34,62.81h-.31A8.22,8.22,0,0,1,33.33,64.19Z" fill="#480973"/>
        <path d="M33.73,62.73s0,.06,0,.09H34s0-.06,0-.09A.14.14,0,0,0,33.73,62.73Z" fill="#480973"/>
        <path d="M35.28,62.55a.33.33,0,0,1,0,.1l.33-.07c0-.13-.13-.2-.25-.16A.13.13,0,0,0,35.28,62.55Z" fill="#480973"/>
        <path d="M35.61,62.58l-.33.07a11.61,11.61,0,0,1,0,1.18.15.15,0,0,0,.15.15c.27-.08.27-.56.29-.79A2.19,2.19,0,0,0,35.61,62.58Z" fill="#480973"/>
        <path d="M35.83,73.61c0,.24,0,.47,0,.7.09-.2.17-.4.25-.61v-.09a.15.15,0,0,0-.15-.14A.15.15,0,0,0,35.83,73.61Z" fill="#480973"/>
        <path d="M35.86,74.31a5.92,5.92,0,0,0,.13,1c1,3.44,3.81,1.94,6-.25l-.13,0a.13.13,0,0,1-.09-.16.15.15,0,0,1,.17-.11l.3.07a14.41,14.41,0,0,0,2.41-3.24l-.3,0c-1.8,3.08-7.94,9.15-8.25,2.15C36,73.91,36,74.11,35.86,74.31Z" fill="#480973"/>
        <path d="M42,34.52c-.69.13-1.53.77-1.35,1.61s1.23.89,1.86,1l.31,0L44,37.12a.13.13,0,0,1,.15.13.14.14,0,0,1-.13.15h0l1.19.21c.18,0,.23-.25.05-.27l-2.67-.54a4.4,4.4,0,0,1-1.24-.34.64.64,0,0,1-.21-.94c.44-.73,1.53-.7,2.3-.87a23.6,23.6,0,0,1,13,1.78l.15,0a.13.13,0,0,1,.09-.25h0a25.18,25.18,0,0,0-2.52-1A22.66,22.66,0,0,0,42,34.52Z" fill="#480973"/>
        <path d="M41.78,74.88a.13.13,0,0,0,.09.16l.13,0,.25-.25-.3-.07A.15.15,0,0,0,41.78,74.88Z" fill="#480973"/>
        <path d="M42.25,74.84l-.25.25a22.88,22.88,0,0,0,2.29.64c.71.15,1.42.29,2.14.38l.43-.22,0,0-2.43-.56Z" fill="#480973"/>
        <path d="M42.78,37.19,44,37.4h0a.14.14,0,0,0,.13-.15.13.13,0,0,0-.15-.13Z" fill="#480973"/>
        <path d="M44.27,58.86a3,3,0,0,0,2.11-1c1.51-2.77,4.8-1,3.72,1.8a6,6,0,0,1-3.9,3.27c-1.89.57-4.07-1.18-3-3.14A2,2,0,0,1,44.27,58.86Zm5.58.64c.9-2.45-1.89-4-3.17-1.48A2.72,2.72,0,0,1,45,59.11a1.75,1.75,0,0,0-1.45.84A1.69,1.69,0,0,0,43.91,62C45.84,63.67,49,61.44,49.85,59.5Z" fill="#480973"/>
        <path d="M44.49,71.32l-.13.23.3,0a.61.61,0,0,0,.07-.14.14.14,0,0,0-.13-.21A.13.13,0,0,0,44.49,71.32Z" fill="#480973"/>
        <path d="M44.61,71.19v.06a.14.14,0,0,1,.13.21.61.61,0,0,1-.07.14,19.34,19.34,0,0,0,8.64-.38,1.29,1.29,0,0,0,0-.19.14.14,0,0,1,.16-.11.15.15,0,0,1,.11.16v0l.69-.23A20.05,20.05,0,0,0,61.13,67l.06-.37c0-.18.29-.14.28,0a.06.06,0,0,1,0,0,19.74,19.74,0,0,0,1.91-2v-.45A19.89,19.89,0,0,1,44.61,71.19Z" fill="#480973"/>
        <path d="M46.29,60.27a.14.14,0,0,0,.11.26,3.47,3.47,0,0,0,2.26-2.14.14.14,0,0,0-.25-.11A5.34,5.34,0,0,1,46.29,60.27Z" fill="#480973"/>
        <path d="M46.86,75.89l-.43.22.34,0A.14.14,0,0,0,46.86,75.89Z" fill="#480973"/>
        <path d="M58.67,47.84H58.6a.14.14,0,0,0,0,.28,1.38,1.38,0,0,0,.4,0,1.78,1.78,0,0,1,.3.54,2.23,2.23,0,0,1,.07,1l-.12,0a.15.15,0,0,0-.14.25,1.88,1.88,0,0,0,.18.12,4.68,4.68,0,0,1-1,1.72l-.14,0A.15.15,0,0,0,58,52l0,0c-.23.25-.46.49-.68.7a11,11,0,0,1-.92.75c-.11-.07-.19,0-.22.14h0c-1.79,1.22-4.37,2.12-5.36-.21-.77-2.68,3.3-5.91,5.73-6.13A2.7,2.7,0,0,1,58.67,47.84Zm-1.53,4.62c.9-.92,2.14-2.23,1.75-3.62a1.54,1.54,0,0,0-.36-.55,2,2,0,0,0-.17-.4,1.82,1.82,0,0,0-.23-.15,3.18,3.18,0,0,0-2.58,0,7.82,7.82,0,0,0-3.5,2.49.8.8,0,0,0,.05.21h0l-.18.25a2.93,2.93,0,0,0-.77,2.6C52.31,56,55.71,53.79,57.14,52.46Z" fill="#480973"/>
        <path d="M55.78,44.1c.27.91-.83,1.36-1.52,1.23a4.58,4.58,0,0,0-.62,0c-.63.1-1.49.44-2-.21a1.22,1.22,0,0,1-.06-1.39A2.49,2.49,0,0,1,55.78,44.1Zm-1.5.87a1.14,1.14,0,0,0,1-.33c.21-.24.05-.61-.22-.88a2.51,2.51,0,0,0-2.24-.55c-.75.14-1.47,1-.94,1.7S53.38,44.78,54.28,45Z" fill="#480973"/>
        <path d="M52.05,50.24a.8.8,0,0,0,.05.21h0a7.18,7.18,0,0,1,4.56-2.77,2.22,2.22,0,0,1,1.87.6,2,2,0,0,0-.17-.4,1.82,1.82,0,0,0-.23-.15,3.18,3.18,0,0,0-2.58,0A7.82,7.82,0,0,0,52.05,50.24Z" fill="#480973"/>
        <path d="M52.1,50.46a3.14,3.14,0,0,0,3,1.85,3.8,3.8,0,0,0,3.2-1.74,2.79,2.79,0,0,0,.24-2.28,2.22,2.22,0,0,0-1.87-.6A7.18,7.18,0,0,0,52.1,50.46Z" fill="#480973"/>
        <path d="M53.34,71a1.29,1.29,0,0,1,0,.19l.31-.09v0a.15.15,0,0,0-.11-.16A.14.14,0,0,0,53.34,71Z" fill="#480973"/>
        <path d="M55.87,37.34a.17.17,0,0,0,0,.19,1.13,1.13,0,0,1,.1.13l.11-.12a.15.15,0,0,0,0-.19l0,0a.17.17,0,0,0-.15,0Z" fill="#480973"/>
        <path d="M56.07,37.54l-.11.12a35.47,35.47,0,0,1,7.59,20.1c.08,2.14-.13,4.36-.18,6.56l.08-.09c.14-.14.31,0,.22.18l-.3.36a15.71,15.71,0,0,0,1.45,7.59c.82,1.91,2.07,2.56,3.29,2.22a4.43,4.43,0,0,0,2.45-2.24,11.81,11.81,0,0,0,1.54-4.4,3.62,3.62,0,0,1-.13-.79.14.14,0,0,1,.12-.15.11.11,0,0,1,.12,0c.05-.63.07-1.26.06-1.88a39.94,39.94,0,0,0-1.09-7.31c0-.17-.32-.12-.28.06,1,4.66,1.94,9.93-.66,14.22-1.49,2.58-3.76,3.1-5.06,0-2.3-4.51-1-9.59-1.22-14.44a35.33,35.33,0,0,0-7.88-20.39A.15.15,0,0,1,56.07,37.54Z" fill="#480973"/>
        <path d="M56.25,53.62h0l.22-.15C56.36,53.41,56.28,53.44,56.25,53.62Z" fill="#480973"/>
        <path d="M56.47,53.48l-.22.15a2.13,2.13,0,0,0,.52.94.15.15,0,0,0,.21,0C57.13,54.42,56.73,53.64,56.47,53.48Z" fill="#480973"/>
        <path d="M56.65,36.23a.13.13,0,0,0-.09.25l0,0h0a.14.14,0,0,0,.12-.08.14.14,0,0,0-.07-.18h0Z" fill="#480973"/>
        <path d="M56.67,36.23h0a.14.14,0,0,1,.07.18.14.14,0,0,1-.12.08A30.08,30.08,0,0,1,74.32,46.58c1.72,2.1,3.5,4.4,4,7.14a6.16,6.16,0,0,1-.52,3.83s0,0,0,0,.09.2.13.29,0,0,0,0a6.31,6.31,0,0,0,.68-4.15c-.47-2.84-2.25-5.18-4-7.36a30,30,0,0,0-13.89-9.16A31.28,31.28,0,0,0,56.67,36.23Z" fill="#480973"/>
        <path d="M58.14,51.74A.15.15,0,0,0,58,52l0,0,.21-.25Z" fill="#480973"/>
        <path d="M58.28,51.78l-.21.25a3.91,3.91,0,0,0,1.35.6.13.13,0,0,0,.17-.11.17.17,0,0,0-.05-.15A4.27,4.27,0,0,0,58.28,51.78Z" fill="#480973"/>
        <path d="M58.6,47.85a.14.14,0,0,0,0,.28,1.38,1.38,0,0,0,.4,0,2.34,2.34,0,0,0-.31-.32Z" fill="#480973"/>
        <path d="M58.67,47.84a2.34,2.34,0,0,1,.31.32,1.85,1.85,0,0,0,1.5-.81.16.16,0,0,0,0-.2.15.15,0,0,0-.17,0A3.06,3.06,0,0,1,58.67,47.84Z" fill="#480973"/>
        <path d="M59.23,49.69a.15.15,0,0,0-.14.25,1.88,1.88,0,0,0,.18.12,1.87,1.87,0,0,0,.08-.34Z" fill="#480973"/>
        <path d="M59.35,49.72a1.87,1.87,0,0,1-.08.34,1.48,1.48,0,0,0,1.44,0,.14.14,0,0,0-.09-.26A3.39,3.39,0,0,1,59.35,49.72Z" fill="#480973"/>
        <path d="M61.19,66.66l-.06.37.33-.29a.06.06,0,0,0,0,0C61.48,66.52,61.21,66.48,61.19,66.66Z" fill="#480973"/>
        <path d="M63.37,64.77l.3-.36c.09-.15-.08-.32-.22-.18l-.08.09Z" fill="#480973"/>
        <path d="M66.92,75.27a.15.15,0,0,0,0,.27.12.12,0,0,0,.1,0,3.59,3.59,0,0,0,.41-.11L67,75.26Z" fill="#480973"/>
        <path d="M72.09,67a.14.14,0,0,0-.12.15,3.62,3.62,0,0,0,.13.79c.05-.3.08-.59.11-.89A.11.11,0,0,0,72.09,67Z" fill="#480973"/>
        <path d="M72.21,67.05c0,.3-.06.59-.11.89.38,1.37,1.55,2.65,3.08,2.36A4.82,4.82,0,0,0,78.64,67c1.1-3,.51-6.32-.72-9.17a.14.14,0,0,1-.15,0,.14.14,0,0,1,0-.19l.06-.13a28.51,28.51,0,0,0-3.52-5.34c-.11-.13-.33,0-.22.17,3.18,4,6,9.32,4.22,14.51-.6,1.78-2.6,3.85-4.56,2.79a3.39,3.39,0,0,1-1.45-2.55A.12.12,0,0,0,72.21,67.05Z" fill="#480973"/>
        <path d="M77.72,57.68a.14.14,0,0,0,0,.19.14.14,0,0,0,.15,0c0-.09-.08-.2-.13-.29s0,0,0,0Z" fill="#480973"/>
        <path d="M55.54,50a1,1,0,0,1-.87-.55c-.15-.45.25-.89.66-1.13.6-.33,2.52-.9,2.41.28C57.65,49.52,56.29,50.1,55.54,50Z" fill="#fff"/>
        <path d="M35.2,60A.7.7,0,0,1,35,59.2c.34-1,2.85-.38,2.1.61A1.4,1.4,0,0,1,35.2,60Z" fill="#fff"/>
        <path d="M52.32,76.39a.83.83,0,0,0-.07.32.34.34,0,0,0,0,.14,46.25,46.25,0,0,1-5.83-.74l-.21-.36C48.28,76.07,50.32,76.28,52.32,76.39Z" fill="#480973"/>
        <path d="M57.69,76.45a54,54,0,0,0,9.46-1.17l-.16.26a52.86,52.86,0,0,1-9.77,1.36A2.22,2.22,0,0,0,57.69,76.45Z" fill="#480973"/>
        <path d="M57.69,76.45a45.41,45.41,0,0,1-5.37-.06l-.23.44c1.79.11,3.59.14,5.42.08Z" fill="#480973"/>
      </g>
    </g>
  </g>
</svg>
