<svg id="ea40437c-ace9-4f82-be03-ade0342d2920" data-name="layer 1" xmlns="http://www.w3.org/2000/svg" viewBox="0 0 100 100">
  <title>profile_15</title>
  <g>
    <circle cx="49.77" cy="50" r="37.61" transform="translate(-18.69 32.95) rotate(-31.15)" fill="#ffc919"/>
    <path d="M60.73,22.75C44.32,20,25.62,25.59,15.53,39.31c-6.24,8.49-6.71,20,.34,28.13a32.58,32.58,0,0,0,16.73,10l.41.12a54.15,54.15,0,0,0,9.47,1.34v0c1.77.06,3.52,0,5.25-.07h0a46.25,46.25,0,0,0,5.83-.74c.72-.09,1.43-.23,2.14-.38A22.88,22.88,0,0,0,58,77.11c2.2,2.19,5,3.7,6,.25a5.93,5.93,0,0,0,.13-1,12.31,12.31,0,0,0,3.4,4.48c2.46,1.78,4.67-.56,5.13-3a19.34,19.34,0,0,0,.63-6A1.71,1.71,0,0,0,75,72c1.75-.85,1.69-3.14,1.94-4.8,0-.17,0-.34,0-.51,4.86-4.57,8.61-10.65,9.17-17.4C87.49,34.61,74,24.86,60.73,22.75Z" fill="#480973"/>
    <g>
      <g>
        <path d="M81.81,61.52c-.56.62-1.14,1.22-1.75,1.79a24.51,24.51,0,0,0-6.75-18.26,2.07,2.07,0,0,0,1.18-2.5c-1-3.29-6.75-4.77-9.75-5.61a30,30,0,0,0-4.5-.74l.3-.05c.64-.13,1.66-.19,1.86-1s-.65-1.48-1.35-1.62a22.77,22.77,0,0,0-12.19.68,25.18,25.18,0,0,0-2.52,1,31.51,31.51,0,0,0-4.07.92,29.85,29.85,0,0,0-13.89,9.16c-1.75,2.18-3.54,4.52-4,7.35a6.34,6.34,0,0,0,.68,4.16.1.1,0,0,0,.05,0c-1.23,2.85-1.82,6.19-.72,9.17a4.79,4.79,0,0,0,3.46,3.26c1.53.3,2.69-1,3.07-2.35a12,12,0,0,0,1.54,4.4,4.45,4.45,0,0,0,2.46,2.24c1.22.34,2.46-.32,3.28-2.22a15.72,15.72,0,0,0,1.46-7.59,18.6,18.6,0,0,0,1.9,2,23,23,0,0,0,1.75,6.6,27.93,27.93,0,0,0-7.25,1.92l-1.25-.35a32,32,0,0,1-15.67-9.7,20.72,20.72,0,0,1-3.68-6.14,22.74,22.74,0,0,1,3.4-21.57C28.87,23,47.43,17.44,63.68,20.12c9.7,1.65,19.7,7,23.69,16.39C91.11,45.22,87.91,54.79,81.81,61.52Z" fill="#ec2872"/>
        <path d="M60.77,73.84c-.72.15-1.43.32-2.13.48l-2.44.56,0,0c-2-1-4-2-6.07-2.92-.13-.58-.27-1.17-.38-1.76a19.36,19.36,0,0,0,8.64.39A14.7,14.7,0,0,0,60.77,73.84Z" fill="#ec2872"/>
      </g>
      <path d="M36,74.27a43.56,43.56,0,0,0,11.8,1.42c.85,0,1.69,0,2.54-.09,1.34-.07,2.68-.16,4-.32.71-.08,1.43-.29,2.13-.35a18.73,18.73,0,0,0-.82-3.52,10.87,10.87,0,0,0-6.35-7.22,32.41,32.41,0,0,0-6.1-2,6,6,0,0,0-3.87-.06,5.37,5.37,0,0,0-2.48,3.23,19.66,19.66,0,0,0-1.13,4.73,21.72,21.72,0,0,0-.13,2.43,6.1,6.1,0,0,0,0,1.21A1.46,1.46,0,0,0,36,74.27Z" fill="#a80a64"/>
      <path d="M79.21,57.28a26.92,26.92,0,0,1,.46,6.43c-.11,2.35-.59,4.51-1.76,5a1.4,1.4,0,0,1-1.49-.13.14.14,0,0,0-.13,0,18.64,18.64,0,0,0-.69-3.91.14.14,0,0,0-.27.07,19.85,19.85,0,0,1,.57,6.69c-.29,2.07-.49,4.69-2.2,6.08a2.37,2.37,0,0,1-2.92,0,13.65,13.65,0,0,1-4.58-8.69.14.14,0,1,0-.27,0,14.6,14.6,0,0,0,1,3.89c-.31,7-6.45.93-8.25-2.16a18,18,0,0,0,12.4-8.31,1.53,1.53,0,0,0,.9.66.14.14,0,0,0,.16,0,.16.16,0,0,0,0-.2,2.6,2.6,0,0,1-.79-.83c.2-.39.39-.79.56-1.2a1.58,1.58,0,0,0,1.48.68.14.14,0,0,0,.12-.11.13.13,0,0,0-.1-.17A2.77,2.77,0,0,1,72,60.27,12.62,12.62,0,0,0,72.41,59a14.9,14.9,0,0,0,.49-2.9h0a1.1,1.1,0,0,0,0-.86,15.73,15.73,0,0,0-.09-1.82l.31,0c2.3.1,2.66-2.57,1.83-4.2a15.19,15.19,0,0,0-2.8-4,2.58,2.58,0,0,0,.83-.09,24.54,24.54,0,0,1,6.2,12.13Z" fill="#7229ab"/>
      <path d="M74.65,49.4c.72,1.4.5,3.78-1.49,3.67-1.44-.1-3.39-1.36-4.73-1.93A82.33,82.33,0,0,1,47.14,36.35h0a.16.16,0,0,0-.15,0l-.38-.89a24.22,24.22,0,0,1,5-1.57,23.72,23.72,0,0,1,8.06-.2c.77.17,1.85.14,2.3.87a.65.65,0,0,1-.22.94,4.09,4.09,0,0,1-1.24.33l-2.67.54a.14.14,0,0,0,0,.28l1.2-.21a32.65,32.65,0,0,1,11,2.77c1.63.73,3.55,1.67,4.12,3.47a1.7,1.7,0,0,1-1,2.11,4.35,4.35,0,0,1-2.7-.17.14.14,0,0,0-.08.27,9.46,9.46,0,0,0,1.44.35A15.16,15.16,0,0,1,74.65,49.4Z" fill="#7229ab"/>
      <path d="M71.54,56.4c-.41-.22-.41-.61-.73-.86-.57-.4-1.35-1.25-.76-2s2,.1,2.58,1.09c0-.43,0-.84-.08-1.26a27.21,27.21,0,0,1-4.29-1.86,77.83,77.83,0,0,1-13.4-8.13,74.37,74.37,0,0,1-7.8-6.71,35.51,35.51,0,0,0-7.6,20.11c-.07,2.14.13,4.36.18,6.56A19.9,19.9,0,0,0,58.4,70.2a19.09,19.09,0,0,0,7.86-3.32,18.55,18.55,0,0,0,2.95-2.67c.11-.11.19-.21.28-.31a13.92,13.92,0,0,0,1.36-2,1.87,1.87,0,0,1-.08-.34,3.64,3.64,0,0,1-1.47.31,8.35,8.35,0,0,0,.38,1.36.15.15,0,0,1-.09.18.16.16,0,0,1-.15,0A1.9,1.9,0,0,1,69,61.82a7.62,7.62,0,0,1-1.26-.16c0,.41,0,.77,0,1.18a.15.15,0,0,1-.15.14c-.26-.08-.27-.55-.29-.78a2.64,2.64,0,0,1,.11-.61,9,9,0,0,1-1.55-.54c-1.81-.92-1.69-3.12.45-3.62,1.67-.45,5.32-.13,5.63,1.91a13.89,13.89,0,0,0,.62-2.93,1.61,1.61,0,0,1-.37.12A1.44,1.44,0,0,1,71.54,56.4ZM47.24,43.1a2.49,2.49,0,0,1,4.16-.39,1.22,1.22,0,0,1-.07,1.39c-.47.65-1.33.31-2,.21a3.38,3.38,0,0,0-.62,0C48.06,44.47,47,44,47.24,43.1Zm4.89,9.32c-1,2.34-3.58,1.43-5.37.21a2.05,2.05,0,0,1-.51.95.15.15,0,0,1-.21,0c-.15-.15.25-.92.51-1.08a8.46,8.46,0,0,1-.92-.75c-.23-.22-.45-.46-.68-.71a3.88,3.88,0,0,1-1.36.61.14.14,0,0,1-.16-.12.15.15,0,0,1,0-.14,3.88,3.88,0,0,1,1.25-.59,4.68,4.68,0,0,1-1-1.72,1.46,1.46,0,0,1-1.43,0,.15.15,0,0,1,.08-.27,3.42,3.42,0,0,0,1.28-.1,2.37,2.37,0,0,1,.06-1,1.81,1.81,0,0,1,.31-.54,1.89,1.89,0,0,1-1.5-.81.14.14,0,0,1,0-.2.13.13,0,0,1,.16,0,3.21,3.21,0,0,0,1.61.68,2.65,2.65,0,0,1,2-.55C48.82,46.52,52.89,49.75,52.13,52.42Zm4.68,9.46a6,6,0,0,1-3.9-3.27c-1.07-2.78,2.21-4.56,3.73-1.8a2.91,2.91,0,0,0,2.1,1.06,1.93,1.93,0,0,1,1.09.87C60.89,60.7,58.7,62.46,56.81,61.88Z" fill="#ffc919"/>
      <path d="M70.26,53.72c1.08-1.07,3.66,2.9,1.47,2.32-.25-.15-.42-.61-.7-.77C70.5,54.91,69.84,54.35,70.26,53.72Z" fill="#7229ab"/>
      <path d="M69.87,57.88c1.17.34,2,1,1.76,2.21-.37,1.55-2.28,1.51-3.56,1.27s-2.79-.58-3.06-1.93a2.79,2.79,0,0,0,2.12,1,2.82,2.82,0,0,0,2.7-2A1.76,1.76,0,0,0,69.87,57.88Z" fill="#ffefd4"/>
      <path d="M59.47,59A1.71,1.71,0,0,1,59.11,61c-1.93,1.64-5.09-.59-5.94-2.53-.9-2.45,1.88-3.95,3.16-1.48A2.73,2.73,0,0,0,58,58.11,1.81,1.81,0,0,1,59.47,59Zm-2.69.5a.13.13,0,0,0-.06-.18,5.32,5.32,0,0,1-2.11-2c-.08-.15-.32,0-.25.11a3.45,3.45,0,0,0,2.26,2.14A.13.13,0,0,0,56.78,59.46Z" fill="#ec2872"/>
      <path d="M51.09,49.72a2.93,2.93,0,0,1,.77,2.6c-1.16,2.66-4.55.47-6-.85-.91-.93-2.15-2.24-1.76-3.62a1.69,1.69,0,0,1,.36-.55,2.83,2.83,0,0,0,.24,2.28,3.8,3.8,0,0,0,3.2,1.73,3.13,3.13,0,0,0,3-1.84A2.27,2.27,0,0,1,51.09,49.72Z" fill="#ffefd4"/>
      <path d="M50.18,42.22c.74.13,1.46,1,.94,1.7s-1.48-.14-2.39.06a1.14,1.14,0,0,1-1-.33c-.21-.24-.05-.61.22-.88A2.53,2.53,0,0,1,50.18,42.22Z" fill="#7229ab"/>
      <path d="M46.6,35.43l.38.89,0,0a35.32,35.32,0,0,0-7.87,20.39c-.21,4.84,1.07,9.93-1.23,14.44-1.3,3.06-3.57,2.54-5.06,0-2.6-4.29-1.64-9.56-.66-14.22a.14.14,0,0,0-.27-.06,38.29,38.29,0,0,0-1.09,7.31,16.68,16.68,0,0,0,.05,1.87.18.18,0,0,0,0,.09,3.39,3.39,0,0,1-1.45,2.55c-2,1.06-4-1-4.56-2.8C23,60.71,25.79,55.4,29,51.39c.1-.14-.12-.3-.23-.17a29,29,0,0,0-3.52,5.34,6.08,6.08,0,0,1-.51-3.83c.47-2.74,2.25-5,4-7.15A30.09,30.09,0,0,1,46.38,35.51h0l.05,0Z" fill="#7229ab"/>
      <path d="M58.35,70.61a14.7,14.7,0,0,0,2.42,3.23c-.72.15-1.43.32-2.13.48l-2.44.56,0,0c-2-1-4-2-6.07-2.92-.13-.58-.27-1.17-.38-1.76A19.36,19.36,0,0,0,58.35,70.61Z" fill="#a80a64"/>
      <path d="M81.81,61.52c-.56.62-1.14,1.22-1.75,1.79a24.51,24.51,0,0,0-6.75-18.26,2.07,2.07,0,0,0,1.18-2.5c-1-3.29-6.75-4.77-9.75-5.61a30,30,0,0,0-4.5-.74l.3-.05c.64-.13,1.66-.19,1.86-1s-.65-1.48-1.35-1.62a22.77,22.77,0,0,0-12.19.68,25.18,25.18,0,0,0-2.52,1,31.51,31.51,0,0,0-4.07.92,29.85,29.85,0,0,0-13.89,9.16c-1.75,2.18-3.54,4.52-4,7.35a6.34,6.34,0,0,0,.68,4.16.1.1,0,0,0,.05,0c-1.23,2.85-1.82,6.19-.72,9.17a4.79,4.79,0,0,0,3.46,3.26c1.53.3,2.69-1,3.07-2.35a12,12,0,0,0,1.54,4.4,4.45,4.45,0,0,0,2.46,2.24c1.22.34,2.46-.32,3.28-2.22a15.72,15.72,0,0,0,1.46-7.59,18.6,18.6,0,0,0,1.9,2,23,23,0,0,0,1.75,6.6,27.93,27.93,0,0,0-7.25,1.92l-1.25-.35a32,32,0,0,1-15.67-9.7,20.72,20.72,0,0,1-3.68-6.14A28.13,28.13,0,0,1,19,46.94a24.22,24.22,0,0,1,4.42-5.57C28.28,36.87,34.57,34,41,32.21c9.89-2.72,21.12-2.41,29.59,3.22A25.84,25.84,0,0,1,82.3,55.5,24.38,24.38,0,0,1,81.81,61.52Z" fill="#a80a64"/>
      <path d="M61.41,38.54a2.85,2.85,0,0,0,.68,1.25,10.84,10.84,0,0,0,4.31,2.86,35.07,35.07,0,0,0,4.21,1.66c1.28.35,4.26.52,3.77-1.66a3.16,3.16,0,0,0-.92-1.46c-2.49-2.56-6.67-4-10.2-4.09a1.87,1.87,0,0,0-1.7.58A1.09,1.09,0,0,0,61.41,38.54Z" fill="#b235db"/>
      <path d="M61.17,34.08a.68.68,0,0,1,.46.36.5.5,0,0,1-.14.5,1.15,1.15,0,0,1-.48.27,3.89,3.89,0,0,1-2.19.07c-.26-.06-.56-.23-.54-.49,0-.45.94-.76,1.3-.84A3,3,0,0,1,61.17,34.08Z" fill="#b235db"/>
      <path d="M74.82,49.66a1.63,1.63,0,0,1,0,1.55c-.91,1.19-3.13.31-4.23-.11a20.13,20.13,0,0,1-5.4-2.86,13,13,0,0,1-1.93-1.86c-.39-.47-1-1.41-.77-2.05s1-.7,1.68-.66a20.57,20.57,0,0,1,4.06.64,13.14,13.14,0,0,1,3.71,1.37A8.32,8.32,0,0,1,74.82,49.66Z" fill="#b235db"/>
      <path d="M77.57,66.68c.05.55.24,1.24.79,1.31s.94-.68,1-1.29a23.88,23.88,0,0,0,.2-7c-.11-1-.8-6.36-1.87-6.39A31,31,0,0,0,77.3,60Q77.27,63.32,77.57,66.68Z" fill="#b235db"/>
      <path d="M75.79,74.37a4.9,4.9,0,0,1-1.6,2.78,1.49,1.49,0,0,1-1.32.32c-.75-.24-1-1.18-1-2a14.73,14.73,0,0,1,.71-5.43,15.62,15.62,0,0,1,1.06-2.45c.31-.56.85-1.85,1.41-2.19.74-.45.67.52.82,1.24a17.91,17.91,0,0,1,.35,3A18.31,18.31,0,0,1,75.79,74.37Z" fill="#b235db"/>
      <path d="M33.77,64.74a10.62,10.62,0,0,0,1,6.11,1.74,1.74,0,0,0,2.46.84c1-.52,1.29-1.5,1.6-2.56a24.94,24.94,0,0,0,.65-7.94c-.06-1.69-.17-3.39-.14-5.08A46.52,46.52,0,0,1,40,51c.4-3.28,2-6.55,3.27-9.59a11.93,11.93,0,0,1-1.52,1.93,41.76,41.76,0,0,0-4.58,7.32,37.3,37.3,0,0,0-2.54,8A44.11,44.11,0,0,0,33.77,64.74Z" fill="#b235db"/>
      <path d="M25.65,66.33c0,1.49.52,2.46,2.1,2.69a2.6,2.6,0,0,0,2-.55,3.07,3.07,0,0,0,.92-1.83,12.15,12.15,0,0,0,.09-2.09,21.66,21.66,0,0,1,.84-6c.11-.39.19-.89-.14-1.11s-.67,0-1,.16A10.61,10.61,0,0,0,25.65,66.33Z" fill="#b235db"/>
      <path d="M45.48,52.91c.08.09.15.19.23.29.47.66,1.42,3.13.23,3.6a1.24,1.24,0,0,1-.69,0,4.62,4.62,0,0,1-3.62-3.38,1.58,1.58,0,0,1,.43-1.72,1.5,1.5,0,0,1,1-.13A4,4,0,0,1,45.48,52.91Z" fill="#ec2872"/>
      <path d="M69.21,64.21a18.55,18.55,0,0,1-2.95,2.67,4.34,4.34,0,0,1-1.81-.65,1.54,1.54,0,0,1-.88-1.54,1.42,1.42,0,0,1,.63-.78,4,4,0,0,1,2.65-.73l.36,0A5.43,5.43,0,0,1,69.21,64.21Z" fill="#ec2872"/>
      <g>
        <path d="M63.74,19.74C77,21.85,90.51,31.59,89.2,46.32c-.57,6.75-4.32,12.83-9.17,17.39l0-.4c7.2-6.75,11.39-17.29,7.31-26.79s-14-14.75-23.69-16.4C47.43,17.44,28.87,23,18.85,36.52c-6.17,8.35-6.66,19.65.28,27.71a32,32,0,0,0,15.67,9.7l1.24.34-.43.17c-6.35-1.68-12.44-4.94-16.73-10-7-8.16-6.58-19.64-.34-28.13C28.63,22.58,47.33,17,63.74,19.74Z" fill="#480973"/>
        <path d="M73.31,45.05a24.6,24.6,0,0,1,6.75,18.26l-.32.3a.1.1,0,0,0,0,.1h0a26.92,26.92,0,0,0-.46-6.43A24.54,24.54,0,0,0,73,45.15l.21-.06Z" fill="#480973"/>
        <path d="M79.74,63.61l.32-.3,0,.4-.1.1a.14.14,0,0,1-.24-.1A.1.1,0,0,1,79.74,63.61Z" fill="#480973"/>
        <path d="M80,63.71c0,.17,0,.34,0,.52-.25,1.66-.2,3.94-1.95,4.8a1.73,1.73,0,0,1-1.73-.14c0-.11,0-.21,0-.31a.14.14,0,0,1,.13,0,1.4,1.4,0,0,0,1.49.13c1.17-.52,1.65-2.68,1.76-5h0a.14.14,0,0,0,.24.1Z" fill="#480973"/>
        <path d="M76.31,68.89a19,19,0,0,1-.62,6c-.47,2.4-2.68,4.74-5.14,3a12.32,12.32,0,0,1-3.39-4.49c0-.23,0-.46,0-.7a.13.13,0,0,0-.13-.14.15.15,0,0,0-.15.14v.09a14.6,14.6,0,0,1-1-3.89.14.14,0,1,1,.27,0,13.65,13.65,0,0,0,4.58,8.69,2.37,2.37,0,0,0,2.92,0c1.71-1.39,1.91-4,2.2-6.08a19.85,19.85,0,0,0-.57-6.69.14.14,0,0,1,.27-.07,18.64,18.64,0,0,1,.69,3.91l-.07,0a.15.15,0,0,0,0,.2Z" fill="#480973"/>
        <path d="M76.29,68.58c0,.1,0,.2,0,.31l-.08-.07a.15.15,0,0,1,0-.2Z" fill="#480973"/>
        <path d="M75,49.26c.83,1.63.47,4.3-1.83,4.2l-.31,0c0-.06,0-.11,0-.16a.13.13,0,0,0-.16-.12.13.13,0,0,0-.12.15.17.17,0,0,1,0,.07,26.43,26.43,0,0,1-4.3-1.86,77.5,77.5,0,0,1-13.39-8.13,75.51,75.51,0,0,1-7.81-6.71l.1-.12a.15.15,0,0,0,0-.19A82.33,82.33,0,0,0,68.43,51.14c1.34.57,3.29,1.83,4.73,1.93,2,.11,2.21-2.27,1.49-3.67a15.16,15.16,0,0,0-2.89-4.19l.42,0h0A15.19,15.19,0,0,1,75,49.26Z" fill="#480973"/>
        <path d="M74.49,42.55a2.07,2.07,0,0,1-1.18,2.5s-.11-.1-.16-.16-.32.08-.2.2l.06.06a2.58,2.58,0,0,1-.83.09h0L71.93,45c-.12-.13-.33.06-.2.19l0,0a9.46,9.46,0,0,1-1.44-.35.14.14,0,0,1,.08-.27,4.35,4.35,0,0,0,2.7.17,1.7,1.7,0,0,0,1-2.11c-.57-1.8-2.49-2.74-4.12-3.47a32.65,32.65,0,0,0-11-2.77l1.17-.21a29.87,29.87,0,0,1,4.51.74C67.74,37.79,73.47,39.26,74.49,42.55Z" fill="#480973"/>
        <path d="M73.34,61a.13.13,0,0,1,.1.17.14.14,0,0,1-.12.11,1.58,1.58,0,0,1-1.48-.68,3.65,3.65,0,0,0,.14-.35A2.77,2.77,0,0,0,73.34,61Z" fill="#480973"/>
        <path d="M73.31,45.05l-.09,0-.21.06L73,45.09c-.12-.12.08-.33.2-.2S73.26,45,73.31,45.05Z" fill="#480973"/>
        <path d="M72.93,55.24a1.1,1.1,0,0,1,0,.86C72.91,55.81,72.93,55.53,72.93,55.24Z" fill="#480973"/>
        <path d="M72.84,53.42a15.73,15.73,0,0,1,.09,1.82,2.21,2.21,0,0,0-.3-.62c0-.42,0-.84-.08-1.26Z" fill="#480973"/>
        <path d="M72.93,55.24c0,.29,0,.57,0,.86h0a.82.82,0,0,1-.35.31,13.41,13.41,0,0,0,.08-1.79A2.21,2.21,0,0,1,72.93,55.24Z" fill="#480973"/>
        <path d="M72.82,53.26c0,.05,0,.1,0,.16l-.29-.06a.17.17,0,0,0,0-.07.13.13,0,0,1,.12-.15A.13.13,0,0,1,72.82,53.26Z" fill="#480973"/>
        <path d="M72.63,54.62a13.41,13.41,0,0,1-.08,1.79,1.61,1.61,0,0,1-.37.12,1.44,1.44,0,0,1-.64-.13c-.41-.22-.41-.6-.73-.85-.57-.41-1.35-1.26-.76-2S72,53.63,72.63,54.62ZM71.73,56c2.19.58-.39-3.39-1.47-2.32-.42.63.24,1.19.77,1.55C71.31,55.43,71.48,55.89,71.73,56Z" fill="#480973"/>
        <path d="M72.55,56.41a.82.82,0,0,0,.35-.31,14.9,14.9,0,0,1-.49,2.9A12.62,12.62,0,0,1,72,60.27l-.06-.07,0,0v0a2,2,0,0,0,0-.81A13.89,13.89,0,0,0,72.55,56.41Z" fill="#480973"/>
        <path d="M71.93,45l.25.26-.42,0,0,0C71.6,45,71.81,44.85,71.93,45Z" fill="#480973"/>
        <path d="M72.07,62.65a.16.16,0,0,1,0,.2.14.14,0,0,1-.16,0,1.53,1.53,0,0,1-.9-.66c.08-.14.16-.28.23-.42A2.6,2.6,0,0,0,72.07,62.65Z" fill="#480973"/>
        <path d="M71.92,60.2l.06.07a3.65,3.65,0,0,1-.14.35.36.36,0,0,1-.07-.1,2.23,2.23,0,0,0,.12-.34Z" fill="#480973"/>
        <path d="M71.93,59.34a2,2,0,0,1,0,.81v0a.14.14,0,0,0-.21.17.91.91,0,0,0,.09.17,2,2,0,0,1-.63.78A12.35,12.35,0,0,0,71.93,59.34Z" fill="#480973"/>
        <path d="M71.68,60.35a.14.14,0,0,1,.21-.17,2.23,2.23,0,0,1-.12.34A.91.91,0,0,1,71.68,60.35Z" fill="#480973"/>
        <path d="M71.77,60.52a.36.36,0,0,0,.07.1c-.17.41-.36.81-.56,1.2a1.66,1.66,0,0,1-.2-.4.67.67,0,0,0,.06-.12A2,2,0,0,0,71.77,60.52Z" fill="#480973"/>
        <path d="M71.93,59.34a12.35,12.35,0,0,1-.79,2l-.08.06s0,0,0,0a.14.14,0,0,0-.28,0c0,.05,0,.1,0,.16a3.64,3.64,0,0,1-1.47.3s0-.06,0-.09a.14.14,0,0,0-.28,0,.29.29,0,0,1,0,.09,6.69,6.69,0,0,1-1.25-.16.34.34,0,0,1,0-.1.13.13,0,0,0-.07-.13c-.13,0-.21,0-.26.16a8.69,8.69,0,0,1-1.55-.54c-1.81-.92-1.7-3.12.45-3.62C68,57,71.62,57.31,71.93,59.34Zm-.3.75c.26-1.16-.59-1.87-1.76-2.21v-.16a7.93,7.93,0,0,0-1.93-.29c-1.25,0-3.09.39-3.15,1.71a3.15,3.15,0,0,0,.22.29c.27,1.35,1.88,1.69,3.06,1.93S71.26,61.64,71.63,60.09Z" fill="#480973"/>
        <path d="M71.28,61.82c-.07.14-.15.28-.23.42a2,2,0,0,1-.2-.38c.08-.14.16-.29.23-.44A1.66,1.66,0,0,0,71.28,61.82Z" fill="#480973"/>
        <path d="M71.06,61.36a.14.14,0,0,0,0,.06c-.07.15-.15.3-.23.44a2,2,0,0,1-.08-.33Z" fill="#480973"/>
        <path d="M71,61.32s0,0,0,0l-.29.17c0-.06,0-.11,0-.16A.14.14,0,0,1,71,61.32Z" fill="#480973"/>
        <path d="M70.85,61.86a2,2,0,0,0,.2.38,18,18,0,0,1-12.4,8.31l-.12-.22a.13.13,0,0,0-.12-.07V70.2a18.87,18.87,0,0,0,11.09-6.3A13.92,13.92,0,0,0,70.85,61.86Z" fill="#480973"/>
        <path d="M69.87,57.88a1.76,1.76,0,0,1,0,.51,2.82,2.82,0,0,1-2.7,2,2.79,2.79,0,0,1-2.12-1v0a1.23,1.23,0,0,1,.45-1.09C66.26,57.6,68.34,57.41,69.87,57.88Z" fill="#480973"/>
        <path d="M69.87,57.72v.16c-1.53-.47-3.61-.28-4.42.42A1.23,1.23,0,0,0,65,59.39v0a3.15,3.15,0,0,1-.22-.29c.06-1.32,1.9-1.74,3.15-1.71A7.93,7.93,0,0,1,69.87,57.72Z" fill="#480973"/>
        <path d="M69.68,63.19a.15.15,0,0,1-.09.18.15.15,0,0,1-.15,0A1.91,1.91,0,0,1,69,61.82h.32A7.24,7.24,0,0,0,69.68,63.19Z" fill="#480973"/>
        <path d="M69.28,61.74s0,.06,0,.09H69a.29.29,0,0,0,0-.09A.14.14,0,0,1,69.28,61.74Z" fill="#480973"/>
        <path d="M67.73,61.56a.34.34,0,0,0,0,.1l-.33-.07c0-.13.13-.2.26-.16A.13.13,0,0,1,67.73,61.56Z" fill="#480973"/>
        <path d="M67.4,61.59l.33.07c0,.41,0,.77,0,1.18a.15.15,0,0,1-.15.14c-.27-.08-.27-.55-.29-.78A2.19,2.19,0,0,1,67.4,61.59Z" fill="#480973"/>
        <path d="M67.18,72.62c0,.24,0,.47,0,.7a6.57,6.57,0,0,1-.26-.61v-.09a.15.15,0,0,1,.15-.14A.13.13,0,0,1,67.18,72.62Z" fill="#480973"/>
        <path d="M67.16,73.32a6.07,6.07,0,0,1-.14,1c-1,3.44-3.81,1.94-6-.25l.14,0a.13.13,0,0,0,.08-.16.14.14,0,0,0-.16-.11l-.31.07a15,15,0,0,1-2.41-3.24c.1,0,.2,0,.3-.06,1.8,3.09,7.94,9.16,8.25,2.16A6.57,6.57,0,0,0,67.16,73.32Z" fill="#480973"/>
        <path d="M61.05,33.53c.69.13,1.53.76,1.35,1.61s-1.23.89-1.86,1l-.31.05-1.18-.07a.14.14,0,0,0-.15.13.15.15,0,0,0,.13.15h0l-1.2.21a.14.14,0,0,1,0-.28l2.67-.54a4.09,4.09,0,0,0,1.24-.33.65.65,0,0,0,.22-.94c-.45-.73-1.53-.7-2.3-.87a23.72,23.72,0,0,0-8.06.2,24.22,24.22,0,0,0-5,1.57l-.14.06a.14.14,0,0,0-.09-.26h0a25.18,25.18,0,0,1,2.52-1A22.67,22.67,0,0,1,61.05,33.53Z" fill="#480973"/>
        <path d="M61.23,73.89a.13.13,0,0,1-.08.16l-.14,0-.25-.25.31-.07A.14.14,0,0,1,61.23,73.89Z" fill="#480973"/>
        <path d="M60.76,73.85l.25.25a20.88,20.88,0,0,1-2.28.63c-.72.16-1.42.3-2.15.39l-.42-.22,0,0,2.43-.56C59.34,74.17,60.05,74,60.76,73.85Z" fill="#480973"/>
        <path d="M60.23,36.2l-1.17.21h0a.15.15,0,0,1-.13-.15.14.14,0,0,1,.15-.13Z" fill="#480973"/>
        <path d="M59.83,58.75c1.05,2-1.13,3.71-3,3.13a6,6,0,0,1-3.9-3.26c-1.08-2.79,2.21-4.57,3.73-1.8a2.94,2.94,0,0,0,2.1,1A1.94,1.94,0,0,1,59.83,58.75ZM59.11,61A1.71,1.71,0,0,0,59.47,59,1.81,1.81,0,0,0,58,58.11,2.73,2.73,0,0,1,56.33,57c-1.28-2.47-4.06-1-3.16,1.48C54,60.45,57.18,62.68,59.11,61Z" fill="#480973"/>
        <path d="M58.53,70.33l.12.22c-.1,0-.2,0-.3.06l-.07-.14a.14.14,0,0,1,.13-.21A.13.13,0,0,1,58.53,70.33Z" fill="#480973"/>
        <path d="M58.4,70.2v.06a.14.14,0,0,0-.13.21l.07.14a19.21,19.21,0,0,1-8.64-.39,1.16,1.16,0,0,0,0-.18.13.13,0,0,0-.15-.11.14.14,0,0,0-.12.16s0,0,0,0l-.69-.23A20.1,20.1,0,0,1,41.88,66c0-.12,0-.24-.05-.37a.14.14,0,0,0-.28,0v0a19.74,19.74,0,0,1-1.91-2v-.45A19.9,19.9,0,0,0,58.4,70.2Z" fill="#480973"/>
        <path d="M56.72,59.28a.13.13,0,0,1,.06.18.13.13,0,0,1-.16.08,3.45,3.45,0,0,1-2.26-2.14c-.07-.15.17-.26.25-.11A5.32,5.32,0,0,0,56.72,59.28Z" fill="#480973"/>
        <path d="M56.16,74.9l.42.22-.33,0A.14.14,0,0,1,56.16,74.9Z" fill="#480973"/>
        <path d="M46.39,46.3c2.43.22,6.5,3.45,5.73,6.12-1,2.34-3.57,1.43-5.36.21h0c0-.18-.11-.21-.21-.14a8.46,8.46,0,0,1-.92-.75c-.23-.22-.45-.45-.68-.71l0,0a.15.15,0,0,0-.12-.26l-.14,0a4.68,4.68,0,0,1-1-1.72.75.75,0,0,0,.18-.13.14.14,0,0,0-.13-.24l-.12,0a2.22,2.22,0,0,1,.06-1,1.81,1.81,0,0,1,.31-.54,1.29,1.29,0,0,0,.39,0,.14.14,0,0,0,0-.28h-.07A2.72,2.72,0,0,1,46.39,46.3Zm5.47,6a2.93,2.93,0,0,0-.77-2.6,2.27,2.27,0,0,0-.18-.25h0a1.6,1.6,0,0,0,0-.21,7.9,7.9,0,0,0-3.51-2.49,3.18,3.18,0,0,0-2.58,0l-.23.14a3,3,0,0,0-.17.41,1.69,1.69,0,0,0-.36.55c-.39,1.38.85,2.69,1.76,3.62C47.31,52.79,50.7,55,51.86,52.32Z" fill="#480973"/>
        <path d="M51.4,42.71a1.22,1.22,0,0,1-.07,1.39c-.47.65-1.33.31-2,.21a3.38,3.38,0,0,0-.62,0c-.69.13-1.79-.32-1.51-1.23A2.49,2.49,0,0,1,51.4,42.71Zm-.28,1.21c.52-.69-.2-1.57-.94-1.7a2.53,2.53,0,0,0-2.25.55c-.27.27-.43.64-.22.88a1.14,1.14,0,0,0,1,.33C49.64,43.78,50.59,44.62,51.12,43.92Z" fill="#480973"/>
        <path d="M51,49.25a1.6,1.6,0,0,1,0,.21h0a7.2,7.2,0,0,0-4.56-2.78,2.28,2.28,0,0,0-1.87.61,3,3,0,0,1,.17-.41l.23-.14a3.18,3.18,0,0,1,2.58,0A7.9,7.9,0,0,1,51,49.25Z" fill="#480973"/>
        <path d="M50.91,49.47a3.13,3.13,0,0,1-3,1.84,3.8,3.8,0,0,1-3.2-1.73,2.83,2.83,0,0,1-.24-2.28,2.28,2.28,0,0,1,1.87-.61A7.2,7.2,0,0,1,50.91,49.47Z" fill="#480973"/>
        <path d="M49.67,70a1.16,1.16,0,0,1,0,.18l-.3-.08s0,0,0,0a.14.14,0,0,1,.12-.16A.13.13,0,0,1,49.67,70Z" fill="#480973"/>
        <path d="M47.14,36.35a.15.15,0,0,1,0,.19l-.1.12-.11-.11a.17.17,0,0,1,0-.19l0,0a.16.16,0,0,1,.15,0Z" fill="#480973"/>
        <path d="M46.94,36.55l.11.11a35.5,35.5,0,0,0-7.59,20.11c-.07,2.14.13,4.36.18,6.56l-.08-.09a.14.14,0,0,0-.22.18l.3.36a15.71,15.71,0,0,1-1.45,7.59c-.82,1.91-2.07,2.56-3.28,2.22a4.41,4.41,0,0,1-2.46-2.24A12,12,0,0,1,30.91,67a3.11,3.11,0,0,0,.13-.79.13.13,0,0,0-.12-.15.13.13,0,0,0-.12,0,16.68,16.68,0,0,1-.05-1.87,38.29,38.29,0,0,1,1.09-7.31.14.14,0,0,1,.27.06c-1,4.66-1.94,9.93.66,14.22,1.49,2.58,3.76,3.1,5.06,0,2.3-4.51,1-9.6,1.23-14.44a35.32,35.32,0,0,1,7.87-20.39A.17.17,0,0,0,46.94,36.55Z" fill="#480973"/>
        <path d="M46.76,52.63h0l-.21-.14C46.65,52.42,46.74,52.45,46.76,52.63Z" fill="#480973"/>
        <path d="M46.55,52.49l.21.14a2.05,2.05,0,0,1-.51.95.15.15,0,0,1-.21,0C45.89,53.43,46.29,52.65,46.55,52.49Z" fill="#480973"/>
        <path d="M46.37,35.23a.14.14,0,0,1,.09.26l-.05,0h0a.13.13,0,0,1-.12-.08.14.14,0,0,1,.07-.18h0Z" fill="#480973"/>
        <path d="M46.34,35.24h0a.14.14,0,0,0-.07.18.13.13,0,0,0,.12.08A30.09,30.09,0,0,0,28.69,45.58c-1.72,2.11-3.5,4.41-4,7.15a6.08,6.08,0,0,0,.51,3.83v0l-.12.29a.1.1,0,0,1-.05,0,6.33,6.33,0,0,1-.68-4.16c.47-2.83,2.25-5.17,4-7.35a29.9,29.9,0,0,1,13.88-9.16A31.66,31.66,0,0,1,46.34,35.24Z" fill="#480973"/>
        <path d="M44.87,50.75A.15.15,0,0,1,45,51l0,0-.22-.24Z" fill="#480973"/>
        <path d="M44.73,50.79,45,51a3.88,3.88,0,0,1-1.36.61.14.14,0,0,1-.16-.12.16.16,0,0,1,0-.14A3.88,3.88,0,0,1,44.73,50.79Z" fill="#480973"/>
        <path d="M44.41,46.86a.14.14,0,0,1,0,.28,1.29,1.29,0,0,1-.39,0,2.27,2.27,0,0,1,.3-.32Z" fill="#480973"/>
        <path d="M44.34,46.85a2.27,2.27,0,0,0-.3.32,1.86,1.86,0,0,1-1.5-.81.14.14,0,0,1,0-.2.13.13,0,0,1,.16,0A3.13,3.13,0,0,0,44.34,46.85Z" fill="#480973"/>
        <path d="M43.79,48.7a.14.14,0,0,1,.13.24.75.75,0,0,1-.18.13,1.86,1.86,0,0,1-.07-.34Z" fill="#480973"/>
        <path d="M43.67,48.73a1.86,1.86,0,0,0,.07.34,1.48,1.48,0,0,1-1.44,0,.14.14,0,0,1,.09-.26A3.46,3.46,0,0,0,43.67,48.73Z" fill="#480973"/>
        <path d="M41.83,65.67c0,.13,0,.25.05.37l-.33-.29v0A.14.14,0,0,1,41.83,65.67Z" fill="#480973"/>
        <path d="M39.64,63.78l-.3-.36a.14.14,0,0,1,.22-.18l.08.09Z" fill="#480973"/>
        <path d="M36.1,74.28c.14,0,.12.22,0,.27a.14.14,0,0,1-.09,0l-.42-.11.43-.17Z" fill="#480973"/>
        <path d="M30.92,66a.13.13,0,0,1,.12.15,3.11,3.11,0,0,1-.13.79c0-.3-.08-.59-.11-.9A.13.13,0,0,1,30.92,66Z" fill="#480973"/>
        <path d="M30.8,66.05c0,.31.07.6.11.9-.38,1.37-1.55,2.65-3.07,2.36A4.83,4.83,0,0,1,24.37,66c-1.1-3-.5-6.32.73-9.17a.14.14,0,0,0,.15,0,.14.14,0,0,0,.05-.19l-.07-.13a29,29,0,0,1,3.52-5.34c.11-.13.33,0,.23.17-3.19,4-6,9.32-4.23,14.5.6,1.79,2.6,3.86,4.56,2.8a3.39,3.39,0,0,0,1.45-2.55A.18.18,0,0,1,30.8,66.05Z" fill="#480973"/>
        <path d="M25.3,56.69a.14.14,0,0,1-.05.19.14.14,0,0,1-.15,0l.12-.29v0Z" fill="#480973"/>
        <path d="M47.47,49a1,1,0,0,0,.87-.55c.16-.45-.24-.9-.66-1.13-.6-.33-2.52-.9-2.4.28C45.36,48.53,46.72,49.11,47.47,49Z" fill="#fff"/>
        <path d="M67.82,59A.75.75,0,0,0,68,58.2c-.34-1-2.86-.37-2.1.62A1.4,1.4,0,0,0,67.82,59Z" fill="#fff"/>
        <path d="M50.69,75.4a.84.84,0,0,1,.08.31.77.77,0,0,1,0,.15,46.25,46.25,0,0,0,5.83-.74l.21-.36Q53.7,75.24,50.69,75.4Z" fill="#480973"/>
        <path d="M45.32,75.46a52.85,52.85,0,0,1-9.45-1.18l.16.27a52.75,52.75,0,0,0,9.76,1.36A2.49,2.49,0,0,1,45.32,75.46Z" fill="#480973"/>
        <path d="M45.32,75.46a45.39,45.39,0,0,0,5.37-.06l.23.44c-1.78.11-3.59.13-5.41.08Z" fill="#480973"/>
      </g>
    </g>
  </g>
</svg>
