<svg id="b31ff4c6-a6bc-45a6-aeee-a40833100f10" data-name="layer 1" xmlns="http://www.w3.org/2000/svg" viewBox="0 0 100 100">
  <title>profile_14</title>
  <g>
    <circle cx="50" cy="50" r="37.61" transform="translate(-18.98 65.54) rotate(-57.7)" fill="#ffc919"/>
    <path d="M40,22c-1.49-.23-3.59-.24-4.35,1.36-5.14-1.38-8.46,4.45-10,8.54-3.23,9.09-2.19,19-1.45,28.43.27,2.51.57,5,.93,7.53h0s0,0,0,0c.34,2.38.91,5,2.91,6.59,2.19,1.17,4.75,1.15,7.16,1.39a120.42,120.42,0,0,0,35.91-3.79A28.17,28.17,0,0,0,74.61,71a2.76,2.76,0,0,0,1-1.63A10.18,10.18,0,0,0,75.89,68h0c0-.11,0-.22,0-.32s0-.11,0-.16v0a126.4,126.4,0,0,0,.85-13.18c.16-4.76-.13-10.09-3.73-13.64C65.19,32.78,51.26,23.21,40,22Z" fill="#480973"/>
    <g>
      <path d="M27.58,57.29c.21,2.85.77,5.68,1.08,8.52a7.36,7.36,0,0,0,.57,3.06,6.13,6.13,0,0,0,2.44,2.43,14.18,14.18,0,0,0,6.46,1.31,125.4,125.4,0,0,0,33.93-3.47,2.27,2.27,0,0,0,.25-.06,14.36,14.36,0,0,0,2.78-.42,6,6,0,0,0,2.47-1.14c1-.91,1-2,1.11-3.26.17-1.45.3-2.89.41-4.34.22-2.86.3-5.72.38-8.59.13-4.69-.12-9.87-3.67-13.36-.49-.49-1-1-1.54-1.5-8-7.51-20.82-15.87-31.3-17a4.62,4.62,0,0,0-3.33.43,1.53,1.53,0,0,0-.39.41.78.78,0,0,0-.1.15.61.61,0,0,0-.07.14l-.06.13s0,0,0,.06a4.14,4.14,0,0,0-.34,1.05c-.5,3,2.85,5.74,4.89,7.78A6.52,6.52,0,0,1,47,31.2a6.43,6.43,0,0,1,1.9,2.55A54.49,54.49,0,0,0,63.72,40s.05,0,.07,0a7,7,0,0,1,3.9-.59A6.24,6.24,0,0,1,70,40.2a6.88,6.88,0,0,1,3.52,6.94,58.25,58.25,0,0,1-.36,7.92c-.11.89-.24,1.78-.43,2.67a.18.18,0,0,1-.18.13.17.17,0,0,1-.13-.19c.1-.73.17-1.45.25-2.17-3,1.85-6.64,1.66-10,1.43-2.83-.35-5.68-.83-8.48-1.46a9,9,0,0,0-2.71-.92,51.7,51.7,0,0,1-17.38-7.4c.11,2.23.35,4.45.6,6.6,0,.2-.29.24-.32,0-1-6.86-1.74-14.73,2.37-20.74V33A5.56,5.56,0,0,1,39,30.6a6.69,6.69,0,0,1,3.93-1c-2.2-1.92-5.16-4.68-4.77-7.55a4,4,0,0,1,.37-1.2c-3.45-1.09-6.51,2.17-8,5a27.21,27.21,0,0,0-1.84,4.32C25.88,38.67,26.94,48.5,27.58,57.29ZM50.46,29.93a.79.79,0,0,1-1.23.5c-.36-.22-.5-.67-.7-1A3.56,3.56,0,0,0,46,27.7a14.19,14.19,0,0,0-2.23.1c-.3,0-.79-.09-.86-.46-.15-1.23,2.58-1.41,3.42-1.22a5.59,5.59,0,0,1,4,3.14A1.11,1.11,0,0,1,50.46,29.93ZM73.33,40.48A15.66,15.66,0,0,0,72.1,38.6a3.66,3.66,0,0,0-2.91-1.08,2.65,2.65,0,0,1-1.22,0,.74.74,0,0,1-.51-.53c-.24-.85.78-1.11,1.4-1.12A5.57,5.57,0,0,1,73,37.24l.2.17c.65.57,2.11,2.9,1,3.49C73.86,41.06,73.46,40.73,73.33,40.48Z" fill="#227fc7"/>
      <path d="M38.23,23.76a5.1,5.1,0,0,1-.88,2.11,15.06,15.06,0,0,1-2.63,2.54l-3.91,3.18c-.55.45-1.31.91-1.9.52s-.48-1.08-.37-1.67a15.38,15.38,0,0,1,4.52-8.25,6.64,6.64,0,0,1,3.52-1.79,2.39,2.39,0,0,1,1.45.18c.74.4.71,1.05.52,1.74C38.41,22.83,38.32,23.31,38.23,23.76Z" fill="#2fb5eb"/>
      <path d="M39.69,19.93a2.74,2.74,0,0,0-.58,2.67A5.76,5.76,0,0,0,41.25,25c10.34,7.76,22.31,13,34.31,17.84.23.09.12,3,.12,3.35,0,1.13,0,2.25,0,3.37-.05,2.24-.17,4.48-.38,6.71a43,43,0,0,1-.77,6.39c-.17,1.1-.36,2.19-.58,3.28S73.39,68,73.28,69A10.6,10.6,0,0,0,76,68.39a4.85,4.85,0,0,0,1.53-.56,2.62,2.62,0,0,0,1-2.07c.07-1.58.33-3.17.46-4.75.28-3.23.38-6.45.47-9.68.13-4.69-.12-9.87-3.67-13.36-.49-.49-1-1-1.54-1.49-8-7.52-20.82-15.87-31.3-17-1-.14-2.26-.39-3.08.29Z" fill="#2fb5eb"/>
      <path d="M37.21,34.12a19.56,19.56,0,0,0,3.33,2.63c1.48,1,7.27,3.6,8.57,1.8a6.61,6.61,0,0,0,0-4.28,43.33,43.33,0,0,0,14.26,6A6.43,6.43,0,0,0,62,41.35c-.58.63-1.42,1.43-1.42,2.34a2.42,2.42,0,0,0,1,1.38,15.1,15.1,0,0,0,3.72,2,18.77,18.77,0,0,0,6.19,1.26,2.59,2.59,0,0,0,1.71-.3c-.1,2.36-.22,4.72-.45,7.08a.17.17,0,0,0-.11,0c-5.27,3.11-14.19.69-19.88-.57l-.19-.05a71.31,71.31,0,0,1-7.93-2.47A50.12,50.12,0,0,1,34.1,46.75c-.17-4.61.32-9.24,2.73-13.21A1.83,1.83,0,0,0,37.21,34.12Zm.89,2.17c-.25.07-2.53,1.38-1.59,1.45C36.75,37.68,39,36.34,38.1,36.29ZM40.61,38c-.2.17-1.76,2.33-.88,2C39.93,39.87,41.48,37.68,40.61,38Zm3.21,1.51c-.11.23-.65,2.86,0,2.2C44,41.51,44.47,38.84,43.82,39.53Zm8.25,8.38c1.42.05,3.61-.2,3.68-2s-1.35-2.76-3.13-2.43c-1.14.12-1.32-1.08-2.08-1.67a2.28,2.28,0,0,0-2.94.05,2.49,2.49,0,0,0-.42,2.95A5.55,5.55,0,0,0,52.07,47.91Zm11.36-.39c-.2.16-1.92,2.21-1,1.95C62.62,49.33,64.34,47.22,63.43,47.52Zm3.3,1.26c-.12.23-.84,2.79-.12,2.18C66.74,50.75,67.44,48.14,66.73,48.78Zm3,.62c0,.26.38,2.85.79,2C70.55,51.16,70.12,48.55,69.74,49.4Z" fill="#ffe226"/>
      <path d="M37.72,32.3c-.47.55-.75.92-.16,1.5A20.06,20.06,0,0,0,40.29,36l.08-.13-.19-.14c-1.27-1.1-1.2-3.28-.69-4.91A6.3,6.3,0,0,0,37.72,32.3Z" fill="#ffefd4"/>
      <path d="M40.37,35.87l-.08.13a16.17,16.17,0,0,0,6.23,2.61c.88.09,2.19.44,2.36-.71a6.58,6.58,0,0,0-2-6.39,6.34,6.34,0,0,1-1.36,3,5,5,0,0,1-3.26,1.79A2.88,2.88,0,0,1,40.37,35.87Z" fill="#ffefd4"/>
      <path d="M43.2,27.1c-.11.3.22.4.51.38A14,14,0,0,1,46,27.34a4.08,4.08,0,0,1,3.18,2.36c.14.39.73.64.83.17a5.05,5.05,0,0,0-3.79-3.34A3.68,3.68,0,0,0,43.2,27.1Z" fill="#227fc7"/>
      <path d="M50.31,42.07a6,6,0,0,1,.9,1.1,1.6,1.6,0,0,0,1.43.61c.93-.1,1.92-.13,2.42.79a1.87,1.87,0,0,1-.27,2.4,5.65,5.65,0,0,1-5.35-.34,4.07,4.07,0,0,1-2.12-3.34A1.85,1.85,0,0,1,50.31,42.07Zm-1.39,1.45s0,0,0,0a4,4,0,0,0,4.6,2.28c.18,0,.12-.34-.08-.31a4.31,4.31,0,0,1-4.24-2.12s0,0,0,0a1.33,1.33,0,0,1,.63-.14.16.16,0,0,0,.08-.31,1.29,1.29,0,0,0-1.69.88.17.17,0,0,0,.29.14A2.09,2.09,0,0,1,48.92,43.52Z" fill="#2fb5eb"/>
      <path d="M61,43.27c-.32.56.33,1.12.74,1.48a14.7,14.7,0,0,0,3.58,2,18.19,18.19,0,0,0,7.08,1.11c.31-.06.53-.2.58-.47a6.36,6.36,0,0,0-2.8-6.5A5,5,0,0,1,69.4,44a4.89,4.89,0,0,1-2.9,2.06,3,3,0,0,1-2.16-.17c-1.55-.82-1.79-3-1.48-4.5l.08-.34A6.46,6.46,0,0,0,61,43.27Z" fill="#ffefd4"/>
      <path d="M68,36.59c-.32.35.24.69.63.57a4.08,4.08,0,0,1,3.77,1.2A14.61,14.61,0,0,1,73.6,40.3c.15.24.42.45.6.17a3.71,3.71,0,0,0-1.3-2.76A5,5,0,0,0,68,36.59Z" fill="#227fc7"/>
      <path d="M53.2,44a1.34,1.34,0,0,1,1.24.16.48.48,0,0,1-.06.8.86.86,0,0,1-.45.05L53.35,45c-.22,0-.47-.11-.55-.32a.4.4,0,0,1,.07-.39A.71.71,0,0,1,53.2,44Z" fill="#ffefd4"/>
      <path d="M49.69,42.19a.52.52,0,0,1-.23.26,1.55,1.55,0,0,1-.56.19.54.54,0,0,1-.49-.14C47.86,41.79,49.83,41.55,49.69,42.19Z" fill="#ffefd4"/>
      <path d="M36,40.48a2.71,2.71,0,0,1,4.89-1.06,2.74,2.74,0,0,1,0,3.62,2.92,2.92,0,0,1-4-.09A2.71,2.71,0,0,1,36,40.48Z" fill="#f56c79"/>
      <path d="M62.8,50.77a2.71,2.71,0,0,1,4.89-1.07,2.74,2.74,0,0,1,0,3.62,2.92,2.92,0,0,1-4-.09A2.7,2.7,0,0,1,62.8,50.77Z" fill="#f56c79"/>
      <g>
        <path d="M28.66,28.88c1.54-4.08,4.85-9.92,10-8.53a1.89,1.89,0,0,0-.09.21l.14-.07-.17.32c-3.45-1.09-6.51,2.17-8,5-5.06,9.4-3.74,21.15-3,31.45q.38,3.8.9,7.56a1,1,0,0,0-.34,0c-.36-2.5-.66-5-.92-7.53C26.47,47.89,25.43,38,28.66,28.88Z" fill="#480973"/>
        <path d="M34,46.68c-.16-.12-.36.14-.19.26l.31.21c0-.14,0-.27,0-.4Z" fill="#480973"/>
        <path d="M33.8,46.94c-.17-.12,0-.38.19-.26l.11.07c-.17-4.61.32-9.24,2.73-13.21a1,1,0,0,1-.07-.5c-4.11,6-3.4,13.89-2.37,20.75,0,.2.35.16.32,0-.25-2.15-.49-4.37-.6-6.6Z" fill="#480973"/>
        <path d="M34.1,46.75c0,.13,0,.26,0,.4A51.36,51.36,0,0,0,44.34,52.5a1.41,1.41,0,0,0,0-.21.16.16,0,0,1,.15-.17h.07l0-.05A50.12,50.12,0,0,1,34.1,46.75Z" fill="#480973"/>
        <path d="M38.1,36.29c-.25.07-2.53,1.38-1.59,1.45C36.75,37.68,39,36.34,38.1,36.29Z" fill="#480973"/>
        <path d="M36.76,33a1,1,0,0,0,.07.5l.35-.55c.11-.16-.15-.36-.27-.18Z" fill="#480973"/>
        <path d="M36.76,33l.15-.23c.12-.18.38,0,.27.18l-.35.55a1.83,1.83,0,0,0,.38.58,19.56,19.56,0,0,0,3.33,2.63c1.48,1,7.27,3.6,8.57,1.8a6.61,6.61,0,0,0,0-4.28L48.77,34c-.17-.12,0-.37.15-.29A6.47,6.47,0,0,0,47,31.21a.17.17,0,0,1-.13.28s0,0,0,0a6.58,6.58,0,0,1,2,6.39c-.17,1.15-1.48.8-2.36.71A16.17,16.17,0,0,1,40.29,36a20.06,20.06,0,0,1-2.73-2.2c-.59-.58-.31-.95.16-1.5a6.3,6.3,0,0,1,1.77-1.48,2.83,2.83,0,0,1,.11-.31,6.51,6.51,0,0,1,2.8-.76,6.6,6.6,0,0,1,.77,0l-.24-.21a6.69,6.69,0,0,0-3.93,1A5.56,5.56,0,0,0,36.76,33Z" fill="#480973"/>
        <path d="M38.53,20.81c-1.6,3.29,1.89,6.57,4.4,8.75a5.42,5.42,0,0,1,.58.06C41.23,27.35,37.33,24.2,39,20.8a.23.23,0,0,1-.26.06Z" fill="#480973"/>
        <path d="M38.53,20.81l.16.05A.23.23,0,0,0,39,20.8a0,0,0,0,1,0,0,1.24,1.24,0,0,1,.1-.2.83.83,0,0,1,.07-.13,1.4,1.4,0,0,1,.1-.16l.08-.13a.16.16,0,0,0-.25-.21,3.52,3.52,0,0,0-.29.42l.11,0-.18.07Z" fill="#480973"/>
        <path d="M38.65,20.35a1.89,1.89,0,0,0-.09.21l.14-.07.07-.11Z" fill="#480973"/>
        <path d="M43,19C54.27,20.2,68.21,29.76,76.09,37.7c3.6,3.54,3.9,8.88,3.74,13.63A130.37,130.37,0,0,1,78.92,65h0a1.13,1.13,0,0,0-.32,0,127.13,127.13,0,0,0,.88-13.65c.13-4.69-.12-9.87-3.67-13.36-.49-.49-1-1-1.54-1.49-8-7.52-20.82-15.87-31.3-17-1.26-.18-3-.26-3.72.83l.08-.13a.16.16,0,0,0-.25-.21,3.52,3.52,0,0,0-.29.42l-.12,0C39.41,18.75,41.52,18.76,43,19Z" fill="#480973"/>
        <path d="M38.77,20.38l-.07.11.18-.07Z" fill="#480973"/>
        <path d="M39,20.79s0,0,0-.06l.06-.14A1.24,1.24,0,0,0,39,20.79Z" fill="#480973"/>
        <path d="M39.06,20.59a.83.83,0,0,1,.07-.13A.83.83,0,0,0,39.06,20.59Z" fill="#480973"/>
        <path d="M39.13,20.46l.1-.16A1.4,1.4,0,0,0,39.13,20.46Z" fill="#480973"/>
        <path d="M39.49,30.82c-.51,1.63-.58,3.81.69,4.91l.19.14a2.88,2.88,0,0,0,1.91.42,5,5,0,0,0,3.26-1.79,6.34,6.34,0,0,0,1.36-3l-.06-.05a0,0,0,0,1,0,0h0A6.55,6.55,0,0,0,43.61,30a.14.14,0,0,1-.17,0h0l-.34,0A6.32,6.32,0,0,0,39.49,30.82Z" fill="#480973"/>
        <path d="M39.6,30.51a2.83,2.83,0,0,0-.11.31,6.32,6.32,0,0,1,3.6-.85l.34,0-.26-.23h0a6.6,6.6,0,0,0-.77,0A6.51,6.51,0,0,0,39.6,30.51Z" fill="#480973"/>
        <path d="M40.61,38c-.2.17-1.76,2.33-.88,2C39.93,39.87,41.48,37.68,40.61,38Z" fill="#480973"/>
        <path d="M50.32,29.26a1.13,1.13,0,0,1,.14.68.78.78,0,0,1-1.23.49c-.37-.23-.5-.67-.7-1A3.59,3.59,0,0,0,46,27.7a15.51,15.51,0,0,0-2.23.1c-.3,0-.79-.09-.86-.47-.15-1.22,2.58-1.4,3.42-1.21A5.61,5.61,0,0,1,50.32,29.26ZM46,27.34a4.08,4.08,0,0,1,3.18,2.36c.14.39.73.64.83.17a5.05,5.05,0,0,0-3.79-3.34,3.68,3.68,0,0,0-3,.57c-.11.3.22.4.51.38A14,14,0,0,1,46,27.34Z" fill="#480973"/>
        <path d="M42.93,29.56l.24.21h0a3.21,3.21,0,0,1,.53.07.2.2,0,0,0,0-.08l-.15-.14A5.42,5.42,0,0,0,42.93,29.56Z" fill="#480973"/>
        <path d="M43.17,29.77l.26.23h0l.17,0a.16.16,0,0,0,.09-.18A3.21,3.21,0,0,0,43.17,29.77Z" fill="#480973"/>
        <path d="M43.44,30a.14.14,0,0,0,.17,0Z" fill="#480973"/>
        <path d="M43.51,29.62l.15.14a.2.2,0,0,1,0,.08,2.83,2.83,0,0,1,.4.08,6.75,6.75,0,0,1,2.71,1.3.14.14,0,0,1,.21,0A6.52,6.52,0,0,0,43.51,29.62Z" fill="#480973"/>
        <path d="M43.82,39.53c-.11.23-.65,2.86,0,2.2C44,41.51,44.47,38.84,43.82,39.53Z" fill="#480973"/>
        <path d="M43.7,29.84a.16.16,0,0,1-.09.18,6.55,6.55,0,0,1,3.21,1.43h0a.15.15,0,0,1,0-.23,6.75,6.75,0,0,0-2.71-1.3A2.83,2.83,0,0,0,43.7,29.84Z" fill="#480973"/>
        <path d="M44.33,52.29a1.41,1.41,0,0,1,0,.21l.35.13c0-.12,0-.25,0-.36a.17.17,0,0,0-.1-.14h-.07A.16.16,0,0,0,44.33,52.29Z" fill="#480973"/>
        <path d="M44.57,52.08l0,.05a.17.17,0,0,1,.1.14c0,.11,0,.24,0,.36A64.38,64.38,0,0,0,52.29,55l0-.21c0-.13.12-.19.22-.17l0-.08A71.31,71.31,0,0,1,44.57,52.08Z" fill="#480973"/>
        <path d="M46.81,31.22a.15.15,0,0,0,0,.23,0,0,0,0,0,0,0l.07,0a.88.88,0,0,1,0-.17Z" fill="#480973"/>
        <path d="M46.81,31.22l.12.1a.88.88,0,0,0,0,.17.17.17,0,0,0,.13-.28h0A.14.14,0,0,0,46.81,31.22Z" fill="#480973"/>
        <path d="M46.84,31.46l.06.05s0,0,0,0Z" fill="#480973"/>
        <path d="M50.54,41.79c.76.59.94,1.79,2.08,1.67,1.78-.33,3.17.48,3.13,2.43s-2.26,2.07-3.68,2a5.55,5.55,0,0,1-4.89-3.12,2.49,2.49,0,0,1,.42-2.95A2.28,2.28,0,0,1,50.54,41.79ZM54.79,47a1.87,1.87,0,0,0,.27-2.4c-.5-.92-1.49-.89-2.42-.79a1.6,1.6,0,0,1-1.43-.61,6,6,0,0,0-.9-1.1,1.85,1.85,0,0,0-3,1.22,4.07,4.07,0,0,0,2.12,3.34A5.65,5.65,0,0,0,54.79,47Z" fill="#480973"/>
        <path d="M48.21,43.8a.17.17,0,0,0,.29.14,2.09,2.09,0,0,1,.42-.42c-.05-.15.17-.28.27-.15a1.33,1.33,0,0,1,.63-.14.16.16,0,0,0,.08-.31A1.29,1.29,0,0,0,48.21,43.8Z" fill="#480973"/>
        <path d="M48.92,33.75c-.15-.08-.32.17-.15.29l.36.23C49.07,34.1,49,33.93,48.92,33.75Z" fill="#480973"/>
        <path d="M49.19,43.37c-.1-.13-.32,0-.27.15A1,1,0,0,1,49.19,43.37Z" fill="#480973"/>
        <path d="M48.92,43.52s0,0,0,0a4,4,0,0,0,4.6,2.28c.18,0,.12-.34-.08-.31a4.31,4.31,0,0,1-4.24-2.12s0,0,0,0A1,1,0,0,0,48.92,43.52Z" fill="#480973"/>
        <path d="M48.94,33.76h0c.08.18.15.35.21.52a43.33,43.33,0,0,0,14.26,6l.4-.21a.1.1,0,0,0-.07,0A54.73,54.73,0,0,1,48.94,33.76Z" fill="#480973"/>
        <path d="M52.48,54.63c-.1,0-.24,0-.22.17l0,.21a3.37,3.37,0,0,0,.34.09c0-.11,0-.22-.05-.34A.17.17,0,0,0,52.48,54.63Z" fill="#480973"/>
        <path d="M52.5,54.55l0,.08a.17.17,0,0,1,.1.13c0,.12,0,.23.05.34a88.66,88.66,0,0,0,10,1.83c3.32.23,7,.42,10-1.43,0-.12,0-.24,0-.37a.17.17,0,0,0-.11,0c-5.27,3.11-14.19.69-19.88-.57Z" fill="#480973"/>
        <path d="M62,41.35c-.58.63-1.42,1.43-1.42,2.34a2.42,2.42,0,0,0,1,1.38,15.1,15.1,0,0,0,3.72,2,.16.16,0,0,1,.12-.3,14.7,14.7,0,0,1-3.58-2c-.41-.36-1.06-.92-.74-1.48a6.46,6.46,0,0,1,1.91-2.18h0l.08-.32a7.6,7.6,0,0,1,.72-.43h-.1l-.25-.06A6.43,6.43,0,0,0,62,41.35Z" fill="#480973"/>
        <path d="M63.43,47.52c-.2.16-1.92,2.21-1,1.95C62.62,49.33,64.34,47.22,63.43,47.52Z" fill="#480973"/>
        <path d="M62.86,41.43c-.31,1.54-.07,3.68,1.48,4.5a3,3,0,0,0,2.16.17A4.89,4.89,0,0,0,69.4,44a5,5,0,0,0,.81-3.11,6.16,6.16,0,0,0-4.38-1,6.49,6.49,0,0,0-2.89,1.17h0Z" fill="#480973"/>
        <path d="M63,40.76l-.08.32a6.49,6.49,0,0,1,2.89-1.17,6.16,6.16,0,0,1,4.38,1,2,2,0,0,0-.07-.35,6.56,6.56,0,0,0-6.4-.25A7.6,7.6,0,0,0,63,40.76Z" fill="#480973"/>
        <path d="M63.39,40.26l.25.06h.09a.18.18,0,0,0,.06-.27Z" fill="#480973"/>
        <path d="M63.73,40.32h0a6.56,6.56,0,0,1,6.4.25,2,2,0,0,1,.07.35,6.36,6.36,0,0,1,2.8,6.5c-.05.27-.27.41-.58.47a18.19,18.19,0,0,1-7.08-1.11.16.16,0,0,1-.12.3,18.77,18.77,0,0,0,6.19,1.26,2.59,2.59,0,0,0,1.71-.3c0-.36,0-.71,0-1.07a.16.16,0,0,1,.32,0v.17A6.89,6.89,0,0,0,70,40.2a6.45,6.45,0,0,0-2.28-.75,7.08,7.08,0,0,0-3.9.6A.18.18,0,0,1,63.73,40.32Z" fill="#480973"/>
        <path d="M65.35,46.79a.16.16,0,0,0-.12.3A.16.16,0,0,0,65.35,46.79Z" fill="#480973"/>
        <path d="M66.73,48.78c-.12.23-.84,2.79-.12,2.18C66.74,50.75,67.44,48.14,66.73,48.78Z" fill="#480973"/>
        <path d="M73,37.24a1.71,1.71,0,0,1,.2.18c.65.56,2.11,2.89,1,3.48-.35.16-.75-.16-.88-.43a16.2,16.2,0,0,0-1.23-1.86,3.6,3.6,0,0,0-2.91-1.09,2.65,2.65,0,0,1-1.22,0,.74.74,0,0,1-.51-.53c-.24-.85.78-1.11,1.4-1.13A5.67,5.67,0,0,1,73,37.24Zm-.61,1.12A14.61,14.61,0,0,1,73.6,40.3c.15.24.42.45.6.17a3.71,3.71,0,0,0-1.3-2.76A5,5,0,0,0,68,36.59c-.32.35.24.69.63.57A4.08,4.08,0,0,1,72.37,38.36Z" fill="#480973"/>
        <path d="M69.74,49.4c0,.26.38,2.85.79,2C70.55,51.16,70.12,48.55,69.74,49.4Z" fill="#480973"/>
        <path d="M72.39,57.67a.15.15,0,0,0,.13.18.15.15,0,0,0,.18-.12c.19-.89.32-1.78.43-2.67a58.11,58.11,0,0,0,.36-7.91,2.71,2.71,0,0,1-.06.38.94.94,0,0,1-.3.52c-.1,2.36-.22,4.72-.45,7.08a.17.17,0,0,1,.07.3l-.11.07C72.56,56.22,72.48,57,72.39,57.67Z" fill="#480973"/>
        <path d="M72.68,55.13c0,.13,0,.25,0,.37l.11-.07A.17.17,0,0,0,72.68,55.13Z" fill="#480973"/>
        <path d="M73.17,47c0,.36,0,.71,0,1.07a.94.94,0,0,0,.3-.52,2.71,2.71,0,0,0,.06-.38V47A.16.16,0,0,0,73.17,47Z" fill="#480973"/>
        <path d="M43,33.48c-.68.64-2.23,1.12-2.77.06-.37-.71-.52-2.15.17-2.71a1.91,1.91,0,0,1,.94-.34c.8-.11,2.51-.42,2.67.67A3.06,3.06,0,0,1,43,33.48Z" fill="#fff"/>
        <path d="M66.56,43.3c-.68.64-2.23,1.12-2.77.06-.37-.71-.52-2.15.17-2.71a1.91,1.91,0,0,1,.94-.34c.8-.11,2.51-.42,2.67.67A3.06,3.06,0,0,1,66.56,43.3Z" fill="#fff"/>
        <path d="M78.66,64.5c-.19,1-.34,2.44-1.2,3.14a27.09,27.09,0,0,1-3.42,1,124.43,124.43,0,0,1-35.79,3.75c-2.32-.21-4.86-.21-6.95-1.28-1.87-1.44-2.49-4.06-2.83-6.3a.16.16,0,0,0-.18-.15.18.18,0,0,0-.14.18c.35,2.39.92,5,2.91,6.6,2.19,1.17,4.76,1.15,7.16,1.39a120.2,120.2,0,0,0,35.92-3.8A26.86,26.86,0,0,0,77.62,68a2.74,2.74,0,0,0,1-1.63A11.17,11.17,0,0,0,79,64.53a.16.16,0,1,0-.32,0Z" fill="#480973"/>
      </g>
    </g>
  </g>
</svg>
