<svg id="fbd81b39-3d2b-438f-9279-7fc0bc38d55d" data-name="layer 1" xmlns="http://www.w3.org/2000/svg" viewBox="0 0 100 100">
  <title>profile_2</title>
  <g>
    <circle cx="50" cy="50" r="37.61" fill="#ec2872"/>
    <path d="M27.91,27.86a5.59,5.59,0,0,0-.82.55c-2.53,2.42-1.21,6.48.7,8.85,1.26,1.33,3.25.54,4.58-.2,1.19-.58,4.16-2.09,5.76-2.89a11.93,11.93,0,0,0-1.88,8.25,6.79,6.79,0,0,0-1.67,4.08,18.67,18.67,0,0,0,.35,4.1,6.61,6.61,0,0,0-1.57.22c-4,.94-6.14,6.4-2.89,9.32a6.4,6.4,0,0,0,7.3.94l.3-.19A37.89,37.89,0,0,0,39.2,67c0,.12.07.25.11.38a23.27,23.27,0,0,0,2,5c.11.22.23.43.36.64a19.16,19.16,0,0,0,1.66,2.38A17,17,0,0,0,50.6,80.6l.32.11a8.41,8.41,0,0,0,6.53-.34C59.48,79,60.7,76.93,62,75c.06-.09.12-.19.18-.27l.3-.45a74.12,74.12,0,0,0,8.16-18.54c3.37-.14,3.4-4.39,3.3-6.89-.21-4.11-1-8.71-4-11.77a15.31,15.31,0,0,0-4-2.65A24.79,24.79,0,0,0,52.62,28a21.57,21.57,0,0,0-6.76-9.54c-3.75-3.06-7.33-4.83-9,1a23.58,23.58,0,0,0-3.78-1.25c-2.73-.71-6.93-1.36-7.72,2.31-.52,2.07-.84,4.86.93,6.44A4.9,4.9,0,0,0,27.91,27.86Z" fill="#480973"/>
    <g>
      <path d="M29.83,15.89c-1.61,1.57-2.06,6.29-.26,7.83a5.11,5.11,0,0,0,1.76.92A13,13,0,0,1,37,23.85a16.1,16.1,0,0,1,8.66,3.09,14.05,14.05,0,0,1,4.08-1.65,22.12,22.12,0,0,0-5.78-6A22.63,22.63,0,0,0,36,15.72C34,15.32,31.59,14.57,29.83,15.89Z" fill="#7229ab"/>
      <path d="M30.42,25.74c-2.27,2.2-1,6,.7,8.19,1.14,1.17,2.83.38,4.07-.26s4.91-2.39,6.31-3.06h0c.16-.22.33-.45.51-.66a15.09,15.09,0,0,1,3.28-2.82A16.23,16.23,0,0,0,37,24.28C34.75,24.26,32.19,24.31,30.42,25.74Z" fill="#7229ab"/>
      <path d="M42.72,50.58a.16.16,0,0,0,.31-.09,3.55,3.55,0,0,0-.73-1.27,16.24,16.24,0,0,1,7.41-7.15c5.68-3.17,21.21-4,24,3.26a7.61,7.61,0,0,1,.46,4v0a74.82,74.82,0,0,1-9.5,22.25c-.58.89-1.18,1.78-1.8,2.64a9.89,9.89,0,0,1-2.67,2.72c-4.74,2.35-10.49-1.15-13.52-4.85a18,18,0,0,1-2-3A23.75,23.75,0,0,1,43,65.27c-.11-.36-.23-.71-.34-1.07a40,40,0,0,1-1.29-6.52,5.87,5.87,0,0,0,2-2.45.17.17,0,0,0-.09-.21.16.16,0,0,0-.21.08,5.87,5.87,0,0,1-9.27,1.69c-2.92-2.68-.92-7.71,2.69-8.57C38.7,47.61,41.86,48.21,42.72,50.58Zm-5.94.52a1.94,1.94,0,0,0-.39,2.14,3.5,3.5,0,0,0,2.88,1.91.16.16,0,0,0,.06-.32,3.49,3.49,0,0,1-2.48-1.77,1.62,1.62,0,0,1,.9-2.16A3.25,3.25,0,0,1,41.07,53c.06.19.36.09.31-.1a3.55,3.55,0,0,0-6.73-.18c-.07.19.23.31.3.12A3.2,3.2,0,0,1,36.78,51.1Zm15.38,3c.13.14.37,0,.24-.21a7.25,7.25,0,0,0-.61-.76c1-.64,1.49-2.34.16-3a1.62,1.62,0,0,0-1.78.27,1.82,1.82,0,0,0-.53,1.23,1.51,1.51,0,0,0,0,.3.9.9,0,0,0-.93.65.17.17,0,0,0,.32.08C49.76,51.68,51.57,53.58,52.16,54.14Zm3,13c1.42.24,3.88-.09,3.93-1.94a1.9,1.9,0,0,0-.76-1.47c-.87-.67-2-.78-2.62-1.46a25.66,25.66,0,0,0-2-2.33,2.06,2.06,0,0,0-2.94.38,3.88,3.88,0,0,0-.34,3.09C50.92,65.51,53.11,66.76,55.12,67.13ZM54.6,45.86c.34-1.12-.93-1.57-1.8-1.29s-1.85.16-2.29,1a1.14,1.14,0,0,0,.64,1.22C52.27,47.34,54.1,47.18,54.6,45.86Zm12.27,12.6c.55-.22,2.71-1.34,2.72-.2a.16.16,0,0,0,.31.09.67.67,0,0,0-.37-.92,2.54,2.54,0,0,0,.16-.28,2.05,2.05,0,0,0,.2-1.27A1,1,0,0,0,68.82,55c-1.2.12-1.63,1.75-1.31,2.67-.27.15-.53.33-.8.5a.15.15,0,0,0,0,.22A.18.18,0,0,0,66.87,58.46Zm4.64-8.09c-.41-1.48-2.21-.73-2.21.54s1.27,2.26,2.28,1.46C72.15,51.82,71.7,51,71.51,50.37Z" fill="#b235db"/>
      <path d="M38.26,47.59A5.63,5.63,0,0,1,42.07,49a16.22,16.22,0,0,1,7.44-7.29c7.19-4,26.8-4,25,7.6a.41.41,0,0,1,0,.11c0,.13-.06.25-.1.39s0,.13,0,.21-.08.36-.13.55c0,0,0,0,0,.05-.15.59-.31,1.17-.47,1.76A2.61,2.61,0,0,0,76,50.83h0c.72-1.43.65-3.55.59-5-.24-4-1-8.5-3.88-11.46A14.25,14.25,0,0,0,69,31.89a21.76,21.76,0,0,0-7.67-1.95,24.56,24.56,0,0,0-13,2.87,30.51,30.51,0,0,0-8.9,7C37.55,42,37.83,44.92,38.26,47.59Z" fill="#eb8602"/>
      <path d="M39.54,39.06a24,24,0,0,1,2.57-2.48,30.07,30.07,0,0,1,5.81-4,24.92,24.92,0,0,1,13.45-3.08,23.52,23.52,0,0,1,6.5,1.44,27.67,27.67,0,0,0-7.32-4.25,18,18,0,0,0-12-.49,13.4,13.4,0,0,0-6.2,4.07A12,12,0,0,0,39.54,39.06Z" fill="#eb8602"/>
      <path d="M40.21,16.64a22.72,22.72,0,0,1,4,2.27,21.39,21.39,0,0,1,5.86,6.31A16.59,16.59,0,0,1,55.27,25c-.26-.67-.56-1.33-.88-2a22,22,0,0,0-5.81-7.15c-3.23-2.6-6.15-4.46-7.92-.44A9.13,9.13,0,0,0,40.21,16.64Z" fill="#7229ab"/>
      <path d="M53.5,60.18a27.92,27.92,0,0,1,1.91,2.34c1,1.1,3.1,1,3.2,2.67-.1,1.53-2.23,1.62-3.42,1.46-1.84-.32-3.89-1.41-4.38-3.35a3.52,3.52,0,0,1,.25-2.78A1.72,1.72,0,0,1,53.5,60.18Zm-1.66,2.41a.74.74,0,0,1,.4-.51,4.21,4.21,0,0,0,4.28,3.21.16.16,0,0,0,0-.32,4.48,4.48,0,0,1-3.93-3,5.7,5.7,0,0,1,.8,0,.16.16,0,0,0,.07-.31,1.44,1.44,0,0,0-1.78.23c-.15.18-.34.82,0,.81A.18.18,0,0,0,51.84,62.59Z" fill="#ffe226"/>
      <path d="M50.89,45.67c0,.71.93.92,1.52.92s1.54-.2,1.8-.84c.3-.82-.72-1-1.33-.87S51.21,45.11,50.89,45.67Z" fill="#7229ab"/>
      <path d="M70,50.21a1.2,1.2,0,0,0,0,1.47,1,1,0,0,0,1.31.38c.4-.38,0-1.1-.12-1.6A.64.64,0,0,0,70,50.21Z" fill="#7229ab"/>
      <path d="M40.66,15.41a9.32,9.32,0,0,0,1.81,1.44l9.41,6c1,.65,2,.67,2.51.12a22,22,0,0,0-5.81-7.15C45.35,13.25,42.43,11.39,40.66,15.41Z" fill="#b235db"/>
      <path d="M47.18,22.06c.31.43.46.84.28,1.17a1.35,1.35,0,0,1-1.27.62,4.21,4.21,0,0,1-1.42-.41A30.47,30.47,0,0,0,33,21.31a5.78,5.78,0,0,1-2.78-.37,2.9,2.9,0,0,1-1.35-3.21,3.53,3.53,0,0,1,2.61-2.45c2.2-.51,5,.36,7.1,1.1a21.5,21.5,0,0,1,4.92,2.5A14.83,14.83,0,0,1,47.18,22.06Z" fill="#b235db"/>
      <path d="M43.19,26.7a1.77,1.77,0,0,1-1.18.61l-9.65,2.17a5.83,5.83,0,0,1-1.5.2,1.88,1.88,0,0,1-1.34-.6,2.12,2.12,0,0,1,0-2.32,5.12,5.12,0,0,1,2.8-2.24A9.86,9.86,0,0,1,36,24.07C36.88,24.1,44.32,25,43.19,26.7Z" fill="#b235db"/>
      <path d="M54.08,77.65c-5.54-2.8-8.7-9-9.48-15.14s.47-12.36,1.71-18.44a22.13,22.13,0,0,0-4.11,5A5.45,5.45,0,0,1,43,52.67c-.13,1.1-.37,2.55-1.61,2.9A3.77,3.77,0,0,0,37,50.71a2.77,2.77,0,0,0-1.89,4.15c.13.24.29.53.13.75s-.44.17-.68.1A4.59,4.59,0,0,1,32.15,54a5.47,5.47,0,0,1,.16.86,4.11,4.11,0,0,0,.38.89,6.29,6.29,0,0,0,.93,1.34A5.74,5.74,0,0,0,37.1,58.6a5.85,5.85,0,0,0,4.14-1.27c.53,4.27,1.48,8.67,3.69,12.36A20.3,20.3,0,0,0,54.08,77.65Z" fill="#7229ab"/>
      <path d="M48.36,32.81A28.93,28.93,0,0,0,50,40.24c3.9-1.17,7.94-2.36,12-2.23s8.24,1.5,11,4.46A10.78,10.78,0,0,1,76,50.83c.72-1.43.65-3.55.59-5-.24-4-1-8.5-3.88-11.46A14.25,14.25,0,0,0,69,31.89a21.76,21.76,0,0,0-7.67-1.95A24.56,24.56,0,0,0,48.36,32.81Z" fill="#ffe226"/>
      <path d="M45.62,30.74a2.42,2.42,0,0,0,2.3,1.79,24.92,24.92,0,0,1,13.45-3.08,23.52,23.52,0,0,1,6.5,1.44,27.67,27.67,0,0,0-7.32-4.25,18,18,0,0,0-12-.49,6.35,6.35,0,0,0-1.92,1.31A3.62,3.62,0,0,0,45.62,30.74Z" fill="#ffe226"/>
      <g>
        <path d="M28.4,17.56c-.51,2.07-.83,4.86.93,6.44a5.21,5.21,0,0,0,1.59.85,4,4,0,0,1,.41-.21,5.11,5.11,0,0,1-1.76-.92c-1.8-1.54-1.35-6.26.26-7.83,1.76-1.32,4.17-.57,6.18-.17a22.63,22.63,0,0,1,7.92,3.54,22.12,22.12,0,0,1,5.78,6,2.05,2.05,0,0,1,.34-.07,21.39,21.39,0,0,0-5.86-6.31,22.72,22.72,0,0,0-4-2.27l-.06.19c-.06.19-.37.1-.31-.09l.06-.24a23.25,23.25,0,0,0-3.78-1.25C33.4,14.54,29.2,13.88,28.4,17.56Z" fill="#480973"/>
        <path d="M30.1,25.39c-2.53,2.42-1.21,6.48.7,8.86,1.26,1.33,3.25.54,4.58-.2,1.19-.58,4.16-2.09,5.76-2.9.12-.18.25-.37.39-.55h0c-1.4.67-5,2.39-6.31,3.06s-2.93,1.43-4.07.26c-1.7-2.17-3-6-.7-8.19,1.77-1.43,4.33-1.48,6.53-1.46a16.23,16.23,0,0,1,8.37,2.84,2.48,2.48,0,0,1,.31-.18A16.1,16.1,0,0,0,37,23.85a13,13,0,0,0-5.64.79l.13,0a.17.17,0,0,1,.11.2.16.16,0,0,1-.21.11l-.44-.14A6.81,6.81,0,0,0,30.1,25.39Z" fill="#480973"/>
        <path d="M30.92,24.85l.44.14a.16.16,0,0,0,.21-.11.17.17,0,0,0-.11-.2l-.13,0A4,4,0,0,0,30.92,24.85Z" fill="#480973"/>
        <path d="M36.37,47.8c-4,.94-6.14,6.41-2.89,9.33a6.38,6.38,0,0,0,7.3.93l.3-.18,0-.24a.17.17,0,0,1,.15-.17.16.16,0,0,1,.18.14v.07a5.87,5.87,0,0,0,2-2.45.17.17,0,0,0-.09-.21.16.16,0,0,0-.21.08,5.87,5.87,0,0,1-9.27,1.69c-2.92-2.68-.92-7.71,2.69-8.57,2.21-.61,5.37,0,6.23,2.36a.16.16,0,0,0,.31-.09,3.55,3.55,0,0,0-.73-1.27.3.3,0,0,1,0,.08.16.16,0,0,1-.21.07.17.17,0,0,1-.08-.21,1.74,1.74,0,0,1,.1-.19,5.63,5.63,0,0,0-3.81-1.38s0,0,0,0a.18.18,0,0,1-.13.19.16.16,0,0,1-.19-.14s0-.06,0-.09A6.68,6.68,0,0,0,36.37,47.8Z" fill="#480973"/>
        <path d="M34.65,52.75c-.07.19.23.31.3.12a3.2,3.2,0,0,1,1.83-1.77,1.9,1.9,0,0,1,1.29-.63.16.16,0,0,1,0,.32,1.45,1.45,0,0,0-.37.11A3.25,3.25,0,0,1,41.07,53c.06.19.36.09.31-.1A3.55,3.55,0,0,0,34.65,52.75Z" fill="#480973"/>
        <path d="M36.78,51.1a1.94,1.94,0,0,0-.39,2.14,3.5,3.5,0,0,0,2.88,1.91.16.16,0,0,0,.06-.32,3.49,3.49,0,0,1-2.48-1.77,1.62,1.62,0,0,1,.9-2.16A3.23,3.23,0,0,0,36.78,51.1Z" fill="#480973"/>
        <path d="M37.6,43.49a18.67,18.67,0,0,0,.34,4.1,1.71,1.71,0,0,1,.32,0c-.43-2.67-.71-5.61,1.2-7.79C44.85,33.64,53,29.36,61.34,29.94A21.76,21.76,0,0,1,69,31.89l0-.05s0,0-.05,0c-.36-.31-.74-.62-1.12-.91a23.52,23.52,0,0,0-6.5-1.44c-7.09-.49-14,2.5-19.26,7.13a24,24,0,0,0-2.57,2.48c0,.11,0,.21,0,.32a.16.16,0,0,1-.14.18.16.16,0,0,1-.18-.14h0A6.78,6.78,0,0,0,37.6,43.49Z" fill="#480973"/>
        <path d="M36.78,51.1a3.23,3.23,0,0,1,1-.2,1.45,1.45,0,0,1,.37-.11.16.16,0,0,0,0-.32A1.9,1.9,0,0,0,36.78,51.1Z" fill="#480973"/>
        <path d="M37.94,47.59s0,.06,0,.09a.16.16,0,0,0,.19.14.18.18,0,0,0,.13-.19s0,0,0,0A1.71,1.71,0,0,0,37.94,47.59Z" fill="#480973"/>
        <path d="M41.14,31.15a12,12,0,0,0-1.88,8.26c.09-.12.18-.24.28-.35a12,12,0,0,1,2.84-8.84c4.38-5.16,12.1-6,18.17-3.58a27.67,27.67,0,0,1,7.32,4.25c.38.14.76.31,1.13.48A24.79,24.79,0,0,0,55.64,25h0a.16.16,0,0,1-.3.1,1,1,0,0,0-.07-.15,16.59,16.59,0,0,0-5.22.25.91.91,0,0,1,.13.19c.12.17-.18.34-.28.16s-.12-.19-.19-.28a14.05,14.05,0,0,0-4.08,1.65l.12.08c.17.12,0,.38-.2.26l-.23-.16A15.09,15.09,0,0,0,42,29.94c-.18.21-.35.44-.51.66a.15.15,0,0,1,.19.08.16.16,0,0,1-.07.22Z" fill="#480973"/>
        <path d="M39.26,39.41h0a.16.16,0,0,0,.18.14.16.16,0,0,0,.14-.18c0-.11,0-.21,0-.32C39.44,39.17,39.35,39.29,39.26,39.41Z" fill="#480973"/>
        <path d="M39.84,16.74c-.06.19.25.28.31.09l.06-.19-.31-.14Z" fill="#480973"/>
        <path d="M39.9,16.5l.31.14c1.69-5.58,4.85-3.63,8.37-.79A22.08,22.08,0,0,1,55.27,25a2.21,2.21,0,0,1,.37,0,21.65,21.65,0,0,0-6.76-9.54C45.12,12.4,41.55,10.64,39.9,16.5Z" fill="#480973"/>
        <path d="M41.2,57.47a.17.17,0,0,0-.15.17l0,.24a3.13,3.13,0,0,0,.3-.2v-.07A.16.16,0,0,0,41.2,57.47Z" fill="#480973"/>
        <path d="M41.38,57.68a3.13,3.13,0,0,1-.3.2A36.75,36.75,0,0,0,42.22,64l.31.12a.18.18,0,0,1,.1.09l0,0A40,40,0,0,1,41.38,57.68Z" fill="#480973"/>
        <path d="M41.14,31.15l.51-.25a.16.16,0,0,0,.07-.22.15.15,0,0,0-.19-.08C41.39,30.78,41.26,31,41.14,31.15Z" fill="#480973"/>
        <path d="M42,49.16a.17.17,0,0,0,.08.21.16.16,0,0,0,.21-.07.3.3,0,0,0,0-.08L42.07,49A1.74,1.74,0,0,0,42,49.16Z" fill="#480973"/>
        <path d="M42.53,64.13,42.22,64c0,.13.06.26.1.39l.1,0a.17.17,0,0,0,.21-.21A.18.18,0,0,0,42.53,64.13Z" fill="#480973"/>
        <path d="M42.07,49l.23.25a16.24,16.24,0,0,1,7.41-7.15c5.68-3.17,21.21-4,24,3.26a7.61,7.61,0,0,1,.46,4,.17.17,0,0,1,.2-.12.19.19,0,0,1,.11.09c1.8-11.59-17.81-11.61-25-7.6A16.22,16.22,0,0,0,42.07,49Z" fill="#480973"/>
        <path d="M42.42,64.43l-.1,0a24,24,0,0,0,2,5v-.11a.17.17,0,0,1,.31-.08l.05,0A23.75,23.75,0,0,1,43,65.27c-.11-.36-.23-.71-.34-1.07l0,0A.17.17,0,0,1,42.42,64.43Z" fill="#480973"/>
        <path d="M44.34,69.25v.11c.11.22.23.43.36.64,0-.26,0-.51,0-.76a.15.15,0,0,0,0-.07A.17.17,0,0,0,44.34,69.25Z" fill="#480973"/>
        <path d="M44.65,69.17a.15.15,0,0,1,0,.07c0,.25,0,.5,0,.76a20,20,0,0,0,1.67,2.38,16.83,16.83,0,0,0,7.24,5.2.53.53,0,0,0,0-.13.17.17,0,0,1,.33,0c0,.07,0,.14,0,.21a8.48,8.48,0,0,0,6.54-.33c2-1.35,3.24-3.44,4.53-5.42a1.18,1.18,0,0,0-.19-.11.16.16,0,0,1-.07-.22l0,0c-.58.89-1.18,1.78-1.8,2.64a9.89,9.89,0,0,1-2.67,2.72c-4.74,2.35-10.49-1.15-13.52-4.85a18,18,0,0,1-2-3Z" fill="#480973"/>
        <path d="M45.63,26.94a2.48,2.48,0,0,0-.31.18l.23.16c.17.12.37-.14.2-.26Z" fill="#480973"/>
        <path d="M48.72,52.61a.17.17,0,0,0,.32.08c.72-1,2.53.89,3.12,1.45.13.14.37,0,.24-.21a7.25,7.25,0,0,0-.61-.76l-.18.12a4.15,4.15,0,0,0-1.49-1,1.58,1.58,0,0,0-.43-.1,1.43,1.43,0,0,1,0-.22A.9.9,0,0,0,48.72,52.61Z" fill="#480973"/>
        <path d="M49.64,51.66a1.51,1.51,0,0,0,0,.3h.11a3.41,3.41,0,0,1,2,1.2c1-.64,1.49-2.34.16-3a1.62,1.62,0,0,0-1.78.27A1.82,1.82,0,0,0,49.64,51.66Z" fill="#480973"/>
        <path d="M49.65,52a1.43,1.43,0,0,0,0,.22,1.58,1.58,0,0,1,.43.1,4.15,4.15,0,0,1,1.49,1l.18-.12a3.41,3.41,0,0,0-2-1.2Z" fill="#480973"/>
        <path d="M49.71,25.29c.07.09.13.19.19.28s.4,0,.28-.16a.91.91,0,0,0-.13-.19A2.05,2.05,0,0,0,49.71,25.29Z" fill="#480973"/>
        <path d="M53.7,59.93a25.66,25.66,0,0,1,2,2.33c.66.68,1.75.79,2.62,1.46a1.9,1.9,0,0,1,.76,1.47c0,1.85-2.51,2.18-3.93,1.94-2-.37-4.2-1.62-4.7-3.73a3.88,3.88,0,0,1,.34-3.09A2.06,2.06,0,0,1,53.7,59.93Zm1.49,6.72c1.19.16,3.32.07,3.42-1.46-.1-1.69-2.16-1.57-3.2-2.67a27.92,27.92,0,0,0-1.91-2.34,1.72,1.72,0,0,0-2.44.34,3.52,3.52,0,0,0-.25,2.78C51.3,65.24,53.35,66.33,55.19,66.65Z" fill="#480973"/>
        <path d="M52.8,44.57c.87-.28,2.14.17,1.8,1.29-.5,1.32-2.33,1.48-3.45.9a1.14,1.14,0,0,1-.64-1.22C51,44.73,52,44.79,52.8,44.57Zm1.41,1.18c.3-.82-.72-1-1.33-.87s-1.67.23-2,.79c0,.71.93.92,1.52.92S54,46.39,54.21,45.75Z" fill="#480973"/>
        <path d="M51.67,61.94c-.15.18-.34.82,0,.81a.18.18,0,0,0,.13-.16.74.74,0,0,1,.4-.51l-.06-.27a.16.16,0,0,1,.31-.08l.09.25a5.7,5.7,0,0,1,.8,0,.16.16,0,0,0,.07-.31A1.44,1.44,0,0,0,51.67,61.94Z" fill="#480973"/>
        <path d="M52.49,61.73a.16.16,0,0,0-.31.08l.06.27.13-.06.21,0Z" fill="#480973"/>
        <path d="M52.37,62l-.13.06a4.21,4.21,0,0,0,4.28,3.21.16.16,0,0,0,0-.32,4.48,4.48,0,0,1-3.93-3Z" fill="#480973"/>
        <path d="M53.62,77.45a.53.53,0,0,1,0,.13,2.44,2.44,0,0,0,.32.11c0-.07,0-.14,0-.21A.17.17,0,0,0,53.62,77.45Z" fill="#480973"/>
        <path d="M55.27,25a1,1,0,0,1,.07.15.16.16,0,0,0,.3-.1h0A2.21,2.21,0,0,0,55.27,25Z" fill="#480973"/>
        <path d="M64.69,71.58l0,0a.16.16,0,0,1,.22-.06l.23.12c.09-.16.19-.31.29-.46a74.28,74.28,0,0,0,8.17-18.53h-.07a.16.16,0,0,1,0-.32h.15c.16-.59.32-1.17.47-1.76-.09.13-.36,0-.28-.14a8.62,8.62,0,0,0,.25-1.12A74.82,74.82,0,0,1,64.69,71.58Z" fill="#480973"/>
        <path d="M64.74,71.61a.16.16,0,0,0,.07.22,1.18,1.18,0,0,1,.19.11,1.85,1.85,0,0,1,.19-.27L65,71.55A.16.16,0,0,0,64.74,71.61Z" fill="#480973"/>
        <path d="M66.71,58.18a.15.15,0,0,0,0,.22.18.18,0,0,0,.21.06c.55-.22,2.71-1.34,2.72-.2a.16.16,0,0,0,.31.09.67.67,0,0,0-.37-.92l-.12.17a1.37,1.37,0,0,0-.34-.07,3.35,3.35,0,0,0-1.47.36,1,1,0,0,1-.09-.21C67.24,57.83,67,58,66.71,58.18Z" fill="#480973"/>
        <path d="M68.82,55c-1.2.12-1.63,1.75-1.31,2.67a5.25,5.25,0,0,1,.89-.33,1.63,1.63,0,0,1,1.13.08,2.54,2.54,0,0,0,.16-.28,2.05,2.05,0,0,0,.2-1.27A1,1,0,0,0,68.82,55Z" fill="#480973"/>
        <path d="M67.51,57.68a1,1,0,0,0,.09.21,3.35,3.35,0,0,1,1.47-.36,1.37,1.37,0,0,1,.34.07l.12-.17a1.63,1.63,0,0,0-1.13-.08A5.25,5.25,0,0,0,67.51,57.68Z" fill="#480973"/>
        <path d="M67.87,30.89c.38.29.76.6,1.12.91,0,0,0,0,.05,0a.17.17,0,0,0,.16-.29l-.2-.18C68.63,31.2,68.25,31,67.87,30.89Z" fill="#480973"/>
        <path d="M69,31.37l.2.18a.17.17,0,0,1-.16.29l0,.05a14.25,14.25,0,0,1,3.65,2.45c2.92,3,3.64,7.45,3.88,11.46.09,2.34.22,6.26-2.79,6.55l-.1.33c3.36-.14,3.4-4.39,3.29-6.9-.21-4.1-1-8.71-4-11.76A14.9,14.9,0,0,0,69,31.37Z" fill="#480973"/>
        <path d="M71.51,50.37c.19.59.64,1.45.07,2-1,.8-2.36-.32-2.28-1.46S71.1,48.89,71.51,50.37Zm-.19,1.69c.4-.38,0-1.1-.12-1.6A.64.64,0,0,0,70,50.21a1.2,1.2,0,0,0,0,1.47A1,1,0,0,0,71.32,52.06Z" fill="#480973"/>
        <path d="M73.6,52.36a.16.16,0,0,0,0,.32h.07l.1-.33Z" fill="#480973"/>
        <path d="M73.94,50.45c-.08.17.19.27.28.14l.15-.6c0-.08,0-.15,0-.21s.06-.33.09-.5a.19.19,0,0,0-.11-.09.17.17,0,0,0-.2.12v0A8.62,8.62,0,0,1,73.94,50.45Z" fill="#480973"/>
        <path d="M74.37,50l-.15.6s0,0,0-.05C74.29,50.35,74.34,50.17,74.37,50Z" fill="#480973"/>
        <path d="M74.42,49.78c0-.14.06-.26.1-.39a.41.41,0,0,0,0-.11C74.48,49.45,74.46,49.61,74.42,49.78Z" fill="#480973"/>
      </g>
    </g>
  </g>
</svg>
