<svg xmlns="http://www.w3.org/2000/svg" viewBox="0 0 100 100">
  <title>profile_13</title>
  <g style="isolation: isolate">
    <g id="aae767e7-0ae6-47d5-84bd-709d7c26277c" data-name="layer 1">
      <g>
        <circle cx="50" cy="50" r="37.61" transform="translate(-18.98 65.54) rotate(-57.7)" fill="#ec2872"/>
        <path d="M67.49,47.55c2.64-3.93-2.34-8.87-5.79-5.43a54.85,54.85,0,0,0-6.05-10.57c-1.42-1.5-3.79-5.4-6.12-3.53A13.17,13.17,0,0,0,47.8,26.5c-4.51-3.4-8.13-1.78-10.33,3.1a17.6,17.6,0,0,0-1.1,4.08,2.14,2.14,0,0,0-1.9-.37,3.4,3.4,0,0,0-1.8,1.35,4.55,4.55,0,0,0-.68,1.2c-.32.72-.57,1.49-.83,2.16A26.17,26.17,0,0,0,30,45.73a36,36,0,0,0,.65,5.51c-3.69-1.12-6.12,3.38-3.87,6.32A4.35,4.35,0,0,0,32,58.91c.15.74.31,1.47.47,2.2q.85,3.81,2,7.54c.51,1.45.85,3,1.48,4.46h0c0,.1.1.19.14.29a7.55,7.55,0,0,0,.91,1.48,2.52,2.52,0,0,0,.21.25,6.21,6.21,0,0,0,.57.58c2.17,1.71,5.16,1.29,7.67.81s5.1-1,7.61-1.7,5-1.51,7.42-2.37c3.94-1.31,7.71-3.52,7-8.25-.23-1.9-.51-3.8-.87-5.7-.09-.48-.18-1-.28-1.44-.51-2.54-1.13-5.06-1.89-7.54A4.24,4.24,0,0,0,67.49,47.55Z" fill="#480973"/>
        <g>
          <path d="M64.47,39.49c-.45-1-.92-2.08-1.43-3.09h0a10.34,10.34,0,0,0-4.53.27h-.07a.2.2,0,0,1-.18-.16,11.18,11.18,0,0,0-2.53-4.72,35.86,35.86,0,0,0-9.38,1.59,35,35,0,0,0-8.64,4,18.18,18.18,0,0,0,.17,4.6.22.22,0,0,1-.1.21,10.39,10.39,0,0,0-4,4.22.16.16,0,0,1-.07.07c.2,1.29.46,2.59.64,3.89Q35,54.23,35.84,58c.16.69.32,1.38.49,2.07a.16.16,0,0,1,.11,0c4,4.48,6.15,1.38,7.94-2.82a13,13,0,0,0,.85-2.74,5.33,5.33,0,0,1,1-2.83,6.9,6.9,0,0,1,2.51-1.65,24.21,24.21,0,0,1,5.66-1.66c3.18-.3,5.28,2.81,7.18,4.82.81.83,2,2.33,3.21,2.37a1.57,1.57,0,0,0,1.24-.58,10.35,10.35,0,0,0,1.87-5.25A72.58,72.58,0,0,0,64.47,39.49ZM39.3,46.7c-.3.09-.77.08-.93-.27-.43-1.43,1-2.5,1.94-3.24.83-.73,2.61-.77,2.59.69A2.1,2.1,0,0,1,42,45.24,8.72,8.72,0,0,1,39.3,46.7ZM41.47,48c-.34-.59-.51-1.67.45-1.73a1.16,1.16,0,0,1,1.19,1.25C43.05,48.4,42,48.93,41.47,48Zm16.2-3.67a1.15,1.15,0,0,1,.07-1.72c.75-.6,1.34.32,1.48,1C59.42,44.65,58.29,45,57.67,44.35ZM60,41.19a8.73,8.73,0,0,1-3,.72,2.16,2.16,0,0,1-1.57-.43c-1-1.08.39-2.25,1.48-2.25a6.37,6.37,0,0,1,2.49.16,1.76,1.76,0,0,1,1.11,1,.74.74,0,0,1-.48.81Z" fill="#ffc919"/>
          <path d="M64.82,55.63c-1.19,0-2.4-1.54-3.21-2.37-1.9-2-4-5.12-7.18-4.82a24.21,24.21,0,0,0-5.66,1.66,6.9,6.9,0,0,0-2.51,1.65,5.33,5.33,0,0,0-1,2.83,13,13,0,0,1-.85,2.74c-1.79,4.2-4,7.3-7.94,2.82a.16.16,0,0,0-.11,0c-.17-.69-.33-1.38-.49-2.07q-.86-3.8-1.46-7.63c-.18-1.3-.44-2.6-.64-3.89a.16.16,0,0,0,.07-.07,10.39,10.39,0,0,1,4-4.22.22.22,0,0,0,.1-.21,18.18,18.18,0,0,1-.17-4.6,35,35,0,0,1,8.64-4,35.86,35.86,0,0,1,9.38-1.59,11.18,11.18,0,0,1,2.53,4.72.2.2,0,0,0,.18.16c.31.91.63,1.81.94,2.72L60,41.18a1.72,1.72,0,0,0,.07.21l3.84,11.09A21.41,21.41,0,0,1,64.82,55.63Z" fill="#fff7c7" style="mix-blend-mode: overlay"/>
          <path d="M64.85,39.43c3.2-3.13,7.56,1.32,5.28,4.87a4,4,0,0,1-2.78,1.88c-.42-1.33-.87-2.63-1.35-3.92a1.74,1.74,0,0,1,.9-1.17,2,2,0,0,1,1,2,.16.16,0,0,0,.1.17c.34.09.34-.61.33-.84a1.88,1.88,0,0,0-.94-1.49,1.74,1.74,0,0,1,1.42.35c.14.12.35-.09.22-.23a2,2,0,0,0-3.27.62C65.49,40.92,65.18,40.17,64.85,39.43Z" fill="#ffc919"/>
          <path d="M69.53,57.38c-.38-2.22-.83-4.45-1.38-6.67a10.12,10.12,0,0,1-1.78,4.61A2,2,0,0,1,65.3,56c-1.46.33-3.08-1.41-4-2.45-1.82-1.92-3.87-4.91-6.78-4.64-2.7.58-5.84,1.19-7.89,3.14a4.78,4.78,0,0,0-.94,2.6,17.23,17.23,0,0,1-2.23,5.46,6.29,6.29,0,0,1-2,2.24c-1.84,1-3.72-.33-4.95-1.68.41,1.62.85,3.23,1.34,4.83.83,2.34,1.25,5.16,3.18,6.84,2.08,1.6,4.89,1.16,7.31.7A101.57,101.57,0,0,0,59.6,70.24c2.47-.94,5.41-1.56,7.63-3.07a7.65,7.65,0,0,0,2.25-2.28C70.64,62.58,69.83,59.83,69.53,57.38Zm-11.71-.3c-2,2-5.07,2.38-7.8,2.63-1.1.06-2.57-.2-2.9-1.45-.38-1.42,1-2.09,2.19-2.18A15.46,15.46,0,0,0,54,54.7c1-.48,2.13-1.15,3.3-.72A1.87,1.87,0,0,1,57.82,57.08Z" fill="#7229ab"/>
          <path d="M66.88,63.49c-.57-2.43-1-5-1.58-7.48-1.46.33-3.08-1.41-4-2.45-1.82-1.92-3.87-4.91-6.78-4.64-2.7.58-5.84,1.19-7.89,3.14a4.78,4.78,0,0,0-.94,2.6,17.23,17.23,0,0,1-2.23,5.46,6.29,6.29,0,0,1-2,2.24c-1.84,1-3.72-.33-4.95-1.68.41,1.62.85,3.23,1.34,4.83.83,2.34,1.25,5.16,3.18,6.84,2.08,1.6,4.89,1.16,7.31.7A101.57,101.57,0,0,0,59.6,70.24c2.47-.94,5.41-1.56,7.63-3.07A9.43,9.43,0,0,0,66.88,63.49Zm-8-6A4.73,4.73,0,0,1,57,59.46a10.08,10.08,0,0,1-7.18,1.25c-1.17-.24-2.28-.53-2.67-1.81a1.63,1.63,0,0,1,.47-1.75,3.23,3.23,0,0,1,1.61-.4,8.61,8.61,0,0,0,2.84-1,24,24,0,0,1,2.78-1,7.13,7.13,0,0,1,1.92-.44,2.42,2.42,0,0,1,1.82.61A2.32,2.32,0,0,1,58.88,57.53Z" fill="#b235db"/>
          <path d="M62.86,36a10.6,10.6,0,0,0-4.27.2A11.7,11.7,0,0,0,56,31.42a.23.23,0,0,0-.17-.08A35.06,35.06,0,0,0,37.38,37.1a.18.18,0,0,0-.1.16,18.28,18.28,0,0,0,.16,4.67A10.71,10.71,0,0,0,33.67,46a22.88,22.88,0,0,1-.31-3.29,26.13,26.13,0,0,1,1.14-7.61c.62-2,2.13-5.87,4.75-4.15,0,0,0,0,.08,0-.09.58-.16,1.17-.24,1.76a.16.16,0,0,0,.32.05,25.79,25.79,0,0,1,1.46-6.06c1.11-2.66,3.86-5.56,7-4.33a13.58,13.58,0,0,1,6.85,6,.16.16,0,0,0,.28-.15,15.14,15.14,0,0,0-2.19-3c2-1.63,4.37,2.18,5.62,3.52A50.65,50.65,0,0,1,62.86,36Z" fill="#7229ab"/>
          <path d="M60.05,40.48c0,.06,0,.08,0,.13a5.16,5.16,0,0,1-1.62.6c-.84.17-2,.5-2.7,0-.73-.78.37-1.59,1.24-1.62a5.94,5.94,0,0,1,1.46,0C59,39.64,59.81,39.87,60.05,40.48Z" fill="#7229ab"/>
          <path d="M57.1,54.43a1.4,1.4,0,0,1,.37,2.34,8.31,8.31,0,0,1-4.24,2.1c-1.62.22-5,1.33-5.8-.7-.3-1.17.94-1.66,1.93-1.73a15.76,15.76,0,0,0,3.25-.73C54.09,55.35,55.55,54,57.1,54.43Zm-.15,2A1.09,1.09,0,0,0,56.1,55a.17.17,0,0,0-.11.3,1.05,1.05,0,0,1,.27.24,11.08,11.08,0,0,1-7.52,2.2c-.2,0-.23.3,0,.32a9.43,9.43,0,0,0,7.75-2.26,1.54,1.54,0,0,1,.19.57.15.15,0,0,0,.1.15A.15.15,0,0,0,57,56.45Z" fill="#ffc919"/>
          <path d="M40.49,43.45c1.48-1.12,2.95.22,1.24,1.44a10.24,10.24,0,0,1-2.55,1.35c-.16,0-.33.1-.42,0a2,2,0,0,1,.64-1.8A6.7,6.7,0,0,1,40.49,43.45Z" fill="#7229ab"/>
          <path d="M34.91,55.57a4.14,4.14,0,0,1-3.39-.15c-3.73-1.9-2.22-7.9,2.06-6.86l.13,0c0,.09,0,.18,0,.27.1.52.18,1.06.25,1.59,0,.22.07.43.11.65a2,2,0,0,0-1.71-.53,1.94,1.94,0,0,0-1.57,1.51.16.16,0,0,0,.31.09,1.76,1.76,0,0,1,1-1,1.91,1.91,0,0,0-.25,1,1.84,1.84,0,0,0,.23.82,1.49,1.49,0,0,0,.45.52c.13.11.33-.09.22-.23A2,2,0,0,1,32.7,51a1.73,1.73,0,0,1,1.43.61.1.1,0,0,0,.07,0C34.41,53,34.65,54.28,34.91,55.57Z" fill="#ffc919"/>
          <path d="M34.24,38.11a1.25,1.25,0,0,0,.87-.21,7.43,7.43,0,0,0,3-3.26c.37-.76.94-3.15.28-3.84A1.29,1.29,0,0,0,37,30.68c-2.32.91-2.22,3.4-3,5.38C33.79,36.64,33.22,37.86,34.24,38.11Z" fill="#b235db"/>
          <path d="M42.39,31.54a11.89,11.89,0,0,0,5.5-3.35,5.9,5.9,0,0,0,1.67-3.13c.45-3.49-4.15-3.74-6.23-2.22A10.39,10.39,0,0,0,40.13,28c-.26.86-.72,2-.2,2.85A2.12,2.12,0,0,0,42.39,31.54Z" fill="#b235db"/>
          <path d="M52.79,25.21a.84.84,0,0,0,.27.41l.36.35c.45.43,1.08.79,1.59.21s.2-.89-.27-1.16S52.65,24.27,52.79,25.21Z" fill="#b235db"/>
          <g>
            <path d="M64.72,39.1c3.45-3.44,8.42,1.5,5.78,5.44a4.23,4.23,0,0,1-3.06,2l-.09-.32a4,4,0,0,0,2.78-1.88c2.28-3.55-2.08-8-5.28-4.87Z" fill="#480973"/>
            <path d="M70.49,61.18c.65,4.74-3.12,6.95-7.06,8.25-2.44.87-4.9,1.73-7.42,2.38S50.94,73,48.41,73.5s-5.51.9-7.68-.8a6.21,6.21,0,0,1-.57-.58l.08-.09a.16.16,0,0,0-.25-.21l0,.05a7.51,7.51,0,0,1-.9-1.48.65.65,0,0,1,.16-.09.16.16,0,0,0-.15-.29l-.15.08c-.63-1.42-1-3-1.48-4.46-.76-2.48-1.42-5-2-7.53-.16-.73-.32-1.46-.46-2.2l.19-.1a.15.15,0,0,0,.07-.21.15.15,0,0,0-.21-.07l-.12,0c-.26-1.29-.5-2.58-.71-3.88a.16.16,0,0,0,.19-.24,1.87,1.87,0,0,0-.28-.35c0-.22-.07-.43-.11-.65-.08-.62-.19-1.24-.29-1.86h.06a.16.16,0,0,0,.13-.29,1.44,1.44,0,0,0-.25-.08A35,35,0,0,1,33,42.72,26.49,26.49,0,0,1,34.17,35c.67-1.75,1.29-4.12,3.32-4.72a2.21,2.21,0,0,1,1.9.37l-.06.34s0,0-.08,0c-2.62-1.72-4.13,2.17-4.75,4.15a26.13,26.13,0,0,0-1.14,7.61A22.88,22.88,0,0,0,33.67,46a1.82,1.82,0,0,0-.15.27c-.08.15.1.28.22.22.2,1.29.46,2.59.64,3.89Q35,54.23,35.84,58c.16.69.32,1.38.49,2.07a.16.16,0,0,0-.12.27,4,4,0,0,0,.28.32c.41,1.62.85,3.23,1.34,4.83.83,2.34,1.25,5.16,3.18,6.84,2.08,1.6,4.89,1.16,7.31.7A101.57,101.57,0,0,0,59.6,70.24c3.45-1.32,7.8-2,9.88-5.35,1.16-2.31.35-5.06,0-7.51-.38-2.22-.83-4.45-1.38-6.67,0-.32.08-.65.11-1s-.32-.23-.32,0c0,0,0,.06,0,.09a72.58,72.58,0,0,0-3.46-10.31.16.16,0,0,0,.28,0l.1-.1c.33.74.64,1.49.92,2.24a1.81,1.81,0,0,0-.11.63.16.16,0,0,0,.32,0l0-.08c.48,1.29.93,2.59,1.35,3.92l-.17,0a.16.16,0,0,0-.16.16.17.17,0,0,0,.17.16l.25,0c.76,2.48,1.38,5,1.9,7.55l-.06-.13a.17.17,0,0,0-.3.14l.63,1.43C70,57.38,70.25,59.29,70.49,61.18Z" fill="#480973"/>
            <path d="M69.61,55.49,69,54.06a.17.17,0,0,1,.3-.14l.06.13Q69.49,54.77,69.61,55.49Z" fill="#480973"/>
            <path d="M69,41.05c.13.14-.08.35-.22.23a1.74,1.74,0,0,0-1.42-.35,1.29,1.29,0,0,0-.44-.16.16.16,0,0,0-.1.3l0,0a1.74,1.74,0,0,0-.9,1.17c-.07-.2-.15-.4-.23-.59A2,2,0,0,1,69,41.05Z" fill="#480973"/>
            <path d="M68.34,42.42c0,.23,0,.93-.33.84a.16.16,0,0,1-.1-.17,2,2,0,0,0-1-2,2.24,2.24,0,0,1,.5-.16A1.88,1.88,0,0,1,68.34,42.42Z" fill="#480973"/>
            <path d="M67.94,49.71c0-.2.34-.18.32,0s-.06.65-.11,1c-.07-.31-.15-.61-.22-.91C67.93,49.77,67.94,49.74,67.94,49.71Z" fill="#480973"/>
            <path d="M67.93,49.8c.07.3.15.6.22.91a10.12,10.12,0,0,1-1.78,4.61c-1.68,2-3.91-.45-5.09-1.76-1.82-1.92-3.87-4.91-6.78-4.64-2.7.58-5.84,1.19-7.89,3.14a4.78,4.78,0,0,0-.94,2.6,17.23,17.23,0,0,1-2.23,5.46,6.29,6.29,0,0,1-2,2.24c-1.84,1-3.72-.33-4.95-1.68-.06-.2-.11-.4-.16-.59a.16.16,0,0,1,.11,0c4,4.48,6.15,1.38,7.94-2.82a13,13,0,0,0,.85-2.74,5.33,5.33,0,0,1,1-2.83,6.9,6.9,0,0,1,2.51-1.65,24.21,24.21,0,0,1,5.66-1.66c3.18-.3,5.28,2.81,7.18,4.82,1.09,1.13,2.92,3.46,4.45,1.79A10.35,10.35,0,0,0,67.93,49.8Z" fill="#480973"/>
            <path d="M67.44,46.5l-.25,0a.17.17,0,0,1-.17-.16.16.16,0,0,1,.16-.16l.17,0Z" fill="#480973"/>
            <path d="M67,40.77a1.29,1.29,0,0,1,.44.16,2.24,2.24,0,0,0-.5.16l0,0A.16.16,0,0,1,67,40.77Z" fill="#480973"/>
            <path d="M66,42.26l0,.08a.16.16,0,0,1-.32,0,1.81,1.81,0,0,1,.11-.63C65.85,41.86,65.93,42.06,66,42.26Z" fill="#480973"/>
            <path d="M64.72,39.1l.13.33-.1.1a.16.16,0,0,1-.28,0,.14.14,0,0,1,0-.15Z" fill="#480973"/>
            <path d="M64.72,39.1l-.23.24a.14.14,0,0,0,0,.15c-.45-1-.92-2.08-1.43-3.09h.07a.18.18,0,0,0,.19-.13.18.18,0,0,0-.14-.19l-.3-.06a50.65,50.65,0,0,0-4.47-7.27c-1.25-1.34-3.57-5.15-5.62-3.52L52.55,25c2.33-1.86,4.7,2,6.11,3.54A55.65,55.65,0,0,1,64.72,39.1Z" fill="#480973"/>
            <path d="M63.16,36.09a.18.18,0,0,1,.14.19.18.18,0,0,1-.19.13H63a4,4,0,0,1-.17-.36Z" fill="#480973"/>
            <path d="M62.86,36a4,4,0,0,0,.17.36,10.34,10.34,0,0,0-4.53.27.19.19,0,0,1-.25-.15,11.18,11.18,0,0,0-2.53-4.72h.11l-.17-.07.06.08a35.86,35.86,0,0,0-9.38,1.59,35,35,0,0,0-8.64,4,.34.34,0,0,1,0-.1l-.1.16.09-.06a18.18,18.18,0,0,0,.17,4.6.22.22,0,0,1-.1.21,10.39,10.39,0,0,0-4,4.22.16.16,0,0,1-.07.07c0-.17-.05-.33-.07-.49a10.71,10.71,0,0,1,3.77-4.08s0,.09,0,.13l.1-.21-.12.08a18.28,18.28,0,0,1-.16-4.67.18.18,0,0,1,.1-.16,35.06,35.06,0,0,1,18.44-5.76.23.23,0,0,1,.17.08,11.7,11.7,0,0,1,2.6,4.81l-.2.05.25.15a1.46,1.46,0,0,0,0-.2A10.6,10.6,0,0,1,62.86,36Z" fill="#480973"/>
            <path d="M60.48,40.37c.12.38-.22.7-.51.82a8.73,8.73,0,0,1-3,.72,2.16,2.16,0,0,1-1.57-.43c-1-1.08.39-2.25,1.48-2.25S59.86,39,60.48,40.37Zm-.48.24s.06-.07,0-.13c-.24-.61-1-.84-1.67-.92a5.94,5.94,0,0,0-1.46,0c-.87,0-2,.84-1.24,1.62.71.53,1.86.2,2.7,0A5.16,5.16,0,0,0,60,40.61Z" fill="#480973"/>
            <path d="M59.22,43.63c.2,1-.93,1.32-1.55.72a1.15,1.15,0,0,1,.07-1.72C58.49,42,59.08,43,59.22,43.63Z" fill="#480973"/>
            <path d="M58.59,36.23a1.46,1.46,0,0,1,0,.2l-.25-.15Z" fill="#480973"/>
            <path d="M57.27,54a1.87,1.87,0,0,1,.55,3.1c-2,2-5.07,2.38-7.8,2.63-1.1.06-2.57-.2-2.9-1.45-.38-1.42,1-2.08,2.19-2.18A15.46,15.46,0,0,0,54,54.7C55,54.22,56.1,53.55,57.27,54Zm.2,2.79a1.4,1.4,0,0,0-.37-2.34c-1.55-.48-3,.92-4.49,1.28a15.76,15.76,0,0,1-3.25.73c-1,.07-2.23.56-1.93,1.73.75,2,4.18.92,5.8.7A8.31,8.31,0,0,0,57.47,56.77Z" fill="#480973"/>
            <path d="M56.1,55A1.09,1.09,0,0,1,57,56.45a.15.15,0,0,1-.21.09.15.15,0,0,1-.1-.15,1.54,1.54,0,0,0-.19-.57l.07-.06a.16.16,0,0,0-.21-.24l-.05,0a1.05,1.05,0,0,0-.27-.24A.17.17,0,0,1,56.1,55Z" fill="#480973"/>
            <path d="M56.31,55.52a.16.16,0,0,1,.21.24l-.07.06a1.15,1.15,0,0,0-.19-.26Z" fill="#480973"/>
            <path d="M56.26,55.56a1.15,1.15,0,0,1,.19.26,9.43,9.43,0,0,1-7.75,2.26c-.19,0-.16-.34,0-.32A11.08,11.08,0,0,0,56.26,55.56Z" fill="#480973"/>
            <path d="M55.83,31.78h-.11l-.06-.08Z" fill="#480973"/>
            <path d="M55,28.28a.16.16,0,0,1-.28.15,13.58,13.58,0,0,0-6.85-6c-3.1-1.23-5.85,1.67-7,4.33a25.79,25.79,0,0,0-1.46,6.06.16.16,0,0,1-.32-.05c.08-.59.15-1.18.24-1.76a.16.16,0,0,0,.14-.28l-.08-.06a17.5,17.5,0,0,1,1.09-4.07c2.2-4.88,5.82-6.5,10.33-3.1A12.57,12.57,0,0,1,52.55,25l-.15.13c-.14.13.1.39.24.22l.13-.11A15.14,15.14,0,0,1,55,28.28Z" fill="#480973"/>
            <path d="M52.77,25.24l-.13.11c-.14.17-.38-.09-.24-.22l.15-.13Z" fill="#480973"/>
            <path d="M41.92,46.29a1.16,1.16,0,0,1,1.19,1.25c-.06.86-1.11,1.39-1.64.48C41.13,47.43,41,46.35,41.92,46.29Z" fill="#480973"/>
            <path d="M40.31,43.19c.83-.73,2.61-.77,2.59.69A2.1,2.1,0,0,1,42,45.24,8.72,8.72,0,0,1,39.3,46.7c-.3.09-.77.08-.93-.27C37.94,45,39.33,43.93,40.31,43.19Zm1.42,1.7c1.71-1.22.24-2.56-1.24-1.44a6.7,6.7,0,0,0-1.09,1,2,2,0,0,0-.64,1.8c.09.12.26.05.42,0A10.24,10.24,0,0,0,41.73,44.89Z" fill="#480973"/>
            <path d="M40,71.82a.16.16,0,0,1,.25.21l-.08.09C40.08,72,40,72,40,71.87Z" fill="#480973"/>
            <path d="M39.47,30.72a.16.16,0,0,1-.14.28l.06-.34Z" fill="#480973"/>
            <path d="M39.06,70a.16.16,0,0,1,.15.29.65.65,0,0,0-.16.09c0-.1-.1-.19-.14-.29h0Z" fill="#480973"/>
            <path d="M37.71,37.3a.34.34,0,0,0,0,.1l-.09.06Z" fill="#480973"/>
            <path d="M37.56,41.85l-.1.21s0-.08,0-.13Z" fill="#480973"/>
            <path d="M36.33,60.09c.05.19.1.39.16.59a4,4,0,0,1-.28-.32A.16.16,0,0,1,36.33,60.09Z" fill="#480973"/>
            <path d="M35.24,55.59a.15.15,0,0,1-.07.21l-.19.1c0-.11,0-.22-.07-.33l.12,0A.15.15,0,0,1,35.24,55.59Z" fill="#480973"/>
            <path d="M34.91,55.57c0,.11,0,.22.07.33a4.38,4.38,0,0,1-5.21-1.35c-2.24-2.94.18-7.44,3.88-6.32l.06.36c-4.38-1.18-6,4.91-2.19,6.83A4.06,4.06,0,0,0,34.91,55.57Z" fill="#480973"/>
            <path d="M34.39,51.45a.16.16,0,0,1-.19.24c0-.2-.07-.39-.09-.59A1.87,1.87,0,0,1,34.39,51.45Z" fill="#480973"/>
            <path d="M34.11,51.1c0,.2.06.39.09.59a.1.1,0,0,1-.07,0A1.73,1.73,0,0,0,32.7,51l0,0c.1-.14-.11-.33-.25-.21a1.76,1.76,0,0,0-.29.37,1.76,1.76,0,0,0-1,1,.16.16,0,0,1-.31-.09,1.94,1.94,0,0,1,1.57-1.51A2,2,0,0,1,34.11,51.1Z" fill="#480973"/>
            <path d="M33.9,48.31a.16.16,0,0,1-.13.29h-.06l-.06-.36A1.44,1.44,0,0,1,33.9,48.31Z" fill="#480973"/>
            <path d="M33.74,46.5c-.12.06-.3-.07-.22-.22a1.82,1.82,0,0,1,.15-.27C33.69,46.17,33.71,46.33,33.74,46.5Z" fill="#480973"/>
            <path d="M32.84,53.28c.11.14-.09.34-.22.23a1.8,1.8,0,0,1-.68-1.34,1.91,1.91,0,0,1,.25-1A1.72,1.72,0,0,1,32.7,51,2,2,0,0,0,32.84,53.28Z" fill="#480973"/>
            <path d="M32.48,50.78c.14-.12.35.07.25.21l0,0a1.72,1.72,0,0,0-.51.11A1.76,1.76,0,0,1,32.48,50.78Z" fill="#480973"/>
          </g>
          <path d="M34.15,51.36A1,1,0,0,0,32.68,51a1.76,1.76,0,0,0-.56,1.61,2.39,2.39,0,0,0,.05.36c.08.46.24.9.32,1.36a1.72,1.72,0,0,1-.22,1.36,4,4,0,0,1-.75-.29c-3.73-1.9-2.22-7.9,2.06-6.86a1.46,1.46,0,0,1,.17.3A4.45,4.45,0,0,1,34.15,51.36Z" fill="#fff7c7" style="mix-blend-mode: overlay"/>
        </g>
      </g>
    </g>
  </g>
</svg>
