<svg xmlns="http://www.w3.org/2000/svg" viewBox="0 0 100 100">
  <title>profile_12</title>
  <g style="isolation: isolate">
    <g id="ea64a1a9-ba23-44aa-b06f-1a09c2bed029" data-name="layer 1">
      <g>
        <circle cx="51.75" cy="50" r="37.61" fill="#2fb5eb"/>
        <path d="M60.7,80.27l.39-.1c12.6-3.28,15.65-10.73,15.39-24.1a5.19,5.19,0,0,0,5.66-1l.23-.23h0a4.42,4.42,0,0,0,.71-1c2-3,.25-8.16-3.55-8.63a4.07,4.07,0,0,0-1.44.17s0,0,0,0l-1.45-.7,0,0a37.87,37.87,0,0,0-.12-4.88,7.74,7.74,0,0,0,.67-3.49,10.09,10.09,0,0,0-5.93-8.45c-4.28-2.1-9.22-1.72-13.73-.72a4.57,4.57,0,0,0,.09-2.08C57,22,53.49,20.52,50.67,21.13A9.36,9.36,0,0,0,47,22.71a7.74,7.74,0,0,0-4.84-5c-6.31-2.12-13,2.63-15.09,8.56-.68,2-1.21,4.6-.55,6.72-1.9-1.17-4.37-.73-6.42-.17A13.47,13.47,0,0,0,11,42.92c-1.53,6.81,2.8,15.64,10.39,15.91,4.55,0,9.6-1.95,11.91-6a8,8,0,0,0,2.32,1.67,11.25,11.25,0,0,0-8.38,10.07c-.39,4.74.37,9.92,3.49,13.69a9.91,9.91,0,0,0,4.9,3.05c3.73,1,7.62.9,11.45.85a65.2,65.2,0,0,0,11.4-1.33C59.22,80.62,60,80.46,60.7,80.27Z" fill="#480973"/>
        <g>
          <path d="M82.51,42.71c3.42.46,4.93,5.2,3.18,7.95-1.51,2.86-6.41,3.54-7.52.24A15.46,15.46,0,0,1,78,46.5a.13.13,0,0,0,0-.06A4.55,4.55,0,0,1,82.51,42.71Zm1.86,5.43a2.32,2.32,0,0,0-1.87-3.32,2.49,2.49,0,0,0-2.68,2.8c0,.19.35.15.31,0a2,2,0,0,1,.7-1.7h0a1.32,1.32,0,0,1,1.63,1.2A2,2,0,0,1,81.3,49a.16.16,0,0,0,.12.29A2.18,2.18,0,0,0,83,47a1.71,1.71,0,0,0-1.45-1.56,2.1,2.1,0,0,1,.93-.15A2,2,0,0,1,84.08,48C84,48.2,84.29,48.33,84.37,48.14Z" fill="#ffc919"/>
          <path d="M79.14,39.26c0,.76,0,1.53.11,2.28-.92-.43-1.84-.85-2.77-1.25L75.77,40c.11-2,.22-4.28-.87-6a28.73,28.73,0,0,0-16.58-.64,8,8,0,0,0,1.26-3.43.16.16,0,0,0-.31-.05,7.86,7.86,0,0,1-.5,1.65,1.92,1.92,0,0,1-.14.33,8.41,8.41,0,0,1-1.37,2.11,8.79,8.79,0,0,1-4.79,2.84,137.65,137.65,0,0,0-19.21,2.33.17.17,0,0,0-.11.09.14.14,0,0,0,0,.06v0a7.69,7.69,0,0,0,.3,3.95,0,0,0,0,0,0,0,.16.16,0,0,0,.17.1l.64-.1a9.86,9.86,0,0,0,.22,3.33,6.86,6.86,0,0,0,1.56,3c-2.23,4-7.26,5.88-11.66,5.87A10.06,10.06,0,0,1,16.12,50a14.44,14.44,0,0,1-1.71-10A13.08,13.08,0,0,1,25.52,29.72a8.32,8.32,0,0,1,1.12-.08h.09a5.71,5.71,0,0,1,2.11.35,3.22,3.22,0,0,1,.9.51A4.74,4.74,0,0,0,31,32.3l0,0h0c.15.06.31-.17.15-.28a4.52,4.52,0,0,1-1.13-1.64l0,0c-.85-2.12-.29-4.85.43-6.94,2-5.68,8.49-10.26,14.54-8.3a7.34,7.34,0,0,1,2.69,1.64,7.14,7.14,0,0,1,2,3.2.14.14,0,0,0,0,.13,5.7,5.7,0,0,1,.17,2,.17.17,0,0,0,.33,0,6.6,6.6,0,0,0,0-1.54,4.94,4.94,0,0,0-.1-.53,10,10,0,0,1,3.65-1.5,6.21,6.21,0,0,1,3.72.46,4.51,4.51,0,0,1,2.67,3.15A3.85,3.85,0,0,1,59,25.82a.16.16,0,1,0,.21.25,3.53,3.53,0,0,0,1.12-1.55q1.18-.24,2.37-.42a28.69,28.69,0,0,1,4.53-.33c4.54,0,9.57,2,11.62,6.25.06.12.11.25.17.37a8.11,8.11,0,0,1,.13,6.32.14.14,0,0,0,0,.07C79.13,37.6,79.13,38.43,79.14,39.26Z" fill="#ec2872"/>
          <path d="M79.17,52.85A3.23,3.23,0,0,1,78,51.27l0-.06a8.24,8.24,0,0,1-.3-4.56s0,0,0,0A4.59,4.59,0,0,1,78.69,44c-.73-.28-1.46-.54-2.2-.78l-.54-.2c0,1.75,0,3.5-.12,5.24-.29,2.74-.21,5.64-1.43,8.17a6.38,6.38,0,0,1-7.26,3.11.08.08,0,0,1-.07,0s0,0,0-.07,0,0,0,0a10.21,10.21,0,0,0-5.26-8,8.63,8.63,0,0,1-2,.1l-.32,0a7.82,7.82,0,0,1-5.32-1.7c-1,.07-2,.13-2.93.23s-2,.18-3,.23A8,8,0,0,1,43.62,52a7.51,7.51,0,0,1-4.53-.37c-6,1.37-9,6.82-8.55,12.73.16,4.35,1.41,9.28,5.08,11.94a5.22,5.22,0,0,0,.54.38c2.43,1.47,5.37,1.74,8.16,1.88a69.49,69.49,0,0,0,17-1.27c.9-.18,1.75-.37,2.57-.57h0a26.9,26.9,0,0,0,6.63-2.56c6.84-3.89,8.66-10.5,8.6-20.71v-.61ZM54.06,58.12c1.13-.5,2.37-.2,3.51-.65a13,13,0,0,0,2.13-1c.9-.44,1.77.47,1.84,1.36-.1,2.22-4.39,3.15-6.18,2.87A2.67,2.67,0,0,1,53.62,60,1.23,1.23,0,0,1,54.06,58.12Z" fill="#ec2872"/>
          <path d="M75.62,42.94c0,1.78-.11,3.55-.23,5.32-.3,2.68-.28,5.52-1.4,8a6.11,6.11,0,0,1-6.65,3,9.51,9.51,0,0,0-5.07-8,6.82,6.82,0,0,0,.88-.26c4.6-1.52,5.93-5.55,5.91-10C71.27,41.59,73.46,42.23,75.62,42.94Z" fill="#ffc919"/>
          <path d="M74.66,34.31a11.91,11.91,0,0,1,.79,5.52c-2.4-1-4.82-2-7.3-2.85h0a121.08,121.08,0,0,0-14-.31,8.64,8.64,0,0,0,3.93-3A37.28,37.28,0,0,1,62.13,33,28.91,28.91,0,0,1,74.66,34.31Z" fill="#ffc919"/>
          <path d="M67.84,40.4c-2.82,0-5.65.06-8.47.14-2,.07-3.93.15-5.9.26L51,41l-2.79.2c-2.43.2-4.87.43-7.29.73-2.13.27-4.26.58-6.37.94h0a.15.15,0,0,0-.17,0h0l-.59.1a24,24,0,0,1-.27-3.59c1.74-.31,3.47-.58,5.22-.83,2.66-.38,5.34-.69,8-.93.78-.06,1.56-.13,2.34-.18l2.46-.16a128.22,128.22,0,0,1,16.4.12A15.94,15.94,0,0,0,67.84,40.4Z" fill="#7229ab"/>
          <path d="M67.33,40.83a18.47,18.47,0,0,1-.11,2.1,12.69,12.69,0,0,1-.44,2.14,9,9,0,0,1-1.23,2.56,7.65,7.65,0,0,1-12.46.59,8.33,8.33,0,0,1-1.38-2.7,10.89,10.89,0,0,1-.38-2,11.9,11.9,0,0,1,0-2.15c2.69-.16,5.39-.28,8.09-.38S64.85,40.87,67.33,40.83Z" fill="#7229ab"/>
          <path d="M61.18,57.88c0,.73-.74,1.22-1.33,1.55a6.8,6.8,0,0,1-5.48.53.79.79,0,0,1-.1-1.46,2.5,2.5,0,0,1,1-.26,9.4,9.4,0,0,0,4.5-1.43C60.53,56.46,61.13,57.26,61.18,57.88Z" fill="#ffc919"/>
          <path d="M53.73,49.49a26.78,26.78,0,0,0-5,.41,7.91,7.91,0,0,0,2.54-4.35A7.94,7.94,0,0,0,53.73,49.49Z" fill="#ffc919"/>
          <path d="M49.87,43.51a11.36,11.36,0,0,1-.38,2.26,7.79,7.79,0,0,1-6.74,5.9,7.19,7.19,0,0,1-7.38-4,8,8,0,0,1-.83-3.09,10.25,10.25,0,0,1,0-1.46c5.08-.8,10.2-1.32,15.33-1.66A19.46,19.46,0,0,1,49.87,43.51Z" fill="#7229ab"/>
          <path d="M59.26,30.74c-.2.35-.42.71-.63,1.05-.44.72-.89,1.42-1.37,2.11a8.79,8.79,0,0,1-4.79,2.84,137.65,137.65,0,0,0-19.21,2.33.17.17,0,0,0-.11.09.14.14,0,0,0,0,.06v0a7.69,7.69,0,0,0,.3,3.95,0,0,0,0,0,0,0,.16.16,0,0,0,.17.1l.64-.1a9.86,9.86,0,0,0,.22,3.33,6.86,6.86,0,0,0,1.56,3c-2.23,4-7.26,5.88-11.66,5.87A10.06,10.06,0,0,1,16.12,50,11.78,11.78,0,0,0,24,52.34a10,10,0,0,0,7.42-4.27,11.29,11.29,0,0,0,.75-10.26,19.13,19.13,0,0,0-6.64-8.09l-.07-.06a6.7,6.7,0,0,1,1.26,0h0a14.73,14.73,0,0,1,2.11.35l.75.16a10.61,10.61,0,0,0,1.48,2.18,12.41,12.41,0,0,0,3.64,2.93A6.31,6.31,0,0,0,41.78,35a14.36,14.36,0,0,0,6.1-8.11c.84-3.34,1.27-6.87-.15-10.11q-.12-.29-.27-.57A7,7,0,0,1,50,19.78c.08.26.16.53.23.79a15.24,15.24,0,0,1,.12,7.56c-.53,1.92-.78,3.79.86,5.33,2.71,2.55,5.81.45,7.57-2C59,31.23,59.1,31,59.26,30.74Z" fill="#a80a64"/>
          <path d="M62.74,24.1a4.59,4.59,0,0,1-2.22,2,12.85,12.85,0,0,1-3.74.83,8.54,8.54,0,0,0,1.73-5.83,3.8,3.8,0,0,0-.35-1.37,3.39,3.39,0,0,0-.67-.7,4.51,4.51,0,0,1,2.67,3.15A3.85,3.85,0,0,1,59,25.82a.16.16,0,1,0,.21.25,3.53,3.53,0,0,0,1.12-1.55Q61.55,24.28,62.74,24.1Z" fill="#a80a64"/>
          <path d="M79.17,52.87v.59c.06,10.21-1.76,16.82-8.6,20.71a26.9,26.9,0,0,1-6.63,2.56h0c-.82.2-1.67.39-2.57.57a69.49,69.49,0,0,1-17,1.27c-2.79-.14-5.73-.41-8.16-1.88a5.22,5.22,0,0,1-.54-.38A67.67,67.67,0,0,0,55.36,76c5.12-.85,10.28-2.34,14.39-5.52a16.27,16.27,0,0,0,6.43-12c.16-2.33.34-4.59.33-6.95,0-.8.38-8.21,0-8.34.74.24,1.47.5,2.2.78a4.59,4.59,0,0,0-1.09,2.59s0,0,0,0a8.24,8.24,0,0,0,.3,4.56l0,.06a3.23,3.23,0,0,0,1.22,1.58Z" fill="#a80a64"/>
          <path d="M79.14,39.26c0,.76,0,1.53.11,2.28-.92-.43-1.84-.85-2.77-1.25,0-2,0-4.07,0-6.1,0-.07,1.8-1.61,2-2a5,5,0,0,0,.59-1.84,8.11,8.11,0,0,1,.13,6.32.14.14,0,0,0,0,.07C79.13,37.6,79.13,38.43,79.14,39.26Z" fill="#a80a64"/>
          <path d="M55.67,62.07a4.6,4.6,0,0,0,2.44.25A4.7,4.7,0,0,0,61,61.18a2.27,2.27,0,0,0,.42-2.83c.25.34-2.93,1.72-3.23,1.8a9.13,9.13,0,0,1-3.79.11C54.2,61,55,61.78,55.67,62.07Z" fill="#a80a64"/>
          <path d="M49.87,43.51a11.36,11.36,0,0,1-.38,2.26c-.9-.62-2.32-.26-3.29.39S44.12,48,42.79,48.21a5.7,5.7,0,0,1-2.88-.49,5.72,5.72,0,0,0-3.51-.52,5.71,5.71,0,0,0-1,.5,8,8,0,0,1-.83-3.09,2.28,2.28,0,0,1,.88-.37,5.88,5.88,0,0,1,3,.55,24.81,24.81,0,0,0,2.84,1.15,4,4,0,0,0,3-.2c1.36-.76,2-2.62,3.51-3A2.14,2.14,0,0,1,49.87,43.51Z" fill="#b235db"/>
          <path d="M67.22,42.93a12.69,12.69,0,0,1-.44,2.14,2.92,2.92,0,0,0-1.56.29,5.89,5.89,0,0,1-2,.69c-1.61.07-2.89-1.62-4.5-1.56s-2.59,1.67-4.08,2.06a2.82,2.82,0,0,1-2.9-1,10.89,10.89,0,0,1-.38-2,.52.52,0,0,1,.52-.11c.29.09.43.39.63.61a1.89,1.89,0,0,0,2.18.17,9.67,9.67,0,0,0,1.83-1.44A2.86,2.86,0,0,1,58.62,42c1.15.17,1.86,1.43,3,1.76a3.27,3.27,0,0,0,2.06-.22,13,13,0,0,1,2-.72A2.51,2.51,0,0,1,67.22,42.93Z" fill="#b235db"/>
          <path d="M48.16,41.15c-2.43.2-4.87.43-7.29.73h0l-.12-.18a13.5,13.5,0,0,1-2.07-3.16c2.66-.38,5.34-.69,8-.93.19.57.39,1.13.61,1.68S47.91,40.52,48.16,41.15Z" fill="#b235db"/>
          <path d="M53.47,40.8,51,41l-.14-.22c-.56-1.09-1.26-2.18-1.78-3.3l2.46-.16Z" fill="#b235db"/>
          <path d="M82.75,42.61a4.76,4.76,0,0,1,2.8,1.81,5.85,5.85,0,0,1,1.09,4.23,1,1,0,0,1-.76.79c-.55.1-1-.41-1.2-.94s-.15-1.1-.32-1.63a2.36,2.36,0,1,0-4.45,1.55A11.46,11.46,0,0,0,81,50.11,1.81,1.81,0,0,1,81.16,52a1.46,1.46,0,0,1-1.82.36,3,3,0,0,1-1.27-1.54,7.48,7.48,0,0,1,.71-6.54A3.73,3.73,0,0,1,82.75,42.61Z" fill="#fff7c7" style="mix-blend-mode: overlay"/>
          <g>
            <path d="M82.54,42.28c3.8.47,5.51,5.59,3.55,8.62a4.23,4.23,0,0,1-.7,1s0,0,0,0a.16.16,0,0,0-.25.2l0,.05a5.14,5.14,0,0,1-5.65,1v-.18a.18.18,0,0,0-.17-.17.17.17,0,0,0-.16.15A3.23,3.23,0,0,1,78,51.27a.15.15,0,0,0,.13,0,.16.16,0,0,0,.13-.19,1.7,1.7,0,0,0,0-.22c1.11,3.3,6,2.62,7.52-.24,1.75-2.75.24-7.49-3.18-7.95A4.55,4.55,0,0,0,78,46.44a.16.16,0,0,0-.31,0,1,1,0,0,0,0,.17A4.59,4.59,0,0,1,78.69,44l.14,0c.2.08.3-.23.11-.3a0,0,0,0,0,0,0,4.78,4.78,0,0,1,1.74-1.17l.27.12c.18.09.3-.17.16-.27A4.12,4.12,0,0,1,82.54,42.28Z" fill="#480973"/>
            <path d="M85.39,51.86h0a2.4,2.4,0,0,1-.24.22l0-.05a.16.16,0,0,1,.25-.2S85.37,51.86,85.39,51.86Z" fill="#480973"/>
            <path d="M82.5,44.82a2.32,2.32,0,0,1,1.87,3.32c-.08.19-.36.06-.29-.13a2,2,0,0,0-1.61-2.71,2.1,2.1,0,0,0-.93.15,1.42,1.42,0,0,0-.78.11c-.16.06-.09.31.07.31a2,2,0,0,0-.7,1.7c0,.2-.28.24-.31,0A2.49,2.49,0,0,1,82.5,44.82Z" fill="#480973"/>
            <path d="M83,47a2.18,2.18,0,0,1-1.57,2.26A.16.16,0,0,1,81.3,49a2,2,0,0,0,1.21-1.92,1.32,1.32,0,0,0-1.63-1.2h0a1.93,1.93,0,0,1,.7-.42A1.71,1.71,0,0,1,83,47Z" fill="#480973"/>
            <path d="M80.76,45.56a1.42,1.42,0,0,1,.78-.11,1.93,1.93,0,0,0-.7.42h0C80.67,45.87,80.6,45.62,80.76,45.56Z" fill="#480973"/>
            <path d="M81.1,42.44c.14.1,0,.36-.16.27l-.27-.12A3.66,3.66,0,0,1,81.1,42.44Z" fill="#480973"/>
            <path d="M81.08,42.42l0,0a3.66,3.66,0,0,0-.43.15l-1.08-.51a.13.13,0,0,0,.11-.1.13.13,0,0,0,0-.15.69.69,0,0,0,0-.1Z" fill="#480973"/>
            <path d="M79.59,42.08l1.08.51a4.78,4.78,0,0,0-1.74,1.17c-1-.39-2.05-.78-3.09-1.13a65.33,65.33,0,0,0-7.64-2.2,18.15,18.15,0,0,0,0-3c2.33.82,4.79,1.77,7.22,2.79a.13.13,0,0,0,.14.06c1.28.54,2.54,1.09,3.79,1.67h0A.18.18,0,0,0,79.59,42.08Z" fill="#480973"/>
            <path d="M80.16,33.32a7.54,7.54,0,0,1-.66,3.48v0a.17.17,0,0,0-.33,0,.14.14,0,0,1,0-.07,8.22,8.22,0,0,0-.3-6.69c-2-4.29-7.08-6.21-11.62-6.25a32.19,32.19,0,0,0-6.9.75,2.72,2.72,0,0,0,.13-.37h0c4.51-1,9.45-1.38,13.73.71A10.12,10.12,0,0,1,80.16,33.32Z" fill="#480973"/>
            <path d="M79.67,41.83a.13.13,0,0,1,0,.15.13.13,0,0,1-.11.1L79.4,42a.88.88,0,0,0-.06-.1.11.11,0,0,1,0-.06.17.17,0,0,0,.29-.05l.05,0Z" fill="#480973"/>
            <path d="M79.67,41.83l0,0-.05,0s0,0,0,0h0l-.26,0a1.15,1.15,0,0,1,0-.19.3.3,0,0,0,.08,0,.15.15,0,0,0-.06.09l.34,0h0A.69.69,0,0,1,79.67,41.83Z" fill="#480973"/>
            <path d="M79.65,41.81l-.05,0Z" fill="#480973"/>
            <path d="M79.5,36.8a39.92,39.92,0,0,1,.11,4.89.14.14,0,0,0,0-.06.19.19,0,0,0-.26-.05.3.3,0,0,1-.08,0c-.08-.75-.1-1.52-.11-2.28s0-1.66,0-2.48a.18.18,0,0,0,.1.15.16.16,0,0,0,.21-.09A.05.05,0,0,0,79.5,36.8Z" fill="#480973"/>
            <path d="M79.63,41.73h0v0Z" fill="#480973"/>
            <path d="M79.61,41.69v0l-.28-.14a.19.19,0,0,1,.26.05A.14.14,0,0,1,79.61,41.69Z" fill="#480973"/>
            <path d="M79.61,41.72l-.34,0a.15.15,0,0,1,.06-.09Z" fill="#480973"/>
            <path d="M79.6,41.79l-.06,0h0Z" fill="#480973"/>
            <path d="M79.51,41.78h0l0,0,0,0Zm-.2.06a.11.11,0,0,0,0,.06.88.88,0,0,1,.06.1c-1.25-.58-2.51-1.13-3.79-1.67a.14.14,0,0,0,.15-.14,1.62,1.62,0,0,0,0-.22c1.17.5,2.33,1,3.48,1.57a1.15,1.15,0,0,0,0,.19l.26,0h0l.06,0A.17.17,0,0,1,79.31,41.84Z" fill="#480973"/>
            <path d="M79.6,41.79l0,0S79.59,41.77,79.6,41.79Z" fill="#480973"/>
            <path d="M79.59,42.08A.18.18,0,0,1,79.4,42h0Z" fill="#480973"/>
            <path d="M79.5,53.05c.25,13.37-2.79,20.83-15.39,24.11l0-.26c0-.13-.12-.19-.21-.17,12.54-3.22,15.38-10.55,15.23-23.86v0A2.23,2.23,0,0,0,79.5,53.05Z" fill="#480973"/>
            <path d="M79.51,41.78h0Z" fill="#480973"/>
            <path d="M79.5,52.87v.18a2.23,2.23,0,0,1-.33-.2.17.17,0,0,1,.16-.15A.18.18,0,0,1,79.5,52.87Z" fill="#480973"/>
            <path d="M79.5,36.77v0a.05.05,0,0,1,0,0,.16.16,0,0,1-.21.09.18.18,0,0,1-.1-.15A.17.17,0,0,1,79.5,36.77Z" fill="#480973"/>
            <path d="M79.47,41.79l0,0Z" fill="#480973"/>
            <path d="M78.94,43.77c.19.07.09.38-.11.3l-.14,0c.08-.09.15-.18.24-.27A0,0,0,0,1,78.94,43.77Z" fill="#480973"/>
            <path d="M78.93,43.76c-.09.09-.16.18-.24.27-.91-.34-1.82-.67-2.74-1v-.27a.17.17,0,0,0-.11-.15h0C76.88,43,77.91,43.37,78.93,43.76Z" fill="#480973"/>
            <path d="M78.21,51.12a.16.16,0,0,1-.13.19.15.15,0,0,1-.13,0,4,4,0,0,1-.24-.89.16.16,0,0,1,.32,0c0,.2.09.39.14.56A1.7,1.7,0,0,1,78.21,51.12Z" fill="#480973"/>
            <path d="M78.17,50.9c0-.17-.1-.36-.14-.56a.16.16,0,0,0-.32,0,4,4,0,0,0,.24.89l0-.06a8.24,8.24,0,0,1-.3-4.56.16.16,0,0,0,.32,0,.91.91,0,0,1,0-.23.13.13,0,0,1,0,.06A15.46,15.46,0,0,0,78.17,50.9Z" fill="#480973"/>
            <path d="M78,46.44a.91.91,0,0,0,0,.23.16.16,0,0,1-.32,0s0,0,0,0a1,1,0,0,1,0-.17A.16.16,0,0,1,78,46.44Z" fill="#480973"/>
            <path d="M76,43.05c0,1.75,0,3.5-.12,5.24-.29,2.74-.21,5.64-1.43,8.17a6.38,6.38,0,0,1-7.26,3.11.08.08,0,0,1-.07,0,.16.16,0,0,0,.27-.12v-.12a6.11,6.11,0,0,0,6.65-3c1.12-2.47,1.1-5.31,1.4-8,.12-1.77.2-3.54.23-5.32Z" fill="#480973"/>
            <path d="M76,42.78v.27l-.33-.11v-.16a.17.17,0,0,1,.33,0Z" fill="#480973"/>
            <path d="M75.84,42.63h0a.17.17,0,0,0-.22.15v.16c-2.16-.71-4.35-1.35-6.56-1.86v-.23a.17.17,0,0,0-.33,0,1,1,0,0,1,0,.17L68,40.83h-.31v-.18a.16.16,0,0,0-.16-.15.17.17,0,0,0-.17.16v.17c-2.48,0-5.37.09-7.95.19s-5.4.22-8.09.38v-.08a.16.16,0,0,0-.32,0,.57.57,0,0,1,0,.13l-.73,0a.16.16,0,0,0-.32,0c-5.13.34-10.25.86-15.33,1.66a.88.88,0,0,1,0-.16.17.17,0,0,0-.1-.17,183.19,183.19,0,0,1,24.87-2.28c2.82-.08,5.65-.14,8.47-.14,0,.07,0,.14,0,.21a.16.16,0,0,0,.14.14.17.17,0,0,0,.19-.13,1.23,1.23,0,0,1,0-.19A65.33,65.33,0,0,1,75.84,42.63Z" fill="#480973"/>
            <path d="M74.9,33.93c1.09,1.76,1,4,.87,6l-.32-.14a11.91,11.91,0,0,0-.79-5.52l.08,0-.12-.11a.59.59,0,0,0,0,.08A28.91,28.91,0,0,0,62.13,33a37.28,37.28,0,0,0-4.08.66c.09-.13.19-.26.27-.39A28.73,28.73,0,0,1,74.9,33.93Z" fill="#480973"/>
            <path d="M75.77,40a1.62,1.62,0,0,1,0,.22.14.14,0,0,1-.15.14l-.14-.06a.14.14,0,0,1,0-.09c0-.12,0-.24,0-.35Z" fill="#480973"/>
            <path d="M75.61,40.33a.13.13,0,0,1-.14-.06Z" fill="#480973"/>
            <path d="M75.44,40.18a.14.14,0,0,0,0,.09c-2.43-1-4.89-2-7.22-2.79a2.83,2.83,0,0,1,0-.29.16.16,0,0,0-.11-.14l0-.07c2.48.87,4.9,1.82,7.3,2.85C75.45,39.94,75.44,40.06,75.44,40.18Z" fill="#480973"/>
            <path d="M74.74,34.34l-.08,0a.59.59,0,0,1,0-.08Z" fill="#480973"/>
            <path d="M69.06,41.08c0,4.43-1.31,8.46-5.91,10a6.82,6.82,0,0,1-.88.26l-.41-.21a.16.16,0,0,0-.15.29s0,0,0,0a8.63,8.63,0,0,1-2,.1,8.2,8.2,0,0,0,2.37-.62,8.5,8.5,0,0,0,4.21-2.45c1.91-2,2.17-4.83,2.35-7.46A2.37,2.37,0,0,1,69.06,41.08Z" fill="#480973"/>
            <path d="M69.06,40.85v.23a2.37,2.37,0,0,0-.34-.08,1,1,0,0,0,0-.17A.17.17,0,0,1,69.06,40.85Z" fill="#480973"/>
            <path d="M68,40.83l.75.17c-.18,2.63-.44,5.48-2.35,7.46a8.5,8.5,0,0,1-4.21,2.45,8.94,8.94,0,0,0,5.21-6.51,15.29,15.29,0,0,0,.29-3.57Z" fill="#480973"/>
            <path d="M68.25,37.48a18.15,18.15,0,0,1,0,3l-.14,0h-.22a15.94,15.94,0,0,1,0-3l.16,0Z" fill="#480973"/>
            <path d="M68.23,37.19a2.83,2.83,0,0,0,0,.29l-.2-.07-.16,0a1.65,1.65,0,0,1,0-.21.16.16,0,0,1,.21-.13A.16.16,0,0,1,68.23,37.19Z" fill="#480973"/>
            <path d="M68.2,40.43a1.23,1.23,0,0,0,0,.19.17.17,0,0,1-.19.13.16.16,0,0,1-.14-.14c0-.07,0-.14,0-.21h.22Z" fill="#480973"/>
            <path d="M68.15,37l0,.07a.16.16,0,0,0-.21.13,1.65,1.65,0,0,0,0,.21,140,140,0,0,0-34.44,2v-.13a.16.16,0,0,0-.3-.08.17.17,0,0,1,.11-.09,137.65,137.65,0,0,1,19.21-2.33l-.39.07a.16.16,0,0,0,0,.32,7.2,7.2,0,0,0,2-.47,121.08,121.08,0,0,1,14,.31Z" fill="#480973"/>
            <path d="M67.66,40.83a15.29,15.29,0,0,1-.29,3.57,8.94,8.94,0,0,1-5.21,6.51,8.79,8.79,0,0,1-3.15.22.16.16,0,0,0,0,.31,7.8,7.8,0,0,0,.83.09l-.32,0a7.82,7.82,0,0,1-5.32-1.7h.1a.16.16,0,0,0,.15-.15.18.18,0,0,0-.09-.17l0,0a7.91,7.91,0,0,0,11.21-1.85,11.64,11.64,0,0,0,1.78-6.8Z" fill="#480973"/>
            <path d="M67.66,40.65v.18h-.33v-.17a.17.17,0,0,1,.17-.16A.16.16,0,0,1,67.66,40.65Z" fill="#480973"/>
            <path d="M67.34,59.41a.16.16,0,0,1-.27.12s0,0,0-.07a.17.17,0,0,1,.2-.2l.11,0Z" fill="#480973"/>
            <path d="M67.34,59.29l-.11,0a.17.17,0,0,0-.2.2s0,0,0,0a10.21,10.21,0,0,0-5.26-8l.51-.11A9.51,9.51,0,0,1,67.34,59.29Z" fill="#480973"/>
            <path d="M63.94,76.73c.09,0,.23,0,.21.17l0,.26-.4.1a3.31,3.31,0,0,0,.12-.42.15.15,0,0,1,.09-.1Z" fill="#480973"/>
            <path d="M63.92,76.74a.15.15,0,0,0-.09.1,3.31,3.31,0,0,1-.12.42c-.72.18-1.48.35-2.27.5A64.16,64.16,0,0,1,50,79.1c-3.83,0-7.71.18-11.45-.85a10,10,0,0,1-4.89-3c-3.13-3.77-3.88-9-3.49-13.69a11.24,11.24,0,0,1,8.38-10.07c.16.07.33.15.5.21-6,1.37-9,6.82-8.55,12.73.17,4.56,1.54,9.76,5.62,12.32,2.43,1.47,5.37,1.74,8.16,1.88a69.49,69.49,0,0,0,17-1.27C62.25,77.13,63.1,76.94,63.92,76.74Z" fill="#480973"/>
            <path d="M61.86,51.11l.41.21-.51.11s0,0,0,0A.16.16,0,0,1,61.86,51.11Z" fill="#480973"/>
            <path d="M60.6,22.06a4.61,4.61,0,0,1-.1,2.09h0l-.27.06c-.21,0-.13.37.06.32h.08a3.53,3.53,0,0,1-1.12,1.55.16.16,0,1,1-.21-.25,3.85,3.85,0,0,0,1.12-3.67c-.56-2.77-3.8-4.12-6.39-3.61A10,10,0,0,0,50.12,20L50,19.7a9.46,9.46,0,0,1,3.66-1.59C56.51,17.5,60,19,60.6,22.06Z" fill="#480973"/>
            <path d="M60.23,24.21l.27-.06a2.72,2.72,0,0,1-.13.37h-.08C60.1,24.58,60,24.25,60.23,24.21Z" fill="#480973"/>
            <path d="M59,51.13a8.79,8.79,0,0,0,3.15-.22,8.2,8.2,0,0,1-2.37.62,7.8,7.8,0,0,1-.83-.09A.16.16,0,0,1,59,51.13Z" fill="#480973"/>
            <path d="M59.7,56.51c.9-.44,1.77.47,1.84,1.36-.1,2.22-4.39,3.15-6.18,2.87A2.67,2.67,0,0,1,53.62,60a1.24,1.24,0,0,1,.44-1.85c1.13-.49,2.37-.19,3.51-.64A13,13,0,0,0,59.7,56.51Zm.15,2.92c.59-.33,1.35-.82,1.33-1.55s-.65-1.42-1.36-1.07a9.4,9.4,0,0,1-4.5,1.43,2.5,2.5,0,0,0-1,.26.79.79,0,0,0,.1,1.46A6.8,6.8,0,0,0,59.85,59.43Z" fill="#480973"/>
            <path d="M59.27,29.81a.16.16,0,0,1,.31.05,8,8,0,0,1-1.26,3.43l-.49.11c-.2,0-.11.36.08.31l.14,0a8.64,8.64,0,0,1-3.93,3l-1.65.08A8.86,8.86,0,0,0,59.27,29.81Z" fill="#480973"/>
            <path d="M57.83,33.4l.49-.11c-.08.13-.18.26-.27.39l-.14,0C57.72,33.76,57.63,33.44,57.83,33.4Z" fill="#480973"/>
            <path d="M54.31,49.52a.18.18,0,0,1,.09.17.16.16,0,0,1-.15.15h-.1a5,5,0,0,1-.42-.36l.52,0Z" fill="#480973"/>
            <path d="M54.34,49.48l0,0h-.06l-.52,0a7.94,7.94,0,0,1-2.44-3.94,5.86,5.86,0,0,0,.12-.84.16.16,0,0,0-.31-.08A11.5,11.5,0,0,1,51,41.42l.33,0a10,10,0,0,0,1.8,6.82A7.85,7.85,0,0,0,54.34,49.48Z" fill="#480973"/>
            <path d="M53.73,49.49a5,5,0,0,0,.42.36c-1,.07-2,.13-2.93.23s-2,.18-3,.23a4.72,4.72,0,0,0,.5-.41A26.78,26.78,0,0,1,53.73,49.49Z" fill="#480973"/>
            <path d="M52.47,36.74l1.65-.08a7.2,7.2,0,0,1-2,.47.16.16,0,0,1,0-.32Z" fill="#480973"/>
            <path d="M51.1,44.63a.16.16,0,0,1,.31.08,5.86,5.86,0,0,1-.12.84,4,4,0,0,1-.11-.5C51.15,44.91,51.12,44.77,51.1,44.63Z" fill="#480973"/>
            <path d="M51,41.29a.16.16,0,0,1,.32,0v.08l-.33,0A.57.57,0,0,0,51,41.29Z" fill="#480973"/>
            <path d="M51.18,45.05a4,4,0,0,0,.11.5,7.91,7.91,0,0,1-2.54,4.35l-.62.1a.16.16,0,0,0,0,.32h.09A8,8,0,0,1,43.62,52,7.77,7.77,0,0,0,46,51.1h0a8.31,8.31,0,0,0,5.1-6.42s0,0,0,0C51.12,44.77,51.15,44.91,51.18,45.05Z" fill="#480973"/>
            <path d="M51.1,44.63s0,0,0,0A8.31,8.31,0,0,1,46,51.09a8.44,8.44,0,0,0,4.1-6,16.46,16.46,0,0,0,.15-3.57h0l.73,0A11.5,11.5,0,0,0,51.1,44.63Z" fill="#480973"/>
            <path d="M50.12,20a6.24,6.24,0,0,1,.14,2.07.17.17,0,0,1-.33,0,5.7,5.7,0,0,0-.17-2,.14.14,0,0,0,.21,0Z" fill="#480973"/>
            <path d="M50.23,41.48a16.46,16.46,0,0,1-.15,3.57,8.44,8.44,0,0,1-4.1,6h0a8.15,8.15,0,0,1-2.78.61.16.16,0,0,0,0,.32h.43a7.51,7.51,0,0,1-4.53-.37l.11,0a.16.16,0,0,0-.07-.32,3.27,3.27,0,0,0-.54.13,7.9,7.9,0,0,1-2.32-1.67l.13-.26c.11-.18-.2-.34-.28-.14l-.09.14a6.86,6.86,0,0,1-1.56-3,9.86,9.86,0,0,1-.22-3.33l.33-.06c-.54,4.91,3.15,9.06,8.17,8.52a8.08,8.08,0,0,0,5.69-3.48,11.46,11.46,0,0,0,1.47-6.7l.32,0Z" fill="#480973"/>
            <path d="M50.23,41.47l-.32,0a.16.16,0,0,1,.32,0Z" fill="#480973"/>
            <path d="M50.12,20l-.15.1a.14.14,0,0,1-.21,0,.5.5,0,0,0,0-.13.11.11,0,0,1,.06-.1L50,19.7Z" fill="#480973"/>
            <path d="M50,19.7l-.25.17a.11.11,0,0,0-.06.1A7.45,7.45,0,0,0,45,15.13c-6-2-12.53,2.62-14.54,8.3-.72,2.09-1.28,4.82-.43,6.94a.1.1,0,0,0,0-.05,3.73,3.73,0,0,0-.48-.33c-.67-2.11-.14-4.69.54-6.71,2.05-5.93,8.79-10.68,15.1-8.57A7.8,7.8,0,0,1,50,19.7Z" fill="#480973"/>
            <path d="M49.72,20a.5.5,0,0,1,0,.13A.14.14,0,0,1,49.72,20Z" fill="#480973"/>
            <path d="M48.13,50l.62-.1a4.72,4.72,0,0,1-.5.41h-.09A.16.16,0,0,1,48.13,50Z" fill="#480973"/>
            <path d="M46,51.1a7.77,7.77,0,0,1-2.34.92h-.43a.16.16,0,0,1,0-.32A8.15,8.15,0,0,0,46,51.1Z" fill="#480973"/>
            <path d="M39.13,51.31a.16.16,0,0,1,.07.32l-.11,0c-.17-.06-.34-.14-.5-.21A3.27,3.27,0,0,1,39.13,51.31Z" fill="#480973"/>
            <path d="M36.12,49.37c.08-.2.39,0,.28.14l-.13.26a2,2,0,0,1-.24-.26Z" fill="#480973"/>
            <path d="M36,49.51a2,2,0,0,0,.24.26c-2.32,4.1-7.37,6-11.92,6-7.59-.27-11.92-9.09-10.39-15.9a13.47,13.47,0,0,1,9.16-10.08c2.05-.57,4.52-1,6.43.16a4.45,4.45,0,0,0,.19.51,4.79,4.79,0,0,0-3.1-.86A13,13,0,0,0,14.41,40c-1.42,6.54,2.65,15.08,10,15.38C28.77,55.39,33.8,53.49,36,49.51Z" fill="#480973"/>
            <path d="M34.5,42.82a.17.17,0,0,1,.1.17.88.88,0,0,0,0,.16l-.33.06c0-.09,0-.17,0-.25a.15.15,0,0,1,0-.1h0l.17,0Z" fill="#480973"/>
            <path d="M34.49,42.82l-.17,0A.15.15,0,0,1,34.49,42.82Z" fill="#480973"/>
            <path d="M33.72,43l.59-.1a.15.15,0,0,0,0,.1c0,.08,0,.16,0,.25l-.64.1a.16.16,0,0,1-.17-.1.16.16,0,0,0,.16.08.16.16,0,0,0,.14-.18S33.72,43,33.72,43Z" fill="#480973"/>
            <path d="M33.74,43.11a.16.16,0,0,1-.14.18.16.16,0,0,1-.16-.08,0,0,0,0,1,0,0v0a.16.16,0,0,1,.13-.18l.16,0S33.74,43.06,33.74,43.11Z" fill="#480973"/>
            <path d="M33.72,43l-.16,0a.16.16,0,0,0-.13.18v0a7.69,7.69,0,0,1-.3-3.95h0a.16.16,0,0,0,.19.14l.13,0A24,24,0,0,0,33.72,43Z" fill="#480973"/>
            <path d="M33.45,39.24v.13l-.13,0a.16.16,0,0,1-.19-.14h0v0s0,0,0-.06A.16.16,0,0,1,33.45,39.24Z" fill="#480973"/>
            <path d="M33.15,39.16s0,0,0,.06A.14.14,0,0,1,33.15,39.16Z" fill="#480973"/>
            <path d="M31.22,32.05c.18.12,0,.39-.2.25a4.74,4.74,0,0,1-1.28-1.8l.08.06a.15.15,0,0,0,.23,0,.14.14,0,0,0,0-.13A4.52,4.52,0,0,0,31.22,32.05Z" fill="#480973"/>
            <path d="M30.09,30.41a.14.14,0,0,1,0,.13.15.15,0,0,1-.23,0l-.08-.06a4.45,4.45,0,0,1-.19-.51,3.73,3.73,0,0,1,.48.33.1.1,0,0,1,0,.05Z" fill="#480973"/>
          </g>
        </g>
      </g>
    </g>
  </g>
</svg>
